<?xml version="1.0" encoding="UTF-8" standalone="no"?>
<svg
        xmlns:dc="http://purl.org/dc/elements/1.1/"
        xmlns:cc="http://creativecommons.org/ns#"
        xmlns:rdf="http://www.w3.org/1999/02/22-rdf-syntax-ns#"
        xmlns:svg="http://www.w3.org/2000/svg"
        xmlns="http://www.w3.org/2000/svg"
        xmlns:sodipodi="http://sodipodi.sourceforge.net/DTD/sodipodi-0.dtd"
        xmlns:inkscape="http://www.inkscape.org/namespaces/inkscape"
        inkscape:version="1.0 (4035a4fb49, 2020-05-01)"
        sodipodi:docname="achiev_navigation_statistics.svg"
        id="svg12"
        version="1.1"
        fill="none"
        viewBox="0 0 326 99"
        height="99"
        width="326">
    <metadata
            id="metadata18">
        <rdf:RDF>
            <cc:Work
                    rdf:about="">
                <dc:format>image/svg+xml</dc:format>
                <dc:type
                        rdf:resource="http://purl.org/dc/dcmitype/StillImage"/>
            </cc:Work>
        </rdf:RDF>
    </metadata>
    <defs
            id="defs16"/>
    <sodipodi:namedview
            inkscape:current-layer="svg12"
            inkscape:window-maximized="0"
            inkscape:window-y="221"
            inkscape:window-x="2730"
            inkscape:cy="49.5"
            inkscape:cx="163"
            inkscape:zoom="3.398773"
            showgrid="false"
            id="namedview14"
            inkscape:window-height="881"
            inkscape:window-width="1522"
            inkscape:pageshadow="2"
            inkscape:pageopacity="0"
            guidetolerance="10"
            gridtolerance="10"
            objecttolerance="10"
            borderopacity="1"
            bordercolor="#666666"
            pagecolor="#ffffff"/>
    <path
            style="fill:#ffffff"
            id="path2"
            fill="#ffffff"
            d="m 237.9167,34.7865 c 0.3217,0.2847 0.8432,0.2847 1.165,0 L 254.735,20.9326 c 1.6867,-1.4928 1.6867,-3.9132 0,-5.406 -1.6867,-1.4928 -4.4215,-1.4928 -6.1082,0 l -6.0075,5.317 V 3.64575 C 242.6193,1.63226 240.775,1.2517e-6 238.5,1.2517e-6 236.225,1.2517e-6 234.3807,1.63226 234.3807,3.64575 V 20.8436 l -6.0075,-5.3169 c -1.6867,-1.4928 -4.4215,-1.4928 -6.1082,0 -1.6867,1.4928 -1.6867,3.9131 0,5.4059 z"/>
    <rect
            id="rect4"
            fill="white"
            rx="18"
            height="41"
            width="326"
            y="58"
            opacity="0.25"/>
    <rect
            id="rect6"
            fill="white"
            rx="18"
            height="41"
            width="163"
            y="58"
            x="163"/>
    <path
            id="path8"
            fill="white"
            d="M25.2969 82.0703H20.1602L19.1836 85H16.0684L21.3613 70.7812H24.0762L29.3984 85H26.2832L25.2969 82.0703ZM20.9512 79.6973H24.5059L22.7188 74.375L20.9512 79.6973ZM40.1309 81.1035C40.0527 82.347 39.5612 83.3333 38.6562 84.0625C37.7578 84.7917 36.5729 85.1562 35.1016 85.1562C33.5195 85.1562 32.2728 84.6745 31.3613 83.7109C30.4564 82.7409 29.9909 81.4062 29.9648 79.707V79.0625C29.9648 77.3633 30.4238 76.0059 31.3418 74.9902C32.2663 73.9746 33.513 73.4668 35.082 73.4668C36.5534 73.4668 37.7318 73.8346 38.6172 74.5703C39.5026 75.306 40.0104 76.3216 40.1406 77.6172H37.3184C37.2533 76.3672 36.5078 75.7422 35.082 75.7422C33.5977 75.7422 32.8327 76.7806 32.7871 78.8574V79.5801C32.7871 80.7454 32.9661 81.5885 33.3242 82.1094C33.6888 82.6302 34.2812 82.8906 35.1016 82.8906C35.8112 82.8906 36.3451 82.7474 36.7031 82.4609C37.0677 82.1745 37.2663 81.722 37.2988 81.1035H40.1309ZM51.752 85H48.9297V80.5664H44.4277V85H41.5957V73.623H44.4277V78.291H48.9297V73.623H51.752V85ZM56.7227 85H53.8906V73.623H56.7227V85ZM66.3906 80.2637H61.6934V82.7344H67.2207V85H58.8613V73.623H67.2305V75.9082H61.6934V77.9883H66.3906V80.2637ZM73.0801 81.875L73.1875 82.4121L73.2949 81.9043L75.9121 73.623H78.8809L74.7207 85H71.6738L67.5332 73.623H70.4922L73.0801 81.875ZM87.3672 80.2637H82.6699V82.7344H88.1973V85H79.8379V73.623H88.207V75.9082H82.6699V77.9883H87.3672V80.2637ZM93.207 73.623L96.0488 81.2891L98.8711 73.623H102.611V85H99.7695V82.6953L100.062 76.7188L96.9863 85H95.1016L92.0352 76.748L92.3281 82.6953V85H89.4863V73.623H93.207ZM112.094 80.2637H107.396V82.7344H112.924V85H104.564V73.623H112.934V75.9082H107.396V77.9883H112.094V80.2637ZM124.359 85H121.537L117.045 77.9102V85H114.213V73.623H117.045L121.537 80.7227V73.623H124.359V85ZM135.795 75.9082H132.104V85H129.271V75.9082H125.648V73.623H135.795V75.9082ZM143.432 81.9434C143.432 81.5658 143.272 81.263 142.953 81.0352C142.634 80.8073 142.09 80.6022 141.322 80.4199C140.554 80.2376 139.906 80.0456 139.379 79.8438C138.858 79.6354 138.428 79.3913 138.09 79.1113C137.751 78.8314 137.501 78.5091 137.338 78.1445C137.175 77.7734 137.094 77.334 137.094 76.8262C137.094 75.8496 137.501 75.0456 138.314 74.4141C139.128 73.7826 140.176 73.4668 141.459 73.4668C142.859 73.4668 143.988 73.7858 144.848 74.4238C145.714 75.0553 146.146 75.9212 146.146 77.0215H143.324C143.324 76.6048 143.155 76.2565 142.816 75.9766C142.484 75.6966 142.035 75.5566 141.469 75.5566C140.967 75.5566 140.561 75.6673 140.248 75.8887C139.936 76.11 139.779 76.3867 139.779 76.7188C139.779 77.0508 139.942 77.321 140.268 77.5293C140.593 77.7311 141.133 77.9264 141.889 78.1152C143.406 78.4473 144.49 78.9062 145.141 79.4922C145.798 80.0781 146.127 80.8691 146.127 81.8652C146.127 82.8809 145.727 83.6849 144.926 84.2773C144.125 84.8633 143.031 85.1562 141.645 85.1562C140.701 85.1562 139.848 85.0033 139.086 84.6973C138.324 84.3913 137.735 83.9551 137.318 83.3887C136.908 82.8223 136.703 82.1517 136.703 81.377H139.535C139.535 81.9824 139.721 82.4186 140.092 82.6855C140.469 82.9525 141.033 83.0859 141.781 83.0859C142.289 83.0859 142.689 82.9818 142.982 82.7734C143.282 82.5651 143.432 82.2884 143.432 81.9434Z"/>
    <path
            id="path10"
            fill="#5B5D6E"
            d="M197.643 81.2695C197.643 80.7161 197.447 80.293 197.057 80C196.666 79.7005 195.963 79.388 194.947 79.0625C193.932 78.7305 193.128 78.4049 192.535 78.0859C190.921 77.2135 190.113 76.0384 190.113 74.5605C190.113 73.7923 190.328 73.1087 190.758 72.5098C191.194 71.9043 191.816 71.4323 192.623 71.0938C193.437 70.7552 194.348 70.5859 195.357 70.5859C196.373 70.5859 197.278 70.7715 198.072 71.1426C198.867 71.5072 199.482 72.0247 199.918 72.6953C200.361 73.3659 200.582 74.1276 200.582 74.9805H197.652C197.652 74.3294 197.447 73.8249 197.037 73.4668C196.627 73.1022 196.051 72.9199 195.309 72.9199C194.592 72.9199 194.036 73.0729 193.639 73.3789C193.242 73.6784 193.043 74.0755 193.043 74.5703C193.043 75.0326 193.274 75.4199 193.736 75.7324C194.205 76.0449 194.892 76.3379 195.797 76.6113C197.464 77.1126 198.678 77.7344 199.439 78.4766C200.201 79.2188 200.582 80.1432 200.582 81.25C200.582 82.4805 200.117 83.4473 199.186 84.1504C198.255 84.847 197.001 85.1953 195.426 85.1953C194.332 85.1953 193.336 84.9967 192.438 84.5996C191.539 84.196 190.852 83.6458 190.377 82.9492C189.908 82.2526 189.674 81.4453 189.674 80.5273H192.613C192.613 82.0964 193.551 82.8809 195.426 82.8809C196.122 82.8809 196.666 82.7409 197.057 82.4609C197.447 82.1745 197.643 81.7773 197.643 81.2695ZM211.764 75.9082H208.072V85H205.24V75.9082H201.617V73.623H211.764V75.9082ZM220.133 82.832H215.729L214.928 85H212.096L216.598 73.623H219.254L223.795 85H220.943L220.133 82.832ZM216.49 80.7617H219.352L217.916 76.9141L216.49 80.7617ZM233.619 75.9082H229.928V85H227.096V75.9082H223.473V73.623H233.619V75.9082ZM237.945 85H235.113V73.623H237.945V85ZM246.412 81.9434C246.412 81.5658 246.253 81.263 245.934 81.0352C245.615 80.8073 245.071 80.6022 244.303 80.4199C243.535 80.2376 242.887 80.0456 242.359 79.8438C241.839 79.6354 241.409 79.3913 241.07 79.1113C240.732 78.8314 240.481 78.5091 240.318 78.1445C240.156 77.7734 240.074 77.334 240.074 76.8262C240.074 75.8496 240.481 75.0456 241.295 74.4141C242.109 73.7826 243.157 73.4668 244.439 73.4668C245.839 73.4668 246.969 73.7858 247.828 74.4238C248.694 75.0553 249.127 75.9212 249.127 77.0215H246.305C246.305 76.6048 246.135 76.2565 245.797 75.9766C245.465 75.6966 245.016 75.5566 244.449 75.5566C243.948 75.5566 243.541 75.6673 243.229 75.8887C242.916 76.11 242.76 76.3867 242.76 76.7188C242.76 77.0508 242.923 77.321 243.248 77.5293C243.574 77.7311 244.114 77.9264 244.869 78.1152C246.386 78.4473 247.47 78.9062 248.121 79.4922C248.779 80.0781 249.107 80.8691 249.107 81.8652C249.107 82.8809 248.707 83.6849 247.906 84.2773C247.105 84.8633 246.012 85.1562 244.625 85.1562C243.681 85.1562 242.828 85.0033 242.066 84.6973C241.305 84.3913 240.715 83.9551 240.299 83.3887C239.889 82.8223 239.684 82.1517 239.684 81.377H242.516C242.516 81.9824 242.701 82.4186 243.072 82.6855C243.45 82.9525 244.013 83.0859 244.762 83.0859C245.27 83.0859 245.67 82.9818 245.963 82.7734C246.262 82.5651 246.412 82.2884 246.412 81.9434ZM260.299 75.9082H256.607V85H253.775V75.9082H250.152V73.623H260.299V75.9082ZM264.625 85H261.793V73.623H264.625V85ZM276.588 81.1035C276.51 82.347 276.018 83.3333 275.113 84.0625C274.215 84.7917 273.03 85.1562 271.559 85.1562C269.977 85.1562 268.73 84.6745 267.818 83.7109C266.913 82.7409 266.448 81.4062 266.422 79.707V79.0625C266.422 77.3633 266.881 76.0059 267.799 74.9902C268.723 73.9746 269.97 73.4668 271.539 73.4668C273.01 73.4668 274.189 73.8346 275.074 74.5703C275.96 75.306 276.467 76.3216 276.598 77.6172H273.775C273.71 76.3672 272.965 75.7422 271.539 75.7422C270.055 75.7422 269.29 76.7806 269.244 78.8574V79.5801C269.244 80.7454 269.423 81.5885 269.781 82.1094C270.146 82.6302 270.738 82.8906 271.559 82.8906C272.268 82.8906 272.802 82.7474 273.16 82.4609C273.525 82.1745 273.723 81.722 273.756 81.1035H276.588ZM284.381 81.9434C284.381 81.5658 284.221 81.263 283.902 81.0352C283.583 80.8073 283.04 80.6022 282.271 80.4199C281.503 80.2376 280.855 80.0456 280.328 79.8438C279.807 79.6354 279.378 79.3913 279.039 79.1113C278.701 78.8314 278.45 78.5091 278.287 78.1445C278.124 77.7734 278.043 77.334 278.043 76.8262C278.043 75.8496 278.45 75.0456 279.264 74.4141C280.077 73.7826 281.126 73.4668 282.408 73.4668C283.808 73.4668 284.938 73.7858 285.797 74.4238C286.663 75.0553 287.096 75.9212 287.096 77.0215H284.273C284.273 76.6048 284.104 76.2565 283.766 75.9766C283.434 75.6966 282.984 75.5566 282.418 75.5566C281.917 75.5566 281.51 75.6673 281.197 75.8887C280.885 76.11 280.729 76.3867 280.729 76.7188C280.729 77.0508 280.891 77.321 281.217 77.5293C281.542 77.7311 282.083 77.9264 282.838 78.1152C284.355 78.4473 285.439 78.9062 286.09 79.4922C286.747 80.0781 287.076 80.8691 287.076 81.8652C287.076 82.8809 286.676 83.6849 285.875 84.2773C285.074 84.8633 283.98 85.1562 282.594 85.1562C281.65 85.1562 280.797 85.0033 280.035 84.6973C279.273 84.3913 278.684 83.9551 278.268 83.3887C277.857 82.8223 277.652 82.1517 277.652 81.377H280.484C280.484 81.9824 280.67 82.4186 281.041 82.6855C281.419 82.9525 281.982 83.0859 282.73 83.0859C283.238 83.0859 283.639 82.9818 283.932 82.7734C284.231 82.5651 284.381 82.2884 284.381 81.9434Z"/>
</svg>
