<?xml version="1.0" encoding="UTF-8" standalone="no"?>
<svg
        xmlns:dc="http://purl.org/dc/elements/1.1/"
        xmlns:cc="http://creativecommons.org/ns#"
        xmlns:rdf="http://www.w3.org/1999/02/22-rdf-syntax-ns#"
        xmlns:svg="http://www.w3.org/2000/svg"
        xmlns="http://www.w3.org/2000/svg"
        xmlns:sodipodi="http://sodipodi.sourceforge.net/DTD/sodipodi-0.dtd"
        xmlns:inkscape="http://www.inkscape.org/namespaces/inkscape"
        inkscape:version="1.0 (4035a4fb49, 2020-05-01)"
        sodipodi:docname="achievement_example.svg"
        id="svg53"
        version="1.1"
        fill="none"
        viewBox="0 0 117.67316 142.324"
        height="159.12"
        width="117.67316">
    <metadata
            id="metadata57">
        <rdf:RDF>
            <cc:Work
                    rdf:about="">
                <dc:format>image/svg+xml</dc:format>
                <dc:type
                        rdf:resource="http://purl.org/dc/dcmitype/StillImage"/>
                <dc:title></dc:title>
            </cc:Work>
        </rdf:RDF>
    </metadata>
    <sodipodi:namedview
            inkscape:current-layer="svg53"
            inkscape:window-maximized="1"
            inkscape:window-y="-9"
            inkscape:window-x="-9"
            inkscape:cy="85.812523"
            inkscape:cx="52.495013"
            inkscape:zoom="3.5705991"
            inkscape:snap-others="true"
            showgrid="false"
            id="namedview55"
            inkscape:window-height="1001"
            inkscape:window-width="1920"
            inkscape:pageshadow="2"
            inkscape:pageopacity="0"
            guidetolerance="10"
            gridtolerance="10"
            objecttolerance="10"
            borderopacity="1"
            bordercolor="#666666"
            pagecolor="#ffffff"/>
    <ellipse
            id="ellipse2"
            fill="#ffffff"
            ry="49.255001"
            rx="49.3452"
            cy="48.423698"
            cx="58.74437"/>
    <path
            id="path4"
            fill="#dfdfdf"
            d="m 117.48817,49.606 c 0,32.6433 -26.300203,59.106 -58.743806,59.106 C 26.300764,108.712 0,82.2493 0,49.606 0,16.9626 26.300764,-9.5 58.744364,-9.5 c 32.443603,0 58.743806,26.4626 58.743806,59.106 z m -99.620206,0 c 0,22.7143 18.301,41.128 40.8764,41.128 22.5754,0 40.876803,-18.4137 40.876803,-41.128 0,-22.7144 -18.301403,-41.1281004 -40.876803,-41.1281004 -22.5754,0 -40.8764,18.4137004 -40.8764,41.1281004 z"/>
    <path
            id="path6"
            fill="#97bf78"
            d="m 117.48817,49.606 c 0,32.6433 -26.300203,59.106 -58.743806,59.106 C 26.300764,108.712 0,82.2493 0,49.606 0,16.9626 26.300764,-9.5 58.744364,-9.5 c 32.443603,0 58.743806,26.4626 58.743806,59.106 z m -99.620206,0 c 0,22.7143 18.301,41.128 40.8764,41.128 22.5754,0 40.876803,-18.4137 40.876803,-41.128 0,-22.7144 -18.301403,-41.1281004 -40.876803,-41.1281004 -22.5754,0 -40.8764,18.4137004 -40.8764,41.1281004 z"/>
    <path
            id="path8"
            fill="#66bf91"
            d="m 14.190464,147.911 h -13.043 v -1.819 l 6.89062,-7.656 c 1.02084,-1.158 1.72268,-2.096 2.10548,-2.816 0.3919,-0.73 0.5879,-1.481 0.5879,-2.256 0,-1.039 -0.3145,-1.892 -0.9434,-2.557 -0.62888,-0.665 -1.46743,-0.998 -2.5156,-0.998 -1.25782,0 -2.23763,0.36 -2.93946,1.08 -0.6927,0.711 -1.03906,1.705 -1.03906,2.981 h -2.5293 c 0,-1.832 0.5879,-3.314 1.76368,-4.444 1.18489,-1.13 2.76627,-1.695 4.74414,-1.695 1.85026,0 3.3131,0.488 4.3887,1.463 1.0755,0.966 1.6132,2.256 1.6132,3.869 0,1.96 -1.2486,4.293 -3.746,7 l -5.33208,5.783 h 9.99418 z m 15.1621,-8.491 c 0,2.963 -0.5059,5.164 -1.5176,6.604 -1.0117,1.44 -2.5931,2.16 -4.7441,2.16 -2.1237,0 -3.696,-0.702 -4.7168,-2.105 -1.0209,-1.413 -1.5495,-3.519 -1.586,-6.317 v -3.377 c 0,-2.926 0.5059,-5.099 1.5176,-6.521 1.0117,-1.422 2.5977,-2.133 4.7578,-2.133 2.1419,0 3.7188,0.688 4.7305,2.064 1.0117,1.368 1.5312,3.482 1.5586,6.344 z m -2.5293,-3.459 c 0,-2.142 -0.3008,-3.7 -0.9024,-4.675 -0.6015,-0.985 -1.554,-1.477 -2.8574,-1.477 -1.2943,0 -2.2376,0.488 -2.8301,1.463 -0.5924,0.975 -0.8978,2.475 -0.916,4.498 v 4.047 c 0,2.151 0.3099,3.741 0.9297,4.771 0.6289,1.021 1.5768,1.532 2.8438,1.532 1.2487,0 2.1738,-0.483 2.7753,-1.45 0.6107,-0.966 0.9297,-2.488 0.9571,-4.566 z m 18.2519,3.459 c 0,2.963 -0.5058,5.164 -1.5175,6.604 -1.0118,1.44 -2.5931,2.16 -4.7442,2.16 -2.1237,0 -3.696,-0.702 -4.7168,-2.105 -1.0208,-1.413 -1.5495,-3.519 -1.5859,-6.317 v -3.377 c 0,-2.926 0.5058,-5.099 1.5176,-6.521 1.0117,-1.422 2.5976,-2.133 4.7578,-2.133 2.1419,0 3.7187,0.688 4.7304,2.064 1.0118,1.368 1.5313,3.482 1.5586,6.344 z m -2.5293,-3.459 c 0,-2.142 -0.3007,-3.7 -0.9023,-4.675 -0.6016,-0.985 -1.554,-1.477 -2.8574,-1.477 -1.2943,0 -2.2377,0.488 -2.8301,1.463 -0.5925,0.975 -0.8978,2.475 -0.916,4.498 v 4.047 c 0,2.151 0.3099,3.741 0.9297,4.771 0.6289,1.021 1.5768,1.532 2.8437,1.532 1.2487,0 2.1738,-0.483 2.7754,-1.45 0.6107,-0.966 0.9297,-2.488 0.957,-4.566 z m 13.4805,13.659 h -2.1738 l 8.3125,-21.616 h 2.1601 z m 30.7617,-1.709 h -13.0429 v -1.819 l 6.8906,-7.656 c 1.0208,-1.158 1.7226,-2.096 2.1054,-2.816 0.392,-0.73 0.5879,-1.481 0.5879,-2.256 0,-1.039 -0.3144,-1.892 -0.9433,-2.557 -0.6289,-0.665 -1.4675,-0.998 -2.5156,-0.998 -1.2579,0 -2.2377,0.36 -2.9395,1.08 -0.6927,0.711 -1.0391,1.705 -1.0391,2.981 h -2.5293 c 0,-1.832 0.5879,-3.314 1.7637,-4.444 1.1849,-1.13 2.7663,-1.695 4.7442,-1.695 1.8502,0 3.3131,0.488 4.3886,1.463 1.0755,0.966 1.6133,2.256 1.6133,3.869 0,1.96 -1.2487,4.293 -3.7461,7 l -5.332,5.783 h 9.9941 z m 15.162106,-8.491 c 0,2.963 -0.506,5.164 -1.518,6.604 -1.011303,1.44 -2.592603,2.16 -4.743703,2.16 -2.1237,0 -3.696,-0.702 -4.7168,-2.105 -1.0208,-1.413 -1.549503,-3.519 -1.585903,-6.317 v -3.377 c 0,-2.926 0.505803,-5.099 1.517603,-6.521 1.0117,-1.422 2.5976,-2.133 4.7578,-2.133 2.1419,0 3.7187,0.688 4.730003,2.064 1.012,1.368 1.532,3.482 1.559,6.344 z m -2.529303,-3.459 c 0,-2.142 -0.3007,-3.7 -0.9023,-4.675 -0.6016,-0.985 -1.554,-1.477 -2.8574,-1.477 -1.2943,0 -2.2377,0.488 -2.8301,1.463 -0.5925,0.975 -0.8978,2.475 -0.916,4.498 v 4.047 c 0,2.151 0.3099,3.741 0.9297,4.771 0.6289,1.021 1.5768,1.532 2.8437,1.532 1.2487,0 2.1738,-0.483 2.7754,-1.45 0.6107,-0.966 0.9297,-2.488 0.957,-4.566 z m 18.252303,3.459 c 0,2.963 -0.506,5.164 -1.518,6.604 -1.012,1.44 -2.593,2.16 -4.744,2.16 -2.124,0 -3.696,-0.702 -4.717,-2.105 -1.021,-1.413 -1.549,-3.519 -1.586,-6.317 v -3.377 c 0,-2.926 0.506,-5.099 1.518,-6.521 1.012,-1.422 2.597,-2.133 4.758,-2.133 2.142,0 3.718,0.688 4.73,2.064 1.012,1.368 1.531,3.482 1.559,6.344 z m -2.53,-3.459 c 0,-2.142 -0.3,-3.7 -0.902,-4.675 -0.602,-0.985 -1.554,-1.477 -2.857,-1.477 -1.295,0 -2.238,0.488 -2.83,1.463 -0.593,0.975 -0.898,2.475 -0.916,4.498 v 4.047 c 0,2.151 0.309,3.741 0.929,4.771 0.629,1.021 1.577,1.532 2.844,1.532 1.249,0 2.174,-0.483 2.775,-1.45 0.611,-0.966 0.93,-2.488 0.957,-4.566 z"/>
    <g
            transform="translate(-0.5068364,-9.5)"
            id="g46"
            clip-path="url(#clip0)">
        <path
                id="path10"
                fill="#d09080"
                d="m 58.2739,49.2297 h 2.4917 V 76.863 h -2.4917 z"
                clip-rule="evenodd"
                fill-rule="evenodd"/>
        <path
                id="path12"
                fill="#477b9e"
                d="m 69.0827,84.5552 c 2.1999,3.8349 4.4001,7.6697 6.6002,11.5047 L 91.8485,124.23 H 27.191 L 43.3565,96.0599 c 2.2007,-3.8338 4.4013,-7.6686 6.6019,-11.5037 z"
                clip-rule="evenodd"
                fill-rule="evenodd"/>
        <path
                id="path14"
                fill="#e1f1ff"
                d="m 49.9591,84.5568 7.9667,5.6677 c 1.1136,0.7143 2.1761,0.7189 3.1923,0 l 7.9621,-5.6677 c -2.8117,-4.9021 -5.6235,-9.8039 -8.4353,-14.7013 -0.6358,-1.1017 -1.6427,-1.0644 -2.255,0.0046 -2.8119,4.8974 -5.619,9.7994 -8.4308,14.6967 z"
                clip-rule="evenodd"
                fill-rule="evenodd"/>
        <path
                id="path16"
                fill="#365e7d"
                d="m 100.493,121.826 c 0.691,1.204 0,2.404 -1.3785,2.404 H 69.5581 c -1.3688,0 -2.0602,-1.186 -1.3921,-2.381 l 7.4007,-12.899 2.4483,-4.268 12.6396,0.002 c 3.2795,5.715 6.5586,11.429 9.8384,17.142 z"
                clip-rule="evenodd"
                fill-rule="evenodd"/>
        <path
                id="path18"
                fill="#365e7d"
                d="m 34.3825,109.776 c 2.3064,4.02 4.6134,8.038 6.9183,12.059 0.6821,1.2 -0.0094,2.395 -1.3827,2.395 H 19.716 c -1.3827,0 -2.0695,-1.2 -1.3827,-2.404 2.3052,-4.018 4.6106,-8.034 6.9158,-12.051 z"
                clip-rule="evenodd"
                fill-rule="evenodd"/>
        <path
                id="path20"
                fill="#cf4351"
                d="M 94.79,61.4334 H 72.9775 C 72.2398,61.3306 71.6598,60.7425 71.5531,60.0002 V 48.5156 H 94.79 c 0.4222,0.028 0.5336,0.2474 0.3339,0.6677 l -4.329,5.7889 4.329,5.7889 c 0.1626,0.2242 0.0419,0.6677 -0.3339,0.6723 z"
                clip-rule="evenodd"
                fill-rule="evenodd"/>
        <path
                id="path22"
                fill="#bd3341"
                d="m 71.5531,57.9459 v -9.4305 h 14.9916 v 6.5641 c -0.2041,1.4846 -1.3734,2.6612 -2.8488,2.8666 H 71.5531 Z"
                clip-rule="evenodd"
                fill-rule="evenodd"/>
        <path
                id="path24"
                fill="#ff6978"
                d="M 82.1695,54.9722 H 59.6983 c -0.7377,-0.1027 -1.3178,-0.6909 -1.4246,-1.4286 v -10.056 c 0.1068,-0.7423 0.6867,-1.3306 1.4246,-1.4334 h 22.4712 c 0.733,0.1028 1.3177,0.6911 1.4198,1.4334 v 10.056 c -0.1019,0.7375 -0.6866,1.3258 -1.4198,1.4286 z"
                clip-rule="evenodd"
                fill-rule="evenodd"/>
        <path
                id="path26"
                fill="#e1f1ff"
                d="m 78.0168,104.683 5.141,3.655 c 0.826,0.542 1.6146,0.56 2.3571,0 l 5.1412,-3.655 C 88.7676,101.396 86.8837,98.1143 85,94.8277 c -0.376,-0.6536 -0.9699,-0.6303 -1.3318,0 -1.8839,3.2865 -3.7676,6.5683 -5.6514,9.8553 z"
                clip-rule="evenodd"
                fill-rule="evenodd"/>
        <path
                id="path28"
                fill="#e1f1ff"
                d="m 25.2513,109.776 3.7305,2.657 c 0.5569,0.392 1.1136,0.392 1.6657,0 l 3.7352,-2.657 c -1.3038,-2.268 -2.603,-4.533 -3.9022,-6.797 -0.3758,-0.653 -0.9698,-0.63 -1.3317,0 -1.2991,2.264 -2.5983,4.533 -3.8975,6.797 z"
                clip-rule="evenodd"
                fill-rule="evenodd"/>
        <path
                id="path30"
                fill="#e1f1ff"
                d="m 42.4841,65.8499 h 0.0046 c 3.1318,0 5.6978,2.5817 5.6978,5.733 0,3.1513 -2.566,5.7331 -5.6978,5.7331 H 22.653 c -3.1318,-2e-4 -5.6978,-2.5819 -5.6978,-5.7332 0,-3.1513 2.566,-5.7331 5.6978,-5.7331 0,-4.043 3.2573,-7.325 7.2801,-7.325 2.5288,0 4.756,1.2979 6.0597,3.268 0.6682,-0.4527 1.4755,-0.7189 2.3432,-0.7189 2.3154,0 4.1852,1.8861 4.1852,4.211 0,0.1915 -0.0093,0.3783 -0.0371,0.5651 z"
                clip-rule="evenodd"
                fill-rule="evenodd"/>
        <path
                id="path32"
                fill="#cbe2ff"
                d="m 45.1102,68.4876 c 0,3.1559 -2.561,5.7329 -5.6978,5.7329 H 19.5813 c -0.7749,0 -1.5126,-0.154 -2.1854,-0.4387 0.8584,2.0681 2.8954,3.534 5.2571,3.534 h 19.8358 c 3.1318,0 5.6978,-2.5818 5.6978,-5.7331 0,-2.3762 -1.457,-4.4257 -3.5124,-5.2941 0.283,0.6817 0.436,1.4239 0.436,2.199 z"
                clip-rule="evenodd"
                fill-rule="evenodd"/>
        <path
                id="path34"
                fill="#365e7d"
                d="m 71.5903,96.06 5.6887,9.911 0.7377,-1.288 1.3084,-2.278 -3.6424,-6.345 -6.6026,-11.5034 -2.9046,2.0683 z"
                clip-rule="evenodd"
                fill-rule="evenodd"/>
        <path
                id="path36"
                fill="#cbe2ff"
                d="m 60.5754,76.863 5.6002,9.762 2.9047,-2.0682 -8.3147,-14.4959 -0.1161,-0.2054 c -0.0046,0 -0.0046,0 -0.0046,0 -0.3156,-0.5461 -0.7192,-0.8123 -1.1229,-0.8123 -0.413,0 -0.8214,0.2802 -1.1322,0.8169 l -0.1161,0.2008 -0.7981,1.3959 0.7981,1.4006 1.2483,2.1663 z"
                clip-rule="evenodd"
                fill-rule="evenodd"/>
        <path
                id="path38"
                fill="#294b64"
                d="m 87.7465,106.751 c 2.8862,5.023 5.7674,10.051 8.6534,15.075 0.6914,1.204 0,2.404 -1.3779,2.404 h 4.0924 c 1.3776,0 2.0696,-1.2 1.3776,-2.404 -3.28,-5.715 -6.5604,-11.429 -9.8361,-17.143 z"
                clip-rule="evenodd"
                fill-rule="evenodd"/>
        <path
                id="path40"
                fill="#cbe2ff"
                d="m 82.2899,97.2365 c 1.8189,3.1705 3.6377,6.3395 5.4566,9.5145 l 2.9046,-2.068 c -1.8839,-3.287 -3.7678,-6.5687 -5.6513,-9.8553 -0.376,-0.6536 -0.9699,-0.6303 -1.3318,0 z"
                clip-rule="evenodd"
                fill-rule="evenodd"/>
        <path
                id="path42"
                fill="#294b64"
                d="m 32.8886,114.305 4.3199,7.53 c 0.6821,1.2 -0.0093,2.395 -1.3827,2.395 h 4.0924 c 1.3735,0 2.0648,-1.195 1.3827,-2.395 l -6.366,-11.097 -0.5521,-0.962 -2.9093,2.069 z"
                clip-rule="evenodd"
                fill-rule="evenodd"/>
        <path
                id="path44"
                fill="#cbe2ff"
                d="m 27.7709,105.383 3.7028,6.462 2.9093,-2.069 -3.9022,-6.797 c -0.3758,-0.653 -0.9699,-0.63 -1.3318,0 z"
                clip-rule="evenodd"
                fill-rule="evenodd"/>
    </g>
    <defs
            id="defs51">
        <clipPath
                id="clip0">
            <rect
                    y="0"
                    x="0"
                    id="rect48"
                    transform="translate(16.9552,40.98)"
                    fill="#ffffff"
                    height="84.324501"
                    width="83.808601"/>
        </clipPath>
    </defs>
</svg>
