<svg id="Capa_1" enable-background="new 0 0 512 512" height="512" viewBox="0 0 512 512" width="512"
     xmlns="http://www.w3.org/2000/svg">
    <g>
        <path d="m459.185 504.5h-300.334c-23.473 0-42.502-19.029-42.502-42.503v-411.995c0-23.473 19.029-42.502 42.502-42.502h300.334c23.474 0 42.503 19.029 42.503 42.502v411.995c0 23.474-19.029 42.503-42.503 42.503z"
              fill="#fbf1cf"/>
        <path d="m278.526 337.214c-4.407-19.259-17.828-34.317-35.254-41.182-3.455-18.596-5.664-47.051-6.5-74.295 10.559-5.895 18.717-15.754 22.408-28.042 4.606-15.336 1.768-31.502-7.789-44.351-1.729-2.325-3.624-4.469-5.665-6.424 2.168-6.105 3.991-12.485 5.462-19.124 3.023-13.653-.252-27.726-8.988-38.607-8.82-10.987-21.898-17.288-35.881-17.288-4.961 0-9.844.8-14.558 2.381-6.511-26.685-30.62-46.552-59.281-46.552-2.498 0-4.96.16-7.38.453-5.484 7.158-8.749 16.105-8.749 25.819v363.44h123.777c13.626 0 26.312-6.111 34.806-16.767 8.493-10.656 11.621-24.386 8.581-37.671z"
              fill="#fae0bd"/>
        <g>
            <ellipse cx="132.478" cy="84.744" fill="#eec076" rx="31.013" ry="31.013"
                     transform="matrix(.974 -.227 .227 .974 -15.764 32.245)"/>
            <path d="m203.893 159.126c9.492-13.141 14.995-28.23 18.004-41.815 2.779-12.551-9.791-23.083-21.675-18.182-25.479 10.506-44.984 4.536-58.124-5.342-5.721-4.3-13.518-4.3-19.239 0-13.14 9.878-32.645 15.847-58.124 5.342-11.884-4.9-24.454 5.632-21.675 18.182 3.009 13.585 8.512 28.674 18.004 41.815z"
                  fill="#daa985"/>
            <path d="m219.245 321.975c-11.08-27.986-12.853-99.502-12.853-124.19h-147.828c0 24.688-1.773 96.204-12.853 124.19z"
                  fill="#daa985"/>
            <path d="m206.983 227.785c-.45-12.37-.591-23.044-.591-30h-147.828c0 6.956-.141 17.63-.591 30z"
                  fill="#d2896f"/>
            <path d="m213.346 197.785h-161.735c-7.883 0-14.834-5.17-17.102-12.72-3.883-12.926 5.796-25.939 19.293-25.939h157.353c13.497 0 23.175 13.013 19.293 25.939-2.268 7.55-9.219 12.72-17.102 12.72z"
                  fill="#f2d98d"/>
            <path d="m111.508 159.126h-57.706c-13.497 0-23.176 13.013-19.293 25.939 2.268 7.55 9.218 12.72 17.102 12.72h71.078c-14.107-7.776-15.698-27.809-11.181-38.659z"
                  fill="#eec076"/>
            <path d="m221.765 321.975h-178.573c-13.164 0-24.581 9.099-27.518 21.932l-4.986 21.791c-2.079 9.084 4.824 17.745 14.143 17.745h215.295c9.319 0 16.222-8.66 14.143-17.745l-4.987-21.791c-2.936-12.833-14.353-21.932-27.517-21.932z"
                  fill="#e7c7af"/>
        </g>
        <path d="m359.166 45.557h-100.296c-8.745 0-15.833 7.089-15.833 15.833v11.71c0 8.745 7.089 15.833 15.833 15.833h100.296c8.745 0 15.833-7.089 15.833-15.833v-11.71c.001-8.744-7.088-15.833-15.833-15.833z"
              fill="#e7889d"/>
        <g>
            <g fill="#eda1ab">
                <ellipse cx="225.453" cy="462.589" rx="30.834" ry="24.555"/>
                <ellipse cx="392.583" cy="462.589" rx="30.834" ry="24.555"/>
            </g>
        </g>
        <path d="m235.923 426.65v12c0 4.143 3.358 7.5 7.5 7.5s7.5-3.357 7.5-7.5v-12c0-4.143-3.358-7.5-7.5-7.5s-7.5 3.358-7.5 7.5zm84.735 6.999c-2.939 3.372-7.181 5.306-11.64 5.306s-8.701-1.934-11.64-5.306c-2.723-3.122-7.46-3.447-10.582-.727-3.122 2.722-3.448 7.459-.727 10.582 5.788 6.642 14.152 10.45 22.948 10.45s17.16-3.809 22.948-10.45c2.722-3.123 2.396-7.86-.727-10.582-3.123-2.72-7.859-2.396-10.58.727zm181.029-377.736c-4.142 0-7.5 3.357-7.5 7.5v398.585c0 19.3-15.702 35.002-35.002 35.002h-274.031c-4.142 0-7.5 3.357-7.5 7.5s3.358 7.5 7.5 7.5h274.031c27.571 0 50.002-22.431 50.002-50.002v-398.585c0-4.142-3.357-7.5-7.5-7.5zm-119.187 17.188v-11.71c0-12.866-10.468-23.333-23.334-23.333h-100.296c-12.866 0-23.333 10.467-23.333 23.333v11.71c0 12.866 10.467 23.334 23.333 23.334h100.296c12.866 0 23.334-10.468 23.334-23.334zm-131.963 0v-11.71c0-4.595 3.738-8.333 8.333-8.333h100.296c4.596 0 8.334 3.738 8.334 8.333v11.71c0 4.596-3.738 8.334-8.334 8.334h-100.296c-4.595 0-8.333-3.739-8.333-8.334zm156.692 226.905c0-4.143-3.358-7.5-7.5-7.5h-85.347c-4.143 0-7.5 3.357-7.5 7.5s3.357 7.5 7.5 7.5h85.347c4.142 0 7.5-3.358 7.5-7.5zm-256.199 196.118c-16.004-3.648-27.181-17.682-27.181-34.126v-71.056h116.277c11.547 0 20.788-8.804 21.899-19.761h83.367c4.143 0 7.5-3.357 7.5-7.5s-3.357-7.5-7.5-7.5h-85.607l-3.192-13.947c-3.527-15.411-16.461-26.434-31.981-27.645-.673-2.172-1.306-4.545-1.903-7.084h57.037c4.143 0 7.5-3.357 7.5-7.5s-3.357-7.5-7.5-7.5h-59.883c-2.261-14.635-3.748-31.936-4.671-48.676h116.901c4.143 0 7.5-3.357 7.5-7.5s-3.357-7.5-7.5-7.5h-117.59c-.316-8.448-.496-16.457-.569-23.569 13.395-.302 24.353-10.756 24.859-25.107h34.201c4.143 0 7.5-3.357 7.5-7.5s-3.357-7.5-7.5-7.5h-38.075c-4.033-6.746-10.456-11.311-17.886-12.9 5.381-9.902 9.47-21.055 12.187-33.322 4.085-18.446-14.378-33.945-31.856-26.737-10.917 4.502-20.355 5.531-28.341 4.618 9.363-28.209-15.703-56.268-45.05-49.622 1.437-17.989 16.526-32.19 34.878-32.19h300.334c12.382 0 23.965 6.646 30.23 17.347 2.093 3.573 6.685 4.778 10.262 2.682 3.574-2.093 4.775-6.687 2.682-10.262-8.945-15.277-25.488-24.767-43.173-24.767h-300.335c-27.571 0-50.002 22.431-50.002 50.002v4.363c-12.808 9.985-18.081 26.845-12.93 42.449-7.982.909-17.415-.121-28.325-4.62-17.465-7.203-35.945 8.28-31.856 26.737 2.716 12.267 6.805 23.42 12.186 33.323-15.334 3.28-25.35 19.146-20.598 34.969 3.188 10.614 12.668 17.79 23.697 18.039-.337 32.606-2.893 84.198-10.679 109.328-15.52 1.21-28.454 12.234-31.981 27.645l-4.987 21.791c-3.157 13.797 7.332 26.917 21.454 26.917h84.018v71.056c0 23.489 15.975 43.536 38.847 48.751 4.019.916 8.054-1.588 8.98-5.646.921-4.039-1.606-8.059-5.645-8.98zm-18.552-434.893c16.171 0 27.627 16.076 22.13 31.431-3.038-1.458-5.709-3.146-8.004-4.871-8.449-6.352-19.802-6.35-28.252 0-2.295 1.725-4.965 3.413-8.004 4.872-5.493-15.351 5.95-31.432 22.13-31.432zm-70.602 44.831c30.497 12.575 52.446 3.524 65.489-6.28 3.059-2.299 7.168-2.299 10.226 0 13.043 9.807 34.994 18.854 65.49 6.28 6.291-2.595 12.964 2.986 11.493 9.627-2.995 13.525-8.032 25.86-14.634 35.938h-134.923c-6.602-10.079-11.639-22.412-14.634-35.938-1.472-6.642 5.204-12.223 11.493-9.627zm-20.184 76.846c-2.438-8.118 3.628-16.282 12.11-16.282 12.988.002 141.45 0 157.353 0 8.477 0 14.549 8.158 12.11 16.282-1.325 4.412-5.311 7.377-9.919 7.377h-161.735c-4.608 0-8.594-2.965-9.919-7.377zm167.309 131.567h-153.045c8.363-31.995 9.814-88.063 10.059-109.189h132.926c.246 21.126 1.697 77.194 10.06 109.189zm-184.17 61.467c-4.507 0-7.835-4.187-6.832-8.571l4.987-21.791c2.17-9.482 10.479-16.105 20.206-16.105h178.573c9.727 0 18.037 6.623 20.206 16.105l4.987 21.791c1.005 4.392-2.334 8.571-6.832 8.571zm330.692 62.373c0 4.143 3.357 7.5 7.5 7.5s7.5-3.357 7.5-7.5c0-3.532 2.874-6.406 6.406-6.406s6.406 2.874 6.406 6.406c0 4.143 3.357 7.5 7.5 7.5s7.5-3.357 7.5-7.5c0-11.804-9.603-21.406-21.406-21.406s-21.406 9.603-21.406 21.406zm83.003-201.985c0-4.143-3.357-7.5-7.5-7.5h-63.033c-4.143 0-7.5 3.357-7.5 7.5s3.357 7.5 7.5 7.5h63.033c4.143 0 7.5-3.357 7.5-7.5zm-130.897-56.176h110.16c4.143 0 7.5-3.357 7.5-7.5s-3.357-7.5-7.5-7.5h-110.16c-4.143 0-7.5 3.357-7.5 7.5s3.357 7.5 7.5 7.5z"/>
    </g>
</svg>
