<svg width="362" height="126" viewBox="0 0 362 126" fill="none" xmlns="http://www.w3.org/2000/svg">
    <ellipse cx="58.7444" cy="57.9239" rx="49.3452" ry="49.255" fill="white"/>
    <path d="M117.489 59.106C117.489 91.7493 91.1879 118.212 58.7443 118.212C26.3007 118.212 0 91.7493 0 59.106C0 26.4626 26.3007 0 58.7443 0C91.1879 0 117.489 26.4626 117.489 59.106ZM17.868 59.106C17.868 81.8203 36.1689 100.234 58.7443 100.234C81.3197 100.234 99.6207 81.8203 99.6207 59.106C99.6207 36.3916 81.3197 17.9779 58.7443 17.9779C36.1689 17.9779 17.868 36.3916 17.868 59.106Z"
          fill="#DFDFDF"/>
    <path d="M117.489 59.106C117.489 91.7493 91.1879 118.212 58.7443 118.212C26.3007 118.212 0 91.7493 0 59.106C0 26.4626 26.3007 0 58.7443 0C91.1879 0 117.489 26.4626 117.489 59.106ZM17.868 59.106C17.868 81.8203 36.1689 100.234 58.7443 100.234C81.3197 100.234 99.6207 81.8203 99.6207 59.106C99.6207 36.3916 81.3197 17.9779 58.7443 17.9779C36.1689 17.9779 17.868 36.3916 17.868 59.106Z"
          fill="#97BF78"/>
    <g clip-path="url(#clip0)">
        <path fill-rule="evenodd" clip-rule="evenodd" d="M57.7671 49.2295H60.2588V76.8627H57.7671V49.2295Z"
              fill="#D09080"/>
        <path fill-rule="evenodd" clip-rule="evenodd"
              d="M68.5759 84.5552C70.7759 88.3901 72.976 92.2249 75.1761 96.0599L91.3417 124.23H26.6842L42.8498 96.0599C45.0504 92.2261 47.251 88.3913 49.4517 84.5562L68.5759 84.5552Z"
              fill="#477B9E"/>
        <path fill-rule="evenodd" clip-rule="evenodd"
              d="M49.4523 84.5565L57.419 90.2242C58.5326 90.9385 59.5951 90.9431 60.6112 90.2242L68.5734 84.5565C65.7617 79.6545 62.9499 74.7526 60.138 69.8552C59.5023 68.7536 58.4954 68.7908 57.883 69.8598C55.0712 74.7573 52.2641 79.6593 49.4523 84.5565Z"
              fill="#E1F1FF"/>
        <path fill-rule="evenodd" clip-rule="evenodd"
              d="M99.9857 121.826C100.677 123.03 99.9857 124.23 98.6076 124.23H69.0512C67.6825 124.23 66.991 123.044 67.6592 121.849L75.0599 108.95L77.5082 104.682L90.1477 104.684C93.4272 110.399 96.7064 116.113 99.9857 121.826Z"
              fill="#365E7D"/>
        <path fill-rule="evenodd" clip-rule="evenodd"
              d="M33.8756 109.776C36.182 113.796 38.489 117.814 40.7939 121.835C41.476 123.035 40.7846 124.23 39.4112 124.23H19.2091C17.8264 124.23 17.1396 123.03 17.8264 121.826C20.1316 117.808 22.437 113.792 24.7422 109.775L33.8756 109.776Z"
              fill="#365E7D"/>
        <path fill-rule="evenodd" clip-rule="evenodd"
              d="M94.2832 61.4334H72.4707C71.7329 61.3306 71.153 60.7425 71.0463 60.0002V48.5156H94.2832C94.7053 48.5436 94.8168 48.763 94.6171 49.1833L90.288 54.9722L94.6171 60.7611C94.7796 60.9853 94.659 61.4288 94.2832 61.4334Z"
              fill="#CF4351"/>
        <path fill-rule="evenodd" clip-rule="evenodd"
              d="M71.0463 57.9456V48.5151H86.0379V55.0793C85.8337 56.5638 84.6645 57.7404 83.189 57.9458H71.0463V57.9456Z"
              fill="#BD3341"/>
        <path fill-rule="evenodd" clip-rule="evenodd"
              d="M81.6626 54.9722H59.1914C58.4537 54.8695 57.8736 54.2813 57.7668 53.5436V43.4876C57.8736 42.7453 58.4535 42.157 59.1914 42.0542H81.6626C82.3956 42.157 82.9803 42.7453 83.0824 43.4876V53.5436C82.9805 54.2811 82.3958 54.8694 81.6626 54.9722Z"
              fill="#FF6978"/>
        <path fill-rule="evenodd" clip-rule="evenodd"
              d="M77.51 104.683L82.651 108.339C83.4769 108.88 84.2656 108.899 85.0081 108.339L90.1492 104.683C88.2608 101.397 86.3769 98.1148 84.4931 94.8281C84.1171 94.1746 83.5233 94.1979 83.1614 94.8281C81.2775 98.1147 79.3937 101.397 77.51 104.683Z"
              fill="#E1F1FF"/>
        <path fill-rule="evenodd" clip-rule="evenodd"
              d="M24.7445 109.776L28.475 112.433C29.0318 112.825 29.5885 112.825 30.1407 112.433L33.8759 109.776C32.5721 107.508 31.2729 105.243 29.9737 102.979C29.5979 102.326 29.0038 102.349 28.6419 102.979C27.3429 105.243 26.0437 107.512 24.7445 109.776Z"
              fill="#E1F1FF"/>
        <path fill-rule="evenodd" clip-rule="evenodd"
              d="M41.9772 65.8501H41.9818C45.1137 65.8501 47.6797 68.4319 47.6797 71.5832C47.6797 74.7345 45.1137 77.3163 41.9818 77.3163H22.1462C19.0143 77.3161 16.4484 74.7343 16.4484 71.583C16.4484 68.4317 19.0143 65.8499 22.1462 65.8499C22.1462 61.807 25.4034 58.5249 29.4263 58.5249C31.9551 58.5249 34.1822 59.8229 35.486 61.793C36.1542 61.3402 36.9615 61.0741 37.8292 61.0741C40.1446 61.0741 42.0144 62.9602 42.0144 65.285C42.0144 65.4766 42.0051 65.6633 41.9772 65.8501Z"
              fill="#E1F1FF"/>
        <path fill-rule="evenodd" clip-rule="evenodd"
              d="M44.6033 68.4876C44.6033 71.6435 42.0423 74.2205 38.9055 74.2205H19.0744C18.2995 74.2205 17.5618 74.0665 16.889 73.7818C17.7474 75.8499 19.7844 77.3158 22.1461 77.3158H41.9819C45.1137 77.3158 47.6797 74.734 47.6797 71.5827C47.6797 69.2065 46.2227 67.157 44.1673 66.2886C44.4503 66.9703 44.6033 67.7125 44.6033 68.4876Z"
              fill="#CBE2FF"/>
        <path fill-rule="evenodd" clip-rule="evenodd"
              d="M71.0835 96.06L76.7722 105.971L77.5099 104.683L78.8183 102.405L75.1759 96.06L68.5734 84.5566L65.6687 86.6249L71.0835 96.06Z"
              fill="#365E7D"/>
        <path fill-rule="evenodd" clip-rule="evenodd"
              d="M60.0685 76.8627L65.6688 86.6248L68.5734 84.5565L60.2587 70.0606L60.1427 69.8553C60.1381 69.8553 60.1381 69.8553 60.1381 69.8553C59.8225 69.3091 59.4188 69.043 59.0152 69.043C58.6022 69.043 58.1938 69.3231 57.883 69.8599L57.7669 70.0606L56.9688 71.4566L57.7669 72.8572L59.0152 75.0234L60.0685 76.8627Z"
              fill="#CBE2FF"/>
        <path fill-rule="evenodd" clip-rule="evenodd"
              d="M87.2397 106.751C90.1259 111.774 93.0071 116.802 95.8931 121.826C96.5845 123.03 95.8931 124.23 94.5152 124.23H98.6076C99.9857 124.23 100.677 123.03 99.9857 121.826C96.7052 116.111 93.4249 110.397 90.1491 104.683L87.2397 106.751Z"
              fill="#294B64"/>
        <path fill-rule="evenodd" clip-rule="evenodd"
              d="M81.7831 97.2365C83.602 100.407 85.4207 103.576 87.2396 106.751L90.1443 104.683C88.2604 101.396 86.3765 98.1143 84.4929 94.8277C84.117 94.1741 83.5231 94.1974 83.1612 94.8277L81.7831 97.2365Z"
              fill="#CBE2FF"/>
        <path fill-rule="evenodd" clip-rule="evenodd"
              d="M32.3818 114.305L36.7017 121.835C37.3838 123.035 36.6923 124.23 35.319 124.23H39.4114C40.7849 124.23 41.4761 123.035 40.7941 121.835L34.428 110.738L33.8759 109.776L30.9667 111.845L32.3818 114.305Z"
              fill="#294B64"/>
        <path fill-rule="evenodd" clip-rule="evenodd"
              d="M27.2642 105.383L30.967 111.845L33.8762 109.776L29.974 102.979C29.5982 102.326 29.0042 102.349 28.6423 102.979L27.2642 105.383Z"
              fill="#CBE2FF"/>
    </g>
    <path d="M147.502 49.2891H141.545L140.207 53H138.273L143.703 38.7812H145.344L150.783 53H148.859L147.502 49.2891ZM142.111 47.7461H146.945L144.523 41.0957L142.111 47.7461ZM156.652 51.7207C157.297 51.7207 157.86 51.5254 158.342 51.1348C158.824 50.7441 159.09 50.2559 159.143 49.6699H160.852C160.819 50.2754 160.611 50.8516 160.227 51.3984C159.842 51.9453 159.328 52.3815 158.684 52.707C158.046 53.0326 157.368 53.1953 156.652 53.1953C155.214 53.1953 154.068 52.7168 153.215 51.7598C152.368 50.7962 151.945 49.4811 151.945 47.8145V47.5117C151.945 46.4831 152.134 45.5684 152.512 44.7676C152.889 43.9668 153.43 43.3451 154.133 42.9023C154.842 42.4596 155.679 42.2383 156.643 42.2383C157.827 42.2383 158.811 42.5931 159.592 43.3027C160.38 44.0124 160.799 44.9336 160.852 46.0664H159.143C159.09 45.3828 158.83 44.8229 158.361 44.3867C157.899 43.944 157.326 43.7227 156.643 43.7227C155.725 43.7227 155.012 44.0547 154.504 44.7188C154.003 45.3763 153.752 46.3301 153.752 47.5801V47.9219C153.752 49.1393 154.003 50.0768 154.504 50.7344C155.005 51.3919 155.721 51.7207 156.652 51.7207ZM164.689 43.7129C165.49 42.7298 166.532 42.2383 167.814 42.2383C170.048 42.2383 171.174 43.498 171.193 46.0176V53H169.387V46.0078C169.38 45.2461 169.204 44.6829 168.859 44.3184C168.521 43.9538 167.99 43.7715 167.268 43.7715C166.682 43.7715 166.167 43.9277 165.725 44.2402C165.282 44.5527 164.937 44.9629 164.689 45.4707V53H162.883V38H164.689V43.7129ZM175.861 53H174.055V42.4336H175.861V53ZM173.908 39.6309C173.908 39.3379 173.996 39.0905 174.172 38.8887C174.354 38.6868 174.621 38.5859 174.973 38.5859C175.324 38.5859 175.591 38.6868 175.773 38.8887C175.956 39.0905 176.047 39.3379 176.047 39.6309C176.047 39.9238 175.956 40.168 175.773 40.3633C175.591 40.5586 175.324 40.6562 174.973 40.6562C174.621 40.6562 174.354 40.5586 174.172 40.3633C173.996 40.168 173.908 39.9238 173.908 39.6309ZM183.146 53.1953C181.714 53.1953 180.549 52.7266 179.65 51.7891C178.752 50.8451 178.303 49.5853 178.303 48.0098V47.6777C178.303 46.6296 178.501 45.6953 178.898 44.875C179.302 44.0482 179.862 43.4036 180.578 42.9414C181.301 42.4727 182.082 42.2383 182.922 42.2383C184.296 42.2383 185.363 42.6908 186.125 43.5957C186.887 44.5007 187.268 45.7962 187.268 47.4824V48.2344H180.109C180.135 49.276 180.438 50.1191 181.018 50.7637C181.604 51.4017 182.346 51.7207 183.244 51.7207C183.882 51.7207 184.423 51.5905 184.865 51.3301C185.308 51.0697 185.695 50.7246 186.027 50.2949L187.131 51.1543C186.245 52.515 184.917 53.1953 183.146 53.1953ZM182.922 43.7227C182.193 43.7227 181.581 43.9896 181.086 44.5234C180.591 45.0508 180.285 45.793 180.168 46.75H185.461V46.6133C185.409 45.6953 185.161 44.9857 184.719 44.4844C184.276 43.9766 183.677 43.7227 182.922 43.7227ZM192.717 50.5488L195.334 42.4336H197.18L193.391 53H192.014L188.186 42.4336H190.031L192.717 50.5488ZM203.166 53.1953C201.734 53.1953 200.568 52.7266 199.67 51.7891C198.771 50.8451 198.322 49.5853 198.322 48.0098V47.6777C198.322 46.6296 198.521 45.6953 198.918 44.875C199.322 44.0482 199.882 43.4036 200.598 42.9414C201.32 42.4727 202.102 42.2383 202.941 42.2383C204.315 42.2383 205.383 42.6908 206.145 43.5957C206.906 44.5007 207.287 45.7962 207.287 47.4824V48.2344H200.129C200.155 49.276 200.458 50.1191 201.037 50.7637C201.623 51.4017 202.365 51.7207 203.264 51.7207C203.902 51.7207 204.442 51.5905 204.885 51.3301C205.327 51.0697 205.715 50.7246 206.047 50.2949L207.15 51.1543C206.265 52.515 204.937 53.1953 203.166 53.1953ZM202.941 43.7227C202.212 43.7227 201.6 43.9896 201.105 44.5234C200.611 45.0508 200.305 45.793 200.188 46.75H205.48V46.6133C205.428 45.6953 205.181 44.9857 204.738 44.4844C204.296 43.9766 203.697 43.7227 202.941 43.7227ZM226.695 53C226.591 52.7917 226.507 52.4206 226.441 51.8867C225.602 52.7591 224.599 53.1953 223.434 53.1953C222.392 53.1953 221.536 52.9023 220.865 52.3164C220.201 51.724 219.869 50.9753 219.869 50.0703C219.869 48.9701 220.286 48.1172 221.119 47.5117C221.959 46.8997 223.137 46.5938 224.654 46.5938H226.412V45.7637C226.412 45.1322 226.223 44.6309 225.846 44.2598C225.468 43.8822 224.911 43.6934 224.176 43.6934C223.531 43.6934 222.991 43.8561 222.555 44.1816C222.118 44.5072 221.9 44.901 221.9 45.3633H220.084C220.084 44.8359 220.27 44.3281 220.641 43.8398C221.018 43.3451 221.526 42.9544 222.164 42.668C222.809 42.3815 223.515 42.2383 224.283 42.2383C225.501 42.2383 226.454 42.5443 227.145 43.1562C227.835 43.7617 228.193 44.5983 228.219 45.666V50.5293C228.219 51.4993 228.342 52.2708 228.59 52.8438V53H226.695ZM223.697 51.623C224.264 51.623 224.801 51.4766 225.309 51.1836C225.816 50.8906 226.184 50.5098 226.412 50.041V47.873H224.996C222.783 47.873 221.676 48.5208 221.676 49.8164C221.676 50.3828 221.865 50.8255 222.242 51.1445C222.62 51.4635 223.105 51.623 223.697 51.623ZM247.988 50.1973C247.988 49.709 247.803 49.3314 247.432 49.0645C247.067 48.791 246.426 48.5566 245.508 48.3613C244.596 48.166 243.87 47.9316 243.33 47.6582C242.796 47.3848 242.399 47.0592 242.139 46.6816C241.885 46.304 241.758 45.8548 241.758 45.334C241.758 44.4681 242.122 43.7357 242.852 43.1367C243.587 42.5378 244.525 42.2383 245.664 42.2383C246.862 42.2383 247.832 42.5475 248.574 43.166C249.323 43.7845 249.697 44.5755 249.697 45.5391H247.881C247.881 45.0443 247.669 44.6178 247.246 44.2598C246.829 43.9017 246.302 43.7227 245.664 43.7227C245.007 43.7227 244.492 43.8659 244.121 44.1523C243.75 44.4388 243.564 44.8132 243.564 45.2754C243.564 45.7116 243.737 46.0404 244.082 46.2617C244.427 46.4831 245.049 46.6947 245.947 46.8965C246.852 47.0983 247.585 47.3392 248.145 47.6191C248.704 47.8991 249.118 48.2376 249.385 48.6348C249.658 49.0254 249.795 49.5039 249.795 50.0703C249.795 51.0143 249.417 51.7728 248.662 52.3457C247.907 52.9121 246.927 53.1953 245.723 53.1953C244.876 53.1953 244.128 53.0456 243.477 52.7461C242.826 52.4466 242.314 52.0299 241.943 51.4961C241.579 50.9557 241.396 50.373 241.396 49.748H243.203C243.236 50.3535 243.477 50.8353 243.926 51.1934C244.382 51.5449 244.98 51.7207 245.723 51.7207C246.406 51.7207 246.953 51.584 247.363 51.3105C247.78 51.0306 247.988 50.6595 247.988 50.1973ZM254.6 39.875V42.4336H256.572V43.8301H254.6V50.3828C254.6 50.806 254.688 51.125 254.863 51.3398C255.039 51.5482 255.339 51.6523 255.762 51.6523C255.97 51.6523 256.257 51.6133 256.621 51.5352V53C256.146 53.1302 255.684 53.1953 255.234 53.1953C254.427 53.1953 253.818 52.9512 253.408 52.4629C252.998 51.9746 252.793 51.2812 252.793 50.3828V43.8301H250.869V42.4336H252.793V39.875H254.6ZM263.799 44.0547C263.525 44.0091 263.229 43.9863 262.91 43.9863C261.725 43.9863 260.921 44.4909 260.498 45.5V53H258.691V42.4336H260.449L260.479 43.6543C261.071 42.7103 261.911 42.2383 262.998 42.2383C263.35 42.2383 263.617 42.2839 263.799 42.375V44.0547ZM269.658 53.1953C268.226 53.1953 267.061 52.7266 266.162 51.7891C265.264 50.8451 264.814 49.5853 264.814 48.0098V47.6777C264.814 46.6296 265.013 45.6953 265.41 44.875C265.814 44.0482 266.374 43.4036 267.09 42.9414C267.812 42.4727 268.594 42.2383 269.434 42.2383C270.807 42.2383 271.875 42.6908 272.637 43.5957C273.398 44.5007 273.779 45.7962 273.779 47.4824V48.2344H266.621C266.647 49.276 266.95 50.1191 267.529 50.7637C268.115 51.4017 268.857 51.7207 269.756 51.7207C270.394 51.7207 270.934 51.5905 271.377 51.3301C271.82 51.0697 272.207 50.7246 272.539 50.2949L273.643 51.1543C272.757 52.515 271.429 53.1953 269.658 53.1953ZM269.434 43.7227C268.704 43.7227 268.092 43.9896 267.598 44.5234C267.103 45.0508 266.797 45.793 266.68 46.75H271.973V46.6133C271.921 45.6953 271.673 44.9857 271.23 44.4844C270.788 43.9766 270.189 43.7227 269.434 43.7227ZM282.402 53C282.298 52.7917 282.214 52.4206 282.148 51.8867C281.309 52.7591 280.306 53.1953 279.141 53.1953C278.099 53.1953 277.243 52.9023 276.572 52.3164C275.908 51.724 275.576 50.9753 275.576 50.0703C275.576 48.9701 275.993 48.1172 276.826 47.5117C277.666 46.8997 278.844 46.5938 280.361 46.5938H282.119V45.7637C282.119 45.1322 281.93 44.6309 281.553 44.2598C281.175 43.8822 280.618 43.6934 279.883 43.6934C279.238 43.6934 278.698 43.8561 278.262 44.1816C277.826 44.5072 277.607 44.901 277.607 45.3633H275.791C275.791 44.8359 275.977 44.3281 276.348 43.8398C276.725 43.3451 277.233 42.9544 277.871 42.668C278.516 42.3815 279.222 42.2383 279.99 42.2383C281.208 42.2383 282.161 42.5443 282.852 43.1562C283.542 43.7617 283.9 44.5983 283.926 45.666V50.5293C283.926 51.4993 284.049 52.2708 284.297 52.8438V53H282.402ZM279.404 51.623C279.971 51.623 280.508 51.4766 281.016 51.1836C281.523 50.8906 281.891 50.5098 282.119 50.041V47.873H280.703C278.49 47.873 277.383 48.5208 277.383 49.8164C277.383 50.3828 277.572 50.8255 277.949 51.1445C278.327 51.4635 278.812 51.623 279.404 51.623ZM289.707 48.1074L288.574 49.2891V53H286.768V38H288.574V47.0723L289.541 45.9102L292.832 42.4336H295.029L290.918 46.8477L295.508 53H293.389L289.707 48.1074ZM307.201 47.6191C307.201 46.584 307.403 45.653 307.807 44.8262C308.217 43.9993 308.783 43.3613 309.506 42.9121C310.235 42.4629 311.065 42.2383 311.996 42.2383C313.435 42.2383 314.597 42.7363 315.482 43.7324C316.374 44.7285 316.82 46.0534 316.82 47.707V47.834C316.82 48.8626 316.622 49.7871 316.225 50.6074C315.834 51.4212 315.271 52.056 314.535 52.5117C313.806 52.9674 312.966 53.1953 312.016 53.1953C310.583 53.1953 309.421 52.6973 308.529 51.7012C307.644 50.7051 307.201 49.3867 307.201 47.7461V47.6191ZM309.018 47.834C309.018 49.0059 309.288 49.9466 309.828 50.6562C310.375 51.3659 311.104 51.7207 312.016 51.7207C312.934 51.7207 313.663 51.3626 314.203 50.6465C314.743 49.9238 315.014 48.9147 315.014 47.6191C315.014 46.4603 314.737 45.5228 314.184 44.8066C313.637 44.084 312.908 43.7227 311.996 43.7227C311.104 43.7227 310.385 44.0775 309.838 44.7871C309.291 45.4967 309.018 46.5124 309.018 47.834ZM320.795 42.4336L320.854 43.7617C321.661 42.7461 322.715 42.2383 324.018 42.2383C326.251 42.2383 327.377 43.498 327.396 46.0176V53H325.59V46.0078C325.583 45.2461 325.408 44.6829 325.062 44.3184C324.724 43.9538 324.193 43.7715 323.471 43.7715C322.885 43.7715 322.37 43.9277 321.928 44.2402C321.485 44.5527 321.14 44.9629 320.893 45.4707V53H319.086V42.4336H320.795ZM346.658 53H344.842V40.959L341.199 42.2969V40.6562L346.375 38.7129H346.658V53ZM360.867 46.9355C360.867 49.0514 360.506 50.6237 359.783 51.6523C359.061 52.681 357.931 53.1953 356.395 53.1953C354.878 53.1953 353.755 52.694 353.025 51.6914C352.296 50.6823 351.919 49.1784 351.893 47.1797V44.7676C351.893 42.6777 352.254 41.125 352.977 40.1094C353.699 39.0938 354.832 38.5859 356.375 38.5859C357.905 38.5859 359.031 39.0775 359.754 40.0605C360.477 41.0371 360.848 42.5475 360.867 44.5918V46.9355ZM359.061 44.4648C359.061 42.9349 358.846 41.8216 358.416 41.125C357.986 40.4219 357.306 40.0703 356.375 40.0703C355.451 40.0703 354.777 40.4186 354.354 41.1152C353.93 41.8118 353.712 42.8828 353.699 44.3281V47.2188C353.699 48.7552 353.921 49.8913 354.363 50.627C354.812 51.3561 355.49 51.7207 356.395 51.7207C357.286 51.7207 357.947 51.3757 358.377 50.6855C358.813 49.9954 359.041 48.9082 359.061 47.4238V44.4648ZM143.605 74.7207C144.25 74.7207 144.813 74.5254 145.295 74.1348C145.777 73.7441 146.044 73.2559 146.096 72.6699H147.805C147.772 73.2754 147.564 73.8516 147.18 74.3984C146.796 74.9453 146.281 75.3815 145.637 75.707C144.999 76.0326 144.322 76.1953 143.605 76.1953C142.167 76.1953 141.021 75.7168 140.168 74.7598C139.322 73.7962 138.898 72.4811 138.898 70.8145V70.5117C138.898 69.4831 139.087 68.5684 139.465 67.7676C139.842 66.9668 140.383 66.3451 141.086 65.9023C141.796 65.4596 142.632 65.2383 143.596 65.2383C144.781 65.2383 145.764 65.5931 146.545 66.3027C147.333 67.0124 147.753 67.9336 147.805 69.0664H146.096C146.044 68.3828 145.783 67.8229 145.314 67.3867C144.852 66.944 144.279 66.7227 143.596 66.7227C142.678 66.7227 141.965 67.0547 141.457 67.7188C140.956 68.3763 140.705 69.3301 140.705 70.5801V70.9219C140.705 72.1393 140.956 73.0768 141.457 73.7344C141.958 74.3919 142.674 74.7207 143.605 74.7207ZM149.357 70.6191C149.357 69.584 149.559 68.653 149.963 67.8262C150.373 66.9993 150.939 66.3613 151.662 65.9121C152.391 65.4629 153.221 65.2383 154.152 65.2383C155.591 65.2383 156.753 65.7363 157.639 66.7324C158.531 67.7285 158.977 69.0534 158.977 70.707V70.834C158.977 71.8626 158.778 72.7871 158.381 73.6074C157.99 74.4212 157.427 75.056 156.691 75.5117C155.962 75.9674 155.122 76.1953 154.172 76.1953C152.74 76.1953 151.577 75.6973 150.686 74.7012C149.8 73.7051 149.357 72.3867 149.357 70.7461V70.6191ZM151.174 70.834C151.174 72.0059 151.444 72.9466 151.984 73.6562C152.531 74.3659 153.26 74.7207 154.172 74.7207C155.09 74.7207 155.819 74.3626 156.359 73.6465C156.9 72.9238 157.17 71.9147 157.17 70.6191C157.17 69.4603 156.893 68.5228 156.34 67.8066C155.793 67.084 155.064 66.7227 154.152 66.7227C153.26 66.7227 152.541 67.0775 151.994 67.7871C151.447 68.4967 151.174 69.5124 151.174 70.834ZM166.35 67.0547C166.076 67.0091 165.78 66.9863 165.461 66.9863C164.276 66.9863 163.472 67.4909 163.049 68.5V76H161.242V65.4336H163L163.029 66.6543C163.622 65.7103 164.462 65.2383 165.549 65.2383C165.9 65.2383 166.167 65.2839 166.35 65.375V67.0547ZM173.127 67.0547C172.854 67.0091 172.557 66.9863 172.238 66.9863C171.053 66.9863 170.249 67.4909 169.826 68.5V76H168.02V65.4336H169.777L169.807 66.6543C170.399 65.7103 171.239 65.2383 172.326 65.2383C172.678 65.2383 172.945 65.2839 173.127 65.375V67.0547ZM178.986 76.1953C177.554 76.1953 176.389 75.7266 175.49 74.7891C174.592 73.8451 174.143 72.5853 174.143 71.0098V70.6777C174.143 69.6296 174.341 68.6953 174.738 67.875C175.142 67.0482 175.702 66.4036 176.418 65.9414C177.141 65.4727 177.922 65.2383 178.762 65.2383C180.135 65.2383 181.203 65.6908 181.965 66.5957C182.727 67.5007 183.107 68.7962 183.107 70.4824V71.2344H175.949C175.975 72.276 176.278 73.1191 176.857 73.7637C177.443 74.4017 178.186 74.7207 179.084 74.7207C179.722 74.7207 180.262 74.5905 180.705 74.3301C181.148 74.0697 181.535 73.7246 181.867 73.2949L182.971 74.1543C182.085 75.515 180.757 76.1953 178.986 76.1953ZM178.762 66.7227C178.033 66.7227 177.421 66.9896 176.926 67.5234C176.431 68.0508 176.125 68.793 176.008 69.75H181.301V69.6133C181.249 68.6953 181.001 67.9857 180.559 67.4844C180.116 66.9766 179.517 66.7227 178.762 66.7227ZM189.445 74.7207C190.09 74.7207 190.653 74.5254 191.135 74.1348C191.617 73.7441 191.883 73.2559 191.936 72.6699H193.645C193.612 73.2754 193.404 73.8516 193.02 74.3984C192.635 74.9453 192.121 75.3815 191.477 75.707C190.839 76.0326 190.161 76.1953 189.445 76.1953C188.007 76.1953 186.861 75.7168 186.008 74.7598C185.161 73.7962 184.738 72.4811 184.738 70.8145V70.5117C184.738 69.4831 184.927 68.5684 185.305 67.7676C185.682 66.9668 186.223 66.3451 186.926 65.9023C187.635 65.4596 188.472 65.2383 189.436 65.2383C190.62 65.2383 191.604 65.5931 192.385 66.3027C193.173 67.0124 193.592 67.9336 193.645 69.0664H191.936C191.883 68.3828 191.623 67.8229 191.154 67.3867C190.692 66.944 190.119 66.7227 189.436 66.7227C188.518 66.7227 187.805 67.0547 187.297 67.7188C186.796 68.3763 186.545 69.3301 186.545 70.5801V70.9219C186.545 72.1393 186.796 73.0768 187.297 73.7344C187.798 74.3919 188.514 74.7207 189.445 74.7207ZM198.127 62.875V65.4336H200.1V66.8301H198.127V73.3828C198.127 73.806 198.215 74.125 198.391 74.3398C198.566 74.5482 198.866 74.6523 199.289 74.6523C199.497 74.6523 199.784 74.6133 200.148 74.5352V76C199.673 76.1302 199.211 76.1953 198.762 76.1953C197.954 76.1953 197.346 75.9512 196.936 75.4629C196.525 74.9746 196.32 74.2812 196.32 73.3828V66.8301H194.396V65.4336H196.32V62.875H198.127ZM220.098 76C219.993 75.7917 219.909 75.4206 219.844 74.8867C219.004 75.7591 218.001 76.1953 216.836 76.1953C215.794 76.1953 214.938 75.9023 214.268 75.3164C213.604 74.724 213.271 73.9753 213.271 73.0703C213.271 71.9701 213.688 71.1172 214.521 70.5117C215.361 69.8997 216.54 69.5938 218.057 69.5938H219.814V68.7637C219.814 68.1322 219.626 67.6309 219.248 67.2598C218.87 66.8822 218.314 66.6934 217.578 66.6934C216.934 66.6934 216.393 66.8561 215.957 67.1816C215.521 67.5072 215.303 67.901 215.303 68.3633H213.486C213.486 67.8359 213.672 67.3281 214.043 66.8398C214.421 66.3451 214.928 65.9544 215.566 65.668C216.211 65.3815 216.917 65.2383 217.686 65.2383C218.903 65.2383 219.857 65.5443 220.547 66.1562C221.237 66.7617 221.595 67.5983 221.621 68.666V73.5293C221.621 74.4993 221.745 75.2708 221.992 75.8438V76H220.098ZM217.1 74.623C217.666 74.623 218.203 74.4766 218.711 74.1836C219.219 73.8906 219.587 73.5098 219.814 73.041V70.873H218.398C216.185 70.873 215.078 71.5208 215.078 72.8164C215.078 73.3828 215.267 73.8255 215.645 74.1445C216.022 74.4635 216.507 74.623 217.1 74.623ZM226.162 65.4336L226.221 66.7617C227.028 65.7461 228.083 65.2383 229.385 65.2383C231.618 65.2383 232.744 66.498 232.764 69.0176V76H230.957V69.0078C230.951 68.2461 230.775 67.6829 230.43 67.3184C230.091 66.9538 229.561 66.7715 228.838 66.7715C228.252 66.7715 227.738 66.9277 227.295 67.2402C226.852 67.5527 226.507 67.9629 226.26 68.4707V76H224.453V65.4336H226.162ZM241.641 73.1973C241.641 72.709 241.455 72.3314 241.084 72.0645C240.719 71.791 240.078 71.5566 239.16 71.3613C238.249 71.166 237.523 70.9316 236.982 70.6582C236.449 70.3848 236.051 70.0592 235.791 69.6816C235.537 69.304 235.41 68.8548 235.41 68.334C235.41 67.4681 235.775 66.7357 236.504 66.1367C237.24 65.5378 238.177 65.2383 239.316 65.2383C240.514 65.2383 241.484 65.5475 242.227 66.166C242.975 66.7845 243.35 67.5755 243.35 68.5391H241.533C241.533 68.0443 241.322 67.6178 240.898 67.2598C240.482 66.9017 239.954 66.7227 239.316 66.7227C238.659 66.7227 238.145 66.8659 237.773 67.1523C237.402 67.4388 237.217 67.8132 237.217 68.2754C237.217 68.7116 237.389 69.0404 237.734 69.2617C238.079 69.4831 238.701 69.6947 239.6 69.8965C240.505 70.0983 241.237 70.3392 241.797 70.6191C242.357 70.8991 242.77 71.2376 243.037 71.6348C243.311 72.0254 243.447 72.5039 243.447 73.0703C243.447 74.0143 243.07 74.7728 242.314 75.3457C241.559 75.9121 240.579 76.1953 239.375 76.1953C238.529 76.1953 237.78 76.0456 237.129 75.7461C236.478 75.4466 235.967 75.0299 235.596 74.4961C235.231 73.9557 235.049 73.373 235.049 72.748H236.855C236.888 73.3535 237.129 73.8353 237.578 74.1934C238.034 74.5449 238.633 74.7207 239.375 74.7207C240.059 74.7207 240.605 74.584 241.016 74.3105C241.432 74.0306 241.641 73.6595 241.641 73.1973ZM255.156 73.5098L257.188 65.4336H258.994L255.918 76H254.453L251.885 67.9922L249.385 76H247.92L244.854 65.4336H246.65L248.73 73.3438L251.191 65.4336H252.646L255.156 73.5098ZM265.225 76.1953C263.792 76.1953 262.627 75.7266 261.729 74.7891C260.83 73.8451 260.381 72.5853 260.381 71.0098V70.6777C260.381 69.6296 260.579 68.6953 260.977 67.875C261.38 67.0482 261.94 66.4036 262.656 65.9414C263.379 65.4727 264.16 65.2383 265 65.2383C266.374 65.2383 267.441 65.6908 268.203 66.5957C268.965 67.5007 269.346 68.7962 269.346 70.4824V71.2344H262.188C262.214 72.276 262.516 73.1191 263.096 73.7637C263.682 74.4017 264.424 74.7207 265.322 74.7207C265.96 74.7207 266.501 74.5905 266.943 74.3301C267.386 74.0697 267.773 73.7246 268.105 73.2949L269.209 74.1543C268.324 75.515 266.995 76.1953 265.225 76.1953ZM265 66.7227C264.271 66.7227 263.659 66.9896 263.164 67.5234C262.669 68.0508 262.363 68.793 262.246 69.75H267.539V69.6133C267.487 68.6953 267.24 67.9857 266.797 67.4844C266.354 66.9766 265.755 66.7227 265 66.7227ZM276.553 67.0547C276.279 67.0091 275.983 66.9863 275.664 66.9863C274.479 66.9863 273.675 67.4909 273.252 68.5V76H271.445V65.4336H273.203L273.232 66.6543C273.825 65.7103 274.665 65.2383 275.752 65.2383C276.104 65.2383 276.37 65.2839 276.553 65.375V67.0547ZM282.412 76.1953C280.98 76.1953 279.814 75.7266 278.916 74.7891C278.018 73.8451 277.568 72.5853 277.568 71.0098V70.6777C277.568 69.6296 277.767 68.6953 278.164 67.875C278.568 67.0482 279.128 66.4036 279.844 65.9414C280.566 65.4727 281.348 65.2383 282.188 65.2383C283.561 65.2383 284.629 65.6908 285.391 66.5957C286.152 67.5007 286.533 68.7962 286.533 70.4824V71.2344H279.375C279.401 72.276 279.704 73.1191 280.283 73.7637C280.869 74.4017 281.611 74.7207 282.51 74.7207C283.148 74.7207 283.688 74.5905 284.131 74.3301C284.574 74.0697 284.961 73.7246 285.293 73.2949L286.396 74.1543C285.511 75.515 284.183 76.1953 282.412 76.1953ZM282.188 66.7227C281.458 66.7227 280.846 66.9896 280.352 67.5234C279.857 68.0508 279.551 68.793 279.434 69.75H284.727V69.6133C284.674 68.6953 284.427 67.9857 283.984 67.4844C283.542 66.9766 282.943 66.7227 282.188 66.7227ZM288.193 70.6289C288.193 69.0078 288.577 67.7057 289.346 66.7227C290.114 65.7331 291.12 65.2383 292.363 65.2383C293.6 65.2383 294.58 65.6615 295.303 66.5078V61H297.109V76H295.449L295.361 74.8672C294.639 75.7526 293.633 76.1953 292.344 76.1953C291.12 76.1953 290.12 75.694 289.346 74.6914C288.577 73.6888 288.193 72.3802 288.193 70.7656V70.6289ZM290 70.834C290 72.0319 290.247 72.9694 290.742 73.6465C291.237 74.3236 291.921 74.6621 292.793 74.6621C293.939 74.6621 294.775 74.1478 295.303 73.1191V68.2656C294.762 67.2695 293.932 66.7715 292.812 66.7715C291.927 66.7715 291.237 67.1133 290.742 67.7969C290.247 68.4805 290 69.4928 290 70.834ZM322.02 71.4883C321.844 72.9922 321.287 74.1543 320.35 74.9746C319.419 75.7884 318.178 76.1953 316.629 76.1953C314.949 76.1953 313.602 75.5931 312.586 74.3887C311.577 73.1842 311.072 71.5729 311.072 69.5547V68.1875C311.072 66.8659 311.307 65.7038 311.775 64.7012C312.251 63.6986 312.921 62.9303 313.787 62.3965C314.653 61.8561 315.656 61.5859 316.795 61.5859C318.305 61.5859 319.516 62.0091 320.428 62.8555C321.339 63.6953 321.87 64.8607 322.02 66.3516H320.135C319.972 65.2188 319.617 64.3984 319.07 63.8906C318.53 63.3828 317.771 63.1289 316.795 63.1289C315.597 63.1289 314.656 63.5716 313.973 64.457C313.296 65.3424 312.957 66.6022 312.957 68.2363V69.6133C312.957 71.1562 313.279 72.3835 313.924 73.2949C314.568 74.2064 315.47 74.6621 316.629 74.6621C317.671 74.6621 318.468 74.4277 319.021 73.959C319.581 73.4837 319.952 72.6602 320.135 71.4883H322.02ZM330.828 76C330.724 75.7917 330.639 75.4206 330.574 74.8867C329.734 75.7591 328.732 76.1953 327.566 76.1953C326.525 76.1953 325.669 75.9023 324.998 75.3164C324.334 74.724 324.002 73.9753 324.002 73.0703C324.002 71.9701 324.419 71.1172 325.252 70.5117C326.092 69.8997 327.27 69.5938 328.787 69.5938H330.545V68.7637C330.545 68.1322 330.356 67.6309 329.979 67.2598C329.601 66.8822 329.044 66.6934 328.309 66.6934C327.664 66.6934 327.124 66.8561 326.688 67.1816C326.251 67.5072 326.033 67.901 326.033 68.3633H324.217C324.217 67.8359 324.402 67.3281 324.773 66.8398C325.151 66.3451 325.659 65.9544 326.297 65.668C326.941 65.3815 327.648 65.2383 328.416 65.2383C329.633 65.2383 330.587 65.5443 331.277 66.1562C331.967 66.7617 332.326 67.5983 332.352 68.666V73.5293C332.352 74.4993 332.475 75.2708 332.723 75.8438V76H330.828ZM327.83 74.623C328.396 74.623 328.934 74.4766 329.441 74.1836C329.949 73.8906 330.317 73.5098 330.545 73.041V70.873H329.129C326.915 70.873 325.809 71.5208 325.809 72.8164C325.809 73.3828 325.997 73.8255 326.375 74.1445C326.753 74.4635 327.238 74.623 327.83 74.623ZM340.291 67.0547C340.018 67.0091 339.721 66.9863 339.402 66.9863C338.217 66.9863 337.413 67.4909 336.99 68.5V76H335.184V65.4336H336.941L336.971 66.6543C337.563 65.7103 338.403 65.2383 339.49 65.2383C339.842 65.2383 340.109 65.2839 340.291 65.375V67.0547ZM341.326 70.6289C341.326 69.0078 341.71 67.7057 342.479 66.7227C343.247 65.7331 344.253 65.2383 345.496 65.2383C346.733 65.2383 347.713 65.6615 348.436 66.5078V61H350.242V76H348.582L348.494 74.8672C347.771 75.7526 346.766 76.1953 345.477 76.1953C344.253 76.1953 343.253 75.694 342.479 74.6914C341.71 73.6888 341.326 72.3802 341.326 70.7656V70.6289ZM343.133 70.834C343.133 72.0319 343.38 72.9694 343.875 73.6465C344.37 74.3236 345.053 74.6621 345.926 74.6621C347.072 74.6621 347.908 74.1478 348.436 73.1191V68.2656C347.895 67.2695 347.065 66.7715 345.945 66.7715C345.06 66.7715 344.37 67.1133 343.875 67.7969C343.38 68.4805 343.133 69.4928 343.133 70.834ZM359.207 73.1973C359.207 72.709 359.021 72.3314 358.65 72.0645C358.286 71.791 357.645 71.5566 356.727 71.3613C355.815 71.166 355.089 70.9316 354.549 70.6582C354.015 70.3848 353.618 70.0592 353.357 69.6816C353.104 69.304 352.977 68.8548 352.977 68.334C352.977 67.4681 353.341 66.7357 354.07 66.1367C354.806 65.5378 355.743 65.2383 356.883 65.2383C358.081 65.2383 359.051 65.5475 359.793 66.166C360.542 66.7845 360.916 67.5755 360.916 68.5391H359.1C359.1 68.0443 358.888 67.6178 358.465 67.2598C358.048 66.9017 357.521 66.7227 356.883 66.7227C356.225 66.7227 355.711 66.8659 355.34 67.1523C354.969 67.4388 354.783 67.8132 354.783 68.2754C354.783 68.7116 354.956 69.0404 355.301 69.2617C355.646 69.4831 356.268 69.6947 357.166 69.8965C358.071 70.0983 358.803 70.3392 359.363 70.6191C359.923 70.8991 360.337 71.2376 360.604 71.6348C360.877 72.0254 361.014 72.5039 361.014 73.0703C361.014 74.0143 360.636 74.7728 359.881 75.3457C359.126 75.9121 358.146 76.1953 356.941 76.1953C356.095 76.1953 355.346 76.0456 354.695 75.7461C354.044 75.4466 353.533 75.0299 353.162 74.4961C352.798 73.9557 352.615 73.373 352.615 72.748H354.422C354.454 73.3535 354.695 73.8353 355.145 74.1934C355.6 74.5449 356.199 74.7207 356.941 74.7207C357.625 74.7207 358.172 74.584 358.582 74.3105C358.999 74.0306 359.207 73.6595 359.207 73.1973ZM141.33 99H139.523V88.4336H141.33V99ZM139.377 85.6309C139.377 85.3379 139.465 85.0905 139.641 84.8887C139.823 84.6868 140.09 84.5859 140.441 84.5859C140.793 84.5859 141.06 84.6868 141.242 84.8887C141.424 85.0905 141.516 85.3379 141.516 85.6309C141.516 85.9238 141.424 86.168 141.242 86.3633C141.06 86.5586 140.793 86.6562 140.441 86.6562C140.09 86.6562 139.823 86.5586 139.641 86.3633C139.465 86.168 139.377 85.9238 139.377 85.6309ZM145.939 88.4336L145.998 89.7617C146.805 88.7461 147.86 88.2383 149.162 88.2383C151.395 88.2383 152.521 89.498 152.541 92.0176V99H150.734V92.0078C150.728 91.2461 150.552 90.6829 150.207 90.3184C149.868 89.9538 149.338 89.7715 148.615 89.7715C148.029 89.7715 147.515 89.9277 147.072 90.2402C146.63 90.5527 146.285 90.9629 146.037 91.4707V99H144.23V88.4336H145.939ZM166.75 99C166.646 98.7917 166.561 98.4206 166.496 97.8867C165.656 98.7591 164.654 99.1953 163.488 99.1953C162.447 99.1953 161.59 98.9023 160.92 98.3164C160.256 97.724 159.924 96.9753 159.924 96.0703C159.924 94.9701 160.34 94.1172 161.174 93.5117C162.014 92.8997 163.192 92.5938 164.709 92.5938H166.467V91.7637C166.467 91.1322 166.278 90.6309 165.9 90.2598C165.523 89.8822 164.966 89.6934 164.23 89.6934C163.586 89.6934 163.046 89.8561 162.609 90.1816C162.173 90.5072 161.955 90.901 161.955 91.3633H160.139C160.139 90.8359 160.324 90.3281 160.695 89.8398C161.073 89.3451 161.581 88.9544 162.219 88.668C162.863 88.3815 163.57 88.2383 164.338 88.2383C165.555 88.2383 166.509 88.5443 167.199 89.1562C167.889 89.7617 168.247 90.5983 168.273 91.666V96.5293C168.273 97.4993 168.397 98.2708 168.645 98.8438V99H166.75ZM163.752 97.623C164.318 97.623 164.855 97.4766 165.363 97.1836C165.871 96.8906 166.239 96.5098 166.467 96.041V93.873H165.051C162.837 93.873 161.73 94.5208 161.73 95.8164C161.73 96.3828 161.919 96.8255 162.297 97.1445C162.674 97.4635 163.16 97.623 163.752 97.623ZM172.814 88.4336L172.873 89.7617C173.68 88.7461 174.735 88.2383 176.037 88.2383C178.27 88.2383 179.396 89.498 179.416 92.0176V99H177.609V92.0078C177.603 91.2461 177.427 90.6829 177.082 90.3184C176.743 89.9538 176.213 89.7715 175.49 89.7715C174.904 89.7715 174.39 89.9277 173.947 90.2402C173.505 90.5527 173.16 90.9629 172.912 91.4707V99H171.105V88.4336H172.814ZM185.598 96.3535L188.059 88.4336H189.992L185.744 100.631C185.087 102.389 184.042 103.268 182.609 103.268L182.268 103.238L181.594 103.111V101.646L182.082 101.686C182.694 101.686 183.169 101.562 183.508 101.314C183.853 101.067 184.136 100.615 184.357 99.957L184.758 98.8828L180.988 88.4336H182.961L185.598 96.3535ZM198.742 97.4668H205.48V99H196.857V84.7812H198.742V97.4668ZM211.721 99.1953C210.288 99.1953 209.123 98.7266 208.225 97.7891C207.326 96.8451 206.877 95.5853 206.877 94.0098V93.6777C206.877 92.6296 207.076 91.6953 207.473 90.875C207.876 90.0482 208.436 89.4036 209.152 88.9414C209.875 88.4727 210.656 88.2383 211.496 88.2383C212.87 88.2383 213.938 88.6908 214.699 89.5957C215.461 90.5007 215.842 91.7962 215.842 93.4824V94.2344H208.684C208.71 95.276 209.012 96.1191 209.592 96.7637C210.178 97.4017 210.92 97.7207 211.818 97.7207C212.456 97.7207 212.997 97.5905 213.439 97.3301C213.882 97.0697 214.27 96.7246 214.602 96.2949L215.705 97.1543C214.82 98.515 213.492 99.1953 211.721 99.1953ZM211.496 89.7227C210.767 89.7227 210.155 89.9896 209.66 90.5234C209.165 91.0508 208.859 91.793 208.742 92.75H214.035V92.6133C213.983 91.6953 213.736 90.9857 213.293 90.4844C212.85 89.9766 212.251 89.7227 211.496 89.7227ZM224.094 96.1973C224.094 95.709 223.908 95.3314 223.537 95.0645C223.173 94.791 222.531 94.5566 221.613 94.3613C220.702 94.166 219.976 93.9316 219.436 93.6582C218.902 93.3848 218.505 93.0592 218.244 92.6816C217.99 92.304 217.863 91.8548 217.863 91.334C217.863 90.4681 218.228 89.7357 218.957 89.1367C219.693 88.5378 220.63 88.2383 221.77 88.2383C222.967 88.2383 223.938 88.5475 224.68 89.166C225.428 89.7845 225.803 90.5755 225.803 91.5391H223.986C223.986 91.0443 223.775 90.6178 223.352 90.2598C222.935 89.9017 222.408 89.7227 221.77 89.7227C221.112 89.7227 220.598 89.8659 220.227 90.1523C219.855 90.4388 219.67 90.8132 219.67 91.2754C219.67 91.7116 219.842 92.0404 220.188 92.2617C220.533 92.4831 221.154 92.6947 222.053 92.8965C222.958 93.0983 223.69 93.3392 224.25 93.6191C224.81 93.8991 225.223 94.2376 225.49 94.6348C225.764 95.0254 225.9 95.5039 225.9 96.0703C225.9 97.0143 225.523 97.7728 224.768 98.3457C224.012 98.9121 223.033 99.1953 221.828 99.1953C220.982 99.1953 220.233 99.0456 219.582 98.7461C218.931 98.4466 218.42 98.0299 218.049 97.4961C217.684 96.9557 217.502 96.373 217.502 95.748H219.309C219.341 96.3535 219.582 96.8353 220.031 97.1934C220.487 97.5449 221.086 97.7207 221.828 97.7207C222.512 97.7207 223.059 97.584 223.469 97.3105C223.885 97.0306 224.094 96.6595 224.094 96.1973ZM234.406 96.1973C234.406 95.709 234.221 95.3314 233.85 95.0645C233.485 94.791 232.844 94.5566 231.926 94.3613C231.014 94.166 230.288 93.9316 229.748 93.6582C229.214 93.3848 228.817 93.0592 228.557 92.6816C228.303 92.304 228.176 91.8548 228.176 91.334C228.176 90.4681 228.54 89.7357 229.27 89.1367C230.005 88.5378 230.943 88.2383 232.082 88.2383C233.28 88.2383 234.25 88.5475 234.992 89.166C235.741 89.7845 236.115 90.5755 236.115 91.5391H234.299C234.299 91.0443 234.087 90.6178 233.664 90.2598C233.247 89.9017 232.72 89.7227 232.082 89.7227C231.424 89.7227 230.91 89.8659 230.539 90.1523C230.168 90.4388 229.982 90.8132 229.982 91.2754C229.982 91.7116 230.155 92.0404 230.5 92.2617C230.845 92.4831 231.467 92.6947 232.365 92.8965C233.27 93.0983 234.003 93.3392 234.562 93.6191C235.122 93.8991 235.536 94.2376 235.803 94.6348C236.076 95.0254 236.213 95.5039 236.213 96.0703C236.213 97.0143 235.835 97.7728 235.08 98.3457C234.325 98.9121 233.345 99.1953 232.141 99.1953C231.294 99.1953 230.546 99.0456 229.895 98.7461C229.243 98.4466 228.732 98.0299 228.361 97.4961C227.997 96.9557 227.814 96.373 227.814 95.748H229.621C229.654 96.3535 229.895 96.8353 230.344 97.1934C230.799 97.5449 231.398 97.7207 232.141 97.7207C232.824 97.7207 233.371 97.584 233.781 97.3105C234.198 97.0306 234.406 96.6595 234.406 96.1973ZM238.088 93.6191C238.088 92.584 238.29 91.653 238.693 90.8262C239.104 89.9993 239.67 89.3613 240.393 88.9121C241.122 88.4629 241.952 88.2383 242.883 88.2383C244.322 88.2383 245.484 88.7363 246.369 89.7324C247.261 90.7285 247.707 92.0534 247.707 93.707V93.834C247.707 94.8626 247.508 95.7871 247.111 96.6074C246.721 97.4212 246.158 98.056 245.422 98.5117C244.693 98.9674 243.853 99.1953 242.902 99.1953C241.47 99.1953 240.308 98.6973 239.416 97.7012C238.531 96.7051 238.088 95.3867 238.088 93.7461V93.6191ZM239.904 93.834C239.904 95.0059 240.174 95.9466 240.715 96.6562C241.262 97.3659 241.991 97.7207 242.902 97.7207C243.82 97.7207 244.549 97.3626 245.09 96.6465C245.63 95.9238 245.9 94.9147 245.9 93.6191C245.9 92.4603 245.624 91.5228 245.07 90.8066C244.523 90.084 243.794 89.7227 242.883 89.7227C241.991 89.7227 241.271 90.0775 240.725 90.7871C240.178 91.4967 239.904 92.5124 239.904 93.834ZM251.682 88.4336L251.74 89.7617C252.548 88.7461 253.602 88.2383 254.904 88.2383C257.137 88.2383 258.264 89.498 258.283 92.0176V99H256.477V92.0078C256.47 91.2461 256.294 90.6829 255.949 90.3184C255.611 89.9538 255.08 89.7715 254.357 89.7715C253.771 89.7715 253.257 89.9277 252.814 90.2402C252.372 90.5527 252.027 90.9629 251.779 91.4707V99H249.973V88.4336H251.682ZM263.029 94.9863H261.398L261.271 84.7812H263.166L263.029 94.9863ZM261.203 98.0918C261.203 97.7988 261.291 97.5547 261.467 97.3594C261.649 97.1576 261.916 97.0566 262.268 97.0566C262.619 97.0566 262.886 97.1576 263.068 97.3594C263.251 97.5547 263.342 97.7988 263.342 98.0918C263.342 98.3848 263.251 98.6289 263.068 98.8242C262.886 99.013 262.619 99.1074 262.268 99.1074C261.916 99.1074 261.649 99.013 261.467 98.8242C261.291 98.6289 261.203 98.3848 261.203 98.0918Z"
          fill="white"/>
    <defs>
        <clipPath id="clip0">
            <rect width="83.8086" height="84.3245" fill="white" transform="translate(16.4484 40.98)"/>
        </clipPath>
    </defs>
</svg>
