<svg width="321" height="190" viewBox="0 0 321 190" fill="none" xmlns="http://www.w3.org/2000/svg">
    <g filter="url(#filter0_d)">
        <circle cx="35.5" cy="44.5" r="31.5" fill="#FFB763"/>
    </g>
    <path d="M117.922 37.3633H113.299L112.42 40H109.616L114.38 27.2031H116.823L121.613 40H118.81L117.922 37.3633ZM114.011 35.2275H117.21L115.602 30.4375L114.011 35.2275ZM122.536 40V29.7607H126.034C126.995 29.7607 127.862 29.9658 128.636 30.376C129.409 30.7861 130.013 31.3633 130.446 32.1074C130.886 32.8457 131.111 33.6777 131.123 34.6035V35.0869C131.123 36.0186 130.906 36.8623 130.473 37.6182C130.045 38.3682 129.444 38.9541 128.671 39.376C127.903 39.792 127.033 40 126.061 40H122.536ZM125.085 31.8174V37.9609H126.061C126.928 37.9609 127.558 37.7412 127.95 37.3018C128.349 36.8564 128.554 36.1562 128.565 35.2012V34.6738C128.565 33.6953 128.369 32.9805 127.977 32.5293C127.59 32.0723 126.98 31.835 126.148 31.8174H125.085ZM132.573 40V29.7607H136.071C137.032 29.7607 137.899 29.9658 138.673 30.376C139.446 30.7861 140.05 31.3633 140.483 32.1074C140.923 32.8457 141.148 33.6777 141.16 34.6035V35.0869C141.16 36.0186 140.943 36.8623 140.51 37.6182C140.082 38.3682 139.481 38.9541 138.708 39.376C137.94 39.792 137.07 40 136.098 40H132.573ZM135.122 31.8174V37.9609H136.098C136.965 37.9609 137.595 37.7412 137.987 37.3018C138.386 36.8564 138.591 36.1562 138.603 35.2012V34.6738C138.603 33.6953 138.406 32.9805 138.014 32.5293C137.627 32.0723 137.018 31.835 136.186 31.8174H135.122ZM157.859 33.8916C157.859 35.0869 157.666 36.127 157.279 37.0117C156.893 37.8906 156.356 38.5967 155.671 39.1299L157.798 40.7998L156.119 42.2852L153.395 40.0967C153.084 40.1494 152.762 40.1758 152.428 40.1758C151.367 40.1758 150.421 39.9209 149.589 39.4111C148.757 38.9014 148.112 38.1748 147.655 37.2314C147.198 36.2822 146.967 35.1924 146.961 33.9619V33.3291C146.961 32.0693 147.187 30.9619 147.638 30.0068C148.095 29.0459 148.736 28.3105 149.562 27.8008C150.395 27.2852 151.344 27.0273 152.41 27.0273C153.477 27.0273 154.423 27.2852 155.249 27.8008C156.081 28.3105 156.723 29.0459 157.174 30.0068C157.631 30.9619 157.859 32.0664 157.859 33.3203V33.8916ZM155.188 33.3115C155.188 31.9697 154.947 30.9502 154.467 30.2529C153.986 29.5557 153.301 29.207 152.41 29.207C151.525 29.207 150.843 29.5527 150.362 30.2441C149.882 30.9297 149.639 31.9375 149.633 33.2676V33.8916C149.633 35.1982 149.873 36.2119 150.354 36.9326C150.834 37.6533 151.525 38.0137 152.428 38.0137C153.312 38.0137 153.992 37.668 154.467 36.9766C154.941 36.2793 155.182 35.2656 155.188 33.9355V33.3115ZM168.072 29.7607V36.3877C168.072 37.5537 167.694 38.4707 166.938 39.1387C166.183 39.8066 165.131 40.1406 163.783 40.1406C162.441 40.1406 161.387 39.8066 160.619 39.1387C159.852 38.4707 159.468 37.5566 159.468 36.3965V29.7607H162.017V36.5195C162.052 37.5742 162.641 38.1016 163.783 38.1016C164.352 38.1016 164.782 37.9697 165.075 37.7061C165.374 37.4424 165.523 37.0088 165.523 36.4053V29.7607H168.072ZM176.562 35.7373H172.335V37.9609H177.31V40H169.786V29.7607H177.318V31.8174H172.335V33.6895H176.562V35.7373ZM184.165 37.249C184.165 36.9092 184.021 36.6367 183.734 36.4316C183.447 36.2266 182.958 36.042 182.267 35.8779C181.575 35.7139 180.992 35.541 180.518 35.3594C180.049 35.1719 179.662 34.9521 179.357 34.7002C179.053 34.4482 178.827 34.1582 178.681 33.8301C178.534 33.4961 178.461 33.1006 178.461 32.6436C178.461 31.7646 178.827 31.041 179.56 30.4727C180.292 29.9043 181.235 29.6201 182.39 29.6201C183.649 29.6201 184.666 29.9072 185.439 30.4814C186.219 31.0498 186.608 31.8291 186.608 32.8193H184.068C184.068 32.4443 183.916 32.1309 183.611 31.8789C183.312 31.627 182.908 31.501 182.398 31.501C181.947 31.501 181.581 31.6006 181.3 31.7998C181.019 31.999 180.878 32.248 180.878 32.5469C180.878 32.8457 181.024 33.0889 181.317 33.2764C181.61 33.458 182.097 33.6338 182.776 33.8037C184.142 34.1025 185.117 34.5156 185.703 35.043C186.295 35.5703 186.591 36.2822 186.591 37.1787C186.591 38.0928 186.23 38.8164 185.51 39.3496C184.789 39.877 183.805 40.1406 182.557 40.1406C181.707 40.1406 180.939 40.0029 180.254 39.7275C179.568 39.4521 179.038 39.0596 178.663 38.5498C178.294 38.04 178.109 37.4365 178.109 36.7393H180.658C180.658 37.2842 180.825 37.6768 181.159 37.917C181.499 38.1572 182.006 38.2773 182.68 38.2773C183.137 38.2773 183.497 38.1836 183.761 37.9961C184.03 37.8086 184.165 37.5596 184.165 37.249ZM196.663 31.8174H193.341V40H190.792V31.8174H187.531V29.7607H196.663V31.8174ZM200.557 40H198.008V29.7607H200.557V40ZM211.719 35.0869C211.719 36.0889 211.522 36.9736 211.13 37.7412C210.737 38.5088 210.175 39.1006 209.442 39.5166C208.716 39.9326 207.89 40.1406 206.964 40.1406C206.032 40.1406 205.2 39.9355 204.468 39.5254C203.741 39.1152 203.179 38.5322 202.78 37.7764C202.382 37.0146 202.18 36.1387 202.174 35.1484V34.6914C202.174 33.6836 202.37 32.7959 202.763 32.0283C203.155 31.2607 203.715 30.6689 204.441 30.2529C205.168 29.8311 206.003 29.6201 206.946 29.6201C207.872 29.6201 208.695 29.8252 209.416 30.2354C210.143 30.6455 210.705 31.2344 211.104 32.002C211.508 32.7637 211.713 33.6426 211.719 34.6387V35.0869ZM209.17 34.6826C209.17 33.71 208.974 32.9629 208.581 32.4414C208.194 31.9199 207.649 31.6592 206.946 31.6592C206.22 31.6592 205.666 31.9199 205.285 32.4414C204.91 32.9629 204.723 33.71 204.723 34.6826V35.0869C204.723 36.042 204.916 36.7861 205.303 37.3193C205.689 37.8525 206.243 38.1191 206.964 38.1191C207.644 38.1191 208.18 37.8555 208.572 37.3281C208.971 36.8008 209.17 36.0449 209.17 35.0605V34.6826ZM222.301 40H219.761L215.718 33.6191V40H213.169V29.7607H215.718L219.761 36.1504V29.7607H222.301V40ZM229.745 37.249C229.745 36.9092 229.602 36.6367 229.314 36.4316C229.027 36.2266 228.538 36.042 227.847 35.8779C227.155 35.7139 226.572 35.541 226.098 35.3594C225.629 35.1719 225.242 34.9521 224.938 34.7002C224.633 34.4482 224.407 34.1582 224.261 33.8301C224.114 33.4961 224.041 33.1006 224.041 32.6436C224.041 31.7646 224.407 31.041 225.14 30.4727C225.872 29.9043 226.815 29.6201 227.97 29.6201C229.229 29.6201 230.246 29.9072 231.02 30.4814C231.799 31.0498 232.188 31.8291 232.188 32.8193H229.648C229.648 32.4443 229.496 32.1309 229.191 31.8789C228.893 31.627 228.488 31.501 227.979 31.501C227.527 31.501 227.161 31.6006 226.88 31.7998C226.599 31.999 226.458 32.248 226.458 32.5469C226.458 32.8457 226.604 33.0889 226.897 33.2764C227.19 33.458 227.677 33.6338 228.356 33.8037C229.722 34.1025 230.697 34.5156 231.283 35.043C231.875 35.5703 232.171 36.2822 232.171 37.1787C232.171 38.0928 231.811 38.8164 231.09 39.3496C230.369 39.877 229.385 40.1406 228.137 40.1406C227.287 40.1406 226.52 40.0029 225.834 39.7275C225.148 39.4521 224.618 39.0596 224.243 38.5498C223.874 38.04 223.689 37.4365 223.689 36.7393H226.238C226.238 37.2842 226.405 37.6768 226.739 37.917C227.079 38.1572 227.586 38.2773 228.26 38.2773C228.717 38.2773 229.077 38.1836 229.341 37.9961C229.61 37.8086 229.745 37.5596 229.745 37.249ZM242.296 37.1875L242.393 37.6709L242.489 37.2139L244.845 29.7607H247.517L243.772 40H241.03L237.304 29.7607H239.967L242.296 37.1875ZM251.094 40H248.545V29.7607H251.094V40ZM259.373 38.0488H255.409L254.688 40H252.14L256.191 29.7607H258.582L262.669 40H260.103L259.373 38.0488ZM256.095 36.1855H258.67L257.378 32.7227L256.095 36.1855ZM276.556 31.8174H273.233V40H270.685V31.8174H267.424V29.7607H276.556V31.8174ZM286.874 40H284.334V36.0098H280.282V40H277.733V29.7607H280.282V33.9619H284.334V29.7607H286.874V40ZM295.408 35.7373H291.181V37.9609H296.155V40H288.632V29.7607H296.164V31.8174H291.181V33.6895H295.408V35.7373ZM172.757 61V48.2031H177.239C178.792 48.2031 179.97 48.502 180.772 49.0996C181.575 49.6914 181.977 50.5615 181.977 51.71C181.977 52.3369 181.815 52.8906 181.493 53.3711C181.171 53.8457 180.723 54.1943 180.148 54.417C180.805 54.5811 181.32 54.9121 181.695 55.4102C182.076 55.9082 182.267 56.5176 182.267 57.2383C182.267 58.4688 181.874 59.4004 181.089 60.0332C180.304 60.666 179.185 60.9883 177.731 61H172.757ZM175.394 55.4277V58.8818H177.652C178.273 58.8818 178.757 58.7354 179.103 58.4424C179.454 58.1436 179.63 57.7334 179.63 57.2119C179.63 56.04 179.023 55.4453 177.811 55.4277H175.394ZM175.394 53.5645H177.345C178.675 53.541 179.34 53.0107 179.34 51.9736C179.34 51.3936 179.17 50.9775 178.83 50.7256C178.496 50.4678 177.966 50.3389 177.239 50.3389H175.394V53.5645ZM192.532 50.7607V57.3877C192.532 58.5537 192.154 59.4707 191.398 60.1387C190.643 60.8066 189.591 61.1406 188.243 61.1406C186.901 61.1406 185.847 60.8066 185.079 60.1387C184.312 59.4707 183.928 58.5566 183.928 57.3965V50.7607H186.477V57.5195C186.512 58.5742 187.101 59.1016 188.243 59.1016C188.812 59.1016 189.242 58.9697 189.535 58.7061C189.834 58.4424 189.983 58.0088 189.983 57.4053V50.7607H192.532ZM202.789 52.8174H199.467V61H196.918V52.8174H193.657V50.7607H202.789V52.8174ZM212.51 52.8174H209.188V61H206.639V52.8174H203.378V50.7607H212.51V52.8174ZM222.925 56.0869C222.925 57.0889 222.729 57.9736 222.336 58.7412C221.943 59.5088 221.381 60.1006 220.648 60.5166C219.922 60.9326 219.096 61.1406 218.17 61.1406C217.238 61.1406 216.406 60.9355 215.674 60.5254C214.947 60.1152 214.385 59.5322 213.986 58.7764C213.588 58.0146 213.386 57.1387 213.38 56.1484V55.6914C213.38 54.6836 213.576 53.7959 213.969 53.0283C214.361 52.2607 214.921 51.6689 215.647 51.2529C216.374 50.8311 217.209 50.6201 218.152 50.6201C219.078 50.6201 219.901 50.8252 220.622 51.2354C221.349 51.6455 221.911 52.2344 222.31 53.002C222.714 53.7637 222.919 54.6426 222.925 55.6387V56.0869ZM220.376 55.6826C220.376 54.71 220.18 53.9629 219.787 53.4414C219.4 52.9199 218.855 52.6592 218.152 52.6592C217.426 52.6592 216.872 52.9199 216.491 53.4414C216.116 53.9629 215.929 54.71 215.929 55.6826V56.0869C215.929 57.042 216.122 57.7861 216.509 58.3193C216.896 58.8525 217.449 59.1191 218.17 59.1191C218.85 59.1191 219.386 58.8555 219.778 58.3281C220.177 57.8008 220.376 57.0449 220.376 56.0605V55.6826ZM233.507 61H230.967L226.924 54.6191V61H224.375V50.7607H226.924L230.967 57.1504V50.7607H233.507V61Z"
          fill="white"/>
    <g opacity="0.25" filter="url(#filter1_d)">
        <rect x="4" y="117" width="223" height="62" rx="15" fill="#52FF00"/>
    </g>
    <path d="M50.0542 138.938H52.3159V151.02C52.3159 152.652 51.8237 153.93 50.8394 154.852C49.8628 155.773 48.5581 156.234 46.9253 156.234C45.23 156.234 43.9097 155.801 42.9644 154.934C42.019 154.066 41.5464 152.852 41.5464 151.289H43.7964C43.7964 152.266 44.062 153.027 44.5933 153.574C45.1323 154.121 45.9097 154.395 46.9253 154.395C47.855 154.395 48.605 154.102 49.1753 153.516C49.7534 152.93 50.0464 152.109 50.0542 151.055V138.938ZM63.6362 156C63.5112 155.75 63.4097 155.305 63.3315 154.664C62.3237 155.711 61.1206 156.234 59.7222 156.234C58.4722 156.234 57.4448 155.883 56.6401 155.18C55.8433 154.469 55.4448 153.57 55.4448 152.484C55.4448 151.164 55.9448 150.141 56.9448 149.414C57.9526 148.68 59.3667 148.312 61.187 148.312H63.2964V147.316C63.2964 146.559 63.0698 145.957 62.6167 145.512C62.1636 145.059 61.4956 144.832 60.6128 144.832C59.8394 144.832 59.1909 145.027 58.6675 145.418C58.144 145.809 57.8823 146.281 57.8823 146.836H55.7026C55.7026 146.203 55.9253 145.594 56.3706 145.008C56.8237 144.414 57.4331 143.945 58.1987 143.602C58.9722 143.258 59.8198 143.086 60.7417 143.086C62.2026 143.086 63.3472 143.453 64.1753 144.188C65.0034 144.914 65.4331 145.918 65.4644 147.199V153.035C65.4644 154.199 65.6128 155.125 65.9097 155.812V156H63.6362ZM60.0386 154.348C60.7183 154.348 61.3628 154.172 61.9722 153.82C62.5815 153.469 63.0229 153.012 63.2964 152.449V149.848H61.5972C58.9409 149.848 57.6128 150.625 57.6128 152.18C57.6128 152.859 57.8394 153.391 58.2925 153.773C58.7456 154.156 59.3276 154.348 60.0386 154.348ZM76.6909 154.746C75.8472 155.738 74.6089 156.234 72.9761 156.234C71.6245 156.234 70.5933 155.844 69.8823 155.062C69.1792 154.273 68.8237 153.109 68.8159 151.57V143.32H70.9839V151.512C70.9839 153.434 71.7651 154.395 73.3276 154.395C74.9839 154.395 76.0854 153.777 76.6323 152.543V143.32H78.8003V156H76.7378L76.6909 154.746ZM84.1558 143.32L84.2261 144.914C85.1948 143.695 86.4604 143.086 88.0229 143.086C90.7026 143.086 92.0542 144.598 92.0776 147.621V156H89.9097V147.609C89.9019 146.695 89.6909 146.02 89.2769 145.582C88.8706 145.145 88.2339 144.926 87.3667 144.926C86.6636 144.926 86.0464 145.113 85.5151 145.488C84.9839 145.863 84.5698 146.355 84.2729 146.965V156H82.105V143.32H84.1558ZM94.8198 149.555C94.8198 147.609 95.2808 146.047 96.2026 144.867C97.1245 143.68 98.3315 143.086 99.8237 143.086C101.308 143.086 102.484 143.594 103.351 144.609V138H105.519V156H103.527L103.421 154.641C102.554 155.703 101.347 156.234 99.8003 156.234C98.3315 156.234 97.1323 155.633 96.2026 154.43C95.2808 153.227 94.8198 151.656 94.8198 149.719V149.555ZM96.9878 149.801C96.9878 151.238 97.2847 152.363 97.8784 153.176C98.4722 153.988 99.2925 154.395 100.339 154.395C101.714 154.395 102.718 153.777 103.351 152.543V146.719C102.703 145.523 101.707 144.926 100.363 144.926C99.3003 144.926 98.4722 145.336 97.8784 146.156C97.2847 146.977 96.9878 148.191 96.9878 149.801ZM114.156 156.234C112.437 156.234 111.039 155.672 109.96 154.547C108.882 153.414 108.343 151.902 108.343 150.012V149.613C108.343 148.355 108.582 147.234 109.058 146.25C109.542 145.258 110.214 144.484 111.074 143.93C111.941 143.367 112.878 143.086 113.886 143.086C115.535 143.086 116.816 143.629 117.73 144.715C118.644 145.801 119.101 147.355 119.101 149.379V150.281H110.511C110.542 151.531 110.906 152.543 111.601 153.316C112.304 154.082 113.195 154.465 114.273 154.465C115.039 154.465 115.687 154.309 116.218 153.996C116.75 153.684 117.214 153.27 117.613 152.754L118.937 153.785C117.875 155.418 116.281 156.234 114.156 156.234ZM113.886 144.867C113.011 144.867 112.277 145.188 111.683 145.828C111.089 146.461 110.722 147.352 110.582 148.5H116.933V148.336C116.871 147.234 116.574 146.383 116.042 145.781C115.511 145.172 114.792 144.867 113.886 144.867Z"
          fill="white"/>
    <path d="M27.1229 151.547H19.9745L18.369 156H16.0487L22.5643 138.938H24.5331L31.0604 156H28.7518L27.1229 151.547ZM20.6542 149.695H26.455L23.5487 141.715L20.6542 149.695Z"
          fill="white"/>
    <g opacity="0.25" filter="url(#filter2_di)">
        <rect x="249" y="117" width="62" height="62" rx="18" fill="white"/>
    </g>
    <path d="M291 149.5C291 143.151 285.849 138 279.5 138C273.151 138 268 143.151 268 149.5C268 155.849 273.151 161 279.5 161C285.849 161 291 155.849 291 149.5Z"
          stroke="white" stroke-width="2" stroke-miterlimit="10"/>
    <path d="M285.25 144.708L277.2 154.291L273.75 150.458" stroke="white" stroke-width="2" stroke-linecap="round"
          stroke-linejoin="round"/>
    <path d="M36.5 34V53M46 43.5H27" stroke="white" stroke-width="5" stroke-linecap="round" stroke-linejoin="round"/>
    <defs>
        <filter id="filter0_d" x="0" y="10" width="77" height="77" filterUnits="userSpaceOnUse"
                color-interpolation-filters="sRGB">
            <feFlood flood-opacity="0" result="BackgroundImageFix"/>
            <feColorMatrix in="SourceAlpha" type="matrix" values="0 0 0 0 0 0 0 0 0 0 0 0 0 0 0 0 0 0 127 0"/>
            <feMorphology radius="3" operator="dilate" in="SourceAlpha" result="effect1_dropShadow"/>
            <feOffset dx="3" dy="4"/>
            <feGaussianBlur stdDeviation="2"/>
            <feColorMatrix type="matrix" values="0 0 0 0 0 0 0 0 0 0 0 0 0 0 0 0 0 0 0.25 0"/>
            <feBlend mode="normal" in2="BackgroundImageFix" result="effect1_dropShadow"/>
            <feBlend mode="normal" in="SourceGraphic" in2="effect1_dropShadow" result="shape"/>
        </filter>
        <filter id="filter1_d" x="0" y="117" width="231" height="70" filterUnits="userSpaceOnUse"
                color-interpolation-filters="sRGB">
            <feFlood flood-opacity="0" result="BackgroundImageFix"/>
            <feColorMatrix in="SourceAlpha" type="matrix" values="0 0 0 0 0 0 0 0 0 0 0 0 0 0 0 0 0 0 127 0"/>
            <feOffset dy="4"/>
            <feGaussianBlur stdDeviation="2"/>
            <feColorMatrix type="matrix" values="0 0 0 0 0 0 0 0 0 0 0 0 0 0 0 0 0 0 0.25 0"/>
            <feBlend mode="normal" in2="BackgroundImageFix" result="effect1_dropShadow"/>
            <feBlend mode="normal" in="SourceGraphic" in2="effect1_dropShadow" result="shape"/>
        </filter>
        <filter id="filter2_di" x="245" y="114" width="76" height="76" filterUnits="userSpaceOnUse"
                color-interpolation-filters="sRGB">
            <feFlood flood-opacity="0" result="BackgroundImageFix"/>
            <feColorMatrix in="SourceAlpha" type="matrix" values="0 0 0 0 0 0 0 0 0 0 0 0 0 0 0 0 0 0 127 0"/>
            <feMorphology radius="3" operator="dilate" in="SourceAlpha" result="effect1_dropShadow"/>
            <feOffset dx="3" dy="4"/>
            <feGaussianBlur stdDeviation="2"/>
            <feColorMatrix type="matrix" values="0 0 0 0 0 0 0 0 0 0 0 0 0 0 0 0 0 0 0.25 0"/>
            <feBlend mode="normal" in2="BackgroundImageFix" result="effect1_dropShadow"/>
            <feBlend mode="normal" in="SourceGraphic" in2="effect1_dropShadow" result="shape"/>
            <feColorMatrix in="SourceAlpha" type="matrix" values="0 0 0 0 0 0 0 0 0 0 0 0 0 0 0 0 0 0 127 0"
                           result="hardAlpha"/>
            <feOffset dy="4"/>
            <feGaussianBlur stdDeviation="2"/>
            <feComposite in2="hardAlpha" operator="arithmetic" k2="-1" k3="1"/>
            <feColorMatrix type="matrix" values="0 0 0 0 0 0 0 0 0 0 0 0 0 0 0 0 0 0 1 0"/>
            <feBlend mode="normal" in2="shape" result="effect2_innerShadow"/>
        </filter>
    </defs>
</svg>
