<svg width="281" height="128" viewBox="0 0 281 128" fill="none" xmlns="http://www.w3.org/2000/svg">
    <rect y="79" width="281" height="48.1908" fill="#1B5777"/>
    <g filter="url(#filter0_f)">
        <path d="M98.5593 93.7626H93.2896V91.7476C93.2896 91.0776 92.7474 90.5386 92.0735 90.5386H78.2912C77.6173 90.5386 77.0751 91.0776 77.0751 91.7476V93.7626H71.8054C71.1315 93.7626 70.5894 94.3016 70.5894 94.9716V97.7927C70.5894 99.5911 71.7294 101.44 73.7258 102.865C75.3219 104.009 77.2626 104.734 79.2995 104.966C80.8906 107.591 82.7502 108.674 82.7502 108.674V112.301H80.318C78.5294 112.301 77.0751 113.344 77.0751 115.122V115.726C77.0751 116.059 77.3487 116.331 77.6832 116.331H92.6815C93.0159 116.331 93.2896 116.059 93.2896 115.726V115.122C93.2896 113.344 91.8353 112.301 90.0467 112.301H87.6145V108.674C87.6145 108.674 89.4741 107.591 91.0652 104.966C93.1072 104.734 95.0478 104.009 96.6389 102.865C98.6302 101.44 99.7753 99.5911 99.7753 97.7927V94.9716C99.7753 94.3016 99.2332 93.7626 98.5593 93.7626ZM75.6209 100.251C74.3845 99.3644 73.8322 98.377 73.8322 97.7927V96.9866H77.0853C77.1359 98.6289 77.3792 100.07 77.7338 101.329C76.9687 101.067 76.2543 100.704 75.6209 100.251ZM96.5325 97.7927C96.5325 98.6037 95.6356 99.6112 94.7438 100.251C94.1104 100.704 93.3909 101.067 92.6258 101.329C92.9805 100.07 93.2237 98.6289 93.2744 96.9866H96.5325V97.7927Z"
              fill="#BBCDD6"/>
    </g>
    <g filter="url(#filter1_f)">
        <path d="M29.7631 97.2298L19.1183 105.973V115.41C19.1183 115.654 19.2157 115.888 19.3889 116.061C19.5622 116.234 19.7971 116.331 20.0421 116.331L26.512 116.314C26.7562 116.313 26.99 116.215 27.1622 116.043C27.3345 115.87 27.4312 115.636 27.4312 115.393V109.882C27.4312 109.638 27.5285 109.403 27.7017 109.231C27.875 109.058 28.1099 108.961 28.3549 108.961H32.05C32.295 108.961 32.53 109.058 32.7032 109.231C32.8765 109.403 32.9738 109.638 32.9738 109.882V115.389C32.9734 115.51 32.997 115.63 33.0433 115.742C33.0896 115.854 33.1575 115.956 33.2434 116.042C33.3292 116.128 33.4311 116.196 33.5434 116.243C33.6557 116.289 33.776 116.313 33.8976 116.313L40.3652 116.331C40.6102 116.331 40.8451 116.234 41.0184 116.061C41.1916 115.888 41.2889 115.654 41.2889 115.41V105.967L30.6465 97.2298C30.5214 97.1292 30.3655 97.0743 30.2048 97.0743C30.0441 97.0743 29.8882 97.1292 29.7631 97.2298ZM46.5775 103.172L41.7508 99.2047V91.2295C41.7508 91.0463 41.6778 90.8705 41.5479 90.7409C41.418 90.6114 41.2417 90.5386 41.058 90.5386H37.8248C37.641 90.5386 37.4648 90.6114 37.3349 90.7409C37.2049 90.8705 37.132 91.0463 37.132 91.2295V95.4103L31.9629 91.1691C31.4668 90.762 30.8443 90.5394 30.2019 90.5394C29.5595 90.5394 28.937 90.762 28.441 91.1691L13.8263 103.172C13.7561 103.23 13.6981 103.301 13.6555 103.382C13.6128 103.462 13.5865 103.55 13.5779 103.64C13.5693 103.73 13.5787 103.821 13.6055 103.908C13.6322 103.995 13.6759 104.076 13.7339 104.146L15.2062 105.93C15.264 106.001 15.3352 106.059 15.4156 106.101C15.496 106.144 15.5841 106.171 15.6748 106.179C15.7655 106.188 15.857 106.179 15.9441 106.152C16.0312 106.126 16.1122 106.082 16.1825 106.024L29.7631 94.8691C29.8882 94.7685 30.0441 94.7136 30.2048 94.7136C30.3655 94.7136 30.5214 94.7685 30.6465 94.8691L44.2277 106.024C44.2978 106.082 44.3787 106.126 44.4657 106.152C44.5527 106.179 44.6441 106.188 44.7347 106.18C44.8253 106.171 44.9134 106.145 44.9938 106.103C45.0742 106.06 45.1454 106.002 45.2034 105.932L46.6757 104.147C46.7337 104.077 46.7771 103.996 46.8036 103.909C46.83 103.822 46.8389 103.73 46.8298 103.639C46.8207 103.549 46.7937 103.461 46.7504 103.381C46.7071 103.301 46.6484 103.23 46.5775 103.172Z"
              fill="white" fill-opacity="0.7"/>
    </g>
    <g filter="url(#filter2_f)">
        <path d="M252.493 90.5386C245.369 90.5386 239.597 96.3106 239.597 103.435C239.597 110.559 245.369 116.331 252.493 116.331C259.617 116.331 265.389 110.559 265.389 103.435C265.389 96.3106 259.617 90.5386 252.493 90.5386ZM252.493 95.5306C255.02 95.5306 257.069 97.5794 257.069 100.107C257.069 102.634 255.02 104.683 252.493 104.683C249.965 104.683 247.917 102.634 247.917 100.107C247.917 97.5794 249.965 95.5306 252.493 95.5306ZM252.493 113.419C249.44 113.419 246.705 112.036 244.875 109.872C245.852 108.032 247.766 106.763 249.997 106.763C250.121 106.763 250.246 106.784 250.366 106.82C251.042 107.038 251.749 107.179 252.493 107.179C253.236 107.179 253.949 107.038 254.62 106.82C254.739 106.784 254.864 106.763 254.989 106.763C257.22 106.763 259.133 108.032 260.111 109.872C258.28 112.036 255.545 113.419 252.493 113.419Z"
              fill="white" fill-opacity="0.7"/>
    </g>
    <g filter="url(#filter3_f)">
        <path d="M154.201 90.5416C151.101 90.716 144.94 91.3505 141.137 93.6578C140.875 93.817 140.726 94.1001 140.726 94.3961V114.793C140.726 115.441 141.44 115.85 142.043 115.55C145.956 113.598 151.615 113.065 154.413 112.919C155.368 112.87 156.111 112.111 156.111 111.201V92.2626C156.112 91.2698 155.243 90.4833 154.201 90.5416ZM138.505 93.6578C134.703 91.3505 128.542 90.7165 125.442 90.5416C124.4 90.4833 123.531 91.2698 123.531 92.2626V111.201C123.531 112.112 124.274 112.871 125.229 112.92C128.029 113.066 133.691 113.599 137.604 115.552C138.204 115.852 138.917 115.443 138.917 114.797V94.386C138.917 94.0894 138.768 93.8176 138.505 93.6578Z"
              fill="#BBCDD6"/>
    </g>
    <path d="M210.085 101.447C210.315 100.847 210.444 100.192 210.444 99.5077C210.444 96.5367 208.028 94.1262 205.048 94.1262C203.941 94.1262 202.907 94.4626 202.053 95.0343C200.496 92.3436 197.59 90.5386 194.256 90.5386C189.288 90.5386 185.263 94.5523 185.263 99.5077C185.263 99.659 185.269 99.8104 185.274 99.9618C182.127 101.066 179.867 104.06 179.867 107.58C179.867 112.036 183.493 115.652 187.961 115.652H208.646C212.62 115.652 215.84 112.44 215.84 108.477C215.84 105.007 213.367 102.109 210.085 101.447ZM202.615 106.42L196.69 112.328C196.342 112.675 195.768 112.675 195.42 112.328L189.496 106.42C188.928 105.853 189.333 104.889 190.131 104.889H193.807V98.6108C193.807 98.1175 194.211 97.7139 194.706 97.7139H197.404C197.899 97.7139 198.303 98.1175 198.303 98.6108V104.889H201.979C202.778 104.889 203.182 105.853 202.615 106.42V106.42Z"
          fill="white"/>
    <g filter="url(#filter4_d)">
        <circle cx="237.5" cy="34.5" r="31.5" fill="#FF4961"/>
    </g>
    <path d="M190.787 40.0833C191.071 39.7616 191.071 39.2401 190.787 38.9183L176.933 23.265C175.44 21.5783 173.019 21.5783 171.527 23.265C170.034 24.9517 170.034 27.6865 171.527 29.3732L176.844 35.3807L159.646 35.3807C157.632 35.3807 156 37.225 156 39.5C156 41.775 157.632 43.6193 159.646 43.6193L176.844 43.6193L171.527 49.6268C170.034 51.3135 170.034 54.0483 171.527 55.735C173.019 57.4217 175.44 57.4217 176.933 55.735L190.787 40.0833Z"
          fill="white"/>
    <path d="M237.5 25V44M247 34.5H228" stroke="white" stroke-width="5" stroke-linecap="round" stroke-linejoin="round"/>
    <defs>
        <filter id="filter0_f" x="66.5894" y="86.5386" width="37.186" height="33.7923" filterUnits="userSpaceOnUse"
                color-interpolation-filters="sRGB">
            <feFlood flood-opacity="0" result="BackgroundImageFix"/>
            <feBlend mode="normal" in="SourceGraphic" in2="BackgroundImageFix" result="shape"/>
            <feGaussianBlur stdDeviation="2" result="effect1_foregroundBlur"/>
        </filter>
        <filter id="filter1_f" x="9.57483" y="86.5386" width="41.2585" height="33.7923" filterUnits="userSpaceOnUse"
                color-interpolation-filters="sRGB">
            <feFlood flood-opacity="0" result="BackgroundImageFix"/>
            <feBlend mode="normal" in="SourceGraphic" in2="BackgroundImageFix" result="shape"/>
            <feGaussianBlur stdDeviation="2" result="effect1_foregroundBlur"/>
        </filter>
        <filter id="filter2_f" x="235.597" y="86.5386" width="33.7923" height="33.7923" filterUnits="userSpaceOnUse"
                color-interpolation-filters="sRGB">
            <feFlood flood-opacity="0" result="BackgroundImageFix"/>
            <feBlend mode="normal" in="SourceGraphic" in2="BackgroundImageFix" result="shape"/>
            <feGaussianBlur stdDeviation="2" result="effect1_foregroundBlur"/>
        </filter>
        <filter id="filter3_f" x="119.531" y="86.5386" width="40.5797" height="33.1135" filterUnits="userSpaceOnUse"
                color-interpolation-filters="sRGB">
            <feFlood flood-opacity="0" result="BackgroundImageFix"/>
            <feBlend mode="normal" in="SourceGraphic" in2="BackgroundImageFix" result="shape"/>
            <feGaussianBlur stdDeviation="2" result="effect1_foregroundBlur"/>
        </filter>
        <filter id="filter4_d" x="202" y="0" width="77" height="77" filterUnits="userSpaceOnUse"
                color-interpolation-filters="sRGB">
            <feFlood flood-opacity="0" result="BackgroundImageFix"/>
            <feColorMatrix in="SourceAlpha" type="matrix" values="0 0 0 0 0 0 0 0 0 0 0 0 0 0 0 0 0 0 127 0"/>
            <feMorphology radius="3" operator="dilate" in="SourceAlpha" result="effect1_dropShadow"/>
            <feOffset dx="3" dy="4"/>
            <feGaussianBlur stdDeviation="2"/>
            <feColorMatrix type="matrix" values="0 0 0 0 0 0 0 0 0 0 0 0 0 0 0 0 0 0 0.25 0"/>
            <feBlend mode="normal" in2="BackgroundImageFix" result="effect1_dropShadow"/>
            <feBlend mode="normal" in="SourceGraphic" in2="effect1_dropShadow" result="shape"/>
        </filter>
    </defs>
</svg>
