<svg width="326" height="101" viewBox="0 0 326 101" fill="none" xmlns="http://www.w3.org/2000/svg">
    <path d="M250.917 34.7865C251.238 35.0712 251.76 35.0712 252.082 34.7865L267.735 20.9326C269.422 19.4398 269.422 17.0194 267.735 15.5266C266.048 14.0338 263.314 14.0338 261.627 15.5266L255.619 20.8436V3.64575C255.619 1.63226 253.775 1.2517e-06 251.5 1.2517e-06C249.225 1.2517e-06 247.381 1.63226 247.381 3.64575V20.8436L241.373 15.5267C239.686 14.0339 236.952 14.0339 235.265 15.5267C233.578 17.0195 233.578 19.4398 235.265 20.9326L250.917 34.7865Z"
          fill="white"/>
    <rect opacity="0.25" y="60" width="326" height="41" rx="18" fill="white"/>
    <rect x="162" y="60" width="163" height="41" rx="18" fill="white"/>
    <path d="M49.6494 86.7539C48.9902 87.5433 48.0584 88.1577 46.854 88.5972C45.6496 89.0285 44.3149 89.2441 42.8501 89.2441C41.312 89.2441 39.9611 88.9105 38.7974 88.2432C37.6418 87.5677 36.7466 86.5911 36.1118 85.3135C35.4852 84.0358 35.1637 82.5343 35.1475 80.8091V79.6006C35.1475 77.8265 35.4445 76.2925 36.0386 74.9985C36.6408 73.6965 37.5034 72.7036 38.6265 72.02C39.7576 71.3283 41.0801 70.9824 42.5938 70.9824C44.7015 70.9824 46.3494 71.487 47.5376 72.4961C48.7257 73.4971 49.4297 74.9578 49.6494 76.8784H46.085C45.9222 75.8612 45.5601 75.1165 44.9985 74.6445C44.4451 74.1725 43.6802 73.9365 42.7036 73.9365C41.4585 73.9365 40.5104 74.4045 39.8594 75.3403C39.2083 76.2762 38.8787 77.6678 38.8706 79.5151V80.6504C38.8706 82.514 39.2246 83.9219 39.9326 84.874C40.6406 85.8262 41.6782 86.3022 43.0454 86.3022C44.4207 86.3022 45.4014 86.0093 45.9873 85.4233V82.3594H42.6548V79.6616H49.6494V86.7539ZM61.6611 83.0796H55.7896V86.168H62.6987V89H52.2495V74.7788H62.7109V77.6353H55.7896V80.2354H61.6611V83.0796ZM76.9932 89H73.4653L67.8501 80.1377V89H64.3101V74.7788H67.8501L73.4653 83.6533V74.7788H76.9932V89ZM88.834 83.0796H82.9624V86.168H89.8716V89H79.4224V74.7788H89.8838V77.6353H82.9624V80.2354H88.834V83.0796ZM97.2324 84.0928H95.0229V89H91.4829V74.7788H97.4155C99.2222 74.7788 100.63 75.1532 101.639 75.9019C102.648 76.6424 103.153 77.6922 103.153 79.0513C103.153 80.0604 102.941 80.8945 102.518 81.5537C102.103 82.2048 101.424 82.7378 100.479 83.1528L103.702 88.8535V89H99.8936L97.2324 84.0928ZM95.0229 81.2485H97.4155C98.8885 81.2485 99.625 80.6423 99.625 79.4297C99.625 78.2334 98.856 77.6353 97.3179 77.6353H95.0229V81.2485ZM114.249 86.29H108.744L107.743 89H104.203L109.83 74.7788H113.15L118.827 89H115.262L114.249 86.29ZM109.696 83.7021H113.272L111.478 78.8926L109.696 83.7021ZM123.563 86.168H130.045V89H120.023V74.7788H123.563V86.168Z"
          fill="white"/>
    <path d="M200.162 80.5161C200.162 82.1763 199.894 83.6208 199.356 84.8496C198.819 86.0703 198.075 87.0509 197.123 87.7915L200.077 90.1108L197.745 92.1738L193.961 89.1343C193.53 89.2075 193.082 89.2441 192.618 89.2441C191.145 89.2441 189.831 88.8901 188.675 88.1821C187.52 87.4741 186.625 86.465 185.99 85.1548C185.355 83.8364 185.034 82.3228 185.025 80.6138V79.7349C185.025 77.9852 185.339 76.4471 185.965 75.1206C186.6 73.786 187.491 72.7646 188.639 72.0566C189.794 71.3405 191.113 70.9824 192.594 70.9824C194.075 70.9824 195.389 71.3405 196.537 72.0566C197.692 72.7646 198.583 73.786 199.21 75.1206C199.845 76.4471 200.162 77.9811 200.162 79.7227V80.5161ZM196.451 79.7104C196.451 77.8468 196.118 76.4308 195.45 75.4624C194.783 74.494 193.831 74.0098 192.594 74.0098C191.365 74.0098 190.417 74.4899 189.75 75.4502C189.082 76.4023 188.744 77.8021 188.736 79.6494V80.5161C188.736 82.3309 189.07 83.7388 189.737 84.7397C190.405 85.7407 191.365 86.2412 192.618 86.2412C193.847 86.2412 194.791 85.7611 195.45 84.8008C196.109 83.8324 196.443 82.4245 196.451 80.5771V79.7104ZM214.347 74.7788V83.9829C214.347 85.6024 213.822 86.876 212.772 87.8037C211.722 88.7314 210.261 89.1953 208.39 89.1953C206.526 89.1953 205.061 88.7314 203.995 87.8037C202.929 86.876 202.396 85.6064 202.396 83.9951V74.7788H205.936V84.166C205.985 85.6309 206.803 86.3633 208.39 86.3633C209.179 86.3633 209.777 86.1802 210.184 85.814C210.599 85.4478 210.807 84.8455 210.807 84.0073V74.7788H214.347ZM226.139 83.0796H220.267V86.168H227.176V89H216.727V74.7788H227.188V77.6353H220.267V80.2354H226.139V83.0796ZM236.698 85.1792C236.698 84.7072 236.498 84.3288 236.1 84.0439C235.701 83.7591 235.021 83.5028 234.061 83.2749C233.101 83.047 232.291 82.807 231.632 82.5547C230.981 82.2943 230.444 81.9891 230.021 81.6392C229.597 81.2892 229.284 80.8864 229.081 80.4307C228.877 79.9668 228.775 79.4175 228.775 78.7827C228.775 77.562 229.284 76.557 230.301 75.7676C231.319 74.9782 232.629 74.5835 234.232 74.5835C235.982 74.5835 237.394 74.9823 238.468 75.7798C239.55 76.5692 240.091 77.6515 240.091 79.0269H236.563C236.563 78.506 236.352 78.0706 235.929 77.7207C235.514 77.3708 234.952 77.1958 234.244 77.1958C233.618 77.1958 233.109 77.3341 232.718 77.6108C232.328 77.8875 232.132 78.2334 232.132 78.6484C232.132 79.0635 232.336 79.4012 232.743 79.6616C233.15 79.9139 233.825 80.158 234.769 80.394C236.665 80.8091 238.02 81.3828 238.834 82.1152C239.656 82.8477 240.067 83.8364 240.067 85.0815C240.067 86.3511 239.566 87.3561 238.565 88.0967C237.564 88.8291 236.197 89.1953 234.464 89.1953C233.284 89.1953 232.218 89.0041 231.266 88.6216C230.313 88.2391 229.577 87.6938 229.056 86.9858C228.543 86.2778 228.287 85.4396 228.287 84.4712H231.827C231.827 85.228 232.059 85.7733 232.523 86.1069C232.995 86.4406 233.699 86.6074 234.635 86.6074C235.27 86.6074 235.77 86.4772 236.136 86.2168C236.511 85.9564 236.698 85.6105 236.698 85.1792ZM254.056 77.6353H249.442V89H245.902V77.6353H241.373V74.7788H254.056V77.6353ZM259.464 89H255.924V74.7788H259.464V89ZM274.967 82.1763C274.967 83.5679 274.694 84.7967 274.149 85.8628C273.604 86.9289 272.822 87.7508 271.805 88.3286C270.796 88.9064 269.649 89.1953 268.363 89.1953C267.069 89.1953 265.913 88.9105 264.896 88.3408C263.887 87.7712 263.106 86.9614 262.552 85.9116C261.999 84.8537 261.718 83.637 261.71 82.2617V81.627C261.71 80.2272 261.983 78.9943 262.528 77.9282C263.073 76.8621 263.85 76.0402 264.859 75.4624C265.868 74.8765 267.028 74.5835 268.338 74.5835C269.624 74.5835 270.768 74.8683 271.769 75.438C272.778 76.0076 273.559 76.8255 274.112 77.8916C274.674 78.9495 274.959 80.1702 274.967 81.5537V82.1763ZM271.427 81.6147C271.427 80.2638 271.154 79.2262 270.609 78.502C270.072 77.7777 269.315 77.4155 268.338 77.4155C267.329 77.4155 266.56 77.7777 266.031 78.502C265.51 79.2262 265.25 80.2638 265.25 81.6147V82.1763C265.25 83.5028 265.519 84.5363 266.056 85.2769C266.593 86.0174 267.362 86.3877 268.363 86.3877C269.307 86.3877 270.051 86.0215 270.597 85.2891C271.15 84.5566 271.427 83.5068 271.427 82.1396V81.6147ZM289.664 89H286.136L280.521 80.1377V89H276.981V74.7788H280.521L286.136 83.6533V74.7788H289.664V89ZM300.003 85.1792C300.003 84.7072 299.804 84.3288 299.405 84.0439C299.007 83.7591 298.327 83.5028 297.367 83.2749C296.406 83.047 295.597 82.807 294.938 82.5547C294.286 82.2943 293.749 81.9891 293.326 81.6392C292.903 81.2892 292.59 80.8864 292.386 80.4307C292.183 79.9668 292.081 79.4175 292.081 78.7827C292.081 77.562 292.59 76.557 293.607 75.7676C294.624 74.9782 295.934 74.5835 297.538 74.5835C299.287 74.5835 300.699 74.9823 301.773 75.7798C302.856 76.5692 303.397 77.6515 303.397 79.0269H299.869C299.869 78.506 299.658 78.0706 299.234 77.7207C298.819 77.3708 298.258 77.1958 297.55 77.1958C296.923 77.1958 296.415 77.3341 296.024 77.6108C295.633 77.8875 295.438 78.2334 295.438 78.6484C295.438 79.0635 295.641 79.4012 296.048 79.6616C296.455 79.9139 297.131 80.158 298.075 80.394C299.971 80.8091 301.326 81.3828 302.14 82.1152C302.962 82.8477 303.373 83.8364 303.373 85.0815C303.373 86.3511 302.872 87.3561 301.871 88.0967C300.87 88.8291 299.503 89.1953 297.77 89.1953C296.59 89.1953 295.523 89.0041 294.571 88.6216C293.619 88.2391 292.883 87.6938 292.362 86.9858C291.849 86.2778 291.593 85.4396 291.593 84.4712H295.133C295.133 85.228 295.365 85.7733 295.829 86.1069C296.301 86.4406 297.005 86.6074 297.94 86.6074C298.575 86.6074 299.076 86.4772 299.442 86.2168C299.816 85.9564 300.003 85.6105 300.003 85.1792Z"
          fill="#5B5D6E"/>
</svg>
