<svg width="332" height="186" viewBox="0 0 332 186" fill="none" xmlns="http://www.w3.org/2000/svg">
    <rect opacity="0.25" y="57" width="326" height="41" rx="18" fill="white"/>
    <rect y="57" width="163" height="41" rx="18" fill="white"/>
    <path d="M49.6494 83.7539C48.9902 84.5433 48.0584 85.1577 46.854 85.5972C45.6496 86.0285 44.3149 86.2441 42.8501 86.2441C41.312 86.2441 39.9611 85.9105 38.7974 85.2432C37.6418 84.5677 36.7466 83.5911 36.1118 82.3135C35.4852 81.0358 35.1637 79.5343 35.1475 77.8091V76.6006C35.1475 74.8265 35.4445 73.2925 36.0386 71.9985C36.6408 70.6965 37.5034 69.7036 38.6265 69.02C39.7576 68.3283 41.0801 67.9824 42.5938 67.9824C44.7015 67.9824 46.3494 68.487 47.5376 69.4961C48.7257 70.4971 49.4297 71.9578 49.6494 73.8784H46.085C45.9222 72.8612 45.5601 72.1165 44.9985 71.6445C44.4451 71.1725 43.6802 70.9365 42.7036 70.9365C41.4585 70.9365 40.5104 71.4045 39.8594 72.3403C39.2083 73.2762 38.8787 74.6678 38.8706 76.5151V77.6504C38.8706 79.514 39.2246 80.9219 39.9326 81.874C40.6406 82.8262 41.6782 83.3022 43.0454 83.3022C44.4207 83.3022 45.4014 83.0093 45.9873 82.4233V79.3594H42.6548V76.6616H49.6494V83.7539ZM61.6611 80.0796H55.7896V83.168H62.6987V86H52.2495V71.7788H62.7109V74.6353H55.7896V77.2354H61.6611V80.0796ZM76.9932 86H73.4653L67.8501 77.1377V86H64.3101V71.7788H67.8501L73.4653 80.6533V71.7788H76.9932V86ZM88.834 80.0796H82.9624V83.168H89.8716V86H79.4224V71.7788H89.8838V74.6353H82.9624V77.2354H88.834V80.0796ZM97.2324 81.0928H95.0229V86H91.4829V71.7788H97.4155C99.2222 71.7788 100.63 72.1532 101.639 72.9019C102.648 73.6424 103.153 74.6922 103.153 76.0513C103.153 77.0604 102.941 77.8945 102.518 78.5537C102.103 79.2048 101.424 79.7378 100.479 80.1528L103.702 85.8535V86H99.8936L97.2324 81.0928ZM95.0229 78.2485H97.4155C98.8885 78.2485 99.625 77.6423 99.625 76.4297C99.625 75.2334 98.856 74.6353 97.3179 74.6353H95.0229V78.2485ZM114.249 83.29H108.744L107.743 86H104.203L109.83 71.7788H113.15L118.827 86H115.262L114.249 83.29ZM109.696 80.7021H113.272L111.478 75.8926L109.696 80.7021ZM123.563 83.168H130.045V86H120.023V71.7788H123.563V83.168Z"
          fill="#5B5D6E"/>
    <path d="M193.162 77.5161C193.162 79.1763 192.894 80.6208 192.356 81.8496C191.819 83.0703 191.075 84.0509 190.123 84.7915L193.077 87.1108L190.745 89.1738L186.961 86.1343C186.53 86.2075 186.082 86.2441 185.618 86.2441C184.145 86.2441 182.831 85.8901 181.675 85.1821C180.52 84.4741 179.625 83.465 178.99 82.1548C178.355 80.8364 178.034 79.3228 178.025 77.6138V76.7349C178.025 74.9852 178.339 73.4471 178.965 72.1206C179.6 70.786 180.491 69.7646 181.639 69.0566C182.794 68.3405 184.113 67.9824 185.594 67.9824C187.075 67.9824 188.389 68.3405 189.537 69.0566C190.692 69.7646 191.583 70.786 192.21 72.1206C192.845 73.4471 193.162 74.9811 193.162 76.7227V77.5161ZM189.451 76.7104C189.451 74.8468 189.118 73.4308 188.45 72.4624C187.783 71.494 186.831 71.0098 185.594 71.0098C184.365 71.0098 183.417 71.4899 182.75 72.4502C182.082 73.4023 181.744 74.8021 181.736 76.6494V77.5161C181.736 79.3309 182.07 80.7388 182.737 81.7397C183.405 82.7407 184.365 83.2412 185.618 83.2412C186.847 83.2412 187.791 82.7611 188.45 81.8008C189.109 80.8324 189.443 79.4245 189.451 77.5771V76.7104ZM207.347 71.7788V80.9829C207.347 82.6024 206.822 83.876 205.772 84.8037C204.722 85.7314 203.261 86.1953 201.39 86.1953C199.526 86.1953 198.061 85.7314 196.995 84.8037C195.929 83.876 195.396 82.6064 195.396 80.9951V71.7788H198.936V81.166C198.985 82.6309 199.803 83.3633 201.39 83.3633C202.179 83.3633 202.777 83.1802 203.184 82.814C203.599 82.4478 203.807 81.8455 203.807 81.0073V71.7788H207.347ZM219.139 80.0796H213.267V83.168H220.176V86H209.727V71.7788H220.188V74.6353H213.267V77.2354H219.139V80.0796ZM229.698 82.1792C229.698 81.7072 229.498 81.3288 229.1 81.0439C228.701 80.7591 228.021 80.5028 227.061 80.2749C226.101 80.047 225.291 79.807 224.632 79.5547C223.981 79.2943 223.444 78.9891 223.021 78.6392C222.597 78.2892 222.284 77.8864 222.081 77.4307C221.877 76.9668 221.775 76.4175 221.775 75.7827C221.775 74.562 222.284 73.557 223.301 72.7676C224.319 71.9782 225.629 71.5835 227.232 71.5835C228.982 71.5835 230.394 71.9823 231.468 72.7798C232.55 73.5692 233.091 74.6515 233.091 76.0269H229.563C229.563 75.506 229.352 75.0706 228.929 74.7207C228.514 74.3708 227.952 74.1958 227.244 74.1958C226.618 74.1958 226.109 74.3341 225.718 74.6108C225.328 74.8875 225.132 75.2334 225.132 75.6484C225.132 76.0635 225.336 76.4012 225.743 76.6616C226.15 76.9139 226.825 77.158 227.769 77.394C229.665 77.8091 231.02 78.3828 231.834 79.1152C232.656 79.8477 233.067 80.8364 233.067 82.0815C233.067 83.3511 232.566 84.3561 231.565 85.0967C230.564 85.8291 229.197 86.1953 227.464 86.1953C226.284 86.1953 225.218 86.0041 224.266 85.6216C223.313 85.2391 222.577 84.6938 222.056 83.9858C221.543 83.2778 221.287 82.4396 221.287 81.4712H224.827C224.827 82.228 225.059 82.7733 225.523 83.1069C225.995 83.4406 226.699 83.6074 227.635 83.6074C228.27 83.6074 228.77 83.4772 229.136 83.2168C229.511 82.9564 229.698 82.6105 229.698 82.1792ZM247.056 74.6353H242.442V86H238.902V74.6353H234.373V71.7788H247.056V74.6353ZM252.464 86H248.924V71.7788H252.464V86ZM267.967 79.1763C267.967 80.5679 267.694 81.7967 267.149 82.8628C266.604 83.9289 265.822 84.7508 264.805 85.3286C263.796 85.9064 262.649 86.1953 261.363 86.1953C260.069 86.1953 258.913 85.9105 257.896 85.3408C256.887 84.7712 256.106 83.9614 255.552 82.9116C254.999 81.8537 254.718 80.637 254.71 79.2617V78.627C254.71 77.2272 254.983 75.9943 255.528 74.9282C256.073 73.8621 256.85 73.0402 257.859 72.4624C258.868 71.8765 260.028 71.5835 261.338 71.5835C262.624 71.5835 263.768 71.8683 264.769 72.438C265.778 73.0076 266.559 73.8255 267.112 74.8916C267.674 75.9495 267.959 77.1702 267.967 78.5537V79.1763ZM264.427 78.6147C264.427 77.2638 264.154 76.2262 263.609 75.502C263.072 74.7777 262.315 74.4155 261.338 74.4155C260.329 74.4155 259.56 74.7777 259.031 75.502C258.51 76.2262 258.25 77.2638 258.25 78.6147V79.1763C258.25 80.5028 258.519 81.5363 259.056 82.2769C259.593 83.0174 260.362 83.3877 261.363 83.3877C262.307 83.3877 263.051 83.0215 263.597 82.2891C264.15 81.5566 264.427 80.5068 264.427 79.1396V78.6147ZM282.664 86H279.136L273.521 77.1377V86H269.981V71.7788H273.521L279.136 80.6533V71.7788H282.664V86ZM293.003 82.1792C293.003 81.7072 292.804 81.3288 292.405 81.0439C292.007 80.7591 291.327 80.5028 290.367 80.2749C289.406 80.047 288.597 79.807 287.938 79.5547C287.286 79.2943 286.749 78.9891 286.326 78.6392C285.903 78.2892 285.59 77.8864 285.386 77.4307C285.183 76.9668 285.081 76.4175 285.081 75.7827C285.081 74.562 285.59 73.557 286.607 72.7676C287.624 71.9782 288.934 71.5835 290.538 71.5835C292.287 71.5835 293.699 71.9823 294.773 72.7798C295.856 73.5692 296.397 74.6515 296.397 76.0269H292.869C292.869 75.506 292.658 75.0706 292.234 74.7207C291.819 74.3708 291.258 74.1958 290.55 74.1958C289.923 74.1958 289.415 74.3341 289.024 74.6108C288.633 74.8875 288.438 75.2334 288.438 75.6484C288.438 76.0635 288.641 76.4012 289.048 76.6616C289.455 76.9139 290.131 77.158 291.075 77.394C292.971 77.8091 294.326 78.3828 295.14 79.1152C295.962 79.8477 296.373 80.8364 296.373 82.0815C296.373 83.3511 295.872 84.3561 294.871 85.0967C293.87 85.8291 292.503 86.1953 290.77 86.1953C289.59 86.1953 288.523 86.0041 287.571 85.6216C286.619 85.2391 285.883 84.6938 285.362 83.9858C284.849 83.2778 284.593 82.4396 284.593 81.4712H288.133C288.133 82.228 288.365 82.7733 288.829 83.1069C289.301 83.4406 290.005 83.6074 290.94 83.6074C291.575 83.6074 292.076 83.4772 292.442 83.2168C292.816 82.9564 293.003 82.6105 293.003 82.1792Z"
          fill="white"/>
    <path d="M78.9167 34.7865C79.2384 35.0712 79.7599 35.0712 80.0817 34.7865L95.735 20.9326C97.4217 19.4398 97.4217 17.0194 95.735 15.5266C94.0483 14.0338 91.3135 14.0338 89.6268 15.5266L83.6193 20.8436V3.64575C83.6193 1.63226 81.775 1.2517e-06 79.5 1.2517e-06C77.225 1.2517e-06 75.3807 1.63226 75.3807 3.64575V20.8436L69.3732 15.5267C67.6865 14.0339 64.9517 14.0339 63.265 15.5267C61.5783 17.0195 61.5783 19.4398 63.265 20.9326L78.9167 34.7865Z"
          fill="white"/>
    <path d="M24.9658 123.193H19.5215V138H15.8594V123.193H10.4883V120.227H24.9658V123.193ZM30.459 138H26.9189V123.779H30.459V138ZM44.9976 126.635H40.3833V138H36.8433V126.635H32.3145V123.779H44.9976V126.635ZM50.1733 135.168H56.6553V138H46.6333V123.779H50.1733V135.168ZM67.6904 132.08H61.8188V135.168H68.728V138H58.2788V123.779H68.7402V126.635H61.8188V129.235H67.6904V132.08Z"
          fill="white"/>
    <g opacity="0.25" filter="url(#filter0_d)">
        <rect x="5" y="143" width="317" height="32" rx="16" fill="white"/>
    </g>
    <defs>
        <filter id="filter0_d" x="1" y="140" width="331" height="46" filterUnits="userSpaceOnUse"
                color-interpolation-filters="sRGB">
            <feFlood flood-opacity="0" result="BackgroundImageFix"/>
            <feColorMatrix in="SourceAlpha" type="matrix" values="0 0 0 0 0 0 0 0 0 0 0 0 0 0 0 0 0 0 127 0"/>
            <feMorphology radius="3" operator="dilate" in="SourceAlpha" result="effect1_dropShadow"/>
            <feOffset dx="3" dy="4"/>
            <feGaussianBlur stdDeviation="2"/>
            <feColorMatrix type="matrix" values="0 0 0 0 0 0 0 0 0 0 0 0 0 0 0 0 0 0 0.25 0"/>
            <feBlend mode="normal" in2="BackgroundImageFix" result="effect1_dropShadow"/>
            <feBlend mode="normal" in="SourceGraphic" in2="effect1_dropShadow" result="shape"/>
        </filter>
    </defs>
</svg>
