<svg id="Layer_1" enable-background="new 0 0 512 512" height="512" viewBox="0 0 512 512" width="512"
     xmlns="http://www.w3.org/2000/svg">
    <g>
        <g>
            <g>
                <path d="m444.5 67.5v407c0 16.569-13.431 30-30 30h-377c-16.569 0-30-13.431-30-30v-407z" fill="#f7f6f7"/>
                <path d="m414.5 67.5v407c0 16.569-13.431 30-30 30h30c16.569 0 30-13.431 30-30v-407z" fill="#e2d8ec"/>
                <path d="m414.5 7.5h-377c-16.569 0-30 13.431-30 30v30h437v-30c0-16.569-13.431-30-30-30z"
                      fill="#506d90"/>
                <path d="m414.5 7.5h-30c16.569 0 30 13.431 30 30v30h30v-30c0-16.569-13.431-30-30-30z" fill="#455f7e"/>
            </g>
            <g>
                <circle cx="410.767" cy="410.767" fill="#f7e07f" r="93.733"/>
                <path d="m410.767 317.033c-5.106 0-10.115.415-15 1.2 44.636 7.18 78.733 45.872 78.733 92.533s-34.097 85.353-78.733 92.533c4.885.786 9.894 1.2 15 1.2 51.768 0 93.733-41.966 93.733-93.733s-41.966-93.733-93.733-93.733z"
                      fill="#f0d16f"/>
                <path d="m393.333 424.837v-61.411c0-3.124 2.532-5.656 5.656-5.656h23.554c3.124 0 5.656 2.532 5.656 5.656v61.411c0 3.124 2.532 5.656 5.656 5.656h12.941c4.319 0 6.483 5.222 3.428 8.277l-35.459 35.459c-2.209 2.209-5.79 2.209-7.999 0l-35.459-35.459c-3.054-3.054-.891-8.277 3.428-8.277h12.941c3.125 0 5.657-2.532 5.657-5.656z"
                      fill="#fff"/>
            </g>
            <g>
                <g>
                    <path d="m226 262.5 101-14v-129c0-3.866-3.134-7-7-7h-74c-11.046 0-20 8.954-20 20z" fill="#f3cfbb"/>
                    <path d="m327 232.5h-71c-16.569 0-30 13.431-30 30h94c3.866 0 7-3.134 7-7z" fill="#f0c3aa"/>
                </g>
                <g>
                    <path d="m226 262.5-101-14v-129c0-3.866 3.134-7 7-7h74c11.046 0 20 8.954 20 20z" fill="#f5dacb"/>
                    <path d="m125 232.5h71c16.569 0 30 13.431 30 30h-94c-3.866 0-7-3.134-7-7z" fill="#f3cfbb"/>
                </g>
            </g>
        </g>
        <path d="m256 180h41c4.142 0 7.5-3.358 7.5-7.5s-3.358-7.5-7.5-7.5h-41c-4.142 0-7.5 3.358-7.5 7.5s3.358 7.5 7.5 7.5zm83.726 127.5c0-4.142-3.358-7.5-7.5-7.5h-283.177c-4.142 0-7.5 3.358-7.5 7.5s3.358 7.5 7.5 7.5h283.177c4.142 0 7.5-3.358 7.5-7.5zm-42.726-97.5c4.142 0 7.5-3.358 7.5-7.5s-3.358-7.5-7.5-7.5h-41c-4.142 0-7.5 3.358-7.5 7.5s3.358 7.5 7.5 7.5zm-254.642-180c-4.142 0-7.5 3.358-7.5 7.5s3.358 7.5 7.5 7.5 7.5-3.358 7.5-7.5-3.358-7.5-7.5-7.5zm409.642 288.319v-280.819c0-20.678-16.822-37.5-37.5-37.5h-377c-20.678 0-37.5 16.822-37.5 37.5v437c0 20.678 16.822 37.5 37.5 37.5h373.271c55.818-.002 101.229-45.415 101.229-101.233 0-41.144-24.674-76.63-60-92.448zm-437-280.819c0-12.407 10.093-22.5 22.5-22.5h377c12.407 0 22.5 10.093 22.5 22.5v22.5h-422zm395.767 459.5c-47.549 0-86.233-38.684-86.233-86.233 0-10.271 1.785-20.315 5.306-29.855 1.434-3.886-.553-8.199-4.439-9.633-3.887-1.434-8.198.554-9.633 4.439-4.137 11.208-6.234 23-6.234 35.048 0 36.414 19.329 68.395 48.263 86.233h-320.297c-12.407.001-22.5-10.092-22.5-22.499v-399.5h422v237.987c-8.37-2.248-17.163-3.454-26.233-3.454-28.894 0-56.482 12.395-75.69 34.007-2.751 3.096-2.473 7.837.624 10.588 3.097 2.752 7.837 2.472 10.588-.624 16.364-18.412 39.865-28.972 64.478-28.972 47.549 0 86.233 38.684 86.233 86.233s-38.684 86.235-86.233 86.235zm-338.409-467c-4.142 0-7.5 3.358-7.5 7.5s3.358 7.5 7.5 7.5 7.5-3.358 7.5-7.5-3.358-7.5-7.5-7.5zm30 0c-4.142 0-7.5 3.358-7.5 7.5s3.358 7.5 7.5 7.5 7.5-3.358 7.5-7.5-3.358-7.5-7.5-7.5zm153.642 120h41c4.142 0 7.5-3.358 7.5-7.5s-3.358-7.5-7.5-7.5h-41c-4.142 0-7.5 3.358-7.5 7.5s3.358 7.5 7.5 7.5zm31.226 285h-238.177c-4.142 0-7.5 3.358-7.5 7.5s3.358 7.5 7.5 7.5h238.177c4.142 0 7.5-3.358 7.5-7.5s-3.358-7.5-7.5-7.5zm-132.226-225h41c4.142 0 7.5-3.358 7.5-7.5s-3.358-7.5-7.5-7.5h-41c-4.142 0-7.5 3.358-7.5 7.5s3.358 7.5 7.5 7.5zm291.797 212.993h-11.097v-59.568c0-7.254-5.902-13.156-13.156-13.156h-23.554c-7.254 0-13.156 5.902-13.156 13.156v59.568h-11.097c-5.012 0-9.49 2.992-11.408 7.623s-.868 9.913 2.677 13.457l35.459 35.459c2.565 2.565 5.934 3.847 9.303 3.847s6.738-1.282 9.303-3.847l35.459-35.459c3.544-3.544 4.595-8.826 2.677-13.457-1.92-4.631-6.398-7.623-11.41-7.623zm-36.03 44.629-29.628-29.628h6.539c7.254 0 13.156-5.902 13.156-13.156v-59.568h19.866v59.568c0 7.254 5.902 13.156 13.156 13.156h6.539zm-108.541-122.622h-253.177c-4.142 0-7.5 3.358-7.5 7.5s3.358 7.5 7.5 7.5h253.177c4.142 0 7.5-3.358 7.5-7.5s-3.358-7.5-7.5-7.5zm-15 45h-238.177c-4.142 0-7.5 3.358-7.5 7.5s3.358 7.5 7.5 7.5h238.177c4.142 0 7.5-3.358 7.5-7.5s-3.358-7.5-7.5-7.5zm-155.226-120h188c7.995 0 14.5-6.505 14.5-14.5v-136c0-7.995-6.505-14.5-14.5-14.5h-74c-7.875 0-14.982 3.332-20 8.655-5.018-5.323-12.125-8.655-20-8.655h-74c-7.995 0-14.5 6.505-14.5 14.5v44.145c0 4.142 3.358 7.5 7.5 7.5s7.5-3.358 7.5-7.5v-43.645h73.5c6.893 0 12.5 5.607 12.5 12.5v100.02c-6.272-4.719-14.064-7.52-22.5-7.52h-63.5v-26.355c0-4.142-3.358-7.5-7.5-7.5s-7.5 3.358-7.5 7.5v56.855c0 7.995 6.505 14.5 14.5 14.5zm187.5-15h-84.715c3.095-8.73 11.437-15 21.215-15h63.5zm-86-122.5c0-6.893 5.607-12.5 12.5-12.5h73.5v105h-63.5c-8.436 0-16.228 2.801-22.5 7.52zm-101 107.5h63.5c9.778 0 18.12 6.27 21.215 15h-84.715zm22.5-60h41c4.142 0 7.5-3.358 7.5-7.5s-3.358-7.5-7.5-7.5h-41c-4.142 0-7.5 3.358-7.5 7.5s3.358 7.5 7.5 7.5zm0-30h41c4.142 0 7.5-3.358 7.5-7.5s-3.358-7.5-7.5-7.5h-41c-4.142 0-7.5 3.358-7.5 7.5s3.358 7.5 7.5 7.5z"/>
    </g>
</svg>
