<svg id="Capa_1" enable-background="new 0 0 497 497" height="512" viewBox="0 0 497 497" width="512"
     xmlns="http://www.w3.org/2000/svg">
    <g>
        <path d="m375.791 462.924-.003.003-5.621-7.368 2.281-7.366c-3.036-11.099-6.951-20.999-11.275-29.738l-9.608-5.926 2.031-7.691c-16.042-25.783-33.82-37.899-33.82-37.899h-142.553s-17.778 12.118-33.82 37.902l-.059 8.888-7.497 4.711c-4.329 8.747-8.257 18.638-11.296 29.751l3.498 10.241-6.838 4.495c-1.903 10.449-3.012 21.794-3.012 34.073h57.65l6.294-4.965 8.707 4.965h50.15l7.5-4.965 7.5 4.965h50.15l8.706-4.965 6.294 4.965h57.65c0-12.279-1.105-23.628-3.009-34.076z"
              fill="#ff889e"/>
        <path d="m149.975 456.401c0-35.923 17.69-72.152 43.261-89.462h-16.014s-17.778 12.118-33.82 37.902l-.059 8.888-7.497 4.711c-4.329 8.747-8.257 18.638-11.296 29.751l3.498 10.241-6.838 4.495c-1.903 10.449-3.012 21.794-3.012 34.073h35.01c-2.611-12.197-3.233-25.99-3.233-40.599z"
              fill="#ff748f"/>
        <path d="m372.449 448.191h-51.299v-28.354h35.694c1.615 0 3.106-.515 4.33-1.383-2.425-4.902-4.978-9.44-7.577-13.617h-32.447v-36.895c-.882-.668-1.373-1.003-1.373-1.003h-13.627v37.899h-50.15v-37.899h-15v37.899h-50.15v-37.899h-13.627s-.491.335-1.373 1.003v36.895h-32.447c-2.599 4.177-5.151 8.714-7.576 13.615 1.224.869 2.717 1.385 4.332 1.385h35.691v28.354h-51.299c-1.284 4.695-2.406 9.609-3.339 14.736.622.167 1.272.264 1.947.264h52.691v33.809h15v-33.809h50.15v33.809h15v-33.809h50.15v33.809h15v-33.809h52.693c.674 0 1.324-.097 1.946-.264-.934-5.127-2.056-10.041-3.34-14.736zm-131.449 0h-50.15v-28.354h50.15zm65.15 0h-50.15v-28.354h50.15z"
              fill="#5c586f"/>
        <path d="m39.486 209.014c0-115.251 93.764-209.014 209.014-209.014s209.014 93.763 209.014 209.014z"
              fill="#5c586f"/>
        <g>
            <circle cx="421.723" cy="219.24" fill="#ffbd86" r="48.913"/>
        </g>
        <path d="m104.543 192.255c0-73.651 31.564-139.392 80.972-182.55-84.564 26.784-146.029 106-146.029 199.309h65.617c-.363-5.537-.56-11.123-.56-16.759z"
              fill="#4f4c5f"/>
        <path d="m190.85 368.624v-1.685h-13.627s-.491.335-1.373 1.003v15.03c4.552-5.509 9.584-10.355 15-14.348z"
              fill="#4f4c5f"/>
        <path d="m417.455 170.658c-3.022-13.355-12.448-24.289-25.198-29.281-41.198-16.129-68.379-56.221-68.379-56.221-36.136 61.21-117.258 62.685-117.258 62.685 24.337-24.337 9.587-62.685 9.587-62.685-28.106 32.364-70.739 44.81-101.753 49.549-16.053 2.453-29.225 14.066-33.392 29.762-3.867 14.565-5.884 29.884-5.782 45.69.609 94.364 77.636 171.426 172 172.076 96.228.662 174.442-77.144 174.442-173.219.001-13.182-1.475-26.019-4.267-38.356z"
              fill="#fed2a4"/>
        <path d="m176.446 366.452c-44.172-43.054-71.903-105.154-71.903-174.197 0-19.607 2.251-38.648 6.465-56.858-14.468 3.485-26.081 14.515-29.945 29.07-.534 2.012-1.025 4.042-1.488 6.082-1.327-.141-2.748-.222-4.298-.222-27.014 0-48.912 21.899-48.912 48.913s21.899 48.913 48.912 48.913c4.062 0 7.318-.504 9.938-1.437 15.725 44.18 48.947 80.243 91.231 99.736z"
              fill="#ffbd86"/>
        <g>
            <g>
                <g>
                    <ellipse cx="143.344" cy="242.955" fill="#ff9db0" rx="38.801" ry="30.899"/>
                </g>
                <g>
                    <ellipse cx="353.656" cy="242.955" fill="#ff9db0" rx="38.801" ry="30.899"/>
                </g>
            </g>
        </g>
        <g>
            <g>
                <path d="m165.957 220.711c-4.142 0-7.5-3.357-7.5-7.5v-15.861c0-4.143 3.358-7.5 7.5-7.5s7.5 3.357 7.5 7.5v15.861c0 4.142-3.358 7.5-7.5 7.5z"
                      fill="#423e4f"/>
            </g>
            <g>
                <path d="m331.043 220.711c-4.142 0-7.5-3.357-7.5-7.5v-15.861c0-4.143 3.358-7.5 7.5-7.5s7.5 3.357 7.5 7.5v15.861c0 4.142-3.358 7.5-7.5 7.5z"
                      fill="#423e4f"/>
            </g>
            <g>
                <path d="m248.5 230.152c-10.509 0-20.501-4.552-27.417-12.487-2.721-3.123-2.395-7.86.728-10.581 3.124-2.721 7.86-2.396 10.582.728 4.065 4.665 9.936 7.341 16.107 7.341s12.042-2.676 16.108-7.342c2.722-3.122 7.459-3.448 10.582-.727 3.123 2.722 3.448 7.459.727 10.582-6.916 7.935-16.909 12.486-27.417 12.486z"
                      fill="#423e4f"/>
            </g>
        </g>
        <g fill="#4f4c5f">
            <path d="m155.909 419.838c1.689-5.171 3.714-10.193 6.036-15h-18.542c-2.599 4.177-5.151 8.714-7.576 13.615 1.224.869 2.717 1.385 4.332 1.385z"/>
            <path d="m149.975 456.401c0-2.738.109-5.477.31-8.21h-25.734c-1.284 4.695-2.406 9.609-3.339 14.736.622.167 1.272.264 1.947.264h26.868c-.036-2.241-.052-4.506-.052-6.79z"/>
        </g>
    </g>
</svg>
