<?xml version="1.0" encoding="UTF-8" standalone="no"?>
<svg
   xmlns:dc="http://purl.org/dc/elements/1.1/"
   xmlns:cc="http://creativecommons.org/ns#"
   xmlns:rdf="http://www.w3.org/1999/02/22-rdf-syntax-ns#"
   xmlns:svg="http://www.w3.org/2000/svg"
   xmlns="http://www.w3.org/2000/svg"
   xmlns:sodipodi="http://sodipodi.sourceforge.net/DTD/sodipodi-0.dtd"
   xmlns:inkscape="http://www.inkscape.org/namespaces/inkscape"
   aria-hidden="true"
   focusable="false"
   data-prefix="fas"
   data-icon="cloud-download-alt"
   class="svg-inline--fa fa-cloud-download-alt fa-w-20"
   role="img"
   viewBox="0 0 640 512"
   version="1.1"
   id="svg4"
   sodipodi:docname="cloud-download-checkedt-solid.svg"
   inkscape:version="0.92.3 (2405546, 2018-03-11)">
  <metadata
     id="metadata10">
    <rdf:RDF>
      <cc:Work
         rdf:about="">
        <dc:format>image/svg+xml</dc:format>
        <dc:type
           rdf:resource="http://purl.org/dc/dcmitype/StillImage" />
        <dc:title></dc:title>
      </cc:Work>
    </rdf:RDF>
  </metadata>
  <defs
     id="defs8" />
  <sodipodi:namedview
     pagecolor="#ffffff"
     bordercolor="#666666"
     borderopacity="1"
     objecttolerance="10"
     gridtolerance="10"
     guidetolerance="10"
     inkscape:pageopacity="0"
     inkscape:pageshadow="2"
     inkscape:window-width="1920"
     inkscape:window-height="1017"
     id="namedview6"
     showgrid="false"
     inkscape:zoom="0.65186406"
     inkscape:cx="12.469622"
     inkscape:cy="287.88882"
     inkscape:window-x="1358"
     inkscape:window-y="-8"
     inkscape:window-maximized="1"
     inkscape:current-layer="svg4" />
  <g
     id="g4521">
    <path
       sodipodi:nodetypes="csscsscssssc"
       inkscape:connector-curvature="0"
       style="fill:#0a0a0a;fill-opacity:1"
       id="path2"
       d="m 537.6,226.6 c 4.1,-10.7 6.4,-22.4 6.4,-34.6 0,-53 -43,-96 -96,-96 -19.7,0 -38.1,6 -53.3,16.2 C 367,64.2 315.3,32 256,32 167.6,32 96,103.6 96,192 c 0,2.7 0.1,5.4 0.2,8.1 C 40.2,219.8 0,273.2 0,336 0,415.5 64.5,480 144,480 h 368 c 70.7,0 128,-57.3 128,-128 0,-61.9 -44,-113.6 -102.4,-125.4 z" />
    <path
       sodipodi:nodetypes="ccccscccccsc"
       inkscape:connector-curvature="0"
       id="path4515"
       d="m 430.82422,166.82422 c -4.94156,-0.0723 -9.80022,1.27388 -14,3.8789 -65.2458,39.20967 -110.09634,94.28363 -150.71094,147.47266 -15.19323,-20.08004 -33.49713,-38.19146 -55.4668,-53.67578 -11.66402,-8.50264 -28.03169,-5.80268 -36.34693,5.99566 -8.31525,11.79834 -5.35421,28.1208 6.57545,36.24653 26.73144,18.84044 46.01504,41.43284 60.89062,68.59765 11.25042,13.85244 11.83433,13.81539 20.32777,13.74004 8.3535,0.0733 15.35106,-2.83646 22.89099,-10.49199 47.3125,-62.0957 92.4748,-123.93449 158.45898,-163.58789 10.03387,-5.83957 14.9422,-17.65346 12.00048,-28.88401 -2.94173,-11.23056 -13.01143,-19.12111 -24.61962,-19.29177 z"
       style="color:#000000;font-style:normal;font-variant:normal;font-weight:normal;font-stretch:normal;font-size:medium;line-height:normal;font-family:sans-serif;font-variant-ligatures:normal;font-variant-position:normal;font-variant-caps:normal;font-variant-numeric:normal;font-variant-alternates:normal;font-feature-settings:normal;text-indent:0;text-align:start;text-decoration:none;text-decoration-line:none;text-decoration-style:solid;text-decoration-color:#000000;letter-spacing:normal;word-spacing:normal;text-transform:none;writing-mode:lr-tb;direction:ltr;text-orientation:mixed;dominant-baseline:auto;baseline-shift:baseline;text-anchor:start;white-space:normal;shape-padding:0;clip-rule:nonzero;display:inline;overflow:visible;visibility:visible;opacity:1;isolation:auto;mix-blend-mode:normal;color-interpolation:sRGB;color-interpolation-filters:linearRGB;solid-color:#000000;solid-opacity:1;vector-effect:none;fill:#ffffff;fill-opacity:1;fill-rule:nonzero;stroke:none;stroke-width:51.68066406;stroke-linecap:round;stroke-linejoin:miter;stroke-miterlimit:4;stroke-dasharray:none;stroke-dashoffset:0;stroke-opacity:1;paint-order:stroke markers fill;color-rendering:auto;image-rendering:auto;shape-rendering:auto;text-rendering:auto;enable-background:accumulate" />
  </g>
</svg>
