<svg width="366" height="94" viewBox="0 0 366 94" fill="none" xmlns="http://www.w3.org/2000/svg">
    <g filter="url(#filter0_f)">
        <rect x="5.52338" y="22" width="356.477" height="68" rx="18" fill="#BA6363"/>
    </g>
    <g filter="url(#filter1_f)">
        <path d="M30.3549 48V30.9375H35.1713C36.6556 30.9375 37.9681 31.2656 39.1088 31.9219C40.2494 32.5781 41.1283 33.5117 41.7455 34.7227C42.3705 35.9336 42.6869 37.3242 42.6947 38.8945V39.9844C42.6947 41.5938 42.3822 43.0039 41.7572 44.2148C41.14 45.4258 40.2533 46.3555 39.097 47.0039C37.9486 47.6523 36.6088 47.9844 35.0775 48H30.3549ZM32.6049 32.7891V46.1602H34.972C36.7064 46.1602 38.0541 45.6211 39.015 44.543C39.9838 43.4648 40.4681 41.9297 40.4681 39.9375V38.9414C40.4681 37.0039 40.0111 35.5 39.097 34.4297C38.1908 33.3516 36.9017 32.8047 35.2299 32.7891H32.6049ZM48.1205 48H45.9525V35.3203H48.1205V48ZM45.7767 31.957C45.7767 31.6055 45.8822 31.3086 46.0931 31.0664C46.3119 30.8242 46.6322 30.7031 47.0541 30.7031C47.476 30.7031 47.7963 30.8242 48.015 31.0664C48.2338 31.3086 48.3431 31.6055 48.3431 31.957C48.3431 32.3086 48.2338 32.6016 48.015 32.8359C47.7963 33.0703 47.476 33.1875 47.0541 33.1875C46.6322 33.1875 46.3119 33.0703 46.0931 32.8359C45.8822 32.6016 45.7767 32.3086 45.7767 31.957ZM58.9838 44.6367C58.9838 44.0508 58.7611 43.5977 58.3158 43.2773C57.8783 42.9492 57.1088 42.668 56.0072 42.4336C54.9135 42.1992 54.0424 41.918 53.3939 41.5898C52.7533 41.2617 52.2767 40.8711 51.9642 40.418C51.6595 39.9648 51.5072 39.4258 51.5072 38.8008C51.5072 37.7617 51.9447 36.8828 52.8197 36.1641C53.7025 35.4453 54.8275 35.0859 56.1947 35.0859C57.6322 35.0859 58.7963 35.457 59.6869 36.1992C60.5853 36.9414 61.0345 37.8906 61.0345 39.0469H58.8549C58.8549 38.4531 58.601 37.9414 58.0931 37.5117C57.5931 37.082 56.9603 36.8672 56.1947 36.8672C55.4056 36.8672 54.7885 37.0391 54.3431 37.3828C53.8978 37.7266 53.6752 38.1758 53.6752 38.7305C53.6752 39.2539 53.8822 39.6484 54.2963 39.9141C54.7103 40.1797 55.4564 40.4336 56.5345 40.6758C57.6205 40.918 58.4994 41.207 59.1713 41.543C59.8431 41.8789 60.3392 42.2852 60.6595 42.7617C60.9877 43.2305 61.1517 43.8047 61.1517 44.4844C61.1517 45.6172 60.6986 46.5273 59.7924 47.2148C58.8861 47.8945 57.7103 48.2344 56.265 48.2344C55.2494 48.2344 54.351 48.0547 53.5697 47.6953C52.7885 47.3359 52.1752 46.8359 51.7299 46.1953C51.2924 45.5469 51.0736 44.8477 51.0736 44.0977H53.2416C53.2806 44.8242 53.5697 45.4023 54.1088 45.832C54.6556 46.2539 55.3744 46.4648 56.265 46.4648C57.0853 46.4648 57.7416 46.3008 58.2338 45.9727C58.7338 45.6367 58.9838 45.1914 58.9838 44.6367ZM67.515 42.1289L66.1556 43.5469V48H63.9877V30H66.1556V40.8867L67.3158 39.4922L71.265 35.3203H73.9017L68.9681 40.6172L74.476 48H71.933L67.515 42.1289ZM82.2689 37.2656C81.9408 37.2109 81.5853 37.1836 81.2025 37.1836C79.7806 37.1836 78.8158 37.7891 78.308 39V48H76.14V35.3203H78.2494L78.2845 36.7852C78.9955 35.6523 80.0033 35.0859 81.308 35.0859C81.7299 35.0859 82.0502 35.1406 82.2689 35.25V37.2656ZM89.3002 48.2344C87.5814 48.2344 86.183 47.6719 85.1049 46.5469C84.0267 45.4141 83.4877 43.9023 83.4877 42.0117V41.6133C83.4877 40.3555 83.726 39.2344 84.2025 38.25C84.6869 37.2578 85.3588 36.4844 86.2181 35.9297C87.0853 35.3672 88.0228 35.0859 89.0306 35.0859C90.6791 35.0859 91.9603 35.6289 92.8744 36.7148C93.7885 37.8008 94.2455 39.3555 94.2455 41.3789V42.2812H85.6556C85.6869 43.5312 86.0502 44.543 86.7455 45.3164C87.4486 46.082 88.3392 46.4648 89.4174 46.4648C90.183 46.4648 90.8314 46.3086 91.3627 45.9961C91.8939 45.6836 92.3588 45.2695 92.7572 44.7539L94.0814 45.7852C93.0189 47.418 91.4252 48.2344 89.3002 48.2344ZM89.0306 36.8672C88.1556 36.8672 87.4213 37.1875 86.8275 37.8281C86.2338 38.4609 85.8666 39.3516 85.726 40.5H92.0775V40.3359C92.015 39.2344 91.7181 38.3828 91.1869 37.7812C90.6556 37.1719 89.9369 36.8672 89.0306 36.8672ZM99.7064 32.25V35.3203H102.074V36.9961H99.7064V44.8594C99.7064 45.3672 99.8119 45.75 100.023 46.0078C100.234 46.2578 100.593 46.3828 101.101 46.3828C101.351 46.3828 101.695 46.3359 102.132 46.2422V48C101.562 48.1562 101.007 48.2344 100.468 48.2344C99.4994 48.2344 98.7689 47.9414 98.2767 47.3555C97.7845 46.7695 97.5385 45.9375 97.5385 44.8594V36.9961H95.2299V35.3203H97.5385V32.25H99.7064ZM109.878 48.2344C108.16 48.2344 106.761 47.6719 105.683 46.5469C104.605 45.4141 104.066 43.9023 104.066 42.0117V41.6133C104.066 40.3555 104.304 39.2344 104.781 38.25C105.265 37.2578 105.937 36.4844 106.796 35.9297C107.663 35.3672 108.601 35.0859 109.609 35.0859C111.257 35.0859 112.538 35.6289 113.453 36.7148C114.367 37.8008 114.824 39.3555 114.824 41.3789V42.2812H106.234C106.265 43.5312 106.628 44.543 107.324 45.3164C108.027 46.082 108.917 46.4648 109.995 46.4648C110.761 46.4648 111.41 46.3086 111.941 45.9961C112.472 45.6836 112.937 45.2695 113.335 44.7539L114.66 45.7852C113.597 47.418 112.003 48.2344 109.878 48.2344ZM109.609 36.8672C108.734 36.8672 107.999 37.1875 107.406 37.8281C106.812 38.4609 106.445 39.3516 106.304 40.5H112.656V40.3359C112.593 39.2344 112.296 38.3828 111.765 37.7812C111.234 37.1719 110.515 36.8672 109.609 36.8672ZM126.542 30.9375L132.12 44.8594L137.699 30.9375H140.617V48H138.367V41.3555L138.578 34.1836L132.976 48H131.253L125.663 34.2188L125.886 41.3555V48H123.636V30.9375H126.542ZM152.078 48C151.953 47.75 151.851 47.3047 151.773 46.6641C150.765 47.7109 149.562 48.2344 148.163 48.2344C146.913 48.2344 145.886 47.8828 145.081 47.1797C144.285 46.4688 143.886 45.5703 143.886 44.4844C143.886 43.1641 144.386 42.1406 145.386 41.4141C146.394 40.6797 147.808 40.3125 149.628 40.3125H151.738V39.3164C151.738 38.5586 151.511 37.957 151.058 37.5117C150.605 37.0586 149.937 36.832 149.054 36.832C148.281 36.832 147.632 37.0273 147.109 37.418C146.585 37.8086 146.324 38.2812 146.324 38.8359H144.144C144.144 38.2031 144.367 37.5938 144.812 37.0078C145.265 36.4141 145.874 35.9453 146.64 35.6016C147.413 35.2578 148.261 35.0859 149.183 35.0859C150.644 35.0859 151.788 35.4531 152.617 36.1875C153.445 36.9141 153.874 37.918 153.906 39.1992V45.0352C153.906 46.1992 154.054 47.125 154.351 47.8125V48H152.078ZM148.48 46.3477C149.16 46.3477 149.804 46.1719 150.413 45.8203C151.023 45.4688 151.464 45.0117 151.738 44.4492V41.8477H150.038C147.382 41.8477 146.054 42.625 146.054 44.1797C146.054 44.8594 146.281 45.3906 146.734 45.7734C147.187 46.1562 147.769 46.3477 148.48 46.3477ZM160.245 32.25V35.3203H162.613V36.9961H160.245V44.8594C160.245 45.3672 160.351 45.75 160.562 46.0078C160.773 46.2578 161.132 46.3828 161.64 46.3828C161.89 46.3828 162.234 46.3359 162.671 46.2422V48C162.101 48.1562 161.546 48.2344 161.007 48.2344C160.038 48.2344 159.308 47.9414 158.816 47.3555C158.324 46.7695 158.078 45.9375 158.078 44.8594V36.9961H155.769V35.3203H158.078V32.25H160.245ZM167.324 36.8555C168.285 35.6758 169.535 35.0859 171.074 35.0859C173.753 35.0859 175.105 36.5977 175.128 39.6211V48H172.96V39.6094C172.953 38.6953 172.742 38.0195 172.328 37.582C171.921 37.1445 171.285 36.9258 170.417 36.9258C169.714 36.9258 169.097 37.1133 168.566 37.4883C168.035 37.8633 167.62 38.3555 167.324 38.9648V48H165.156V30H167.324V36.8555ZM183.636 48.2344C181.917 48.2344 180.519 47.6719 179.441 46.5469C178.363 45.4141 177.824 43.9023 177.824 42.0117V41.6133C177.824 40.3555 178.062 39.2344 178.538 38.25C179.023 37.2578 179.695 36.4844 180.554 35.9297C181.421 35.3672 182.359 35.0859 183.367 35.0859C185.015 35.0859 186.296 35.6289 187.21 36.7148C188.124 37.8008 188.581 39.3555 188.581 41.3789V42.2812H179.992C180.023 43.5312 180.386 44.543 181.081 45.3164C181.785 46.082 182.675 46.4648 183.753 46.4648C184.519 46.4648 185.167 46.3086 185.699 45.9961C186.23 45.6836 186.695 45.2695 187.093 44.7539L188.417 45.7852C187.355 47.418 185.761 48.2344 183.636 48.2344ZM183.367 36.8672C182.492 36.8672 181.757 37.1875 181.163 37.8281C180.57 38.4609 180.203 39.3516 180.062 40.5H186.413V40.3359C186.351 39.2344 186.054 38.3828 185.523 37.7812C184.992 37.1719 184.273 36.8672 183.367 36.8672Z"
              fill="white"/>
    </g>
    <g opacity="0.1" filter="url(#filter2_f)">
        <line x1="4" y1="54" x2="362" y2="54" stroke="white" stroke-width="2"/>
    </g>
    <g filter="url(#filter3_f)">
        <path d="M33.6039 73.1973H31.7992L31.2523 76H30.2748L30.8217 73.1973H29.1879V72.2607H30.9994L31.4711 69.8408H29.7074V68.8906H31.6556L32.2162 66.0469H33.1937L32.6332 68.8906H34.4379L34.9984 66.0469H35.9828L35.4222 68.8906H36.8168V69.8408H35.2377L34.766 72.2607H36.3041V73.1973H34.5883L34.0414 76H33.057L33.6039 73.1973ZM31.9769 72.2607H33.7816L34.2533 69.8408H32.4486L31.9769 72.2607ZM39.8519 66.0469L43.1058 74.168L46.3597 66.0469H48.0619V76H46.7494V72.124L46.8724 67.9404L43.6049 76H42.6L39.3392 67.9609L39.4691 72.124V76H38.1566V66.0469H39.8519ZM54.7474 76C54.6745 75.8542 54.6153 75.5944 54.5697 75.2207C53.9818 75.8314 53.28 76.1367 52.4642 76.1367C51.7351 76.1367 51.1358 75.9316 50.6664 75.5215C50.2015 75.1068 49.9691 74.5827 49.9691 73.9492C49.9691 73.179 50.2608 72.582 50.8441 72.1582C51.432 71.7298 52.2569 71.5156 53.3187 71.5156H54.5492V70.9346C54.5492 70.4925 54.417 70.1416 54.1527 69.8818C53.8884 69.6175 53.4987 69.4854 52.9838 69.4854C52.5326 69.4854 52.1543 69.5993 51.849 69.8271C51.5437 70.055 51.391 70.3307 51.391 70.6543H50.1195C50.1195 70.2852 50.2494 69.9297 50.5092 69.5879C50.7735 69.2415 51.1289 68.9681 51.5756 68.7676C52.0267 68.5671 52.5212 68.4668 53.059 68.4668C53.9112 68.4668 54.5788 68.681 55.0619 69.1094C55.545 69.5332 55.7956 70.1188 55.8138 70.8662V74.2705C55.8138 74.9495 55.9004 75.4896 56.0736 75.8906V76H54.7474ZM52.6488 75.0361C53.0453 75.0361 53.4213 74.9336 53.7767 74.7285C54.1322 74.5234 54.3897 74.2568 54.5492 73.9287V72.4111H53.558C52.0085 72.4111 51.2338 72.8646 51.2338 73.7715C51.2338 74.168 51.3659 74.4779 51.6302 74.7012C51.8946 74.9245 52.2341 75.0361 52.6488 75.0361ZM59.5121 66.8125V68.6035H60.8929V69.5811H59.5121V74.168C59.5121 74.4642 59.5736 74.6875 59.6967 74.8379C59.8197 74.9837 60.0293 75.0566 60.3256 75.0566C60.4714 75.0566 60.6719 75.0293 60.9271 74.9746V76C60.5944 76.0911 60.2709 76.1367 59.9564 76.1367C59.3913 76.1367 58.9652 75.9658 58.6781 75.624C58.391 75.2822 58.2474 74.7969 58.2474 74.168V69.5811H56.9008V68.6035H58.2474V66.8125H59.5121ZM63.641 69.499C64.2015 68.8109 64.9307 68.4668 65.8285 68.4668C67.3916 68.4668 68.1801 69.3486 68.1937 71.1123V76H66.9291V71.1055C66.9245 70.5723 66.8015 70.1781 66.5599 69.9229C66.323 69.6676 65.9515 69.54 65.4457 69.54C65.0355 69.54 64.6755 69.6494 64.3656 69.8682C64.0557 70.0869 63.8142 70.374 63.641 70.7295V76H62.3763V65.5H63.641V69.499ZM73.1566 76.1367C72.154 76.1367 71.3383 75.8086 70.7094 75.1523C70.0804 74.4915 69.766 73.6097 69.766 72.5068V72.2744C69.766 71.5407 69.905 70.8867 70.183 70.3125C70.4655 69.7337 70.8575 69.2826 71.3588 68.959C71.8646 68.6309 72.4115 68.4668 72.9994 68.4668C73.961 68.4668 74.7084 68.7835 75.2416 69.417C75.7748 70.0505 76.0414 70.9574 76.0414 72.1377V72.6641H71.0306C71.0489 73.3932 71.2608 73.9834 71.6664 74.4346C72.0765 74.8812 72.5961 75.1045 73.225 75.1045C73.6716 75.1045 74.0498 75.0133 74.3597 74.8311C74.6696 74.6488 74.9408 74.4072 75.1732 74.1064L75.9457 74.708C75.3259 75.6605 74.3962 76.1367 73.1566 76.1367ZM72.9994 69.5059C72.489 69.5059 72.0606 69.6927 71.7142 70.0664C71.3679 70.4355 71.1537 70.9551 71.0717 71.625H74.7767V71.5293C74.7403 70.8867 74.5671 70.39 74.2572 70.0391C73.9473 69.6836 73.528 69.5059 72.9994 69.5059ZM78.7006 68.6035L78.7347 69.4238C79.2771 68.7858 80.0085 68.4668 80.9291 68.4668C81.9636 68.4668 82.6677 68.8633 83.0414 69.6562C83.2875 69.3008 83.6065 69.0137 83.9984 68.7949C84.3949 68.5762 84.862 68.4668 85.3998 68.4668C87.0222 68.4668 87.847 69.3258 87.8744 71.0439V76H86.6097V71.1191C86.6097 70.5905 86.489 70.1963 86.2474 69.9365C86.0059 69.6722 85.6003 69.54 85.0306 69.54C84.5612 69.54 84.1716 69.6813 83.8617 69.9639C83.5518 70.2419 83.3718 70.6178 83.3217 71.0918V76H82.0502V71.1533C82.0502 70.0778 81.5238 69.54 80.4711 69.54C79.6416 69.54 79.0743 69.8932 78.7689 70.5996V76H77.5043V68.6035H78.7006ZM94.3549 76C94.2819 75.8542 94.2227 75.5944 94.1771 75.2207C93.5892 75.8314 92.8874 76.1367 92.0717 76.1367C91.3425 76.1367 90.7432 75.9316 90.2738 75.5215C89.809 75.1068 89.5765 74.5827 89.5765 73.9492C89.5765 73.179 89.8682 72.582 90.4515 72.1582C91.0394 71.7298 91.8643 71.5156 92.9261 71.5156H94.1566V70.9346C94.1566 70.4925 94.0245 70.1416 93.7601 69.8818C93.4958 69.6175 93.1062 69.4854 92.5912 69.4854C92.14 69.4854 91.7618 69.5993 91.4564 69.8271C91.1511 70.055 90.9984 70.3307 90.9984 70.6543H89.7269C89.7269 70.2852 89.8568 69.9297 90.1166 69.5879C90.3809 69.2415 90.7364 68.9681 91.183 68.7676C91.6342 68.5671 92.1286 68.4668 92.6664 68.4668C93.5186 68.4668 94.1862 68.681 94.6693 69.1094C95.1524 69.5332 95.403 70.1188 95.4213 70.8662V74.2705C95.4213 74.9495 95.5079 75.4896 95.681 75.8906V76H94.3549ZM92.2562 75.0361C92.6527 75.0361 93.0287 74.9336 93.3842 74.7285C93.7396 74.5234 93.9971 74.2568 94.1566 73.9287V72.4111H93.1654C91.6159 72.4111 90.8412 72.8646 90.8412 73.7715C90.8412 74.168 90.9733 74.4779 91.2377 74.7012C91.502 74.9245 91.8415 75.0361 92.2562 75.0361ZM99.1195 66.8125V68.6035H100.5V69.5811H99.1195V74.168C99.1195 74.4642 99.181 74.6875 99.3041 74.8379C99.4271 74.9837 99.6368 75.0566 99.933 75.0566C100.079 75.0566 100.279 75.0293 100.535 74.9746V76C100.202 76.0911 99.8783 76.1367 99.5638 76.1367C98.9987 76.1367 98.5726 75.9658 98.2855 75.624C97.9984 75.2822 97.8549 74.7969 97.8549 74.168V69.5811H96.5082V68.6035H97.8549V66.8125H99.1195ZM103.358 76H102.093V68.6035H103.358V76ZM101.991 66.6416C101.991 66.4365 102.052 66.2633 102.175 66.1221C102.303 65.9808 102.49 65.9102 102.736 65.9102C102.982 65.9102 103.169 65.9808 103.296 66.1221C103.424 66.2633 103.488 66.4365 103.488 66.6416C103.488 66.8467 103.424 67.0176 103.296 67.1543C103.169 67.291 102.982 67.3594 102.736 67.3594C102.49 67.3594 102.303 67.291 102.175 67.1543C102.052 67.0176 101.991 66.8467 101.991 66.6416ZM108.355 75.1045C108.806 75.1045 109.2 74.9678 109.537 74.6943C109.875 74.4209 110.062 74.0791 110.098 73.6689H111.294C111.272 74.0928 111.126 74.4961 110.857 74.8789C110.588 75.2617 110.228 75.5671 109.777 75.7949C109.33 76.0228 108.856 76.1367 108.355 76.1367C107.348 76.1367 106.546 75.8018 105.949 75.1318C105.356 74.4574 105.06 73.5368 105.06 72.3701V72.1582C105.06 71.4382 105.192 70.7979 105.456 70.2373C105.721 69.6768 106.099 69.2415 106.591 68.9316C107.088 68.6217 107.674 68.4668 108.348 68.4668C109.177 68.4668 109.866 68.7152 110.412 69.2119C110.964 69.7087 111.258 70.3535 111.294 71.1465H110.098C110.062 70.668 109.879 70.276 109.551 69.9707C109.228 69.6608 108.827 69.5059 108.348 69.5059C107.705 69.5059 107.206 69.7383 106.851 70.2031C106.5 70.6634 106.325 71.3311 106.325 72.2061V72.4453C106.325 73.2975 106.5 73.9538 106.851 74.4141C107.202 74.8743 107.703 75.1045 108.355 75.1045ZM117.023 74.0381C117.023 73.6963 116.893 73.432 116.633 73.2451C116.378 73.0537 115.929 72.8896 115.286 72.7529C114.648 72.6162 114.14 72.4521 113.762 72.2607C113.388 72.0693 113.11 71.8415 112.928 71.5771C112.75 71.3128 112.661 70.9984 112.661 70.6338C112.661 70.0277 112.917 69.515 113.427 69.0957C113.942 68.6764 114.598 68.4668 115.396 68.4668C116.234 68.4668 116.913 68.6833 117.433 69.1162C117.957 69.5492 118.219 70.1029 118.219 70.7773H116.948C116.948 70.431 116.8 70.1325 116.503 69.8818C116.212 69.6312 115.842 69.5059 115.396 69.5059C114.936 69.5059 114.576 69.6061 114.316 69.8066C114.056 70.0072 113.926 70.2692 113.926 70.5928C113.926 70.8981 114.047 71.1283 114.288 71.2832C114.53 71.4382 114.965 71.5863 115.594 71.7275C116.228 71.8688 116.74 72.0374 117.132 72.2334C117.524 72.4294 117.814 72.6663 118 72.9443C118.192 73.2178 118.287 73.5527 118.287 73.9492C118.287 74.61 118.023 75.141 117.495 75.542C116.966 75.9385 116.28 76.1367 115.437 76.1367C114.844 76.1367 114.32 76.0319 113.865 75.8223C113.409 75.6126 113.051 75.321 112.791 74.9473C112.536 74.569 112.409 74.1611 112.409 73.7236H113.673C113.696 74.1475 113.865 74.4847 114.179 74.7354C114.498 74.9814 114.917 75.1045 115.437 75.1045C115.915 75.1045 116.298 75.0088 116.585 74.8174C116.877 74.6214 117.023 74.3617 117.023 74.0381ZM123.435 75.3369C123.435 75.1182 123.499 74.9359 123.626 74.79C123.759 74.6442 123.954 74.5713 124.214 74.5713C124.474 74.5713 124.67 74.6442 124.802 74.79C124.939 74.9359 125.007 75.1182 125.007 75.3369C125.007 75.5465 124.939 75.722 124.802 75.8633C124.67 76.0046 124.474 76.0752 124.214 76.0752C123.954 76.0752 123.759 76.0046 123.626 75.8633C123.499 75.722 123.435 75.5465 123.435 75.3369ZM127.126 75.3369C127.126 75.1182 127.19 74.9359 127.318 74.79C127.45 74.6442 127.646 74.5713 127.906 74.5713C128.165 74.5713 128.361 74.6442 128.494 74.79C128.63 74.9359 128.699 75.1182 128.699 75.3369C128.699 75.5465 128.63 75.722 128.494 75.8633C128.361 76.0046 128.165 76.0752 127.906 76.0752C127.646 76.0752 127.45 76.0046 127.318 75.8633C127.19 75.722 127.126 75.5465 127.126 75.3369ZM137.886 70.6611H140.661V71.8574H137.886V75.002H136.615V71.8574H133.839V70.6611H136.615V67.7559H137.886V70.6611ZM148.598 76H142.077V75.0908L145.522 71.2627C146.032 70.6839 146.383 70.2145 146.575 69.8545C146.771 69.4899 146.869 69.1139 146.869 68.7266C146.869 68.207 146.711 67.7809 146.397 67.4482C146.082 67.1156 145.663 66.9492 145.139 66.9492C144.51 66.9492 144.02 67.1292 143.669 67.4893C143.323 67.8447 143.15 68.3415 143.15 68.9795H141.885C141.885 68.0635 142.179 67.3229 142.767 66.7578C143.359 66.1927 144.15 65.9102 145.139 65.9102C146.064 65.9102 146.796 66.154 147.333 66.6416C147.871 67.1247 148.14 67.7695 148.14 68.5762C148.14 69.556 147.516 70.7227 146.267 72.0762L143.601 74.9678H148.598V76ZM154.73 68.6035L154.764 69.4238C155.306 68.7858 156.038 68.4668 156.958 68.4668C157.993 68.4668 158.697 68.8633 159.071 69.6562C159.317 69.3008 159.636 69.0137 160.028 68.7949C160.424 68.5762 160.891 68.4668 161.429 68.4668C163.051 68.4668 163.876 69.3258 163.904 71.0439V76H162.639V71.1191C162.639 70.5905 162.518 70.1963 162.277 69.9365C162.035 69.6722 161.63 69.54 161.06 69.54C160.591 69.54 160.201 69.6813 159.891 69.9639C159.581 70.2419 159.401 70.6178 159.351 71.0918V76H158.079V71.1533C158.079 70.0778 157.553 69.54 156.5 69.54C155.671 69.54 155.104 69.8932 154.798 70.5996V76H153.534V68.6035H154.73ZM165.483 72.2334C165.483 71.5088 165.624 70.8571 165.907 70.2783C166.194 69.6995 166.59 69.2529 167.096 68.9385C167.606 68.624 168.188 68.4668 168.839 68.4668C169.846 68.4668 170.66 68.8154 171.28 69.5127C171.904 70.21 172.216 71.1374 172.216 72.2949V72.3838C172.216 73.1038 172.077 73.751 171.799 74.3252C171.526 74.8949 171.132 75.3392 170.617 75.6582C170.106 75.9772 169.518 76.1367 168.853 76.1367C167.85 76.1367 167.037 75.7881 166.412 75.0908C165.793 74.3936 165.483 73.4707 165.483 72.3223V72.2334ZM166.754 72.3838C166.754 73.2041 166.943 73.8626 167.322 74.3594C167.704 74.8561 168.215 75.1045 168.853 75.1045C169.495 75.1045 170.006 74.8538 170.384 74.3525C170.762 73.8467 170.952 73.1403 170.952 72.2334C170.952 71.4222 170.758 70.766 170.37 70.2646C169.988 69.7588 169.477 69.5059 168.839 69.5059C168.215 69.5059 167.711 69.7542 167.328 70.251C166.946 70.7477 166.754 71.4587 166.754 72.3838ZM177.377 69.7383C177.186 69.7064 176.979 69.6904 176.755 69.6904C175.926 69.6904 175.363 70.0436 175.067 70.75V76H173.802V68.6035H175.033L175.053 69.458C175.468 68.7972 176.056 68.4668 176.817 68.4668C177.063 68.4668 177.25 68.4987 177.377 68.5625V69.7383ZM181.479 76.1367C180.476 76.1367 179.661 75.8086 179.032 75.1523C178.403 74.4915 178.088 73.6097 178.088 72.5068V72.2744C178.088 71.5407 178.227 70.8867 178.505 70.3125C178.788 69.7337 179.18 69.2826 179.681 68.959C180.187 68.6309 180.734 68.4668 181.322 68.4668C182.283 68.4668 183.031 68.7835 183.564 69.417C184.097 70.0505 184.364 70.9574 184.364 72.1377V72.6641H179.353C179.371 73.3932 179.583 73.9834 179.989 74.4346C180.399 74.8812 180.918 75.1045 181.547 75.1045C181.994 75.1045 182.372 75.0133 182.682 74.8311C182.992 74.6488 183.263 74.4072 183.495 74.1064L184.268 74.708C183.648 75.6605 182.718 76.1367 181.479 76.1367ZM181.322 69.5059C180.811 69.5059 180.383 69.6927 180.036 70.0664C179.69 70.4355 179.476 70.9551 179.394 71.625H183.099V71.5293C183.063 70.8867 182.889 70.39 182.579 70.0391C182.27 69.6836 181.85 69.5059 181.322 69.5059Z"
              fill="white"/>
    </g>
    <g filter="url(#filter4_f)">
        <path d="M317.809 72.2246H319.781V73.6992H317.809V77H315.992V73.6992H309.518V72.6348L315.885 62.7812H317.809V72.2246ZM311.568 72.2246H315.992V65.252L315.777 65.6426L311.568 72.2246ZM330.729 77H321.412V75.7012L326.334 70.2324C327.063 69.4056 327.564 68.735 327.838 68.2207C328.118 67.6999 328.258 67.1628 328.258 66.6094C328.258 65.8672 328.033 65.2585 327.584 64.7832C327.135 64.3079 326.536 64.0703 325.787 64.0703C324.889 64.0703 324.189 64.3275 323.688 64.8418C323.193 65.3496 322.945 66.0592 322.945 66.9707H321.139C321.139 65.6621 321.559 64.6042 322.398 63.7969C323.245 62.9896 324.374 62.5859 325.787 62.5859C327.109 62.5859 328.154 62.9342 328.922 63.6309C329.69 64.321 330.074 65.2422 330.074 66.3945C330.074 67.7943 329.182 69.4609 327.398 71.3945L323.59 75.5254H330.729V77Z"
              fill="white"/>
    </g>
    <g filter="url(#filter5_f)">
        <path d="M346 63H340L336 66.75V76.125C336 77.1592 336.897 78 338 78H346C347.103 78 348 77.1592 348 76.125V64.875C348 63.8408 347.103 63 346 63ZM341 67.6875H339.5V64.875H341V67.6875ZM343.5 67.6875H342V64.875H343.5V67.6875ZM346 67.6875H344.5V64.875H346V67.6875Z"
              fill="white"/>
    </g>
    <g filter="url(#filter6_d)">
        <path d="M331.6 19.5469C332.016 18.4721 332.25 17.2969 332.25 16.0714C332.25 10.7478 327.883 6.42857 322.5 6.42857C320.499 6.42857 318.63 7.03125 317.087 8.0558C314.273 3.23438 309.023 0 303 0C294.022 0 286.75 7.19196 286.75 16.0714C286.75 16.3426 286.76 16.6138 286.77 16.885C281.083 18.8638 277 24.2277 277 30.5357C277 38.5212 283.551 45 291.625 45H329C336.18 45 342 39.2444 342 32.1429C342 25.9252 337.531 20.7321 331.6 19.5469ZM318.102 28.4565L307.398 39.0435C306.768 39.6663 305.732 39.6663 305.102 39.0435L294.398 28.4565C293.372 27.442 294.103 25.7143 295.545 25.7143H302.188V14.4643C302.188 13.5804 302.919 12.8571 303.812 12.8571H308.688C309.581 12.8571 310.312 13.5804 310.312 14.4643V25.7143H316.955C318.397 25.7143 319.128 27.442 318.102 28.4565Z"
              fill="white"/>
    </g>
    <defs>
        <filter id="filter0_f" x="1.52338" y="18" width="364.477" height="76" filterUnits="userSpaceOnUse"
                color-interpolation-filters="sRGB">
            <feFlood flood-opacity="0" result="BackgroundImageFix"/>
            <feBlend mode="normal" in="SourceGraphic" in2="BackgroundImageFix" result="shape"/>
            <feGaussianBlur stdDeviation="2" result="effect1_foregroundBlur"/>
        </filter>
        <filter id="filter1_f" x="26.3549" y="26" width="166.227" height="26.2344" filterUnits="userSpaceOnUse"
                color-interpolation-filters="sRGB">
            <feFlood flood-opacity="0" result="BackgroundImageFix"/>
            <feBlend mode="normal" in="SourceGraphic" in2="BackgroundImageFix" result="shape"/>
            <feGaussianBlur stdDeviation="2" result="effect1_foregroundBlur"/>
        </filter>
        <filter id="filter2_f" x="0" y="49" width="366" height="10" filterUnits="userSpaceOnUse"
                color-interpolation-filters="sRGB">
            <feFlood flood-opacity="0" result="BackgroundImageFix"/>
            <feBlend mode="normal" in="SourceGraphic" in2="BackgroundImageFix" result="shape"/>
            <feGaussianBlur stdDeviation="2" result="effect1_foregroundBlur"/>
        </filter>
        <filter id="filter3_f" x="25.1879" y="61.5" width="163.176" height="18.6367" filterUnits="userSpaceOnUse"
                color-interpolation-filters="sRGB">
            <feFlood flood-opacity="0" result="BackgroundImageFix"/>
            <feBlend mode="normal" in="SourceGraphic" in2="BackgroundImageFix" result="shape"/>
            <feGaussianBlur stdDeviation="2" result="effect1_foregroundBlur"/>
        </filter>
        <filter id="filter4_f" x="305.518" y="58.5859" width="29.2109" height="22.4141" filterUnits="userSpaceOnUse"
                color-interpolation-filters="sRGB">
            <feFlood flood-opacity="0" result="BackgroundImageFix"/>
            <feBlend mode="normal" in="SourceGraphic" in2="BackgroundImageFix" result="shape"/>
            <feGaussianBlur stdDeviation="2" result="effect1_foregroundBlur"/>
        </filter>
        <filter id="filter5_f" x="332" y="59" width="20" height="23" filterUnits="userSpaceOnUse"
                color-interpolation-filters="sRGB">
            <feFlood flood-opacity="0" result="BackgroundImageFix"/>
            <feBlend mode="normal" in="SourceGraphic" in2="BackgroundImageFix" result="shape"/>
            <feGaussianBlur stdDeviation="2" result="effect1_foregroundBlur"/>
        </filter>
        <filter id="filter6_d" x="273" y="0" width="73" height="53" filterUnits="userSpaceOnUse"
                color-interpolation-filters="sRGB">
            <feFlood flood-opacity="0" result="BackgroundImageFix"/>
            <feColorMatrix in="SourceAlpha" type="matrix" values="0 0 0 0 0 0 0 0 0 0 0 0 0 0 0 0 0 0 127 0"/>
            <feOffset dy="4"/>
            <feGaussianBlur stdDeviation="2"/>
            <feColorMatrix type="matrix" values="0 0 0 0 0 0 0 0 0 0 0 0 0 0 0 0 0 0 0.25 0"/>
            <feBlend mode="normal" in2="BackgroundImageFix" result="effect1_dropShadow"/>
            <feBlend mode="normal" in="SourceGraphic" in2="effect1_dropShadow" result="shape"/>
        </filter>
    </defs>
</svg>
