<svg width="281" height="101" viewBox="0 0 281 101" fill="none" xmlns="http://www.w3.org/2000/svg">
    <rect y="52" width="281" height="48.1908" fill="#1B5777"/>
    <g filter="url(#filter0_f)">
        <path d="M98.5593 66.7627H93.2896V64.7476C93.2896 64.0777 92.7474 63.5386 92.0735 63.5386H78.2912C77.6173 63.5386 77.0751 64.0777 77.0751 64.7476V66.7627H71.8054C71.1315 66.7627 70.5894 67.3017 70.5894 67.9717V70.7927C70.5894 72.5911 71.7294 74.4399 73.7258 75.8655C75.3219 77.0091 77.2626 77.7345 79.2995 77.9662C80.8906 80.5908 82.7502 81.6738 82.7502 81.6738V85.3009H80.318C78.5294 85.3009 77.0751 86.3436 77.0751 88.1219V88.7264C77.0751 89.0589 77.3487 89.3309 77.6832 89.3309H92.6815C93.0159 89.3309 93.2896 89.0589 93.2896 88.7264V88.1219C93.2896 86.3436 91.8353 85.3009 90.0467 85.3009H87.6145V81.6738C87.6145 81.6738 89.4741 80.5908 91.0652 77.9662C93.1072 77.7345 95.0478 77.0091 96.6389 75.8655C98.6302 74.4399 99.7753 72.5911 99.7753 70.7927V67.9717C99.7753 67.3017 99.2332 66.7627 98.5593 66.7627ZM75.6209 73.251C74.3845 72.3644 73.8322 71.3771 73.8322 70.7927V69.9867H77.0853C77.1359 71.6289 77.3792 73.0697 77.7338 74.3291C76.9687 74.0671 76.2543 73.7044 75.6209 73.251ZM96.5325 70.7927C96.5325 71.6038 95.6356 72.6113 94.7438 73.251C94.1104 73.7044 93.3909 74.0671 92.6258 74.3291C92.9805 73.0697 93.2237 71.6289 93.2744 69.9867H96.5325V70.7927Z"
              fill="#BBCDD6"/>
    </g>
    <g filter="url(#filter1_f)">
        <path d="M29.7631 70.2298L19.1183 78.9731V88.4097C19.1183 88.654 19.2157 88.8883 19.3889 89.0611C19.5622 89.2338 19.7971 89.3309 20.0421 89.3309L26.512 89.3142C26.7562 89.313 26.99 89.2154 27.1622 89.0428C27.3345 88.8701 27.4312 88.6365 27.4312 88.393V82.8821C27.4312 82.6378 27.5285 82.4035 27.7017 82.2307C27.875 82.0579 28.1099 81.9609 28.3549 81.9609H32.05C32.295 81.9609 32.53 82.0579 32.7032 82.2307C32.8765 82.4035 32.9738 82.6378 32.9738 82.8821V88.3889C32.9734 88.5101 32.997 88.6303 33.0433 88.7424C33.0896 88.8545 33.1575 88.9564 33.2434 89.0422C33.3292 89.1281 33.4311 89.1962 33.5434 89.2427C33.6557 89.2891 33.776 89.3131 33.8976 89.3131L40.3652 89.3309C40.6102 89.3309 40.8451 89.2338 41.0184 89.0611C41.1916 88.8883 41.2889 88.654 41.2889 88.4097V78.9668L30.6465 70.2298C30.5214 70.1293 30.3655 70.0744 30.2048 70.0744C30.0441 70.0744 29.8882 70.1293 29.7631 70.2298ZM46.5775 76.1725L41.7508 72.2048V64.2296C41.7508 64.0463 41.6778 63.8706 41.5479 63.741C41.418 63.6114 41.2417 63.5386 41.058 63.5386H37.8248C37.641 63.5386 37.4648 63.6114 37.3349 63.741C37.2049 63.8706 37.132 64.0463 37.132 64.2296V68.4103L31.9629 64.1691C31.4668 63.762 30.8443 63.5394 30.2019 63.5394C29.5595 63.5394 28.937 63.762 28.441 64.1691L13.8263 76.1725C13.7561 76.2303 13.6981 76.3014 13.6555 76.3816C13.6128 76.4618 13.5865 76.5496 13.5779 76.64C13.5693 76.7303 13.5787 76.8215 13.6055 76.9082C13.6322 76.995 13.6759 77.0756 13.7339 77.1456L15.2062 78.9305C15.264 79.0007 15.3352 79.0588 15.4156 79.1015C15.496 79.1442 15.5841 79.1707 15.6748 79.1794C15.7655 79.1881 15.857 79.1789 15.9441 79.1523C16.0312 79.1257 16.1122 79.0822 16.1825 79.0244L29.7631 67.8691C29.8882 67.7685 30.0441 67.7137 30.2048 67.7137C30.3655 67.7137 30.5214 67.7685 30.6465 67.8691L44.2277 79.0244C44.2978 79.0822 44.3787 79.1258 44.4657 79.1524C44.5527 79.1791 44.6441 79.1885 44.7347 79.1799C44.8253 79.1714 44.9134 79.1451 44.9938 79.1026C45.0742 79.0601 45.1454 79.0022 45.2034 78.9322L46.6757 77.1473C46.7337 77.077 46.7771 76.9959 46.8036 76.9088C46.83 76.8216 46.8389 76.7301 46.8298 76.6396C46.8207 76.549 46.7937 76.4611 46.7504 76.3809C46.7071 76.3008 46.6484 76.2299 46.5775 76.1725Z"
              fill="white" fill-opacity="0.7"/>
    </g>
    <g filter="url(#filter2_f)">
        <path d="M252.493 63.5386C245.369 63.5386 239.597 69.3107 239.597 76.4348C239.597 83.5588 245.369 89.3309 252.493 89.3309C259.617 89.3309 265.389 83.5588 265.389 76.4348C265.389 69.3107 259.617 63.5386 252.493 63.5386ZM252.493 68.5307C255.02 68.5307 257.069 70.5795 257.069 73.1067C257.069 75.634 255.02 77.6828 252.493 77.6828C249.965 77.6828 247.917 75.634 247.917 73.1067C247.917 70.5795 249.965 68.5307 252.493 68.5307ZM252.493 86.4189C249.44 86.4189 246.705 85.0357 244.875 82.8724C245.852 81.0316 247.766 79.7628 249.997 79.7628C250.121 79.7628 250.246 79.7836 250.366 79.82C251.042 80.0384 251.749 80.1788 252.493 80.1788C253.236 80.1788 253.949 80.0384 254.62 79.82C254.739 79.7836 254.864 79.7628 254.989 79.7628C257.22 79.7628 259.133 81.0316 260.111 82.8724C258.28 85.0357 255.545 86.4189 252.493 86.4189Z"
              fill="white" fill-opacity="0.7"/>
    </g>
    <g filter="url(#filter3_f)">
        <path d="M154.201 63.5417C151.101 63.716 144.94 64.3506 141.137 66.6579C140.875 66.8171 140.726 67.1002 140.726 67.3961V87.7935C140.726 88.4409 141.44 88.8502 142.043 88.5497C145.956 86.5978 151.615 86.0653 154.413 85.9195C155.368 85.8696 156.111 85.1106 156.111 84.2008V65.2626C156.112 64.2699 155.243 63.4834 154.201 63.5417ZM138.505 66.6579C134.703 64.3506 128.542 63.7166 125.442 63.5417C124.4 63.4834 123.531 64.2699 123.531 65.2626V84.2014C123.531 85.1117 124.274 85.8707 125.229 85.9201C128.029 86.0658 133.691 86.5989 137.604 88.5519C138.204 88.8518 138.917 88.4432 138.917 87.7974V67.386C138.917 67.0895 138.768 66.8176 138.505 66.6579Z"
              fill="#BBCDD6"/>
    </g>
    <path d="M210.085 74.4473C210.315 73.8475 210.444 73.1916 210.444 72.5078C210.444 69.5367 208.028 67.1263 205.048 67.1263C203.941 67.1263 202.907 67.4626 202.053 68.0344C200.496 65.3437 197.59 63.5386 194.256 63.5386C189.288 63.5386 185.263 67.5523 185.263 72.5078C185.263 72.6591 185.269 72.8105 185.274 72.9618C182.127 74.0661 179.867 77.0596 179.867 80.58C179.867 85.0365 183.493 88.6522 187.961 88.6522H208.646C212.62 88.6522 215.84 85.4401 215.84 81.4769C215.84 78.0069 213.367 75.1088 210.085 74.4473ZM202.615 79.4196L196.69 85.328C196.342 85.6755 195.768 85.6755 195.42 85.328L189.496 79.4196C188.928 78.8534 189.333 77.8892 190.131 77.8892H193.807V71.6108C193.807 71.1175 194.211 70.7139 194.706 70.7139H197.404C197.899 70.7139 198.303 71.1175 198.303 71.6108V77.8892H201.979C202.778 77.8892 203.182 78.8534 202.615 79.4196Z"
          fill="white"/>
    <path d="M195.917 34.7865C196.238 35.0712 196.76 35.0712 197.082 34.7865L212.735 20.9326C214.422 19.4398 214.422 17.0194 212.735 15.5266C211.048 14.0338 208.314 14.0338 206.627 15.5266L200.619 20.8436V3.64575C200.619 1.63226 198.775 0 196.5 0C194.225 0 192.381 1.63226 192.381 3.64575V20.8436L186.373 15.5267C184.686 14.0339 181.952 14.0339 180.265 15.5267C178.578 17.0195 178.578 19.4398 180.265 20.9326L195.917 34.7865Z"
          fill="white"/>
    <defs>
        <filter id="filter0_f" x="66.5894" y="59.5386" width="37.186" height="33.7923" filterUnits="userSpaceOnUse"
                color-interpolation-filters="sRGB">
            <feFlood flood-opacity="0" result="BackgroundImageFix"/>
            <feBlend mode="normal" in="SourceGraphic" in2="BackgroundImageFix" result="shape"/>
            <feGaussianBlur stdDeviation="2" result="effect1_foregroundBlur"/>
        </filter>
        <filter id="filter1_f" x="9.57483" y="59.5386" width="41.2585" height="33.7923" filterUnits="userSpaceOnUse"
                color-interpolation-filters="sRGB">
            <feFlood flood-opacity="0" result="BackgroundImageFix"/>
            <feBlend mode="normal" in="SourceGraphic" in2="BackgroundImageFix" result="shape"/>
            <feGaussianBlur stdDeviation="2" result="effect1_foregroundBlur"/>
        </filter>
        <filter id="filter2_f" x="235.597" y="59.5386" width="33.7923" height="33.7923" filterUnits="userSpaceOnUse"
                color-interpolation-filters="sRGB">
            <feFlood flood-opacity="0" result="BackgroundImageFix"/>
            <feBlend mode="normal" in="SourceGraphic" in2="BackgroundImageFix" result="shape"/>
            <feGaussianBlur stdDeviation="2" result="effect1_foregroundBlur"/>
        </filter>
        <filter id="filter3_f" x="119.531" y="59.5386" width="40.5797" height="33.1135" filterUnits="userSpaceOnUse"
                color-interpolation-filters="sRGB">
            <feFlood flood-opacity="0" result="BackgroundImageFix"/>
            <feBlend mode="normal" in="SourceGraphic" in2="BackgroundImageFix" result="shape"/>
            <feGaussianBlur stdDeviation="2" result="effect1_foregroundBlur"/>
        </filter>
    </defs>
</svg>
