<svg width="281" height="127" viewBox="0 0 281 127" fill="none" xmlns="http://www.w3.org/2000/svg">
    <rect x="1.19568" y="72.5719" width="279.804" height="54.3121" rx="18" fill="#BA6363"/>
    <path d="M21.1123 94.7599V77.6974H25.9287C27.4131 77.6974 28.7256 78.0255 29.8662 78.6818C31.0068 79.338 31.8857 80.2716 32.5029 81.4825C33.1279 82.6935 33.4443 84.0841 33.4521 85.6544V86.7443C33.4521 88.3536 33.1396 89.7638 32.5146 90.9747C31.8975 92.1857 31.0107 93.1154 29.8545 93.7638C28.7061 94.4122 27.3662 94.7443 25.835 94.7599H21.1123ZM23.3623 79.549V92.92H25.7295C27.4639 92.92 28.8115 92.381 29.7725 91.3029C30.7412 90.2247 31.2256 88.6896 31.2256 86.6974V85.7013C31.2256 83.7638 30.7686 82.2599 29.8545 81.1896C28.9482 80.1115 27.6592 79.5646 25.9873 79.549H23.3623ZM38.8779 94.7599H36.71V82.0802H38.8779V94.7599ZM36.5342 78.7169C36.5342 78.3654 36.6396 78.0685 36.8506 77.8263C37.0693 77.5841 37.3896 77.463 37.8115 77.463C38.2334 77.463 38.5537 77.5841 38.7725 77.8263C38.9912 78.0685 39.1006 78.3654 39.1006 78.7169C39.1006 79.0685 38.9912 79.3615 38.7725 79.5958C38.5537 79.8302 38.2334 79.9474 37.8115 79.9474C37.3896 79.9474 37.0693 79.8302 36.8506 79.5958C36.6396 79.3615 36.5342 79.0685 36.5342 78.7169ZM49.7412 91.3966C49.7412 90.8107 49.5186 90.3575 49.0732 90.0372C48.6357 89.7091 47.8662 89.4279 46.7646 89.1935C45.6709 88.9591 44.7998 88.6779 44.1514 88.3497C43.5107 88.0216 43.0342 87.631 42.7217 87.1779C42.417 86.7247 42.2646 86.1857 42.2646 85.5607C42.2646 84.5216 42.7021 83.6427 43.5771 82.924C44.46 82.2052 45.585 81.8458 46.9521 81.8458C48.3896 81.8458 49.5537 82.2169 50.4443 82.9591C51.3428 83.7013 51.792 84.6505 51.792 85.8068H49.6123C49.6123 85.213 49.3584 84.7013 48.8506 84.2716C48.3506 83.8419 47.7178 83.6271 46.9521 83.6271C46.1631 83.6271 45.5459 83.799 45.1006 84.1427C44.6553 84.4865 44.4326 84.9357 44.4326 85.4904C44.4326 86.0138 44.6396 86.4083 45.0537 86.674C45.4678 86.9396 46.2139 87.1935 47.292 87.4357C48.3779 87.6779 49.2568 87.9669 49.9287 88.3029C50.6006 88.6388 51.0967 89.045 51.417 89.5216C51.7451 89.9904 51.9092 90.5646 51.9092 91.2443C51.9092 92.3771 51.4561 93.2872 50.5498 93.9747C49.6436 94.6544 48.4678 94.9943 47.0225 94.9943C46.0068 94.9943 45.1084 94.8146 44.3271 94.4552C43.5459 94.0958 42.9326 93.5958 42.4873 92.9552C42.0498 92.3068 41.8311 91.6075 41.8311 90.8575H43.999C44.0381 91.5841 44.3271 92.1622 44.8662 92.5919C45.4131 93.0138 46.1318 93.2247 47.0225 93.2247C47.8428 93.2247 48.499 93.0607 48.9912 92.7325C49.4912 92.3966 49.7412 91.9513 49.7412 91.3966ZM58.2725 88.8888L56.9131 90.3068V94.7599H54.7451V76.7599H56.9131V87.6466L58.0732 86.2521L62.0225 82.0802H64.6592L59.7256 87.3771L65.2334 94.7599H62.6904L58.2725 88.8888ZM73.0264 84.0255C72.6982 83.9708 72.3428 83.9435 71.96 83.9435C70.5381 83.9435 69.5732 84.549 69.0654 85.7599V94.7599H66.8975V82.0802H69.0068L69.042 83.545C69.7529 82.4122 70.7607 81.8458 72.0654 81.8458C72.4873 81.8458 72.8076 81.9005 73.0264 82.0099V84.0255ZM80.0576 94.9943C78.3389 94.9943 76.9404 94.4318 75.8623 93.3068C74.7842 92.174 74.2451 90.6622 74.2451 88.7716V88.3732C74.2451 87.1154 74.4834 85.9943 74.96 85.0099C75.4443 84.0177 76.1162 83.2443 76.9756 82.6896C77.8428 82.1271 78.7803 81.8458 79.7881 81.8458C81.4365 81.8458 82.7178 82.3888 83.6318 83.4747C84.5459 84.5607 85.0029 86.1154 85.0029 88.1388V89.0411H76.4131C76.4443 90.2911 76.8076 91.3029 77.5029 92.0763C78.2061 92.8419 79.0967 93.2247 80.1748 93.2247C80.9404 93.2247 81.5889 93.0685 82.1201 92.756C82.6514 92.4435 83.1162 92.0294 83.5146 91.5138L84.8389 92.545C83.7764 94.1779 82.1826 94.9943 80.0576 94.9943ZM79.7881 83.6271C78.9131 83.6271 78.1787 83.9474 77.585 84.588C76.9912 85.2208 76.624 86.1115 76.4834 87.2599H82.835V87.0958C82.7725 85.9943 82.4756 85.1427 81.9443 84.5411C81.4131 83.9318 80.6943 83.6271 79.7881 83.6271ZM90.4639 79.0099V82.0802H92.8311V83.756H90.4639V91.6193C90.4639 92.1271 90.5693 92.5099 90.7803 92.7677C90.9912 93.0177 91.3506 93.1427 91.8584 93.1427C92.1084 93.1427 92.4521 93.0958 92.8896 93.0021V94.7599C92.3193 94.9161 91.7646 94.9943 91.2256 94.9943C90.2568 94.9943 89.5264 94.7013 89.0342 94.1154C88.542 93.5294 88.2959 92.6974 88.2959 91.6193V83.756H85.9873V82.0802H88.2959V79.0099H90.4639ZM100.636 94.9943C98.917 94.9943 97.5186 94.4318 96.4404 93.3068C95.3623 92.174 94.8232 90.6622 94.8232 88.7716V88.3732C94.8232 87.1154 95.0615 85.9943 95.5381 85.0099C96.0225 84.0177 96.6943 83.2443 97.5537 82.6896C98.4209 82.1271 99.3584 81.8458 100.366 81.8458C102.015 81.8458 103.296 82.3888 104.21 83.4747C105.124 84.5607 105.581 86.1154 105.581 88.1388V89.0411H96.9912C97.0225 90.2911 97.3857 91.3029 98.0811 92.0763C98.7842 92.8419 99.6748 93.2247 100.753 93.2247C101.519 93.2247 102.167 93.0685 102.698 92.756C103.229 92.4435 103.694 92.0294 104.093 91.5138L105.417 92.545C104.354 94.1779 102.761 94.9943 100.636 94.9943ZM100.366 83.6271C99.4912 83.6271 98.7568 83.9474 98.1631 84.588C97.5693 85.2208 97.2021 86.1115 97.0615 87.2599H103.413V87.0958C103.351 85.9943 103.054 85.1427 102.522 84.5411C101.991 83.9318 101.272 83.6271 100.366 83.6271ZM117.3 77.6974L122.878 91.6193L128.456 77.6974H131.374V94.7599H129.124V88.1154L129.335 80.9435L123.733 94.7599H122.011L116.421 80.9786L116.644 88.1154V94.7599H114.394V77.6974H117.3ZM142.835 94.7599C142.71 94.5099 142.608 94.0646 142.53 93.424C141.522 94.4708 140.319 94.9943 138.921 94.9943C137.671 94.9943 136.644 94.6427 135.839 93.9396C135.042 93.2286 134.644 92.3302 134.644 91.2443C134.644 89.924 135.144 88.9005 136.144 88.174C137.151 87.4396 138.565 87.0724 140.386 87.0724H142.495V86.0763C142.495 85.3185 142.269 84.7169 141.815 84.2716C141.362 83.8185 140.694 83.5919 139.812 83.5919C139.038 83.5919 138.39 83.7872 137.866 84.1779C137.343 84.5685 137.081 85.0411 137.081 85.5958H134.901C134.901 84.963 135.124 84.3536 135.569 83.7677C136.022 83.174 136.632 82.7052 137.397 82.3615C138.171 82.0177 139.019 81.8458 139.94 81.8458C141.401 81.8458 142.546 82.213 143.374 82.9474C144.202 83.674 144.632 84.6779 144.663 85.9591V91.795C144.663 92.9591 144.812 93.8849 145.108 94.5724V94.7599H142.835ZM139.237 93.1075C139.917 93.1075 140.562 92.9318 141.171 92.5802C141.78 92.2286 142.222 91.7716 142.495 91.2091V88.6075H140.796C138.14 88.6075 136.812 89.3849 136.812 90.9396C136.812 91.6193 137.038 92.1505 137.491 92.5333C137.944 92.9161 138.526 93.1075 139.237 93.1075ZM151.003 79.0099V82.0802H153.37V83.756H151.003V91.6193C151.003 92.1271 151.108 92.5099 151.319 92.7677C151.53 93.0177 151.89 93.1427 152.397 93.1427C152.647 93.1427 152.991 93.0958 153.429 93.0021V94.7599C152.858 94.9161 152.304 94.9943 151.765 94.9943C150.796 94.9943 150.065 94.7013 149.573 94.1154C149.081 93.5294 148.835 92.6974 148.835 91.6193V83.756H146.526V82.0802H148.835V79.0099H151.003ZM158.081 83.6154C159.042 82.4357 160.292 81.8458 161.831 81.8458C164.511 81.8458 165.862 83.3575 165.886 86.381V94.7599H163.718V86.3693C163.71 85.4552 163.499 84.7794 163.085 84.3419C162.679 83.9044 162.042 83.6857 161.175 83.6857C160.472 83.6857 159.854 83.8732 159.323 84.2482C158.792 84.6232 158.378 85.1154 158.081 85.7247V94.7599H155.913V76.7599H158.081V83.6154ZM174.394 94.9943C172.675 94.9943 171.276 94.4318 170.198 93.3068C169.12 92.174 168.581 90.6622 168.581 88.7716V88.3732C168.581 87.1154 168.819 85.9943 169.296 85.0099C169.78 84.0177 170.452 83.2443 171.312 82.6896C172.179 82.1271 173.116 81.8458 174.124 81.8458C175.772 81.8458 177.054 82.3888 177.968 83.4747C178.882 84.5607 179.339 86.1154 179.339 88.1388V89.0411H170.749C170.78 90.2911 171.144 91.3029 171.839 92.0763C172.542 92.8419 173.433 93.2247 174.511 93.2247C175.276 93.2247 175.925 93.0685 176.456 92.756C176.987 92.4435 177.452 92.0294 177.851 91.5138L179.175 92.545C178.112 94.1779 176.519 94.9943 174.394 94.9943ZM174.124 83.6271C173.249 83.6271 172.515 83.9474 171.921 84.588C171.327 85.2208 170.96 86.1115 170.819 87.2599H177.171V87.0958C177.108 85.9943 176.812 85.1427 176.28 84.5411C175.749 83.9318 175.03 83.6271 174.124 83.6271Z"
          fill="white"/>
    <line opacity="0.1" y1="97.9288" x2="281" y2="97.9288" stroke="white" stroke-width="2"/>
    <path d="M24.3613 113.516H22.5566L22.0098 116.319H21.0322L21.5791 113.516H19.9453V112.579H21.7568L22.2285 110.16H20.4648V109.209H22.4131L22.9736 106.366H23.9512L23.3906 109.209H25.1953L25.7559 106.366H26.7402L26.1797 109.209H27.5742V110.16H25.9951L25.5234 112.579H27.0615V113.516H25.3457L24.7988 116.319H23.8145L24.3613 113.516ZM22.7344 112.579H24.5391L25.0107 110.16H23.2061L22.7344 112.579ZM30.6094 106.366L33.8633 114.487L37.1172 106.366H38.8193V116.319H37.5068V112.443L37.6299 108.259L34.3623 116.319H33.3574L30.0967 108.28L30.2266 112.443V116.319H28.9141V106.366H30.6094ZM45.5049 116.319C45.432 116.173 45.3727 115.913 45.3271 115.539C44.7393 116.15 44.0374 116.455 43.2217 116.455C42.4925 116.455 41.8932 116.25 41.4238 115.84C40.959 115.425 40.7266 114.901 40.7266 114.268C40.7266 113.498 41.0182 112.901 41.6016 112.477C42.1895 112.049 43.0143 111.834 44.0762 111.834H45.3066V111.253C45.3066 110.811 45.1745 110.46 44.9102 110.201C44.6458 109.936 44.2562 109.804 43.7412 109.804C43.29 109.804 42.9118 109.918 42.6064 110.146C42.3011 110.374 42.1484 110.649 42.1484 110.973H40.877C40.877 110.604 41.0068 110.248 41.2666 109.907C41.5309 109.56 41.8864 109.287 42.333 109.086C42.7842 108.886 43.2786 108.786 43.8164 108.786C44.6686 108.786 45.3363 109 45.8193 109.428C46.3024 109.852 46.5531 110.438 46.5713 111.185V114.589C46.5713 115.268 46.6579 115.808 46.8311 116.209V116.319H45.5049ZM43.4062 115.355C43.8027 115.355 44.1787 115.252 44.5342 115.047C44.8896 114.842 45.1471 114.576 45.3066 114.247V112.73H44.3154C42.766 112.73 41.9912 113.183 41.9912 114.09C41.9912 114.487 42.1234 114.797 42.3877 115.02C42.652 115.243 42.9915 115.355 43.4062 115.355ZM50.2695 107.131V108.922H51.6504V109.9H50.2695V114.487C50.2695 114.783 50.3311 115.006 50.4541 115.157C50.5771 115.302 50.7868 115.375 51.083 115.375C51.2288 115.375 51.4294 115.348 51.6846 115.293V116.319C51.3519 116.41 51.0283 116.455 50.7139 116.455C50.1488 116.455 49.7227 116.285 49.4355 115.943C49.1484 115.601 49.0049 115.116 49.0049 114.487V109.9H47.6582V108.922H49.0049V107.131H50.2695ZM54.3984 109.818C54.959 109.13 55.6882 108.786 56.5859 108.786C58.1491 108.786 58.9375 109.667 58.9512 111.431V116.319H57.6865V111.424C57.682 110.891 57.5589 110.497 57.3174 110.242C57.0804 109.986 56.709 109.859 56.2031 109.859C55.793 109.859 55.4329 109.968 55.123 110.187C54.8132 110.406 54.5716 110.693 54.3984 111.048V116.319H53.1338V105.819H54.3984V109.818ZM63.9141 116.455C62.9115 116.455 62.0957 116.127 61.4668 115.471C60.8379 114.81 60.5234 113.928 60.5234 112.826V112.593C60.5234 111.859 60.6624 111.205 60.9404 110.631C61.223 110.052 61.6149 109.601 62.1162 109.278C62.6221 108.95 63.1689 108.786 63.7568 108.786C64.7184 108.786 65.4658 109.102 65.999 109.736C66.5322 110.369 66.7988 111.276 66.7988 112.456V112.983H61.7881C61.8063 113.712 62.0182 114.302 62.4238 114.753C62.834 115.2 63.3535 115.423 63.9824 115.423C64.429 115.423 64.8073 115.332 65.1172 115.15C65.4271 114.967 65.6982 114.726 65.9307 114.425L66.7031 115.027C66.0833 115.979 65.1536 116.455 63.9141 116.455ZM63.7568 109.825C63.2464 109.825 62.818 110.011 62.4717 110.385C62.1253 110.754 61.9111 111.274 61.8291 111.944H65.5342V111.848C65.4977 111.205 65.3245 110.709 65.0146 110.358C64.7048 110.002 64.2855 109.825 63.7568 109.825ZM69.458 108.922L69.4922 109.743C70.0345 109.105 70.766 108.786 71.6865 108.786C72.721 108.786 73.4251 109.182 73.7988 109.975C74.0449 109.62 74.3639 109.332 74.7559 109.114C75.1523 108.895 75.6195 108.786 76.1572 108.786C77.7796 108.786 78.6045 109.645 78.6318 111.363V116.319H77.3672V111.438C77.3672 110.909 77.2464 110.515 77.0049 110.255C76.7633 109.991 76.3577 109.859 75.7881 109.859C75.3187 109.859 74.929 110 74.6191 110.283C74.3092 110.561 74.1292 110.937 74.0791 111.411V116.319H72.8076V111.472C72.8076 110.397 72.2812 109.859 71.2285 109.859C70.3991 109.859 69.8317 110.212 69.5264 110.918V116.319H68.2617V108.922H69.458ZM85.1123 116.319C85.0394 116.173 84.9801 115.913 84.9346 115.539C84.3467 116.15 83.6449 116.455 82.8291 116.455C82.0999 116.455 81.5007 116.25 81.0312 115.84C80.5664 115.425 80.334 114.901 80.334 114.268C80.334 113.498 80.6257 112.901 81.209 112.477C81.7969 112.049 82.6217 111.834 83.6836 111.834H84.9141V111.253C84.9141 110.811 84.7819 110.46 84.5176 110.201C84.2533 109.936 83.8636 109.804 83.3486 109.804C82.8975 109.804 82.5192 109.918 82.2139 110.146C81.9085 110.374 81.7559 110.649 81.7559 110.973H80.4844C80.4844 110.604 80.6143 110.248 80.874 109.907C81.1383 109.56 81.4938 109.287 81.9404 109.086C82.3916 108.886 82.8861 108.786 83.4238 108.786C84.276 108.786 84.9437 109 85.4268 109.428C85.9098 109.852 86.1605 110.438 86.1787 111.185V114.589C86.1787 115.268 86.2653 115.808 86.4385 116.209V116.319H85.1123ZM83.0137 115.355C83.4102 115.355 83.7861 115.252 84.1416 115.047C84.4971 114.842 84.7546 114.576 84.9141 114.247V112.73H83.9229C82.3734 112.73 81.5986 113.183 81.5986 114.09C81.5986 114.487 81.7308 114.797 81.9951 115.02C82.2594 115.243 82.599 115.355 83.0137 115.355ZM89.877 107.131V108.922H91.2578V109.9H89.877V114.487C89.877 114.783 89.9385 115.006 90.0615 115.157C90.1846 115.302 90.3942 115.375 90.6904 115.375C90.8363 115.375 91.0368 115.348 91.292 115.293V116.319C90.9593 116.41 90.6357 116.455 90.3213 116.455C89.7562 116.455 89.3301 116.285 89.043 115.943C88.7559 115.601 88.6123 115.116 88.6123 114.487V109.9H87.2656V108.922H88.6123V107.131H89.877ZM94.1152 116.319H92.8506V108.922H94.1152V116.319ZM92.748 106.96C92.748 106.755 92.8096 106.582 92.9326 106.441C93.0602 106.3 93.2471 106.229 93.4932 106.229C93.7393 106.229 93.9261 106.3 94.0537 106.441C94.1813 106.582 94.2451 106.755 94.2451 106.96C94.2451 107.165 94.1813 107.336 94.0537 107.473C93.9261 107.61 93.7393 107.678 93.4932 107.678C93.2471 107.678 93.0602 107.61 92.9326 107.473C92.8096 107.336 92.748 107.165 92.748 106.96ZM99.1123 115.423C99.5635 115.423 99.9577 115.286 100.295 115.013C100.632 114.74 100.819 114.398 100.855 113.988H102.052C102.029 114.411 101.883 114.815 101.614 115.198C101.345 115.58 100.985 115.886 100.534 116.114C100.088 116.342 99.6136 116.455 99.1123 116.455C98.1051 116.455 97.3031 116.12 96.7061 115.451C96.1136 114.776 95.8174 113.856 95.8174 112.689V112.477C95.8174 111.757 95.9495 111.117 96.2139 110.556C96.4782 109.995 96.8564 109.56 97.3486 109.25C97.8454 108.94 98.431 108.786 99.1055 108.786C99.9349 108.786 100.623 109.034 101.17 109.531C101.721 110.027 102.015 110.672 102.052 111.465H100.855C100.819 110.987 100.637 110.595 100.309 110.289C99.985 109.98 99.584 109.825 99.1055 109.825C98.4629 109.825 97.9639 110.057 97.6084 110.522C97.2575 110.982 97.082 111.65 97.082 112.525V112.764C97.082 113.616 97.2575 114.273 97.6084 114.733C97.9593 115.193 98.4606 115.423 99.1123 115.423ZM107.78 114.357C107.78 114.015 107.65 113.751 107.391 113.564C107.135 113.372 106.687 113.208 106.044 113.072C105.406 112.935 104.898 112.771 104.52 112.579C104.146 112.388 103.868 112.16 103.686 111.896C103.508 111.632 103.419 111.317 103.419 110.953C103.419 110.346 103.674 109.834 104.185 109.414C104.7 108.995 105.356 108.786 106.153 108.786C106.992 108.786 107.671 109.002 108.19 109.435C108.715 109.868 108.977 110.422 108.977 111.096H107.705C107.705 110.75 107.557 110.451 107.261 110.201C106.969 109.95 106.6 109.825 106.153 109.825C105.693 109.825 105.333 109.925 105.073 110.125C104.813 110.326 104.684 110.588 104.684 110.911C104.684 111.217 104.804 111.447 105.046 111.602C105.287 111.757 105.723 111.905 106.352 112.046C106.985 112.188 107.498 112.356 107.89 112.552C108.282 112.748 108.571 112.985 108.758 113.263C108.949 113.536 109.045 113.871 109.045 114.268C109.045 114.929 108.781 115.46 108.252 115.861C107.723 116.257 107.037 116.455 106.194 116.455C105.602 116.455 105.078 116.351 104.622 116.141C104.166 115.931 103.809 115.64 103.549 115.266C103.294 114.888 103.166 114.48 103.166 114.042H104.431C104.453 114.466 104.622 114.803 104.937 115.054C105.256 115.3 105.675 115.423 106.194 115.423C106.673 115.423 107.056 115.328 107.343 115.136C107.634 114.94 107.78 114.68 107.78 114.357ZM114.192 115.656C114.192 115.437 114.256 115.255 114.384 115.109C114.516 114.963 114.712 114.89 114.972 114.89C115.231 114.89 115.427 114.963 115.56 115.109C115.696 115.255 115.765 115.437 115.765 115.656C115.765 115.865 115.696 116.041 115.56 116.182C115.427 116.323 115.231 116.394 114.972 116.394C114.712 116.394 114.516 116.323 114.384 116.182C114.256 116.041 114.192 115.865 114.192 115.656ZM117.884 115.656C117.884 115.437 117.948 115.255 118.075 115.109C118.207 114.963 118.403 114.89 118.663 114.89C118.923 114.89 119.119 114.963 119.251 115.109C119.388 115.255 119.456 115.437 119.456 115.656C119.456 115.865 119.388 116.041 119.251 116.182C119.119 116.323 118.923 116.394 118.663 116.394C118.403 116.394 118.207 116.323 118.075 116.182C117.948 116.041 117.884 115.865 117.884 115.656ZM128.644 110.98H131.419V112.176H128.644V115.321H127.372V112.176H124.597V110.98H127.372V108.075H128.644V110.98ZM139.355 116.319H132.834V115.41L136.279 111.581C136.79 111.003 137.141 110.533 137.332 110.173C137.528 109.809 137.626 109.433 137.626 109.045C137.626 108.526 137.469 108.1 137.154 107.767C136.84 107.434 136.421 107.268 135.896 107.268C135.268 107.268 134.778 107.448 134.427 107.808C134.08 108.163 133.907 108.66 133.907 109.298H132.643C132.643 108.382 132.937 107.642 133.524 107.077C134.117 106.511 134.908 106.229 135.896 106.229C136.822 106.229 137.553 106.473 138.091 106.96C138.629 107.443 138.897 108.088 138.897 108.895C138.897 109.875 138.273 111.041 137.024 112.395L134.358 115.286H139.355V116.319ZM145.487 108.922L145.521 109.743C146.064 109.105 146.795 108.786 147.716 108.786C148.75 108.786 149.454 109.182 149.828 109.975C150.074 109.62 150.393 109.332 150.785 109.114C151.182 108.895 151.649 108.786 152.187 108.786C153.809 108.786 154.634 109.645 154.661 111.363V116.319H153.396V111.438C153.396 110.909 153.276 110.515 153.034 110.255C152.793 109.991 152.387 109.859 151.817 109.859C151.348 109.859 150.958 110 150.648 110.283C150.339 110.561 150.159 110.937 150.108 111.411V116.319H148.837V111.472C148.837 110.397 148.311 109.859 147.258 109.859C146.428 109.859 145.861 110.212 145.556 110.918V116.319H144.291V108.922H145.487ZM156.24 112.552C156.24 111.828 156.382 111.176 156.664 110.597C156.951 110.018 157.348 109.572 157.854 109.257C158.364 108.943 158.945 108.786 159.597 108.786C160.604 108.786 161.417 109.134 162.037 109.831C162.661 110.529 162.974 111.456 162.974 112.614V112.703C162.974 113.423 162.835 114.07 162.557 114.644C162.283 115.214 161.889 115.658 161.374 115.977C160.864 116.296 160.276 116.455 159.61 116.455C158.608 116.455 157.794 116.107 157.17 115.41C156.55 114.712 156.24 113.789 156.24 112.641V112.552ZM157.512 112.703C157.512 113.523 157.701 114.181 158.079 114.678C158.462 115.175 158.972 115.423 159.61 115.423C160.253 115.423 160.763 115.173 161.142 114.671C161.52 114.165 161.709 113.459 161.709 112.552C161.709 111.741 161.515 111.085 161.128 110.583C160.745 110.078 160.235 109.825 159.597 109.825C158.972 109.825 158.469 110.073 158.086 110.57C157.703 111.066 157.512 111.777 157.512 112.703ZM168.135 110.057C167.943 110.025 167.736 110.009 167.513 110.009C166.683 110.009 166.12 110.362 165.824 111.069V116.319H164.56V108.922H165.79L165.811 109.777C166.225 109.116 166.813 108.786 167.574 108.786C167.82 108.786 168.007 108.817 168.135 108.881V110.057ZM172.236 116.455C171.234 116.455 170.418 116.127 169.789 115.471C169.16 114.81 168.846 113.928 168.846 112.826V112.593C168.846 111.859 168.985 111.205 169.263 110.631C169.545 110.052 169.937 109.601 170.438 109.278C170.944 108.95 171.491 108.786 172.079 108.786C173.041 108.786 173.788 109.102 174.321 109.736C174.854 110.369 175.121 111.276 175.121 112.456V112.983H170.11C170.129 113.712 170.34 114.302 170.746 114.753C171.156 115.2 171.676 115.423 172.305 115.423C172.751 115.423 173.13 115.332 173.439 115.15C173.749 114.967 174.021 114.726 174.253 114.425L175.025 115.027C174.406 115.979 173.476 116.455 172.236 116.455ZM172.079 109.825C171.569 109.825 171.14 110.011 170.794 110.385C170.448 110.754 170.233 111.274 170.151 111.944H173.856V111.848C173.82 111.205 173.647 110.709 173.337 110.358C173.027 110.002 172.608 109.825 172.079 109.825Z"
          fill="white"/>
    <path d="M243.302 113.144H245.275V114.618H243.302V117.919H241.486V114.618H235.011V113.554L241.378 103.7H243.302V113.144ZM237.062 113.144H241.486V106.171L241.271 106.562L237.062 113.144ZM256.222 117.919H246.906V116.62L251.828 111.152C252.557 110.325 253.058 109.654 253.332 109.14C253.611 108.619 253.751 108.082 253.751 107.529C253.751 106.786 253.527 106.178 253.078 105.702C252.628 105.227 252.029 104.99 251.281 104.99C250.382 104.99 249.682 105.247 249.181 105.761C248.686 106.269 248.439 106.978 248.439 107.89H246.632C246.632 106.581 247.052 105.523 247.892 104.716C248.738 103.909 249.868 103.505 251.281 103.505C252.602 103.505 253.647 103.853 254.416 104.55C255.184 105.24 255.568 106.161 255.568 107.314C255.568 108.713 254.676 110.38 252.892 112.314L249.083 116.445H256.222V117.919Z"
          fill="white"/>
    <path d="M268.441 105.319H263.732L260.592 108.314V115.802C260.592 116.628 261.296 117.299 262.162 117.299H268.441C269.307 117.299 270.011 116.628 270.011 115.802V106.816C270.011 105.99 269.307 105.319 268.441 105.319ZM264.517 109.063H263.339V106.816H264.517V109.063ZM266.479 109.063H265.302V106.816H266.479V109.063ZM268.441 109.063H267.264V106.816H268.441V109.063Z"
          fill="white"/>
    <g filter="url(#filter0_d)">
        <path d="M257.139 70.6122C257.465 69.7538 257.649 68.8152 257.649 67.8364C257.649 63.5843 254.221 60.1346 249.996 60.1346C248.425 60.1346 246.959 60.6159 245.747 61.4342C243.539 57.5833 239.417 55 234.69 55C227.643 55 221.935 60.7443 221.935 67.8364C221.935 68.053 221.943 68.2696 221.951 68.4862C217.487 70.0667 214.282 74.3508 214.282 79.3891C214.282 85.7672 219.424 90.9419 225.762 90.9419H255.098C260.734 90.9419 265.302 86.3448 265.302 80.6728C265.302 75.7067 261.794 71.5589 257.139 70.6122ZM246.544 77.7284L238.142 86.1844C237.648 86.6818 236.834 86.6818 236.34 86.1844L227.938 77.7284C227.133 76.9181 227.707 75.5382 228.839 75.5382H234.052V66.5527C234.052 65.8467 234.626 65.2691 235.328 65.2691H239.154C239.856 65.2691 240.43 65.8467 240.43 66.5527V75.5382H245.643C246.775 75.5382 247.349 76.9181 246.544 77.7284Z"
              fill="white"/>
    </g>
    <path d="M238.917 34.7865C239.238 35.0712 239.76 35.0712 240.082 34.7865L255.735 20.9326C257.422 19.4398 257.422 17.0194 255.735 15.5266C254.048 14.0338 251.314 14.0338 249.627 15.5266L243.619 20.8436V3.64575C243.619 1.63226 241.775 0 239.5 0C237.225 0 235.381 1.63226 235.381 3.64575V20.8436L229.373 15.5267C227.686 14.0339 224.952 14.0339 223.265 15.5267C221.578 17.0195 221.578 19.4398 223.265 20.9326L238.917 34.7865Z"
          fill="white"/>
    <defs>
        <filter id="filter0_d" x="210.282" y="55" width="59.0196" height="43.9419" filterUnits="userSpaceOnUse"
                color-interpolation-filters="sRGB">
            <feFlood flood-opacity="0" result="BackgroundImageFix"/>
            <feColorMatrix in="SourceAlpha" type="matrix" values="0 0 0 0 0 0 0 0 0 0 0 0 0 0 0 0 0 0 127 0"/>
            <feOffset dy="4"/>
            <feGaussianBlur stdDeviation="2"/>
            <feColorMatrix type="matrix" values="0 0 0 0 0 0 0 0 0 0 0 0 0 0 0 0 0 0 0.25 0"/>
            <feBlend mode="normal" in2="BackgroundImageFix" result="effect1_dropShadow"/>
            <feBlend mode="normal" in="SourceGraphic" in2="effect1_dropShadow" result="shape"/>
        </filter>
    </defs>
</svg>
