<?xml version="1.0" encoding="UTF-8" standalone="no"?>
<svg
        xmlns:dc="http://purl.org/dc/elements/1.1/"
        xmlns:cc="http://creativecommons.org/ns#"
        xmlns:rdf="http://www.w3.org/1999/02/22-rdf-syntax-ns#"
        xmlns:svg="http://www.w3.org/2000/svg"
        xmlns="http://www.w3.org/2000/svg"
        xmlns:sodipodi="http://sodipodi.sourceforge.net/DTD/sodipodi-0.dtd"
        xmlns:inkscape="http://www.inkscape.org/namespaces/inkscape"
        inkscape:version="1.0 (4035a4fb49, 2020-05-01)"
        sodipodi:docname="download_lesson.svg"
        id="svg89"
        version="1.1"
        fill="none"
        viewBox="0 0 366.00037 94"
        height="94"
        width="366.00037">
    <metadata
            id="metadata93">
        <rdf:RDF>
            <cc:Work
                    rdf:about="">
                <dc:format>image/svg+xml</dc:format>
                <dc:type
                        rdf:resource="http://purl.org/dc/dcmitype/StillImage"/>
            </cc:Work>
        </rdf:RDF>
    </metadata>
    <sodipodi:namedview
            inkscape:current-layer="svg89"
            inkscape:window-maximized="1"
            inkscape:window-y="-9"
            inkscape:window-x="-9"
            inkscape:cy="47"
            inkscape:cx="183"
            inkscape:zoom="3.0273224"
            showgrid="false"
            id="namedview91"
            inkscape:window-height="1001"
            inkscape:window-width="1920"
            inkscape:pageshadow="2"
            inkscape:pageopacity="0"
            guidetolerance="10"
            gridtolerance="10"
            objecttolerance="10"
            borderopacity="1"
            bordercolor="#666666"
            pagecolor="#ffffff"/>
    <g
            id="g4"
            filter="url(#filter0_f)">
        <rect
                id="rect2"
                fill="#ba6363"
                rx="18"
                height="68"
                width="356.47699"
                y="22"
                x="5.5233798"/>
    </g>
    <g
            id="g8"
            filter="url(#filter1_f)">
        <path
                id="path6"
                fill="#ffffff"
                d="M 30.3549,48 V 30.9375 h 4.8164 c 1.4843,0 2.7968,0.3281 3.9375,0.9844 1.1406,0.6562 2.0195,1.5898 2.6367,2.8008 0.625,1.2109 0.9414,2.6015 0.9492,4.1718 v 1.0899 c 0,1.6094 -0.3125,3.0195 -0.9375,4.2304 -0.6172,1.211 -1.5039,2.1407 -2.6602,2.7891 -1.1484,0.6484 -2.4882,0.9805 -4.0195,0.9961 z m 2.25,-15.2109 v 13.3711 h 2.3671 c 1.7344,0 3.0821,-0.5391 4.043,-1.6172 0.9688,-1.0782 1.4531,-2.6133 1.4531,-4.6055 v -0.9961 c 0,-1.9375 -0.457,-3.4414 -1.3711,-4.5117 -0.9062,-1.0781 -2.1953,-1.625 -3.8671,-1.6406 z M 48.1205,48 h -2.168 V 35.3203 h 2.168 z M 45.7767,31.957 c 0,-0.3515 0.1055,-0.6484 0.3164,-0.8906 0.2188,-0.2422 0.5391,-0.3633 0.961,-0.3633 0.4219,0 0.7422,0.1211 0.9609,0.3633 0.2188,0.2422 0.3281,0.5391 0.3281,0.8906 0,0.3516 -0.1093,0.6446 -0.3281,0.8789 -0.2187,0.2344 -0.539,0.3516 -0.9609,0.3516 -0.4219,0 -0.7422,-0.1172 -0.961,-0.3516 -0.2109,-0.2343 -0.3164,-0.5273 -0.3164,-0.8789 z m 13.2071,12.6797 c 0,-0.5859 -0.2227,-1.039 -0.668,-1.3594 -0.4375,-0.3281 -1.207,-0.6093 -2.3086,-0.8437 -1.0937,-0.2344 -1.9648,-0.5156 -2.6133,-0.8438 -0.6406,-0.3281 -1.1172,-0.7187 -1.4297,-1.1718 -0.3047,-0.4532 -0.457,-0.9922 -0.457,-1.6172 0,-1.0391 0.4375,-1.918 1.3125,-2.6367 0.8828,-0.7188 2.0078,-1.0782 3.375,-1.0782 1.4375,0 2.6016,0.3711 3.4922,1.1133 0.8984,0.7422 1.3476,1.6914 1.3476,2.8477 h -2.1796 c 0,-0.5938 -0.2539,-1.1055 -0.7618,-1.5352 -0.5,-0.4297 -1.1328,-0.6445 -1.8984,-0.6445 -0.7891,0 -1.4062,0.1719 -1.8516,0.5156 -0.4453,0.3438 -0.6679,0.793 -0.6679,1.3477 0,0.5234 0.207,0.9179 0.6211,1.1836 0.414,0.2656 1.1601,0.5195 2.2382,0.7617 1.086,0.2422 1.9649,0.5312 2.6368,0.8672 0.6718,0.3359 1.1679,0.7422 1.4882,1.2187 0.3282,0.4688 0.4922,1.043 0.4922,1.7227 0,1.1328 -0.4531,2.0429 -1.3593,2.7304 -0.9063,0.6797 -2.0821,1.0196 -3.5274,1.0196 -1.0156,0 -1.914,-0.1797 -2.6953,-0.5391 -0.7812,-0.3594 -1.3945,-0.8594 -1.8398,-1.5 -0.4375,-0.6484 -0.6563,-1.3476 -0.6563,-2.0976 h 2.168 c 0.039,0.7265 0.3281,1.3046 0.8672,1.7343 0.5468,0.4219 1.2656,0.6328 2.1562,0.6328 0.8203,0 1.4766,-0.164 1.9688,-0.4921 0.5,-0.336 0.75,-0.7813 0.75,-1.336 z m 8.5312,-2.5078 -1.3594,1.418 V 48 H 63.9877 V 30 h 2.1679 v 10.8867 l 1.1602,-1.3945 3.9492,-4.1719 h 2.6367 L 68.9681,40.6172 74.476,48 h -2.543 z m 14.7539,-4.8633 c -0.3281,-0.0547 -0.6836,-0.082 -1.0664,-0.082 -1.4219,0 -2.3867,0.6055 -2.8945,1.8164 v 9 H 76.14 V 35.3203 h 2.1094 l 0.0351,1.4649 c 0.711,-1.1329 1.7188,-1.6993 3.0235,-1.6993 0.4219,0 0.7422,0.0547 0.9609,0.1641 z m 7.0313,10.9688 c -1.7188,0 -3.1172,-0.5625 -4.1953,-1.6875 -1.0782,-1.1328 -1.6172,-2.6446 -1.6172,-4.5352 v -0.3984 c 0,-1.2578 0.2383,-2.3789 0.7148,-3.3633 0.4844,-0.9922 1.1563,-1.7656 2.0156,-2.3203 0.8672,-0.5625 1.8047,-0.8438 2.8125,-0.8438 1.6485,0 2.9297,0.543 3.8438,1.6289 0.9141,1.086 1.3711,2.6407 1.3711,4.6641 v 0.9023 h -8.5899 c 0.0313,1.25 0.3946,2.2618 1.0899,3.0352 0.7031,0.7656 1.5937,1.1484 2.6719,1.1484 0.7656,0 1.414,-0.1562 1.9453,-0.4687 0.5312,-0.3125 0.9961,-0.7266 1.3945,-1.2422 l 1.3242,1.0313 c -1.0625,1.6328 -2.6562,2.4492 -4.7812,2.4492 z M 89.0306,36.8672 c -0.875,0 -1.6093,0.3203 -2.2031,0.9609 -0.5937,0.6328 -0.9609,1.5235 -1.1015,2.6719 h 6.3515 v -0.1641 c -0.0625,-1.1015 -0.3594,-1.9531 -0.8906,-2.5547 -0.5313,-0.6093 -1.25,-0.914 -2.1563,-0.914 z M 99.7064,32.25 v 3.0703 h 2.3676 v 1.6758 h -2.3676 v 7.8633 c 0,0.5078 0.1055,0.8906 0.3166,1.1484 0.211,0.25 0.57,0.375 1.078,0.375 0.25,0 0.594,-0.0469 1.031,-0.1406 V 48 c -0.57,0.1562 -1.125,0.2344 -1.664,0.2344 -0.9686,0 -1.6991,-0.293 -2.1913,-0.8789 -0.4922,-0.586 -0.7382,-1.418 -0.7382,-2.4961 v -7.8633 h -2.3086 v -1.6758 h 2.3086 V 32.25 Z m 10.1716,15.9844 c -1.718,0 -3.117,-0.5625 -4.195,-1.6875 -1.078,-1.1328 -1.617,-2.6446 -1.617,-4.5352 v -0.3984 c 0,-1.2578 0.238,-2.3789 0.715,-3.3633 0.484,-0.9922 1.156,-1.7656 2.015,-2.3203 0.867,-0.5625 1.805,-0.8438 2.813,-0.8438 1.648,0 2.929,0.543 3.844,1.6289 0.914,1.086 1.371,2.6407 1.371,4.6641 v 0.9023 h -8.59 c 0.031,1.25 0.394,2.2618 1.09,3.0352 0.703,0.7656 1.593,1.1484 2.671,1.1484 0.766,0 1.415,-0.1562 1.946,-0.4687 0.531,-0.3125 0.996,-0.7266 1.394,-1.2422 l 1.325,1.0313 c -1.063,1.6328 -2.657,2.4492 -4.782,2.4492 z m -0.269,-11.3672 c -0.875,0 -1.61,0.3203 -2.203,0.9609 -0.594,0.6328 -0.961,1.5235 -1.102,2.6719 h 6.352 v -0.1641 c -0.063,-1.1015 -0.36,-1.9531 -0.891,-2.5547 -0.531,-0.6093 -1.25,-0.914 -2.156,-0.914 z m 16.933,-5.9297 5.578,13.9219 5.579,-13.9219 h 2.918 V 48 h -2.25 V 41.3555 L 138.578,34.1836 132.976,48 h -1.723 l -5.59,-13.7812 0.223,7.1367 V 48 h -2.25 V 30.9375 Z M 152.078,48 c -0.125,-0.25 -0.227,-0.6953 -0.305,-1.3359 -1.008,1.0468 -2.211,1.5703 -3.61,1.5703 -1.25,0 -2.277,-0.3516 -3.082,-1.0547 -0.796,-0.7109 -1.195,-1.6094 -1.195,-2.6953 0,-1.3203 0.5,-2.3438 1.5,-3.0703 1.008,-0.7344 2.422,-1.1016 4.242,-1.1016 h 2.11 v -0.9961 c 0,-0.7578 -0.227,-1.3594 -0.68,-1.8047 -0.453,-0.4531 -1.121,-0.6797 -2.004,-0.6797 -0.773,0 -1.422,0.1953 -1.945,0.586 -0.524,0.3906 -0.785,0.8632 -0.785,1.4179 h -2.18 c 0,-0.6328 0.223,-1.2421 0.668,-1.8281 0.453,-0.5937 1.062,-1.0625 1.828,-1.4062 0.773,-0.3438 1.621,-0.5157 2.543,-0.5157 1.461,0 2.605,0.3672 3.434,1.1016 0.828,0.7266 1.257,1.7305 1.289,3.0117 v 5.836 c 0,1.164 0.148,2.0898 0.445,2.7773 V 48 Z m -3.598,-1.6523 c 0.68,0 1.324,-0.1758 1.933,-0.5274 0.61,-0.3515 1.051,-0.8086 1.325,-1.3711 v -2.6015 h -1.7 c -2.656,0 -3.984,0.7773 -3.984,2.332 0,0.6797 0.227,1.2109 0.68,1.5937 0.453,0.3828 1.035,0.5743 1.746,0.5743 z M 160.245,32.25 v 3.0703 h 2.368 v 1.6758 h -2.368 v 7.8633 c 0,0.5078 0.106,0.8906 0.317,1.1484 0.211,0.25 0.57,0.375 1.078,0.375 0.25,0 0.594,-0.0469 1.031,-0.1406 V 48 c -0.57,0.1562 -1.125,0.2344 -1.664,0.2344 -0.969,0 -1.699,-0.293 -2.191,-0.8789 -0.492,-0.586 -0.738,-1.418 -0.738,-2.4961 v -7.8633 h -2.309 v -1.6758 h 2.309 V 32.25 Z m 7.079,4.6055 c 0.961,-1.1797 2.211,-1.7696 3.75,-1.7696 2.679,0 4.031,1.5118 4.054,4.5352 V 48 h -2.168 v -8.3906 c -0.007,-0.9141 -0.218,-1.5899 -0.632,-2.0274 -0.407,-0.4375 -1.043,-0.6562 -1.911,-0.6562 -0.703,0 -1.32,0.1875 -1.851,0.5625 -0.531,0.375 -0.946,0.8672 -1.242,1.4765 V 48 h -2.168 V 30 h 2.168 z m 16.312,11.3789 c -1.719,0 -3.117,-0.5625 -4.195,-1.6875 -1.078,-1.1328 -1.617,-2.6446 -1.617,-4.5352 v -0.3984 c 0,-1.2578 0.238,-2.3789 0.714,-3.3633 0.485,-0.9922 1.157,-1.7656 2.016,-2.3203 0.867,-0.5625 1.805,-0.8438 2.813,-0.8438 1.648,0 2.929,0.543 3.843,1.6289 0.914,1.086 1.371,2.6407 1.371,4.6641 v 0.9023 h -8.589 c 0.031,1.25 0.394,2.2618 1.089,3.0352 0.704,0.7656 1.594,1.1484 2.672,1.1484 0.766,0 1.414,-0.1562 1.946,-0.4687 0.531,-0.3125 0.996,-0.7266 1.394,-1.2422 l 1.324,1.0313 c -1.062,1.6328 -2.656,2.4492 -4.781,2.4492 z m -0.269,-11.3672 c -0.875,0 -1.61,0.3203 -2.204,0.9609 -0.593,0.6328 -0.96,1.5235 -1.101,2.6719 h 6.351 v -0.1641 c -0.062,-1.1015 -0.359,-1.9531 -0.89,-2.5547 -0.531,-0.6093 -1.25,-0.914 -2.156,-0.914 z"/>
    </g>
    <g
            id="g12"
            filter="url(#filter2_f)"
            opacity="0.1">
        <line
                id="line10"
                stroke-width="2"
                stroke="#ffffff"
                y2="54"
                x2="362"
                y1="54"
                x1="4"/>
    </g>
    <g
            id="g16"
            filter="url(#filter3_f)">
        <path
                id="path14"
                fill="#ffffff"
                d="M 33.6039,73.1973 H 31.7992 L 31.2523,76 h -0.9775 l 0.5469,-2.8027 h -1.6338 v -0.9366 h 1.8115 l 0.4717,-2.4199 h -1.7637 v -0.9502 h 1.9482 l 0.5606,-2.8437 h 0.9775 l -0.5605,2.8437 h 1.8047 l 0.5605,-2.8437 h 0.9844 l -0.5606,2.8437 h 1.3946 v 0.9502 h -1.5791 l -0.4717,2.4199 h 1.5381 v 0.9366 H 34.5883 L 34.0414,76 H 33.057 Z m -1.627,-0.9366 h 1.8047 l 0.4717,-2.4199 h -1.8047 z m 7.875,-6.2138 3.2539,8.1211 3.2539,-8.1211 h 1.7022 V 76 H 46.7494 V 72.124 L 46.8724,67.9404 43.6049,76 H 42.6 l -3.2608,-8.0391 0.1299,4.1631 V 76 H 38.1566 V 66.0469 Z M 54.7474,76 c -0.0729,-0.1458 -0.1321,-0.4056 -0.1777,-0.7793 -0.5879,0.6107 -1.2897,0.916 -2.1055,0.916 -0.7291,0 -1.3284,-0.2051 -1.7978,-0.6152 -0.4649,-0.4147 -0.6973,-0.9388 -0.6973,-1.5723 0,-0.7702 0.2917,-1.3672 0.875,-1.791 0.5879,-0.4284 1.4128,-0.6426 2.4746,-0.6426 h 1.2305 v -0.581 c 0,-0.4421 -0.1322,-0.793 -0.3965,-1.0528 -0.2643,-0.2643 -0.654,-0.3964 -1.1689,-0.3964 -0.4512,0 -0.8295,0.1139 -1.1348,0.3417 -0.3053,0.2279 -0.458,0.5036 -0.458,0.8272 h -1.2715 c 0,-0.3691 0.1299,-0.7246 0.3897,-1.0664 0.2643,-0.3464 0.6197,-0.6198 1.0664,-0.8203 0.4511,-0.2005 0.9456,-0.3008 1.4834,-0.3008 0.8522,0 1.5198,0.2142 2.0029,0.6426 0.4831,0.4238 0.7337,1.0094 0.7519,1.7568 v 3.4043 c 0,0.679 0.0866,1.2191 0.2598,1.6201 V 76 Z m -2.0986,-0.9639 c 0.3965,0 0.7725,-0.1025 1.1279,-0.3076 0.3555,-0.2051 0.613,-0.4717 0.7725,-0.7998 V 72.4111 H 53.558 c -1.5495,0 -2.3242,0.4535 -2.3242,1.3604 0,0.3965 0.1321,0.7064 0.3964,0.9297 0.2644,0.2233 0.6039,0.3349 1.0186,0.3349 z m 6.8633,-8.2236 v 1.791 h 1.3808 v 0.9776 h -1.3808 v 4.5869 c 0,0.2962 0.0615,0.5195 0.1846,0.6699 0.123,0.1458 0.3326,0.2187 0.6289,0.2187 0.1458,0 0.3463,-0.0273 0.6015,-0.082 V 76 c -0.3327,0.0911 -0.6562,0.1367 -0.9707,0.1367 -0.5651,0 -0.9912,-0.1709 -1.2783,-0.5127 -0.2871,-0.3418 -0.4307,-0.8271 -0.4307,-1.456 v -4.5869 h -1.3466 v -0.9776 h 1.3466 v -1.791 z m 4.1289,2.6865 c 0.5605,-0.6881 1.2897,-1.0322 2.1875,-1.0322 1.5631,0 2.3516,0.8818 2.3652,2.6455 V 76 H 66.9291 V 71.1055 C 66.9245,70.5723 66.8015,70.1781 66.5599,69.9229 66.323,69.6676 65.9515,69.54 65.4457,69.54 c -0.4102,0 -0.7702,0.1094 -1.0801,0.3282 -0.3099,0.2187 -0.5514,0.5058 -0.7246,0.8613 V 76 H 62.3763 V 65.5 h 1.2647 z m 9.5156,6.6377 c -1.0026,0 -1.8183,-0.3281 -2.4472,-0.9844 -0.629,-0.6608 -0.9434,-1.5426 -0.9434,-2.6455 v -0.2324 c 0,-0.7337 0.139,-1.3877 0.417,-1.9619 0.2825,-0.5788 0.6745,-1.0299 1.1758,-1.3535 0.5058,-0.3281 1.0527,-0.4922 1.6406,-0.4922 0.9616,0 1.709,0.3167 2.2422,0.9502 0.5332,0.6335 0.7998,1.5404 0.7998,2.7207 v 0.5264 h -5.0108 c 0.0183,0.7291 0.2302,1.3193 0.6358,1.7705 0.4101,0.4466 0.9297,0.6699 1.5586,0.6699 0.4466,0 0.8248,-0.0912 1.1347,-0.2734 0.3099,-0.1823 0.5811,-0.4239 0.8135,-0.7247 l 0.7725,0.6016 c -0.6198,0.9525 -1.5495,1.4287 -2.7891,1.4287 z m -0.1572,-6.6308 c -0.5104,0 -0.9388,0.1868 -1.2852,0.5605 -0.3463,0.3691 -0.5605,0.8887 -0.6425,1.5586 h 3.705 V 71.5293 C 74.7403,70.8867 74.5671,70.39 74.2572,70.0391 73.9473,69.6836 73.528,69.5059 72.9994,69.5059 Z m 5.7012,-0.9024 0.0341,0.8203 c 0.5424,-0.638 1.2738,-0.957 2.1944,-0.957 1.0345,0 1.7386,0.3965 2.1123,1.1894 0.2461,-0.3554 0.5651,-0.6425 0.957,-0.8613 0.3965,-0.2187 0.8636,-0.3281 1.4014,-0.3281 1.6224,0 2.4472,0.859 2.4746,2.5771 V 76 h -1.2647 v -4.8809 c 0,-0.5286 -0.1207,-0.9228 -0.3623,-1.1826 -0.2415,-0.2643 -0.6471,-0.3965 -1.2168,-0.3965 -0.4694,0 -0.859,0.1413 -1.1689,0.4239 -0.3099,0.278 -0.4899,0.6539 -0.54,1.1279 V 76 h -1.2715 v -4.8467 c 0,-1.0755 -0.5264,-1.6133 -1.5791,-1.6133 -0.8295,0 -1.3968,0.3532 -1.7022,1.0596 V 76 H 77.5043 V 68.6035 Z M 94.3549,76 c -0.073,-0.1458 -0.1322,-0.4056 -0.1778,-0.7793 -0.5879,0.6107 -1.2897,0.916 -2.1054,0.916 -0.7292,0 -1.3285,-0.2051 -1.7979,-0.6152 -0.4648,-0.4147 -0.6973,-0.9388 -0.6973,-1.5723 0,-0.7702 0.2917,-1.3672 0.875,-1.791 0.5879,-0.4284 1.4128,-0.6426 2.4746,-0.6426 h 1.2305 v -0.581 c 0,-0.4421 -0.1321,-0.793 -0.3965,-1.0528 -0.2643,-0.2643 -0.6539,-0.3964 -1.1689,-0.3964 -0.4512,0 -0.8294,0.1139 -1.1348,0.3417 -0.3053,0.2279 -0.458,0.5036 -0.458,0.8272 h -1.2715 c 0,-0.3691 0.1299,-0.7246 0.3897,-1.0664 0.2643,-0.3464 0.6198,-0.6198 1.0664,-0.8203 0.4512,-0.2005 0.9456,-0.3008 1.4834,-0.3008 0.8522,0 1.5198,0.2142 2.0029,0.6426 0.4831,0.4238 0.7337,1.0094 0.752,1.7568 v 3.4043 c 0,0.679 0.0866,1.2191 0.2597,1.6201 V 76 Z m -2.0987,-0.9639 c 0.3965,0 0.7725,-0.1025 1.128,-0.3076 0.3554,-0.2051 0.6129,-0.4717 0.7724,-0.7998 v -1.5176 h -0.9912 c -1.5495,0 -2.3242,0.4535 -2.3242,1.3604 0,0.3965 0.1321,0.7064 0.3965,0.9297 0.2643,0.2233 0.6038,0.3349 1.0185,0.3349 z m 6.8633,-8.2236 v 1.791 H 100.5 v 0.9776 h -1.3805 v 4.5869 c 0,0.2962 0.0615,0.5195 0.1846,0.6699 0.123,0.1458 0.3327,0.2187 0.6289,0.2187 0.146,0 0.346,-0.0273 0.602,-0.082 V 76 c -0.333,0.0911 -0.6567,0.1367 -0.9712,0.1367 -0.5651,0 -0.9912,-0.1709 -1.2783,-0.5127 -0.2871,-0.3418 -0.4306,-0.8271 -0.4306,-1.456 v -4.5869 h -1.3467 v -0.9776 h 1.3467 v -1.791 z M 103.358,76 h -1.265 v -7.3965 h 1.265 z m -1.367,-9.3584 c 0,-0.2051 0.061,-0.3783 0.184,-0.5195 0.128,-0.1413 0.315,-0.2119 0.561,-0.2119 0.246,0 0.433,0.0706 0.56,0.2119 0.128,0.1412 0.192,0.3144 0.192,0.5195 0,0.2051 -0.064,0.376 -0.192,0.5127 -0.127,0.1367 -0.314,0.2051 -0.56,0.2051 -0.246,0 -0.433,-0.0684 -0.561,-0.2051 -0.123,-0.1367 -0.184,-0.3076 -0.184,-0.5127 z m 6.364,8.4629 c 0.451,0 0.845,-0.1367 1.182,-0.4102 0.338,-0.2734 0.525,-0.6152 0.561,-1.0254 h 1.196 c -0.022,0.4239 -0.168,0.8272 -0.437,1.21 -0.269,0.3828 -0.629,0.6882 -1.08,0.916 -0.447,0.2279 -0.921,0.3418 -1.422,0.3418 -1.007,0 -1.809,-0.3349 -2.406,-1.0049 -0.593,-0.6744 -0.889,-1.595 -0.889,-2.7617 v -0.2119 c 0,-0.72 0.132,-1.3603 0.396,-1.9209 0.265,-0.5605 0.643,-0.9958 1.135,-1.3057 0.497,-0.3099 1.083,-0.4648 1.757,-0.4648 0.829,0 1.518,0.2484 2.064,0.7451 0.552,0.4968 0.846,1.1416 0.882,1.9346 h -1.196 c -0.036,-0.4785 -0.219,-0.8705 -0.547,-1.1758 -0.323,-0.3099 -0.724,-0.4648 -1.203,-0.4648 -0.643,0 -1.142,0.2324 -1.497,0.6972 -0.351,0.4603 -0.526,1.128 -0.526,2.003 v 0.2392 c 0,0.8522 0.175,1.5085 0.526,1.9688 0.351,0.4602 0.852,0.6904 1.504,0.6904 z m 8.668,-1.0664 c 0,-0.3418 -0.13,-0.6061 -0.39,-0.793 -0.255,-0.1914 -0.704,-0.3555 -1.347,-0.4922 -0.638,-0.1367 -1.146,-0.3008 -1.524,-0.4922 -0.374,-0.1914 -0.652,-0.4192 -0.834,-0.6836 -0.178,-0.2643 -0.267,-0.5787 -0.267,-0.9433 0,-0.6061 0.256,-1.1188 0.766,-1.5381 0.515,-0.4193 1.171,-0.6289 1.969,-0.6289 0.838,0 1.517,0.2165 2.037,0.6494 0.524,0.433 0.786,0.9867 0.786,1.6611 h -1.271 c 0,-0.3463 -0.148,-0.6448 -0.445,-0.8955 -0.291,-0.2506 -0.661,-0.3759 -1.107,-0.3759 -0.46,0 -0.82,0.1002 -1.08,0.3007 -0.26,0.2006 -0.39,0.4626 -0.39,0.7862 0,0.3053 0.121,0.5355 0.362,0.6904 0.242,0.155 0.677,0.3031 1.306,0.4443 0.634,0.1413 1.146,0.3099 1.538,0.5059 0.392,0.196 0.682,0.4329 0.868,0.7109 0.192,0.2735 0.287,0.6084 0.287,1.0049 0,0.6608 -0.264,1.1918 -0.792,1.5928 -0.529,0.3965 -1.215,0.5947 -2.058,0.5947 -0.593,0 -1.117,-0.1048 -1.572,-0.3144 -0.456,-0.2097 -0.814,-0.5013 -1.074,-0.875 -0.255,-0.3783 -0.382,-0.7862 -0.382,-1.2237 h 1.264 c 0.023,0.4239 0.192,0.7611 0.506,1.0118 0.319,0.246 0.738,0.3691 1.258,0.3691 0.478,0 0.861,-0.0957 1.148,-0.2871 0.292,-0.196 0.438,-0.4557 0.438,-0.7793 z m 6.412,1.2988 c 0,-0.2187 0.064,-0.401 0.191,-0.5469 0.133,-0.1458 0.328,-0.2187 0.588,-0.2187 0.26,0 0.456,0.0729 0.588,0.2187 0.137,0.1459 0.205,0.3282 0.205,0.5469 0,0.2096 -0.068,0.3851 -0.205,0.5264 -0.132,0.1413 -0.328,0.2119 -0.588,0.2119 -0.26,0 -0.455,-0.0706 -0.588,-0.2119 -0.127,-0.1413 -0.191,-0.3168 -0.191,-0.5264 z m 3.691,0 c 0,-0.2187 0.064,-0.401 0.192,-0.5469 0.132,-0.1458 0.328,-0.2187 0.588,-0.2187 0.259,0 0.455,0.0729 0.588,0.2187 0.136,0.1459 0.205,0.3282 0.205,0.5469 0,0.2096 -0.069,0.3851 -0.205,0.5264 -0.133,0.1413 -0.329,0.2119 -0.588,0.2119 -0.26,0 -0.456,-0.0706 -0.588,-0.2119 -0.128,-0.1413 -0.192,-0.3168 -0.192,-0.5264 z m 10.76,-4.6758 h 2.775 v 1.1963 h -2.775 v 3.1446 h -1.271 v -3.1446 h -2.776 v -1.1963 h 2.776 v -2.9052 h 1.271 z M 148.598,76 h -6.521 v -0.9092 l 3.445,-3.8281 c 0.51,-0.5788 0.861,-1.0482 1.053,-1.4082 0.196,-0.3646 0.294,-0.7406 0.294,-1.1279 0,-0.5196 -0.158,-0.9457 -0.472,-1.2784 -0.315,-0.3326 -0.734,-0.499 -1.258,-0.499 -0.629,0 -1.119,0.18 -1.47,0.5401 -0.346,0.3554 -0.519,0.8522 -0.519,1.4902 h -1.265 c 0,-0.916 0.294,-1.6566 0.882,-2.2217 0.592,-0.5651 1.383,-0.8476 2.372,-0.8476 0.925,0 1.657,0.2438 2.194,0.7314 0.538,0.4831 0.807,1.1279 0.807,1.9346 0,0.9798 -0.624,2.1465 -1.873,3.5 l -2.666,2.8916 h 4.997 z m 6.132,-7.3965 0.034,0.8203 c 0.542,-0.638 1.274,-0.957 2.194,-0.957 1.035,0 1.739,0.3965 2.113,1.1894 0.246,-0.3554 0.565,-0.6425 0.957,-0.8613 0.396,-0.2187 0.863,-0.3281 1.401,-0.3281 1.622,0 2.447,0.859 2.475,2.5771 V 76 h -1.265 v -4.8809 c 0,-0.5286 -0.121,-0.9228 -0.362,-1.1826 -0.242,-0.2643 -0.647,-0.3965 -1.217,-0.3965 -0.469,0 -0.859,0.1413 -1.169,0.4239 -0.31,0.278 -0.49,0.6539 -0.54,1.1279 V 76 h -1.272 v -4.8467 c 0,-1.0755 -0.526,-1.6133 -1.579,-1.6133 -0.829,0 -1.396,0.3532 -1.702,1.0596 V 76 h -1.264 v -7.3965 z m 10.753,3.6299 c 0,-0.7246 0.141,-1.3763 0.424,-1.9551 0.287,-0.5788 0.683,-1.0254 1.189,-1.3398 0.51,-0.3145 1.092,-0.4717 1.743,-0.4717 1.007,0 1.821,0.3486 2.441,1.0459 0.624,0.6973 0.936,1.6247 0.936,2.7822 v 0.0889 c 0,0.72 -0.139,1.3672 -0.417,1.9414 -0.273,0.5697 -0.667,1.014 -1.182,1.333 -0.511,0.319 -1.099,0.4785 -1.764,0.4785 -1.003,0 -1.816,-0.3486 -2.441,-1.0459 -0.619,-0.6972 -0.929,-1.6201 -0.929,-2.7685 z m 1.271,0.1504 c 0,0.8203 0.189,1.4788 0.568,1.9756 0.382,0.4967 0.893,0.7451 1.531,0.7451 0.642,0 1.153,-0.2507 1.531,-0.752 0.378,-0.5058 0.568,-1.2122 0.568,-2.1191 0,-0.8112 -0.194,-1.4674 -0.582,-1.9688 -0.382,-0.5058 -0.893,-0.7587 -1.531,-0.7587 -0.624,0 -1.128,0.2483 -1.511,0.7451 -0.382,0.4967 -0.574,1.2077 -0.574,2.1328 z m 10.623,-2.6455 c -0.191,-0.0319 -0.398,-0.0479 -0.622,-0.0479 -0.829,0 -1.392,0.3532 -1.688,1.0596 V 76 h -1.265 v -7.3965 h 1.231 l 0.02,0.8545 c 0.415,-0.6608 1.003,-0.9912 1.764,-0.9912 0.246,0 0.433,0.0319 0.56,0.0957 z m 4.102,6.3984 c -1.003,0 -1.818,-0.3281 -2.447,-0.9844 -0.629,-0.6608 -0.944,-1.5426 -0.944,-2.6455 v -0.2324 c 0,-0.7337 0.139,-1.3877 0.417,-1.9619 0.283,-0.5788 0.675,-1.0299 1.176,-1.3535 0.506,-0.3281 1.053,-0.4922 1.641,-0.4922 0.961,0 1.709,0.3167 2.242,0.9502 0.533,0.6335 0.8,1.5404 0.8,2.7207 v 0.5264 h -5.011 c 0.018,0.7291 0.23,1.3193 0.636,1.7705 0.41,0.4466 0.929,0.6699 1.558,0.6699 0.447,0 0.825,-0.0912 1.135,-0.2734 0.31,-0.1823 0.581,-0.4239 0.813,-0.7247 l 0.773,0.6016 c -0.62,0.9525 -1.55,1.4287 -2.789,1.4287 z m -0.157,-6.6308 c -0.511,0 -0.939,0.1868 -1.286,0.5605 -0.346,0.3691 -0.56,0.8887 -0.642,1.5586 h 3.705 v -0.0957 c -0.036,-0.6426 -0.21,-1.1393 -0.52,-1.4902 -0.309,-0.3555 -0.729,-0.5332 -1.257,-0.5332 z"/>
    </g>
    <g
            id="g20"
            filter="url(#filter4_f)">
        <path
                id="path18"
                fill="#ffffff"
                d="m 317.809,72.2246 h 1.972 v 1.4746 h -1.972 V 77 h -1.817 v -3.3008 h -6.474 v -1.0644 l 6.367,-9.8536 h 1.924 z m -6.241,0 h 4.424 V 65.252 l -0.215,0.3906 z M 330.729,77 h -9.317 v -1.2988 l 4.922,-5.4688 c 0.729,-0.8268 1.23,-1.4974 1.504,-2.0117 0.28,-0.5208 0.42,-1.0579 0.42,-1.6113 0,-0.7422 -0.225,-1.3509 -0.674,-1.8262 -0.449,-0.4753 -1.048,-0.7129 -1.797,-0.7129 -0.898,0 -1.598,0.2572 -2.099,0.7715 -0.495,0.5078 -0.743,1.2174 -0.743,2.1289 h -1.806 c 0,-1.3086 0.42,-2.3665 1.259,-3.1738 0.847,-0.8073 1.976,-1.211 3.389,-1.211 1.322,0 2.367,0.3483 3.135,1.045 0.768,0.6901 1.152,1.6113 1.152,2.7636 0,1.3998 -0.892,3.0664 -2.676,5 l -3.808,4.1309 h 7.139 z"/>
    </g>
    <g
            id="g24"
            filter="url(#filter5_f)">
        <path
                id="path22"
                fill="#ffffff"
                d="m 346,63 h -6 l -4,3.75 v 9.375 c 0,1.0342 0.897,1.875 2,1.875 h 8 c 1.103,0 2,-0.8408 2,-1.875 V 64.875 C 348,63.8408 347.103,63 346,63 Z m -5,4.6875 h -1.5 V 64.875 h 1.5 z m 2.5,0 H 342 V 64.875 h 1.5 z m 2.5,0 h -1.5 V 64.875 h 1.5 z"/>
    </g>
    <g
            id="g28"
            filter="url(#filter6_d)">
        <path
                id="path26"
                fill="#ffffff"
                d="m 331.6,19.5469 c 0.416,-1.0748 0.65,-2.25 0.65,-3.4755 0,-5.3236 -4.367,-9.64283 -9.75,-9.64283 -2.001,0 -3.87,0.60268 -5.413,1.62723 C 314.273,3.23437 309.023,0 303,0 c -8.978,0 -16.25,7.19196 -16.25,16.0714 0,0.2712 0.01,0.5424 0.02,0.8136 C 281.083,18.8638 277,24.2277 277,30.5357 277,38.5212 283.551,45 291.625,45 H 329 c 7.18,0 13,-5.7556 13,-12.8571 0,-6.2177 -4.469,-11.4108 -10.4,-12.596 z m -13.498,8.9096 -10.704,10.587 c -0.63,0.6228 -1.666,0.6228 -2.296,0 l -10.704,-10.587 c -1.026,-1.0145 -0.295,-2.7422 1.147,-2.7422 h 6.643 v -11.25 c 0,-0.8839 0.731,-1.6072 1.624,-1.6072 h 4.876 c 0.893,0 1.624,0.7233 1.624,1.6072 v 11.25 h 6.643 c 1.442,0 2.173,1.7277 1.147,2.7422 z"/>
    </g>
    <defs
            id="defs87">
        <filter
                color-interpolation-filters="sRGB"
                filterUnits="userSpaceOnUse"
                height="76"
                width="364.47699"
                y="18"
                x="1.52338"
                id="filter0_f">
            <feFlood
                    id="feFlood30"
                    result="BackgroundImageFix"
                    flood-opacity="0"/>
            <feBlend
                    id="feBlend32"
                    result="shape"
                    in2="BackgroundImageFix"
                    in="SourceGraphic"
                    mode="normal"/>
            <feGaussianBlur
                    id="feGaussianBlur34"
                    result="effect1_foregroundBlur"
                    stdDeviation="2"/>
        </filter>
        <filter
                color-interpolation-filters="sRGB"
                filterUnits="userSpaceOnUse"
                height="26.2344"
                width="166.22701"
                y="26"
                x="26.3549"
                id="filter1_f">
            <feFlood
                    id="feFlood37"
                    result="BackgroundImageFix"
                    flood-opacity="0"/>
            <feBlend
                    id="feBlend39"
                    result="shape"
                    in2="BackgroundImageFix"
                    in="SourceGraphic"
                    mode="normal"/>
            <feGaussianBlur
                    id="feGaussianBlur41"
                    result="effect1_foregroundBlur"
                    stdDeviation="2"/>
        </filter>
        <filter
                color-interpolation-filters="sRGB"
                filterUnits="userSpaceOnUse"
                height="10"
                width="366"
                y="49"
                x="0"
                id="filter2_f">
            <feFlood
                    id="feFlood44"
                    result="BackgroundImageFix"
                    flood-opacity="0"/>
            <feBlend
                    id="feBlend46"
                    result="shape"
                    in2="BackgroundImageFix"
                    in="SourceGraphic"
                    mode="normal"/>
            <feGaussianBlur
                    id="feGaussianBlur48"
                    result="effect1_foregroundBlur"
                    stdDeviation="2"/>
        </filter>
        <filter
                color-interpolation-filters="sRGB"
                filterUnits="userSpaceOnUse"
                height="18.6367"
                width="163.17599"
                y="61.5"
                x="25.187901"
                id="filter3_f">
            <feFlood
                    id="feFlood51"
                    result="BackgroundImageFix"
                    flood-opacity="0"/>
            <feBlend
                    id="feBlend53"
                    result="shape"
                    in2="BackgroundImageFix"
                    in="SourceGraphic"
                    mode="normal"/>
            <feGaussianBlur
                    id="feGaussianBlur55"
                    result="effect1_foregroundBlur"
                    stdDeviation="2"/>
        </filter>
        <filter
                color-interpolation-filters="sRGB"
                filterUnits="userSpaceOnUse"
                height="22.414101"
                width="29.210899"
                y="58.585899"
                x="305.51801"
                id="filter4_f">
            <feFlood
                    id="feFlood58"
                    result="BackgroundImageFix"
                    flood-opacity="0"/>
            <feBlend
                    id="feBlend60"
                    result="shape"
                    in2="BackgroundImageFix"
                    in="SourceGraphic"
                    mode="normal"/>
            <feGaussianBlur
                    id="feGaussianBlur62"
                    result="effect1_foregroundBlur"
                    stdDeviation="2"/>
        </filter>
        <filter
                color-interpolation-filters="sRGB"
                filterUnits="userSpaceOnUse"
                height="23"
                width="20"
                y="59"
                x="332"
                id="filter5_f">
            <feFlood
                    id="feFlood65"
                    result="BackgroundImageFix"
                    flood-opacity="0"/>
            <feBlend
                    id="feBlend67"
                    result="shape"
                    in2="BackgroundImageFix"
                    in="SourceGraphic"
                    mode="normal"/>
            <feGaussianBlur
                    id="feGaussianBlur69"
                    result="effect1_foregroundBlur"
                    stdDeviation="2"/>
        </filter>
        <filter
                color-interpolation-filters="sRGB"
                filterUnits="userSpaceOnUse"
                height="53"
                width="73"
                y="0"
                x="273"
                id="filter6_d">
            <feFlood
                    id="feFlood72"
                    result="BackgroundImageFix"
                    flood-opacity="0"/>
            <feColorMatrix
                    id="feColorMatrix74"
                    values="0 0 0 0 0 0 0 0 0 0 0 0 0 0 0 0 0 0 127 0"
                    type="matrix"
                    in="SourceAlpha"/>
            <feOffset
                    id="feOffset76"
                    dy="4"/>
            <feGaussianBlur
                    id="feGaussianBlur78"
                    stdDeviation="2"/>
            <feColorMatrix
                    id="feColorMatrix80"
                    values="0 0 0 0 0 0 0 0 0 0 0 0 0 0 0 0 0 0 0.25 0"
                    type="matrix"/>
            <feBlend
                    id="feBlend82"
                    result="effect1_dropShadow"
                    in2="BackgroundImageFix"
                    mode="normal"/>
            <feBlend
                    id="feBlend84"
                    result="shape"
                    in2="effect1_dropShadow"
                    in="SourceGraphic"
                    mode="normal"/>
        </filter>
    </defs>
</svg>
