<svg width="95" height="88" viewBox="0 0 95 88" fill="none" xmlns="http://www.w3.org/2000/svg">
    <path d="M47.5 88C73.7335 88 95 68.3005 95 44C95 19.6995 73.7335 0 47.5 0C21.2665 0 0 19.6995 0 44C0 68.3005 21.2665 88 47.5 88Z"
          fill="#FEDD55"/>
    <path d="M95 44.0001C95 40.5774 94.5779 37.2461 93.7797 34.048L70.4575 12.4444L63.2858 15.6378L54.3303 7.38232L19.3811 73.6462L32.4367 85.7398C37.1702 87.205 42.2347 88.0001 47.5 88.0001C73.7335 88.0001 95 68.3007 95 44.0001Z"
          fill="#FCC63D"/>
    <path d="M40.5278 7.53846L16.3057 35.8372L47.5001 65.4786L78.6944 35.8372L54.4723 7.53846C50.91 3.3765 44.0901 3.3765 40.5278 7.53846Z"
          fill="#0768DD"/>
    <path d="M78.6941 35.8375L71.0144 43.1353L47.5 65.479V4.41699C50.0958 4.41699 52.6916 5.45855 54.4728 7.53824L58.2933 12.0018L71.0144 26.8639L78.6941 35.8375Z"
          fill="#0059B2"/>
    <path d="M23.4292 12.4443H70.4577V66.6078H23.4292V12.4443Z" fill="white"/>
    <path d="M47.5009 12.4443H70.4575V66.609H47.5009V12.4443Z" fill="#EAE1DC"/>
    <path d="M47.5 60.3786L16.3057 35.8374V67.6179C16.3057 71.927 20.0767 75.4202 24.7286 75.4202H70.2714C74.9233 75.4202 78.6943 71.927 78.6943 67.6179V35.8374L47.5 60.3786Z"
          fill="#238CF8"/>
    <path d="M78.6941 35.8374V67.6171C78.6941 71.926 74.9238 75.4202 70.2722 75.4202H47.5V60.3777L71.0144 41.8788L78.6941 35.8374Z"
          fill="#0768DD"/>
    <path d="M56.9005 36.4437C56.7463 36.8019 56.3563 37.5509 55.5021 38.0246C55.2117 38.1857 54.7263 38.3618 54.1108 38.3618C53.7798 38.3618 53.5236 38.1695 53.4004 38.0547C53.1055 37.7802 52.9308 37.3756 52.9328 36.9724L52.9499 33.7664C52.9525 33.6812 52.9554 33.5961 52.9554 33.5101C52.9554 33.4562 52.9532 33.4031 52.9521 33.3496L52.9905 26.1599L50.2073 26.1472L50.1982 27.8532C49.2992 27.2594 48.2231 26.926 47.0333 26.926C43.9384 26.926 40.7374 29.4011 40.7374 33.5435C40.7374 37.3198 43.5059 40.3918 46.9088 40.3918C48.3457 40.3918 49.6495 39.8475 50.6764 38.9282C50.8756 39.2747 51.1276 39.5945 51.4275 39.8735C52.1665 40.5613 53.1195 40.9401 54.1108 40.9401C56.9525 40.9401 58.7512 39.1097 59.4867 37.3966C60.6185 34.7612 60.8217 32.539 60.1452 30.1919C60.1413 30.1787 60.1372 30.1653 60.1329 30.1521C59.1102 27.0131 56.8222 24.4431 53.6902 22.9153C50.5587 21.3876 46.9754 21.0941 43.6002 22.0896C40.4017 23.0325 37.741 25.0658 36.1078 27.8144C34.474 30.5639 34.0445 33.7338 34.898 36.7404C36.3713 41.9291 41.4369 45.6565 47.2168 45.8045L48.6079 45.8401L48.6847 43.263L47.2937 43.2274C42.7411 43.1107 38.7507 40.1736 37.5896 36.0847C36.9186 33.7205 37.2582 31.2249 38.5459 29.0574C39.8336 26.8902 41.9284 25.288 44.4442 24.5462C47.1033 23.7623 49.9266 23.9929 52.393 25.1962C54.0698 26.0143 55.0961 27.0569 55.5522 27.5689C56.6821 28.8377 57.2089 30.101 57.46 30.8715C57.657 31.447 57.9045 32.4208 57.7978 33.6305C57.6835 34.9243 57.2158 35.8996 56.9005 36.4437ZM46.909 37.8139C45.2795 37.8139 43.5208 36.1813 43.5208 33.5437C43.5208 31.0152 45.3068 29.5043 47.0335 29.5043C48.8536 29.5043 50.1303 31.1034 50.1687 33.4048L50.1669 33.7532C50.0711 36.0135 48.6469 37.8139 46.909 37.8139Z"
          fill="#FF807D"/>
    <path d="M56.9017 36.4444C56.7471 36.8031 56.3565 37.5521 55.5017 38.0258C55.211 38.1868 54.7261 38.3625 54.111 38.3625C53.7808 38.3625 53.5228 38.17 53.4004 38.0548C53.1054 37.7798 52.931 37.3759 52.9328 36.972L52.9903 26.1594L50.2071 26.1473L50.1979 27.854C49.4186 27.3384 48.5038 27.0187 47.5 26.9431V29.5401C49.0679 29.7894 50.1348 31.3036 50.1682 33.4039L50.1663 33.7528C50.0828 35.75 48.9603 37.3897 47.5 37.742V40.3597C48.7023 40.2342 49.7934 39.7203 50.6766 38.9279C50.8751 39.2751 51.1274 39.5948 51.428 39.8733C52.1665 40.5608 53.1202 40.9406 54.111 40.9406C56.9536 40.9406 58.7516 39.1101 59.4863 37.3965C60.6182 34.7617 60.8223 32.5394 60.145 30.1915C60.1413 30.1778 60.1376 30.1658 60.132 30.152C59.1097 27.0136 56.8219 24.4423 53.6898 22.9144C51.749 21.9673 49.6319 21.4947 47.5 21.5101V24.0883C49.1866 24.0745 50.8584 24.4475 52.3929 25.1951C54.0886 26.0213 55.1263 27.0844 55.5895 27.6103C56.6938 28.8648 57.2117 30.1084 57.4602 30.8704C57.6457 31.5148 57.8546 32.5576 57.7051 33.8306C57.5707 34.9746 57.1982 35.8699 56.9017 36.4444ZM47.5 45.8115L48.6077 45.839L48.6856 43.2626L47.5 43.2317V45.8115Z"
          fill="#FC3E53"/>
</svg>
