<svg width="173" height="170" viewBox="0 0 173 170" fill="none" xmlns="http://www.w3.org/2000/svg">
    <g filter="url(#filter0_d)">
        <rect x="7" y="3" width="156" height="156" rx="40" fill="#BA6363"/>
    </g>
    <path d="M29.5176 124.781L34.166 136.383L38.8145 124.781H41.2461V139H39.3711V133.463L39.5469 127.486L34.8789 139H33.4434L28.7852 127.516L28.9707 133.463V139H27.0957V124.781H29.5176ZM50.7969 139C50.6927 138.792 50.6081 138.421 50.543 137.887C49.7031 138.759 48.7005 139.195 47.5352 139.195C46.4935 139.195 45.6374 138.902 44.9668 138.316C44.3027 137.724 43.9707 136.975 43.9707 136.07C43.9707 134.97 44.3874 134.117 45.2207 133.512C46.0605 132.9 47.2389 132.594 48.7559 132.594H50.5137V131.764C50.5137 131.132 50.3249 130.631 49.9473 130.26C49.5697 129.882 49.013 129.693 48.2773 129.693C47.6328 129.693 47.0924 129.856 46.6562 130.182C46.2201 130.507 46.002 130.901 46.002 131.363H44.1855C44.1855 130.836 44.3711 130.328 44.7422 129.84C45.1198 129.345 45.6276 128.954 46.2656 128.668C46.9102 128.382 47.6165 128.238 48.3848 128.238C49.6022 128.238 50.556 128.544 51.2461 129.156C51.9362 129.762 52.2943 130.598 52.3203 131.666V136.529C52.3203 137.499 52.444 138.271 52.6914 138.844V139H50.7969ZM47.7988 137.623C48.3652 137.623 48.9023 137.477 49.4102 137.184C49.918 136.891 50.2858 136.51 50.5137 136.041V133.873H49.0977C46.8841 133.873 45.7773 134.521 45.7773 135.816C45.7773 136.383 45.9661 136.826 46.3438 137.145C46.7214 137.464 47.2064 137.623 47.7988 137.623ZM57.6035 125.875V128.434H59.5762V129.83H57.6035V136.383C57.6035 136.806 57.6914 137.125 57.8672 137.34C58.043 137.548 58.3424 137.652 58.7656 137.652C58.974 137.652 59.2604 137.613 59.625 137.535V139C59.1497 139.13 58.6875 139.195 58.2383 139.195C57.431 139.195 56.8223 138.951 56.4121 138.463C56.002 137.975 55.7969 137.281 55.7969 136.383V129.83H53.873V128.434H55.7969V125.875H57.6035ZM63.502 129.713C64.3027 128.73 65.3444 128.238 66.627 128.238C68.86 128.238 69.9863 129.498 70.0059 132.018V139H68.1992V132.008C68.1927 131.246 68.0169 130.683 67.6719 130.318C67.3333 129.954 66.8027 129.771 66.0801 129.771C65.4941 129.771 64.9798 129.928 64.5371 130.24C64.0944 130.553 63.7493 130.963 63.502 131.471V139H61.6953V124H63.502V129.713ZM77.0957 139.195C75.6634 139.195 74.498 138.727 73.5996 137.789C72.7012 136.845 72.252 135.585 72.252 134.01V133.678C72.252 132.63 72.4505 131.695 72.8477 130.875C73.2513 130.048 73.8112 129.404 74.5273 128.941C75.25 128.473 76.0312 128.238 76.8711 128.238C78.2448 128.238 79.3125 128.691 80.0742 129.596C80.8359 130.501 81.2168 131.796 81.2168 133.482V134.234H74.0586C74.0846 135.276 74.3874 136.119 74.9668 136.764C75.5527 137.402 76.2949 137.721 77.1934 137.721C77.8314 137.721 78.3717 137.59 78.8145 137.33C79.2572 137.07 79.6445 136.725 79.9766 136.295L81.0801 137.154C80.1947 138.515 78.8665 139.195 77.0957 139.195ZM76.8711 129.723C76.1419 129.723 75.5299 129.99 75.0352 130.523C74.5404 131.051 74.2344 131.793 74.1172 132.75H79.4102V132.613C79.3581 131.695 79.1107 130.986 78.668 130.484C78.2253 129.977 77.6263 129.723 76.8711 129.723ZM85.0156 128.434L85.0645 129.605C85.8392 128.694 86.8841 128.238 88.1992 128.238C89.6771 128.238 90.6829 128.805 91.2168 129.938C91.5684 129.43 92.0241 129.02 92.584 128.707C93.1504 128.395 93.8177 128.238 94.5859 128.238C96.9036 128.238 98.082 129.465 98.1211 131.92V139H96.3145V132.027C96.3145 131.272 96.1419 130.709 95.7969 130.338C95.4518 129.96 94.8724 129.771 94.0586 129.771C93.388 129.771 92.8314 129.973 92.3887 130.377C91.946 130.774 91.6888 131.311 91.6172 131.988V139H89.8008V132.076C89.8008 130.54 89.0488 129.771 87.5449 129.771C86.36 129.771 85.5495 130.276 85.1133 131.285V139H83.3066V128.434H85.0156ZM107.379 139C107.275 138.792 107.19 138.421 107.125 137.887C106.285 138.759 105.283 139.195 104.117 139.195C103.076 139.195 102.219 138.902 101.549 138.316C100.885 137.724 100.553 136.975 100.553 136.07C100.553 134.97 100.969 134.117 101.803 133.512C102.643 132.9 103.821 132.594 105.338 132.594H107.096V131.764C107.096 131.132 106.907 130.631 106.529 130.26C106.152 129.882 105.595 129.693 104.859 129.693C104.215 129.693 103.674 129.856 103.238 130.182C102.802 130.507 102.584 130.901 102.584 131.363H100.768C100.768 130.836 100.953 130.328 101.324 129.84C101.702 129.345 102.21 128.954 102.848 128.668C103.492 128.382 104.199 128.238 104.967 128.238C106.184 128.238 107.138 128.544 107.828 129.156C108.518 129.762 108.876 130.598 108.902 131.666V136.529C108.902 137.499 109.026 138.271 109.273 138.844V139H107.379ZM104.381 137.623C104.947 137.623 105.484 137.477 105.992 137.184C106.5 136.891 106.868 136.51 107.096 136.041V133.873H105.68C103.466 133.873 102.359 134.521 102.359 135.816C102.359 136.383 102.548 136.826 102.926 137.145C103.303 137.464 103.788 137.623 104.381 137.623ZM114.186 125.875V128.434H116.158V129.83H114.186V136.383C114.186 136.806 114.273 137.125 114.449 137.34C114.625 137.548 114.924 137.652 115.348 137.652C115.556 137.652 115.842 137.613 116.207 137.535V139C115.732 139.13 115.27 139.195 114.82 139.195C114.013 139.195 113.404 138.951 112.994 138.463C112.584 137.975 112.379 137.281 112.379 136.383V129.83H110.455V128.434H112.379V125.875H114.186ZM120.24 139H118.434V128.434H120.24V139ZM118.287 125.631C118.287 125.338 118.375 125.09 118.551 124.889C118.733 124.687 119 124.586 119.352 124.586C119.703 124.586 119.97 124.687 120.152 124.889C120.335 125.09 120.426 125.338 120.426 125.631C120.426 125.924 120.335 126.168 120.152 126.363C119.97 126.559 119.703 126.656 119.352 126.656C119 126.656 118.733 126.559 118.551 126.363C118.375 126.168 118.287 125.924 118.287 125.631ZM127.379 137.721C128.023 137.721 128.587 137.525 129.068 137.135C129.55 136.744 129.817 136.256 129.869 135.67H131.578C131.546 136.275 131.337 136.852 130.953 137.398C130.569 137.945 130.055 138.382 129.41 138.707C128.772 139.033 128.095 139.195 127.379 139.195C125.94 139.195 124.794 138.717 123.941 137.76C123.095 136.796 122.672 135.481 122.672 133.814V133.512C122.672 132.483 122.861 131.568 123.238 130.768C123.616 129.967 124.156 129.345 124.859 128.902C125.569 128.46 126.406 128.238 127.369 128.238C128.554 128.238 129.537 128.593 130.318 129.303C131.106 130.012 131.526 130.934 131.578 132.066H129.869C129.817 131.383 129.557 130.823 129.088 130.387C128.626 129.944 128.053 129.723 127.369 129.723C126.451 129.723 125.738 130.055 125.23 130.719C124.729 131.376 124.479 132.33 124.479 133.58V133.922C124.479 135.139 124.729 136.077 125.23 136.734C125.732 137.392 126.448 137.721 127.379 137.721ZM139.762 136.197C139.762 135.709 139.576 135.331 139.205 135.064C138.84 134.791 138.199 134.557 137.281 134.361C136.37 134.166 135.644 133.932 135.104 133.658C134.57 133.385 134.173 133.059 133.912 132.682C133.658 132.304 133.531 131.855 133.531 131.334C133.531 130.468 133.896 129.736 134.625 129.137C135.361 128.538 136.298 128.238 137.438 128.238C138.635 128.238 139.605 128.548 140.348 129.166C141.096 129.785 141.471 130.576 141.471 131.539H139.654C139.654 131.044 139.443 130.618 139.02 130.26C138.603 129.902 138.076 129.723 137.438 129.723C136.78 129.723 136.266 129.866 135.895 130.152C135.523 130.439 135.338 130.813 135.338 131.275C135.338 131.712 135.51 132.04 135.855 132.262C136.201 132.483 136.822 132.695 137.721 132.896C138.626 133.098 139.358 133.339 139.918 133.619C140.478 133.899 140.891 134.238 141.158 134.635C141.432 135.025 141.568 135.504 141.568 136.07C141.568 137.014 141.191 137.773 140.436 138.346C139.68 138.912 138.701 139.195 137.496 139.195C136.65 139.195 135.901 139.046 135.25 138.746C134.599 138.447 134.088 138.03 133.717 137.496C133.352 136.956 133.17 136.373 133.17 135.748H134.977C135.009 136.354 135.25 136.835 135.699 137.193C136.155 137.545 136.754 137.721 137.496 137.721C138.18 137.721 138.727 137.584 139.137 137.311C139.553 137.031 139.762 136.66 139.762 136.197Z"
          fill="white"/>
    <path d="M133.306 52.1129H108.274C106.553 52.1129 105.145 53.5208 105.145 55.2419V95.9194C105.145 97.6405 106.553 99.0484 108.274 99.0484H133.306C135.027 99.0484 136.435 97.6405 136.435 95.9194V55.2419C136.435 53.5208 135.027 52.1129 133.306 52.1129Z"
          fill="#FCD770"/>
    <path d="M45.6935 20.8226V58.1991L55.8163 67.7581H105.145V55.242C105.145 53.5209 106.553 52.113 108.274 52.113H117.661V20.8226H45.6935Z"
          fill="#E6E9ED"/>
    <path d="M111.403 58.371H130.177V67.7581H111.403V58.371Z" fill="#69D6F4"/>
    <path d="M127.048 33.3387V39.5968H89.5V33.3387H127.048Z" fill="#B4DD7F"/>
    <path d="M127.048 27.0807V33.3388H89.5V27.0807H127.048Z" fill="#FF826E"/>
    <path d="M89.5 33.3388V39.5968L80.1129 33.3388L89.5 27.0807V33.3388Z" fill="#F5E0CD"/>
    <path d="M136.436 31.7742V34.9033C136.436 37.5006 134.339 39.5968 131.742 39.5968H127.049V27.0807H131.742C134.339 27.0807 136.436 29.1769 136.436 31.7742Z"
          fill="#FFEAA7"/>
    <path d="M42.5648 102.177V55.2419L45.6938 58.1991L55.8165 67.7581L98.8873 108.435H42.5648V102.177ZM51.9519 77.0199V99.0484H75.279L51.9519 77.0199Z"
          fill="#FFEAA7"/>
    <path d="M120.791 16.1291V19.2581C120.791 20.1183 120.086 20.8226 119.226 20.8226H44.1293C43.2691 20.8226 42.5648 20.1183 42.5648 19.2581V16.1291C42.5648 15.2689 43.2691 14.5646 44.1293 14.5646H119.226C120.086 14.5646 120.791 15.2689 120.791 16.1291Z"
          fill="#838F9B"/>
    <path d="M131.742 41.1613C135.193 41.1613 138 38.3546 138 34.9032V31.7742C138 28.3228 135.193 25.5161 131.742 25.5161H119.226V22.3871C120.952 22.3871 122.355 20.9838 122.355 19.2581V16.129C122.355 14.4033 120.952 13 119.226 13H44.129C42.4033 13 41 14.4033 41 16.129V19.2581C41 20.9838 42.4033 22.3871 44.129 22.3871V54.5674L41 51.6125V110H102.822L59.752 69.3226H103.581V95.9194C103.581 98.5068 105.687 100.613 108.274 100.613H133.306C135.894 100.613 138 98.5068 138 95.9194V55.2419C138 52.6545 135.894 50.5484 133.306 50.5484H119.226V41.1613H131.742ZM125.484 31.7742H91.0645V28.6452H125.484V31.7742ZM87.9355 36.674L82.9341 33.3387L87.9355 30.0034V36.674ZM91.0645 34.9032H125.484V38.0323H91.0645V34.9032ZM134.871 31.7742V34.9032C134.871 36.6289 133.468 38.0323 131.742 38.0323H128.613V28.6452H131.742C133.468 28.6452 134.871 30.0485 134.871 31.7742ZM44.129 16.129H119.226L119.227 19.2581H44.129V16.129ZM44.129 106.871V103.742H47.2581V100.613H44.129V97.4839H47.2581V94.3548H44.129V91.2258H47.2581V88.0968H44.129V84.9677H47.2581V81.8387H44.129V78.7097H47.2581V75.5806H44.129V72.4516H47.2581V69.3226H44.129V58.8713L94.9521 106.871H44.129ZM134.871 55.2419V95.9194C134.871 96.7826 134.168 97.4839 133.306 97.4839H108.274C107.412 97.4839 106.71 96.7826 106.71 95.9194V55.2419C106.71 54.3787 107.412 53.6774 108.274 53.6774H133.306C134.168 53.6774 134.871 54.3787 134.871 55.2419ZM116.097 50.5484H89.5V53.6774H103.869C103.693 54.1686 103.581 54.6911 103.581 55.2419V56.8065H89.5V59.9355H103.581V66.1936H56.4389L47.2581 57.523V22.3871H116.097V25.5161H89.0256L77.2917 33.3387L89.0256 41.1613H116.097V50.5484Z"
          fill="black"/>
    <path d="M73.8549 31.7742H63.0988L60.2716 52.9685L55.8316 47.4193H50.3871V50.5484H54.3298L62.406 60.6444L65.8367 34.9032H73.8549V31.7742Z"
          fill="black"/>
    <path d="M83.7001 40.0552L76.9837 46.7716L70.2673 40.0552L68.0549 42.2675L74.7713 48.9839L68.0549 55.7003L70.2673 57.9127L76.9837 51.1962L83.7001 57.9127L85.9124 55.7003L79.196 48.9839L85.9124 42.2675L83.7001 40.0552Z"
          fill="black"/>
    <path d="M89.5 44.2903H112.968V47.4193H89.5V44.2903Z" fill="black"/>
    <path d="M50.3871 73.3905V100.613H79.21L50.3871 73.3905ZM53.5162 80.6501L71.3408 97.4839H53.5162V80.6501Z"
          fill="black"/>
    <path d="M131.742 56.8064H109.839V69.3225H131.742V56.8064ZM128.613 66.1935H112.968V59.9354H128.613V66.1935Z"
          fill="black"/>
    <path d="M122.355 75.5807H131.742V78.7097H122.355V75.5807Z" fill="black"/>
    <path d="M109.839 84.9678H119.226V88.0968H109.839V84.9678Z" fill="black"/>
    <path d="M109.839 91.2258H119.226V94.3549H109.839V91.2258Z" fill="black"/>
    <path d="M112.968 81.8388H116.097V78.7097H119.226V75.5807H116.097V72.4517H112.968V75.5807H109.839V78.7097H112.968V81.8388Z"
          fill="black"/>
    <path d="M129.071 85.4261L127.048 87.449L125.026 85.4261L122.813 87.6385L124.836 89.6613L122.813 91.6842L125.026 93.8965L127.048 91.8737L129.071 93.8965L131.284 91.6842L129.261 89.6613L131.284 87.6385L129.071 85.4261Z"
          fill="black"/>
    <defs>
        <filter id="filter0_d" x="3" y="0" width="170" height="170" filterUnits="userSpaceOnUse"
                color-interpolation-filters="sRGB">
            <feFlood flood-opacity="0" result="BackgroundImageFix"/>
            <feColorMatrix in="SourceAlpha" type="matrix" values="0 0 0 0 0 0 0 0 0 0 0 0 0 0 0 0 0 0 127 0"/>
            <feMorphology radius="3" operator="dilate" in="SourceAlpha" result="effect1_dropShadow"/>
            <feOffset dx="3" dy="4"/>
            <feGaussianBlur stdDeviation="2"/>
            <feColorMatrix type="matrix" values="0 0 0 0 0 0 0 0 0 0 0 0 0 0 0 0 0 0 0.25 0"/>
            <feBlend mode="normal" in2="BackgroundImageFix" result="effect1_dropShadow"/>
            <feBlend mode="normal" in="SourceGraphic" in2="effect1_dropShadow" result="shape"/>
        </filter>
    </defs>
</svg>
