<?xml version="1.0" encoding="UTF-8" standalone="no"?>
<svg
        xmlns:dc="http://purl.org/dc/elements/1.1/"
        xmlns:cc="http://creativecommons.org/ns#"
        xmlns:rdf="http://www.w3.org/1999/02/22-rdf-syntax-ns#"
        xmlns:svg="http://www.w3.org/2000/svg"
        xmlns="http://www.w3.org/2000/svg"
        xmlns:sodipodi="http://sodipodi.sourceforge.net/DTD/sodipodi-0.dtd"
        xmlns:inkscape="http://www.inkscape.org/namespaces/inkscape"
        inkscape:version="1.0 (4035a4fb49, 2020-05-01)"
        sodipodi:docname="info.svg"
        id="svg10"
        version="1.1"
        width="512pt"
        viewBox="0 0 512 512"
        height="512pt">
  <metadata
          id="metadata16">
    <rdf:RDF>
      <cc:Work
              rdf:about="">
        <dc:format>image/svg+xml</dc:format>
        <dc:type
                rdf:resource="http://purl.org/dc/dcmitype/StillImage"/>
      </cc:Work>
    </rdf:RDF>
  </metadata>
  <defs
     id="defs14" />
  <sodipodi:namedview
          inkscape:current-layer="svg10"
          inkscape:window-maximized="1"
          inkscape:window-y="-9"
          inkscape:window-x="2391"
          inkscape:cy="341.33333"
          inkscape:cx="341.33333"
          inkscape:zoom="1.2158203"
          showgrid="false"
          id="namedview12"
          inkscape:window-height="1271"
          inkscape:window-width="2400"
          inkscape:pageshadow="2"
          inkscape:pageopacity="0"
          guidetolerance="10"
          gridtolerance="10"
          objecttolerance="10"
          borderopacity="1"
          bordercolor="#666666"
          pagecolor="#ffffff"/>
  <path
          style="fill:#ffffff"
          id="path2"
          d="m277.332031 128c0 11.78125-9.550781 21.332031-21.332031 21.332031s-21.332031-9.550781-21.332031-21.332031 9.550781-21.332031 21.332031-21.332031 21.332031 9.550781 21.332031 21.332031zm0 0"/>
  <path
          style="fill:#ffffff"
          id="path4"
          d="m256 405.332031c-8.832031 0-16-7.167969-16-16v-165.332031h-21.332031c-8.832031 0-16-7.167969-16-16s7.167969-16 16-16h37.332031c8.832031 0 16 7.167969 16 16v181.332031c0 8.832031-7.167969 16-16 16zm0 0"/>
  <path
          style="fill:#ffffff"
          id="path6"
          d="m256 512c-141.164062 0-256-114.835938-256-256s114.835938-256 256-256 256 114.835938 256 256-114.835938 256-256 256zm0-480c-123.519531 0-224 100.480469-224 224s100.480469 224 224 224 224-100.480469 224-224-100.480469-224-224-224zm0 0"/>
  <path
          style="fill:#ffffff"
          id="path8"
          d="m304 405.332031h-96c-8.832031 0-16-7.167969-16-16s7.167969-16 16-16h96c8.832031 0 16 7.167969 16 16s-7.167969 16-16 16zm0 0"/>
</svg>
