<svg width="385" height="289" viewBox="0 0 385 289" fill="none" xmlns="http://www.w3.org/2000/svg">
    <rect x="87" y="185" width="162" height="104" rx="15" fill="white"/>
    <path d="M125.221 235.662C123.613 235.2 122.441 234.633 121.705 233.963C120.976 233.286 120.611 232.452 120.611 231.463C120.611 230.343 121.057 229.419 121.949 228.689C122.848 227.954 124.013 227.586 125.445 227.586C126.422 227.586 127.291 227.775 128.053 228.152C128.821 228.53 129.413 229.051 129.83 229.715C130.253 230.379 130.465 231.105 130.465 231.893H128.58C128.58 231.033 128.307 230.359 127.76 229.871C127.213 229.376 126.441 229.129 125.445 229.129C124.521 229.129 123.798 229.334 123.277 229.744C122.763 230.148 122.506 230.711 122.506 231.434C122.506 232.013 122.75 232.505 123.238 232.908C123.733 233.305 124.57 233.67 125.748 234.002C126.933 234.334 127.857 234.702 128.521 235.105C129.192 235.503 129.687 235.968 130.006 236.502C130.331 237.036 130.494 237.664 130.494 238.387C130.494 239.539 130.045 240.464 129.146 241.16C128.248 241.85 127.047 242.195 125.543 242.195C124.566 242.195 123.655 242.01 122.809 241.639C121.962 241.261 121.308 240.747 120.846 240.096C120.39 239.445 120.162 238.706 120.162 237.879H122.047C122.047 238.738 122.363 239.419 122.994 239.92C123.632 240.415 124.482 240.662 125.543 240.662C126.533 240.662 127.291 240.46 127.818 240.057C128.346 239.653 128.609 239.103 128.609 238.406C128.609 237.71 128.365 237.173 127.877 236.795C127.389 236.411 126.503 236.033 125.221 235.662ZM137.008 242.195C135.576 242.195 134.41 241.727 133.512 240.789C132.613 239.845 132.164 238.585 132.164 237.01V236.678C132.164 235.63 132.363 234.695 132.76 233.875C133.163 233.048 133.723 232.404 134.439 231.941C135.162 231.473 135.943 231.238 136.783 231.238C138.157 231.238 139.225 231.691 139.986 232.596C140.748 233.501 141.129 234.796 141.129 236.482V237.234H133.971C133.997 238.276 134.299 239.119 134.879 239.764C135.465 240.402 136.207 240.721 137.105 240.721C137.743 240.721 138.284 240.59 138.727 240.33C139.169 240.07 139.557 239.725 139.889 239.295L140.992 240.154C140.107 241.515 138.779 242.195 137.008 242.195ZM136.783 232.723C136.054 232.723 135.442 232.99 134.947 233.523C134.452 234.051 134.146 234.793 134.029 235.75H139.322V235.613C139.27 234.695 139.023 233.986 138.58 233.484C138.137 232.977 137.538 232.723 136.783 232.723ZM147.613 242.195C146.181 242.195 145.016 241.727 144.117 240.789C143.219 239.845 142.77 238.585 142.77 237.01V236.678C142.77 235.63 142.968 234.695 143.365 233.875C143.769 233.048 144.329 232.404 145.045 231.941C145.768 231.473 146.549 231.238 147.389 231.238C148.762 231.238 149.83 231.691 150.592 232.596C151.354 233.501 151.734 234.796 151.734 236.482V237.234H144.576C144.602 238.276 144.905 239.119 145.484 239.764C146.07 240.402 146.812 240.721 147.711 240.721C148.349 240.721 148.889 240.59 149.332 240.33C149.775 240.07 150.162 239.725 150.494 239.295L151.598 240.154C150.712 241.515 149.384 242.195 147.613 242.195ZM147.389 232.723C146.66 232.723 146.048 232.99 145.553 233.523C145.058 234.051 144.752 234.793 144.635 235.75H149.928V235.613C149.876 234.695 149.628 233.986 149.186 233.484C148.743 232.977 148.144 232.723 147.389 232.723ZM159.078 242V227.781H163.092C164.329 227.781 165.423 228.055 166.373 228.602C167.324 229.148 168.056 229.926 168.57 230.936C169.091 231.945 169.355 233.104 169.361 234.412V235.32C169.361 236.661 169.101 237.837 168.58 238.846C168.066 239.855 167.327 240.63 166.363 241.17C165.406 241.71 164.29 241.987 163.014 242H159.078ZM160.953 229.324V240.467H162.926C164.371 240.467 165.494 240.018 166.295 239.119C167.102 238.221 167.506 236.941 167.506 235.281V234.451C167.506 232.837 167.125 231.583 166.363 230.691C165.608 229.793 164.534 229.337 163.141 229.324H160.953ZM176.305 242.195C174.872 242.195 173.707 241.727 172.809 240.789C171.91 239.845 171.461 238.585 171.461 237.01V236.678C171.461 235.63 171.66 234.695 172.057 233.875C172.46 233.048 173.02 232.404 173.736 231.941C174.459 231.473 175.24 231.238 176.08 231.238C177.454 231.238 178.521 231.691 179.283 232.596C180.045 233.501 180.426 234.796 180.426 236.482V237.234H173.268C173.294 238.276 173.596 239.119 174.176 239.764C174.762 240.402 175.504 240.721 176.402 240.721C177.04 240.721 177.581 240.59 178.023 240.33C178.466 240.07 178.854 239.725 179.186 239.295L180.289 240.154C179.404 241.515 178.076 242.195 176.305 242.195ZM176.08 232.723C175.351 232.723 174.739 232.99 174.244 233.523C173.749 234.051 173.443 234.793 173.326 235.75H178.619V235.613C178.567 234.695 178.32 233.986 177.877 233.484C177.434 232.977 176.835 232.723 176.08 232.723ZM184.977 228.875V231.434H186.949V232.83H184.977V239.383C184.977 239.806 185.064 240.125 185.24 240.34C185.416 240.548 185.715 240.652 186.139 240.652C186.347 240.652 186.633 240.613 186.998 240.535V242C186.523 242.13 186.061 242.195 185.611 242.195C184.804 242.195 184.195 241.951 183.785 241.463C183.375 240.975 183.17 240.281 183.17 239.383V232.83H181.246V231.434H183.17V228.875H184.977ZM195.592 242C195.488 241.792 195.403 241.421 195.338 240.887C194.498 241.759 193.495 242.195 192.33 242.195C191.288 242.195 190.432 241.902 189.762 241.316C189.098 240.724 188.766 239.975 188.766 239.07C188.766 237.97 189.182 237.117 190.016 236.512C190.855 235.9 192.034 235.594 193.551 235.594H195.309V234.764C195.309 234.132 195.12 233.631 194.742 233.26C194.365 232.882 193.808 232.693 193.072 232.693C192.428 232.693 191.887 232.856 191.451 233.182C191.015 233.507 190.797 233.901 190.797 234.363H188.98C188.98 233.836 189.166 233.328 189.537 232.84C189.915 232.345 190.423 231.954 191.061 231.668C191.705 231.382 192.411 231.238 193.18 231.238C194.397 231.238 195.351 231.544 196.041 232.156C196.731 232.762 197.089 233.598 197.115 234.666V239.529C197.115 240.499 197.239 241.271 197.486 241.844V242H195.592ZM192.594 240.623C193.16 240.623 193.697 240.477 194.205 240.184C194.713 239.891 195.081 239.51 195.309 239.041V236.873H193.893C191.679 236.873 190.572 237.521 190.572 238.816C190.572 239.383 190.761 239.826 191.139 240.145C191.516 240.464 192.001 240.623 192.594 240.623ZM201.91 242H200.104V231.434H201.91V242ZM199.957 228.631C199.957 228.338 200.045 228.09 200.221 227.889C200.403 227.687 200.67 227.586 201.021 227.586C201.373 227.586 201.64 227.687 201.822 227.889C202.005 228.09 202.096 228.338 202.096 228.631C202.096 228.924 202.005 229.168 201.822 229.363C201.64 229.559 201.373 229.656 201.021 229.656C200.67 229.656 200.403 229.559 200.221 229.363C200.045 229.168 199.957 228.924 199.957 228.631ZM206.773 242H204.967V227H206.773V242ZM215.826 239.197C215.826 238.709 215.641 238.331 215.27 238.064C214.905 237.791 214.264 237.557 213.346 237.361C212.434 237.166 211.708 236.932 211.168 236.658C210.634 236.385 210.237 236.059 209.977 235.682C209.723 235.304 209.596 234.855 209.596 234.334C209.596 233.468 209.96 232.736 210.689 232.137C211.425 231.538 212.363 231.238 213.502 231.238C214.7 231.238 215.67 231.548 216.412 232.166C217.161 232.785 217.535 233.576 217.535 234.539H215.719C215.719 234.044 215.507 233.618 215.084 233.26C214.667 232.902 214.14 232.723 213.502 232.723C212.844 232.723 212.33 232.866 211.959 233.152C211.588 233.439 211.402 233.813 211.402 234.275C211.402 234.712 211.575 235.04 211.92 235.262C212.265 235.483 212.887 235.695 213.785 235.896C214.69 236.098 215.423 236.339 215.982 236.619C216.542 236.899 216.956 237.238 217.223 237.635C217.496 238.025 217.633 238.504 217.633 239.07C217.633 240.014 217.255 240.773 216.5 241.346C215.745 241.912 214.765 242.195 213.561 242.195C212.714 242.195 211.965 242.046 211.314 241.746C210.663 241.447 210.152 241.03 209.781 240.496C209.417 239.956 209.234 239.373 209.234 238.748H211.041C211.074 239.354 211.314 239.835 211.764 240.193C212.219 240.545 212.818 240.721 213.561 240.721C214.244 240.721 214.791 240.584 215.201 240.311C215.618 240.031 215.826 239.66 215.826 239.197Z"
          fill="#696969"/>
    <path d="M141.477 279V264.781H145.49C146.727 264.781 147.821 265.055 148.771 265.602C149.722 266.148 150.454 266.926 150.969 267.936C151.49 268.945 151.753 270.104 151.76 271.412V272.32C151.76 273.661 151.499 274.837 150.979 275.846C150.464 276.855 149.725 277.63 148.762 278.17C147.805 278.71 146.688 278.987 145.412 279H141.477ZM143.352 266.324V277.467H145.324C146.77 277.467 147.893 277.018 148.693 276.119C149.501 275.221 149.904 273.941 149.904 272.281V271.451C149.904 269.837 149.523 268.583 148.762 267.691C148.007 266.793 146.932 266.337 145.539 266.324H143.352ZM158.703 279.195C157.271 279.195 156.105 278.727 155.207 277.789C154.309 276.845 153.859 275.585 153.859 274.01V273.678C153.859 272.63 154.058 271.695 154.455 270.875C154.859 270.048 155.419 269.404 156.135 268.941C156.857 268.473 157.639 268.238 158.479 268.238C159.852 268.238 160.92 268.691 161.682 269.596C162.443 270.501 162.824 271.796 162.824 273.482V274.234H155.666C155.692 275.276 155.995 276.119 156.574 276.764C157.16 277.402 157.902 277.721 158.801 277.721C159.439 277.721 159.979 277.59 160.422 277.33C160.865 277.07 161.252 276.725 161.584 276.295L162.688 277.154C161.802 278.515 160.474 279.195 158.703 279.195ZM158.479 269.723C157.749 269.723 157.137 269.99 156.643 270.523C156.148 271.051 155.842 271.793 155.725 272.75H161.018V272.613C160.965 271.695 160.718 270.986 160.275 270.484C159.833 269.977 159.234 269.723 158.479 269.723ZM166.887 279H165.08V264H166.887V279ZM174.172 279.195C172.74 279.195 171.574 278.727 170.676 277.789C169.777 276.845 169.328 275.585 169.328 274.01V273.678C169.328 272.63 169.527 271.695 169.924 270.875C170.327 270.048 170.887 269.404 171.604 268.941C172.326 268.473 173.107 268.238 173.947 268.238C175.321 268.238 176.389 268.691 177.15 269.596C177.912 270.501 178.293 271.796 178.293 273.482V274.234H171.135C171.161 275.276 171.464 276.119 172.043 276.764C172.629 277.402 173.371 277.721 174.27 277.721C174.908 277.721 175.448 277.59 175.891 277.33C176.333 277.07 176.721 276.725 177.053 276.295L178.156 277.154C177.271 278.515 175.943 279.195 174.172 279.195ZM173.947 269.723C173.218 269.723 172.606 269.99 172.111 270.523C171.617 271.051 171.311 271.793 171.193 272.75H176.486V272.613C176.434 271.695 176.187 270.986 175.744 270.484C175.301 269.977 174.702 269.723 173.947 269.723ZM182.844 265.875V268.434H184.816V269.83H182.844V276.383C182.844 276.806 182.932 277.125 183.107 277.34C183.283 277.548 183.583 277.652 184.006 277.652C184.214 277.652 184.501 277.613 184.865 277.535V279C184.39 279.13 183.928 279.195 183.479 279.195C182.671 279.195 182.062 278.951 181.652 278.463C181.242 277.975 181.037 277.281 181.037 276.383V269.83H179.113V268.434H181.037V265.875H182.844ZM191.32 279.195C189.888 279.195 188.723 278.727 187.824 277.789C186.926 276.845 186.477 275.585 186.477 274.01V273.678C186.477 272.63 186.675 271.695 187.072 270.875C187.476 270.048 188.036 269.404 188.752 268.941C189.475 268.473 190.256 268.238 191.096 268.238C192.469 268.238 193.537 268.691 194.299 269.596C195.061 270.501 195.441 271.796 195.441 273.482V274.234H188.283C188.309 275.276 188.612 276.119 189.191 276.764C189.777 277.402 190.52 277.721 191.418 277.721C192.056 277.721 192.596 277.59 193.039 277.33C193.482 277.07 193.869 276.725 194.201 276.295L195.305 277.154C194.419 278.515 193.091 279.195 191.32 279.195ZM191.096 269.723C190.367 269.723 189.755 269.99 189.26 270.523C188.765 271.051 188.459 271.793 188.342 272.75H193.635V272.613C193.583 271.695 193.335 270.986 192.893 270.484C192.45 269.977 191.851 269.723 191.096 269.723Z"
          fill="#696969"/>
    <path d="M109.967 205.434V211H108.092V196.781H113.336C114.892 196.781 116.109 197.178 116.988 197.973C117.874 198.767 118.316 199.818 118.316 201.127C118.316 202.507 117.883 203.572 117.018 204.32C116.158 205.062 114.924 205.434 113.316 205.434H109.967ZM109.967 203.9H113.336C114.339 203.9 115.107 203.666 115.641 203.197C116.174 202.722 116.441 202.038 116.441 201.146C116.441 200.3 116.174 199.623 115.641 199.115C115.107 198.607 114.374 198.344 113.443 198.324H109.967V203.9ZM122.389 211H120.582V200.434H122.389V211ZM120.436 197.631C120.436 197.338 120.523 197.09 120.699 196.889C120.882 196.687 121.148 196.586 121.5 196.586C121.852 196.586 122.118 196.687 122.301 196.889C122.483 197.09 122.574 197.338 122.574 197.631C122.574 197.924 122.483 198.168 122.301 198.363C122.118 198.559 121.852 198.656 121.5 198.656C121.148 198.656 120.882 198.559 120.699 198.363C120.523 198.168 120.436 197.924 120.436 197.631ZM129.527 209.721C130.172 209.721 130.735 209.525 131.217 209.135C131.699 208.744 131.965 208.256 132.018 207.67H133.727C133.694 208.275 133.486 208.852 133.102 209.398C132.717 209.945 132.203 210.382 131.559 210.707C130.921 211.033 130.243 211.195 129.527 211.195C128.089 211.195 126.943 210.717 126.09 209.76C125.243 208.796 124.82 207.481 124.82 205.814V205.512C124.82 204.483 125.009 203.568 125.387 202.768C125.764 201.967 126.305 201.345 127.008 200.902C127.717 200.46 128.554 200.238 129.518 200.238C130.702 200.238 131.686 200.593 132.467 201.303C133.255 202.012 133.674 202.934 133.727 204.066H132.018C131.965 203.383 131.705 202.823 131.236 202.387C130.774 201.944 130.201 201.723 129.518 201.723C128.6 201.723 127.887 202.055 127.379 202.719C126.878 203.376 126.627 204.33 126.627 205.58V205.922C126.627 207.139 126.878 208.077 127.379 208.734C127.88 209.392 128.596 209.721 129.527 209.721ZM138.707 206.107L137.574 207.289V211H135.768V196H137.574V205.072L138.541 203.91L141.832 200.434H144.029L139.918 204.848L144.508 211H142.389L138.707 206.107ZM157.379 211C157.275 210.792 157.19 210.421 157.125 209.887C156.285 210.759 155.283 211.195 154.117 211.195C153.076 211.195 152.219 210.902 151.549 210.316C150.885 209.724 150.553 208.975 150.553 208.07C150.553 206.97 150.969 206.117 151.803 205.512C152.643 204.9 153.821 204.594 155.338 204.594H157.096V203.764C157.096 203.132 156.907 202.631 156.529 202.26C156.152 201.882 155.595 201.693 154.859 201.693C154.215 201.693 153.674 201.856 153.238 202.182C152.802 202.507 152.584 202.901 152.584 203.363H150.768C150.768 202.836 150.953 202.328 151.324 201.84C151.702 201.345 152.21 200.954 152.848 200.668C153.492 200.382 154.199 200.238 154.967 200.238C156.184 200.238 157.138 200.544 157.828 201.156C158.518 201.762 158.876 202.598 158.902 203.666V208.529C158.902 209.499 159.026 210.271 159.273 210.844V211H157.379ZM154.381 209.623C154.947 209.623 155.484 209.477 155.992 209.184C156.5 208.891 156.868 208.51 157.096 208.041V205.873H155.68C153.466 205.873 152.359 206.521 152.359 207.816C152.359 208.383 152.548 208.826 152.926 209.145C153.303 209.464 153.788 209.623 154.381 209.623ZM163.443 200.434L163.502 201.762C164.309 200.746 165.364 200.238 166.666 200.238C168.899 200.238 170.025 201.498 170.045 204.018V211H168.238V204.008C168.232 203.246 168.056 202.683 167.711 202.318C167.372 201.954 166.842 201.771 166.119 201.771C165.533 201.771 165.019 201.928 164.576 202.24C164.133 202.553 163.788 202.963 163.541 203.471V211H161.734V200.434H163.443ZM184.254 211C184.15 210.792 184.065 210.421 184 209.887C183.16 210.759 182.158 211.195 180.992 211.195C179.951 211.195 179.094 210.902 178.424 210.316C177.76 209.724 177.428 208.975 177.428 208.07C177.428 206.97 177.844 206.117 178.678 205.512C179.518 204.9 180.696 204.594 182.213 204.594H183.971V203.764C183.971 203.132 183.782 202.631 183.404 202.26C183.027 201.882 182.47 201.693 181.734 201.693C181.09 201.693 180.549 201.856 180.113 202.182C179.677 202.507 179.459 202.901 179.459 203.363H177.643C177.643 202.836 177.828 202.328 178.199 201.84C178.577 201.345 179.085 200.954 179.723 200.668C180.367 200.382 181.074 200.238 181.842 200.238C183.059 200.238 184.013 200.544 184.703 201.156C185.393 201.762 185.751 202.598 185.777 203.666V208.529C185.777 209.499 185.901 210.271 186.148 210.844V211H184.254ZM181.256 209.623C181.822 209.623 182.359 209.477 182.867 209.184C183.375 208.891 183.743 208.51 183.971 208.041V205.873H182.555C180.341 205.873 179.234 206.521 179.234 207.816C179.234 208.383 179.423 208.826 179.801 209.145C180.178 209.464 180.663 209.623 181.256 209.623ZM192.848 209.721C193.492 209.721 194.055 209.525 194.537 209.135C195.019 208.744 195.286 208.256 195.338 207.67H197.047C197.014 208.275 196.806 208.852 196.422 209.398C196.038 209.945 195.523 210.382 194.879 210.707C194.241 211.033 193.564 211.195 192.848 211.195C191.409 211.195 190.263 210.717 189.41 209.76C188.564 208.796 188.141 207.481 188.141 205.814V205.512C188.141 204.483 188.329 203.568 188.707 202.768C189.085 201.967 189.625 201.345 190.328 200.902C191.038 200.46 191.874 200.238 192.838 200.238C194.023 200.238 195.006 200.593 195.787 201.303C196.575 202.012 196.995 202.934 197.047 204.066H195.338C195.286 203.383 195.025 202.823 194.557 202.387C194.094 201.944 193.521 201.723 192.838 201.723C191.92 201.723 191.207 202.055 190.699 202.719C190.198 203.376 189.947 204.33 189.947 205.58V205.922C189.947 207.139 190.198 208.077 190.699 208.734C191.201 209.392 191.917 209.721 192.848 209.721ZM201.529 197.875V200.434H203.502V201.83H201.529V208.383C201.529 208.806 201.617 209.125 201.793 209.34C201.969 209.548 202.268 209.652 202.691 209.652C202.9 209.652 203.186 209.613 203.551 209.535V211C203.076 211.13 202.613 211.195 202.164 211.195C201.357 211.195 200.748 210.951 200.338 210.463C199.928 209.975 199.723 209.281 199.723 208.383V201.83H197.799V200.434H199.723V197.875H201.529ZM207.584 211H205.777V200.434H207.584V211ZM205.631 197.631C205.631 197.338 205.719 197.09 205.895 196.889C206.077 196.687 206.344 196.586 206.695 196.586C207.047 196.586 207.314 196.687 207.496 196.889C207.678 197.09 207.77 197.338 207.77 197.631C207.77 197.924 207.678 198.168 207.496 198.363C207.314 198.559 207.047 198.656 206.695 198.656C206.344 198.656 206.077 198.559 205.895 198.363C205.719 198.168 205.631 197.924 205.631 197.631ZM210.006 205.619C210.006 204.584 210.208 203.653 210.611 202.826C211.021 201.999 211.588 201.361 212.311 200.912C213.04 200.463 213.87 200.238 214.801 200.238C216.24 200.238 217.402 200.736 218.287 201.732C219.179 202.729 219.625 204.053 219.625 205.707V205.834C219.625 206.863 219.426 207.787 219.029 208.607C218.639 209.421 218.076 210.056 217.34 210.512C216.611 210.967 215.771 211.195 214.82 211.195C213.388 211.195 212.226 210.697 211.334 209.701C210.449 208.705 210.006 207.387 210.006 205.746V205.619ZM211.822 205.834C211.822 207.006 212.092 207.947 212.633 208.656C213.18 209.366 213.909 209.721 214.82 209.721C215.738 209.721 216.467 209.363 217.008 208.646C217.548 207.924 217.818 206.915 217.818 205.619C217.818 204.46 217.542 203.523 216.988 202.807C216.441 202.084 215.712 201.723 214.801 201.723C213.909 201.723 213.189 202.077 212.643 202.787C212.096 203.497 211.822 204.512 211.822 205.834ZM223.6 200.434L223.658 201.762C224.465 200.746 225.52 200.238 226.822 200.238C229.055 200.238 230.182 201.498 230.201 204.018V211H228.395V204.008C228.388 203.246 228.212 202.683 227.867 202.318C227.529 201.954 226.998 201.771 226.275 201.771C225.689 201.771 225.175 201.928 224.732 202.24C224.29 202.553 223.945 202.963 223.697 203.471V211H221.891V200.434H223.6Z"
          fill="black"/>
    <line x1="87" y1="218" x2="249" y2="218" stroke="#C4C4C4" stroke-width="2"/>
    <line x1="88" y1="254" x2="250" y2="254" stroke="#C4C4C4" stroke-width="2"/>
    <path d="M167.5 176L173.995 185H161.005L167.5 176Z" fill="white"/>
    <g filter="url(#filter0_d)">
        <rect x="4" y="55.7454" width="371" height="119.255" rx="18" fill="#466078"/>
    </g>
    <rect x="14.7677" y="102.329" width="348.486" height="59.6273" rx="18" fill="white"/>
    <path d="M19.1008 87.3354V71.6948H24.5793C26.4771 71.6948 27.9166 72.0601 28.8977 72.7905C29.8788 73.5138 30.3694 74.5773 30.3694 75.981C30.3694 76.7472 30.1724 77.424 29.7786 78.0112C29.3847 78.5913 28.8368 79.0174 28.135 79.2896C28.9371 79.4901 29.5673 79.8947 30.0256 80.5034C30.4911 81.1121 30.7239 81.8569 30.7239 82.7378C30.7239 84.2417 30.2441 85.3804 29.2844 86.1538C28.3248 86.9272 26.9569 87.3211 25.1809 87.3354H19.1008ZM22.3235 80.5249V84.7466H25.0842C25.8433 84.7466 26.4342 84.5675 26.8567 84.2095C27.2864 83.8442 27.5012 83.3429 27.5012 82.7056C27.5012 81.2733 26.76 80.5464 25.2776 80.5249H22.3235ZM22.3235 78.2476H24.7083C26.3339 78.2189 27.1467 77.5708 27.1467 76.3032C27.1467 75.5942 26.939 75.0858 26.5237 74.7778C26.1155 74.4627 25.4674 74.3052 24.5793 74.3052H22.3235V78.2476ZM39.9084 86.1538C39.1422 87.0848 38.0823 87.5503 36.7288 87.5503C35.4827 87.5503 34.5302 87.1922 33.8713 86.4761C33.2196 85.7599 32.8866 84.7108 32.8723 83.3286V75.7124H35.9768V83.2212C35.9768 84.4315 36.5282 85.0366 37.6311 85.0366C38.6838 85.0366 39.4071 84.6714 39.801 83.9409V75.7124H42.9163V87.3354H39.9944L39.9084 86.1538ZM51.553 84.1235C51.553 83.744 51.3632 83.4468 50.9836 83.2319C50.6112 83.0099 50.0097 82.813 49.179 82.6411C46.4146 82.061 45.0325 80.8866 45.0325 79.1177C45.0325 78.0864 45.4586 77.2271 46.3108 76.5396C47.1702 75.8449 48.2909 75.4976 49.6731 75.4976C51.1484 75.4976 52.3264 75.8449 53.2073 76.5396C54.0953 77.2342 54.5393 78.1366 54.5393 79.2466H51.4348C51.4348 78.8026 51.2916 78.4373 51.0051 78.1509C50.7187 77.8573 50.2711 77.7104 49.6624 77.7104C49.1396 77.7104 48.7349 77.8286 48.4485 78.0649C48.162 78.3013 48.0188 78.6021 48.0188 78.9673C48.0188 79.311 48.1799 79.5903 48.5022 79.8052C48.8316 80.0129 49.3831 80.1955 50.1565 80.353C50.9299 80.5034 51.5816 80.6753 52.1116 80.8687C53.7515 81.4702 54.5715 82.5122 54.5715 83.9946C54.5715 85.0545 54.1168 85.9139 53.2073 86.5728C52.2978 87.2244 51.1233 87.5503 49.6838 87.5503C48.7099 87.5503 47.8433 87.3784 47.0842 87.0347C46.3323 86.6838 45.7415 86.2075 45.3118 85.606C44.8821 84.9972 44.6672 84.342 44.6672 83.6401H47.6106C47.6392 84.1916 47.8433 84.6141 48.2229 84.9077C48.6025 85.2013 49.1109 85.3481 49.7483 85.3481C50.3427 85.3481 50.7903 85.2371 51.0911 85.0151C51.399 84.786 51.553 84.4888 51.553 84.1235ZM59.8567 87.3354H56.7415V75.7124H59.8567V87.3354ZM56.5588 72.7046C56.5588 72.2391 56.7128 71.856 57.0208 71.5552C57.3359 71.2544 57.762 71.104 58.2991 71.104C58.829 71.104 59.2515 71.2544 59.5667 71.5552C59.8818 71.856 60.0393 72.2391 60.0393 72.7046C60.0393 73.1772 59.8782 73.564 59.5559 73.8647C59.2408 74.1655 58.8219 74.3159 58.2991 74.3159C57.7763 74.3159 57.3538 74.1655 57.0315 73.8647C56.7164 73.564 56.5588 73.1772 56.5588 72.7046ZM65.2815 75.7124L65.3782 77.0552C66.2089 76.0168 67.3225 75.4976 68.719 75.4976C69.9508 75.4976 70.8674 75.8592 71.469 76.5825C72.0706 77.3058 72.3785 78.3872 72.3928 79.8267V87.3354H69.2883V79.9019C69.2883 79.243 69.1451 78.7668 68.8586 78.4731C68.5722 78.1724 68.0959 78.022 67.4299 78.022C66.5562 78.022 65.901 78.3944 65.4641 79.1392V87.3354H62.3596V75.7124H65.2815ZM80.1057 87.5503C78.4013 87.5503 77.012 87.0275 75.9377 85.9819C74.8707 84.9364 74.3372 83.5435 74.3372 81.8032V81.5024C74.3372 80.3351 74.5627 79.2931 75.0139 78.3765C75.4651 77.4526 76.1025 76.7437 76.926 76.2495C77.7568 75.7482 78.7021 75.4976 79.762 75.4976C81.3518 75.4976 82.6015 75.9989 83.511 77.0015C84.4277 78.0041 84.886 79.4256 84.886 81.2661V82.5337H77.4846C77.5849 83.2928 77.8857 83.9015 78.387 84.3599C78.8954 84.8182 79.5364 85.0474 80.3098 85.0474C81.5058 85.0474 82.4403 84.6141 83.1135 83.7476L84.6389 85.4556C84.1734 86.1144 83.5432 86.63 82.7483 87.0024C81.9534 87.3677 81.0725 87.5503 80.1057 87.5503ZM79.7512 78.0112C79.1353 78.0112 78.634 78.2189 78.2473 78.6343C77.8678 79.0496 77.6243 79.644 77.5168 80.4175H81.8352V80.1704C81.8209 79.4829 81.6347 78.953 81.2766 78.5806C80.9185 78.201 80.4101 78.0112 79.7512 78.0112ZM92.9534 84.1235C92.9534 83.744 92.7636 83.4468 92.384 83.2319C92.0116 83.0099 91.4101 82.813 90.5793 82.6411C87.815 82.061 86.4329 80.8866 86.4329 79.1177C86.4329 78.0864 86.859 77.2271 87.7112 76.5396C88.5706 75.8449 89.6913 75.4976 91.0735 75.4976C92.5487 75.4976 93.7268 75.8449 94.6077 76.5396C95.4957 77.2342 95.9397 78.1366 95.9397 79.2466H92.8352C92.8352 78.8026 92.692 78.4373 92.4055 78.1509C92.1191 77.8573 91.6715 77.7104 91.0627 77.7104C90.54 77.7104 90.1353 77.8286 89.8489 78.0649C89.5624 78.3013 89.4192 78.6021 89.4192 78.9673C89.4192 79.311 89.5803 79.5903 89.9026 79.8052C90.232 80.0129 90.7834 80.1955 91.5569 80.353C92.3303 80.5034 92.982 80.6753 93.512 80.8687C95.1519 81.4702 95.9719 82.5122 95.9719 83.9946C95.9719 85.0545 95.5172 85.9139 94.6077 86.5728C93.6982 87.2244 92.5237 87.5503 91.0842 87.5503C90.1103 87.5503 89.2437 87.3784 88.4846 87.0347C87.7327 86.6838 87.1418 86.2075 86.7122 85.606C86.2825 84.9972 86.0676 84.342 86.0676 83.6401H89.011C89.0396 84.1916 89.2437 84.6141 89.6233 84.9077C90.0028 85.2013 90.5113 85.3481 91.1487 85.3481C91.7431 85.3481 92.1907 85.2371 92.4915 85.0151C92.7994 84.786 92.9534 84.4888 92.9534 84.1235ZM104.276 84.1235C104.276 83.744 104.086 83.4468 103.706 83.2319C103.334 83.0099 102.732 82.813 101.902 82.6411C99.1373 82.061 97.7551 80.8866 97.7551 79.1177C97.7551 78.0864 98.1812 77.2271 99.0334 76.5396C99.8928 75.8449 101.014 75.4976 102.396 75.4976C103.871 75.4976 105.049 75.8449 105.93 76.5396C106.818 77.2342 107.262 78.1366 107.262 79.2466H104.157C104.157 78.8026 104.014 78.4373 103.728 78.1509C103.441 77.8573 102.994 77.7104 102.385 77.7104C101.862 77.7104 101.458 77.8286 101.171 78.0649C100.885 78.3013 100.741 78.6021 100.741 78.9673C100.741 79.311 100.903 79.5903 101.225 79.8052C101.554 80.0129 102.106 80.1955 102.879 80.353C103.653 80.5034 104.304 80.6753 104.834 80.8687C106.474 81.4702 107.294 82.5122 107.294 83.9946C107.294 85.0545 106.839 85.9139 105.93 86.5728C105.02 87.2244 103.846 87.5503 102.406 87.5503C101.433 87.5503 100.566 87.3784 99.8069 87.0347C99.0549 86.6838 98.4641 86.2075 98.0344 85.606C97.6047 84.9972 97.3899 84.342 97.3899 83.6401H100.333C100.362 84.1916 100.566 84.6141 100.946 84.9077C101.325 85.2013 101.834 85.3481 102.471 85.3481C103.065 85.3481 103.513 85.2371 103.814 85.0151C104.122 84.786 104.276 84.4888 104.276 84.1235ZM123.816 84.1128H118.165L117.091 87.3354H113.664L119.487 71.6948H122.473L128.327 87.3354H124.901L123.816 84.1128ZM119.035 81.5024H122.946L120.98 75.6479L119.035 81.5024ZM131.926 75.7124L132.023 77.0552C132.853 76.0168 133.967 75.4976 135.364 75.4976C136.595 75.4976 137.512 75.8592 138.114 76.5825C138.715 77.3058 139.023 78.3872 139.037 79.8267V87.3354H135.933V79.9019C135.933 79.243 135.79 78.7668 135.503 78.4731C135.217 78.1724 134.74 78.022 134.074 78.022C133.201 78.022 132.545 78.3944 132.109 79.1392V87.3354H129.004V75.7124H131.926ZM148.136 87.3354C147.993 87.0562 147.889 86.7088 147.824 86.2935C147.073 87.1313 146.095 87.5503 144.892 87.5503C143.753 87.5503 142.808 87.2209 142.056 86.562C141.311 85.9032 140.939 85.0724 140.939 84.0698C140.939 82.8381 141.393 81.8927 142.303 81.2339C143.22 80.575 144.541 80.242 146.267 80.2349H147.696V79.5688C147.696 79.0317 147.556 78.6021 147.277 78.2798C147.004 77.9575 146.571 77.7964 145.977 77.7964C145.454 77.7964 145.042 77.9217 144.741 78.1724C144.448 78.423 144.301 78.7668 144.301 79.2036H141.197C141.197 78.5304 141.404 77.9074 141.82 77.3345C142.235 76.7616 142.822 76.314 143.581 75.9917C144.34 75.6623 145.193 75.4976 146.138 75.4976C147.57 75.4976 148.705 75.8592 149.543 76.5825C150.388 77.2987 150.811 78.3084 150.811 79.6118V84.6499C150.818 85.7528 150.972 86.5871 151.273 87.1528V87.3354H148.136ZM145.569 85.1763C146.027 85.1763 146.449 85.076 146.836 84.8755C147.223 84.6678 147.509 84.3921 147.696 84.0483V82.0503H146.535C144.981 82.0503 144.154 82.5874 144.054 83.6616L144.043 83.8442C144.043 84.231 144.179 84.5496 144.451 84.8003C144.724 85.0509 145.096 85.1763 145.569 85.1763ZM156.472 87.3354H153.357V70.8354H156.472V87.3354ZM163.379 82.9419L165.528 75.7124H168.858L164.185 89.1401L163.927 89.7524C163.232 91.2707 162.087 92.0298 160.49 92.0298C160.038 92.0298 159.58 91.9618 159.115 91.8257V89.4731L159.587 89.4839C160.174 89.4839 160.611 89.3944 160.898 89.2153C161.191 89.0363 161.42 88.7391 161.585 88.3237L161.95 87.3677L157.879 75.7124H161.22L163.379 82.9419ZM173.799 72.855V75.7124H175.786V77.9897H173.799V83.7905C173.799 84.2202 173.881 84.5282 174.046 84.7144C174.211 84.9006 174.526 84.9937 174.991 84.9937C175.335 84.9937 175.64 84.9686 175.905 84.9185V87.271C175.296 87.4572 174.669 87.5503 174.025 87.5503C171.848 87.5503 170.738 86.451 170.695 84.2524V77.9897H168.997V75.7124H170.695V72.855H173.799ZM180.792 87.3354H177.677V75.7124H180.792V87.3354ZM177.494 72.7046C177.494 72.2391 177.648 71.856 177.956 71.5552C178.271 71.2544 178.698 71.104 179.235 71.104C179.765 71.104 180.187 71.2544 180.502 71.5552C180.817 71.856 180.975 72.2391 180.975 72.7046C180.975 73.1772 180.814 73.564 180.491 73.8647C180.176 74.1655 179.757 74.3159 179.235 74.3159C178.712 74.3159 178.289 74.1655 177.967 73.8647C177.652 73.564 177.494 73.1772 177.494 72.7046ZM188.194 85.0474C188.767 85.0474 189.232 84.8898 189.59 84.5747C189.948 84.2596 190.134 83.8407 190.149 83.3179H193.06C193.053 84.1056 192.838 84.8289 192.415 85.4878C191.993 86.1395 191.413 86.6479 190.675 87.0132C189.945 87.3713 189.135 87.5503 188.247 87.5503C186.586 87.5503 185.275 87.0239 184.316 85.9712C183.356 84.9113 182.876 83.4504 182.876 81.5884V81.3843C182.876 79.5939 183.352 78.1652 184.305 77.0981C185.257 76.0311 186.564 75.4976 188.226 75.4976C189.68 75.4976 190.843 75.9129 191.717 76.7437C192.598 77.5672 193.045 78.6665 193.06 80.0415H190.149C190.134 79.4399 189.948 78.953 189.59 78.5806C189.232 78.201 188.759 78.0112 188.172 78.0112C187.449 78.0112 186.901 78.2762 186.529 78.8062C186.163 79.3289 185.981 80.1812 185.981 81.3628V81.6851C185.981 82.881 186.163 83.7404 186.529 84.2632C186.894 84.786 187.449 85.0474 188.194 85.0474ZM201.127 84.1235C201.127 83.744 200.937 83.4468 200.558 83.2319C200.185 83.0099 199.584 82.813 198.753 82.6411C195.989 82.061 194.607 80.8866 194.607 79.1177C194.607 78.0864 195.033 77.2271 195.885 76.5396C196.744 75.8449 197.865 75.4976 199.247 75.4976C200.723 75.4976 201.901 75.8449 202.781 76.5396C203.67 77.2342 204.114 78.1366 204.114 79.2466H201.009C201.009 78.8026 200.866 78.4373 200.579 78.1509C200.293 77.8573 199.845 77.7104 199.237 77.7104C198.714 77.7104 198.309 77.8286 198.023 78.0649C197.736 78.3013 197.593 78.6021 197.593 78.9673C197.593 79.311 197.754 79.5903 198.076 79.8052C198.406 80.0129 198.957 80.1955 199.731 80.353C200.504 80.5034 201.156 80.6753 201.686 80.8687C203.326 81.4702 204.146 82.5122 204.146 83.9946C204.146 85.0545 203.691 85.9139 202.781 86.5728C201.872 87.2244 200.698 87.5503 199.258 87.5503C198.284 87.5503 197.418 87.3784 196.658 87.0347C195.906 86.6838 195.316 86.2075 194.886 85.606C194.456 84.9972 194.241 84.342 194.241 83.6401H197.185C197.213 84.1916 197.418 84.6141 197.797 84.9077C198.177 85.2013 198.685 85.3481 199.323 85.3481C199.917 85.3481 200.365 85.2371 200.665 85.0151C200.973 84.786 201.127 84.4888 201.127 84.1235Z"
          fill="white"/>
    <path d="M30.7651 151.657H28.9604L28.4136 154.46H27.436L27.9829 151.657H26.3491V150.72H28.1606L28.6323 148.301H26.8687V147.35H28.8169L29.3774 144.507H30.355L29.7944 147.35H31.5991L32.1597 144.507H33.144L32.5835 147.35H33.978V148.301H32.3989L31.9272 150.72H33.4653V151.657H31.7495L31.2026 154.46H30.2183L30.7651 151.657ZM29.1382 150.72H30.9429L31.4146 148.301H29.6099L29.1382 150.72ZM36.6304 150.563V154.46H35.3179V144.507H38.9888C40.078 144.507 40.9302 144.785 41.5454 145.341C42.1652 145.897 42.4751 146.633 42.4751 147.549C42.4751 148.515 42.172 149.26 41.5659 149.784C40.9644 150.303 40.1007 150.563 38.9751 150.563H36.6304ZM36.6304 149.49H38.9888C39.6906 149.49 40.2284 149.326 40.6021 148.998C40.9757 148.665 41.1626 148.187 41.1626 147.562C41.1626 146.97 40.9757 146.496 40.6021 146.14C40.2284 145.785 39.7157 145.6 39.064 145.587H36.6304V149.49ZM47.5269 148.198C47.3354 148.166 47.1281 148.15 46.9048 148.15C46.0754 148.15 45.5125 148.503 45.2163 149.21V154.46H43.9517V147.063H45.1821L45.2026 147.918C45.6174 147.257 46.2052 146.927 46.9663 146.927C47.2124 146.927 47.3993 146.958 47.5269 147.022V148.198ZM48.2241 150.693C48.2241 149.969 48.3654 149.317 48.6479 148.738C48.9351 148.159 49.3315 147.713 49.8374 147.398C50.3478 147.084 50.9289 146.927 51.5806 146.927C52.5877 146.927 53.4012 147.275 54.021 147.972C54.6453 148.67 54.9575 149.597 54.9575 150.755V150.844C54.9575 151.564 54.8185 152.211 54.5405 152.785C54.2671 153.355 53.8729 153.799 53.3579 154.118C52.8475 154.437 52.2596 154.596 51.5942 154.596C50.5916 154.596 49.7782 154.248 49.1538 153.551C48.534 152.853 48.2241 151.93 48.2241 150.782V150.693ZM49.4956 150.844C49.4956 151.664 49.6847 152.322 50.063 152.819C50.4458 153.316 50.9562 153.564 51.5942 153.564C52.2368 153.564 52.7472 153.314 53.1255 152.812C53.5037 152.306 53.6929 151.6 53.6929 150.693C53.6929 149.882 53.4992 149.226 53.1118 148.724C52.729 148.219 52.2186 147.966 51.5806 147.966C50.9562 147.966 50.4526 148.214 50.0698 148.711C49.687 149.207 49.4956 149.918 49.4956 150.844ZM56.2427 150.7C56.2427 149.547 56.5093 148.631 57.0425 147.952C57.5757 147.268 58.2821 146.927 59.1616 146.927C60.064 146.927 60.7681 147.246 61.2739 147.884L61.3354 147.063H62.4907V154.282C62.4907 155.239 62.2059 155.993 61.6362 156.545C61.0711 157.096 60.3101 157.372 59.353 157.372C58.8198 157.372 58.298 157.258 57.7876 157.03C57.2772 156.802 56.8875 156.49 56.6187 156.094L57.2749 155.335C57.8172 156.005 58.4803 156.34 59.2642 156.34C59.8794 156.34 60.3579 156.166 60.6997 155.82C61.0461 155.474 61.2192 154.986 61.2192 154.357V153.721C60.7134 154.305 60.0229 154.596 59.1479 154.596C58.2821 154.596 57.5802 154.248 57.0425 153.551C56.5093 152.853 56.2427 151.903 56.2427 150.7ZM57.5142 150.844C57.5142 151.677 57.6851 152.334 58.0269 152.812C58.3687 153.286 58.8472 153.523 59.4624 153.523C60.2599 153.523 60.8455 153.161 61.2192 152.436V149.059C60.8319 148.353 60.2508 148 59.4761 148C58.8608 148 58.38 148.239 58.0337 148.718C57.6873 149.196 57.5142 149.905 57.5142 150.844ZM67.98 148.198C67.7886 148.166 67.5812 148.15 67.3579 148.15C66.5285 148.15 65.9657 148.503 65.6694 149.21V154.46H64.4048V147.063H65.6353L65.6558 147.918C66.0705 147.257 66.6584 146.927 67.4194 146.927C67.6655 146.927 67.8524 146.958 67.98 147.022V148.198ZM73.4419 154.46C73.369 154.314 73.3097 154.054 73.2642 153.68C72.6763 154.291 71.9744 154.596 71.1587 154.596C70.4295 154.596 69.8302 154.391 69.3608 153.981C68.896 153.566 68.6636 153.042 68.6636 152.409C68.6636 151.639 68.9552 151.042 69.5386 150.618C70.1265 150.19 70.9513 149.975 72.0132 149.975H73.2437V149.394C73.2437 148.952 73.1115 148.601 72.8472 148.342C72.5828 148.077 72.1932 147.945 71.6782 147.945C71.2271 147.945 70.8488 148.059 70.5435 148.287C70.2381 148.515 70.0854 148.79 70.0854 149.114H68.814C68.814 148.745 68.9438 148.389 69.2036 148.048C69.4679 147.701 69.8234 147.428 70.27 147.227C70.7212 147.027 71.2157 146.927 71.7534 146.927C72.6056 146.927 73.2733 147.141 73.7563 147.569C74.2394 147.993 74.4901 148.579 74.5083 149.326V152.73C74.5083 153.409 74.5949 153.949 74.7681 154.35V154.46H73.4419ZM71.3433 153.496C71.7397 153.496 72.1157 153.393 72.4712 153.188C72.8267 152.983 73.0841 152.717 73.2437 152.388V150.871H72.2524C70.703 150.871 69.9282 151.324 69.9282 152.231C69.9282 152.628 70.0604 152.938 70.3247 153.161C70.589 153.384 70.9285 153.496 71.3433 153.496ZM77.6802 147.063L77.7144 147.884C78.2567 147.246 78.9881 146.927 79.9087 146.927C80.9432 146.927 81.6473 147.323 82.021 148.116C82.2671 147.76 82.5861 147.473 82.978 147.255C83.3745 147.036 83.8416 146.927 84.3794 146.927C86.0018 146.927 86.8267 147.786 86.854 149.504V154.46H85.5894V149.579C85.5894 149.05 85.4686 148.656 85.2271 148.396C84.9855 148.132 84.5799 148 84.0103 148C83.5409 148 83.1512 148.141 82.8413 148.424C82.5314 148.702 82.3514 149.078 82.3013 149.552V154.46H81.0298V149.613C81.0298 148.538 80.5034 148 79.4507 148C78.6213 148 78.0539 148.353 77.7485 149.059V154.46H76.4839V147.063H77.6802ZM89.9575 147.063L89.9917 147.884C90.534 147.246 91.2655 146.927 92.186 146.927C93.2205 146.927 93.9246 147.323 94.2983 148.116C94.5444 147.76 94.8634 147.473 95.2554 147.255C95.6519 147.036 96.119 146.927 96.6567 146.927C98.2791 146.927 99.104 147.786 99.1313 149.504V154.46H97.8667V149.579C97.8667 149.05 97.7459 148.656 97.5044 148.396C97.2629 148.132 96.8573 148 96.2876 148C95.8182 148 95.4285 148.141 95.1187 148.424C94.8088 148.702 94.6287 149.078 94.5786 149.552V154.46H93.3071V149.613C93.3071 148.538 92.7808 148 91.728 148C90.8986 148 90.3312 148.353 90.0259 149.059V154.46H88.7612V147.063H89.9575ZM102.419 154.46H101.155V147.063H102.419V154.46ZM101.052 145.101C101.052 144.896 101.114 144.723 101.237 144.582C101.364 144.441 101.551 144.37 101.797 144.37C102.043 144.37 102.23 144.441 102.358 144.582C102.486 144.723 102.549 144.896 102.549 145.101C102.549 145.306 102.486 145.477 102.358 145.614C102.23 145.751 102.043 145.819 101.797 145.819C101.551 145.819 101.364 145.751 101.237 145.614C101.114 145.477 101.052 145.306 101.052 145.101ZM105.646 147.063L105.687 147.993C106.252 147.282 106.99 146.927 107.902 146.927C109.465 146.927 110.253 147.808 110.267 149.572V154.46H109.002V149.565C108.998 149.032 108.875 148.638 108.633 148.383C108.396 148.127 108.025 148 107.519 148C107.109 148 106.749 148.109 106.439 148.328C106.129 148.547 105.888 148.834 105.714 149.189V154.46H104.45V147.063H105.646ZM111.874 150.7C111.874 149.547 112.14 148.631 112.673 147.952C113.207 147.268 113.913 146.927 114.792 146.927C115.695 146.927 116.399 147.246 116.905 147.884L116.966 147.063H118.122V154.282C118.122 155.239 117.837 155.993 117.267 156.545C116.702 157.096 115.941 157.372 114.984 157.372C114.451 157.372 113.929 157.258 113.418 157.03C112.908 156.802 112.518 156.49 112.25 156.094L112.906 155.335C113.448 156.005 114.111 156.34 114.895 156.34C115.51 156.34 115.989 156.166 116.331 155.82C116.677 155.474 116.85 154.986 116.85 154.357V153.721C116.344 154.305 115.654 154.596 114.779 154.596C113.913 154.596 113.211 154.248 112.673 153.551C112.14 152.853 111.874 151.903 111.874 150.7ZM113.145 150.844C113.145 151.677 113.316 152.334 113.658 152.812C114 153.286 114.478 153.523 115.093 153.523C115.891 153.523 116.476 153.161 116.85 152.436V149.059C116.463 148.353 115.882 148 115.107 148C114.492 148 114.011 148.239 113.665 148.718C113.318 149.196 113.145 149.905 113.145 150.844ZM127.781 151.657H125.976L125.429 154.46H124.452L124.999 151.657H123.365V150.72H125.176L125.648 148.301H123.884V147.35H125.833L126.393 144.507H127.371L126.81 147.35H128.615L129.175 144.507H130.16L129.599 147.35H130.994V148.301H129.415L128.943 150.72H130.481V151.657H128.765L128.218 154.46H127.234L127.781 151.657ZM126.154 150.72H127.958L128.43 148.301H126.625L126.154 150.72ZM139.655 151.302C139.532 152.354 139.142 153.168 138.486 153.742C137.834 154.312 136.966 154.596 135.881 154.596C134.706 154.596 133.762 154.175 133.051 153.332C132.345 152.489 131.992 151.361 131.992 149.948V148.991C131.992 148.066 132.156 147.252 132.484 146.551C132.817 145.849 133.286 145.311 133.892 144.937C134.498 144.559 135.2 144.37 135.998 144.37C137.055 144.37 137.903 144.666 138.541 145.259C139.179 145.846 139.55 146.662 139.655 147.706H138.335C138.222 146.913 137.973 146.339 137.59 145.983C137.212 145.628 136.681 145.45 135.998 145.45C135.159 145.45 134.5 145.76 134.022 146.38C133.548 146.999 133.311 147.881 133.311 149.025V149.989C133.311 151.069 133.537 151.928 133.988 152.566C134.439 153.204 135.07 153.523 135.881 153.523C136.611 153.523 137.169 153.359 137.556 153.031C137.948 152.698 138.208 152.122 138.335 151.302H139.655ZM140.919 150.693C140.919 149.969 141.061 149.317 141.343 148.738C141.63 148.159 142.027 147.713 142.533 147.398C143.043 147.084 143.624 146.927 144.276 146.927C145.283 146.927 146.097 147.275 146.716 147.972C147.341 148.67 147.653 149.597 147.653 150.755V150.844C147.653 151.564 147.514 152.211 147.236 152.785C146.962 153.355 146.568 153.799 146.053 154.118C145.543 154.437 144.955 154.596 144.29 154.596C143.287 154.596 142.473 154.248 141.849 153.551C141.229 152.853 140.919 151.93 140.919 150.782V150.693ZM142.191 150.844C142.191 151.664 142.38 152.322 142.758 152.819C143.141 153.316 143.652 153.564 144.29 153.564C144.932 153.564 145.443 153.314 145.821 152.812C146.199 152.306 146.388 151.6 146.388 150.693C146.388 149.882 146.194 149.226 145.807 148.724C145.424 148.219 144.914 147.966 144.276 147.966C143.652 147.966 143.148 148.214 142.765 148.711C142.382 149.207 142.191 149.918 142.191 150.844ZM150.428 147.063L150.462 147.884C151.005 147.246 151.736 146.927 152.657 146.927C153.691 146.927 154.395 147.323 154.769 148.116C155.015 147.76 155.334 147.473 155.726 147.255C156.123 147.036 156.59 146.927 157.127 146.927C158.75 146.927 159.575 147.786 159.602 149.504V154.46H158.337V149.579C158.337 149.05 158.217 148.656 157.975 148.396C157.734 148.132 157.328 148 156.758 148C156.289 148 155.899 148.141 155.589 148.424C155.279 148.702 155.099 149.078 155.049 149.552V154.46H153.778V149.613C153.778 148.538 153.251 148 152.199 148C151.369 148 150.802 148.353 150.497 149.059V154.46H149.232V147.063H150.428ZM167.764 150.844C167.764 151.969 167.507 152.876 166.992 153.564C166.477 154.252 165.779 154.596 164.9 154.596C164.002 154.596 163.296 154.312 162.781 153.742V157.303H161.516V147.063H162.671L162.733 147.884C163.248 147.246 163.963 146.927 164.879 146.927C165.768 146.927 166.47 147.261 166.985 147.931C167.504 148.601 167.764 149.533 167.764 150.727V150.844ZM166.5 150.7C166.5 149.866 166.322 149.207 165.966 148.724C165.611 148.241 165.123 148 164.503 148C163.738 148 163.164 148.339 162.781 149.018V152.552C163.159 153.227 163.738 153.564 164.517 153.564C165.123 153.564 165.604 153.325 165.959 152.846C166.319 152.363 166.5 151.648 166.5 150.7ZM173.944 153.728C173.452 154.307 172.729 154.596 171.777 154.596C170.988 154.596 170.387 154.369 169.972 153.913C169.562 153.453 169.355 152.774 169.35 151.876V147.063H170.615V151.842C170.615 152.963 171.07 153.523 171.982 153.523C172.948 153.523 173.591 153.163 173.91 152.443V147.063H175.174V154.46H173.971L173.944 153.728ZM178.818 145.272V147.063H180.199V148.041H178.818V152.628C178.818 152.924 178.879 153.147 179.002 153.298C179.125 153.443 179.335 153.516 179.631 153.516C179.777 153.516 179.978 153.489 180.233 153.434V154.46C179.9 154.551 179.577 154.596 179.262 154.596C178.697 154.596 178.271 154.426 177.984 154.084C177.697 153.742 177.553 153.257 177.553 152.628V148.041H176.207V147.063H177.553V145.272H178.818ZM184.751 154.596C183.749 154.596 182.933 154.268 182.304 153.612C181.675 152.951 181.361 152.069 181.361 150.967V150.734C181.361 150 181.5 149.346 181.778 148.772C182.06 148.193 182.452 147.742 182.954 147.419C183.459 147.091 184.006 146.927 184.594 146.927C185.556 146.927 186.303 147.243 186.836 147.877C187.37 148.51 187.636 149.417 187.636 150.597V151.124H182.625C182.644 151.853 182.856 152.443 183.261 152.894C183.671 153.341 184.191 153.564 184.82 153.564C185.266 153.564 185.645 153.473 185.955 153.291C186.264 153.108 186.536 152.867 186.768 152.566L187.541 153.168C186.921 154.12 185.991 154.596 184.751 154.596ZM184.594 147.966C184.084 147.966 183.655 148.152 183.309 148.526C182.963 148.895 182.749 149.415 182.667 150.085H186.372V149.989C186.335 149.346 186.162 148.85 185.852 148.499C185.542 148.143 185.123 147.966 184.594 147.966ZM192.681 148.198C192.49 148.166 192.282 148.15 192.059 148.15C191.23 148.15 190.667 148.503 190.371 149.21V154.46H189.106V147.063H190.336L190.357 147.918C190.772 147.257 191.36 146.927 192.121 146.927C192.367 146.927 192.554 146.958 192.681 147.022V148.198ZM200.454 150.023C199.328 149.7 198.508 149.303 197.993 148.834C197.482 148.36 197.227 147.776 197.227 147.084C197.227 146.3 197.539 145.653 198.164 145.142C198.792 144.627 199.608 144.37 200.611 144.37C201.294 144.37 201.903 144.502 202.436 144.766C202.974 145.031 203.389 145.395 203.68 145.86C203.976 146.325 204.125 146.833 204.125 147.385H202.805C202.805 146.783 202.614 146.311 202.231 145.969C201.848 145.623 201.308 145.45 200.611 145.45C199.964 145.45 199.458 145.594 199.093 145.881C198.733 146.163 198.553 146.557 198.553 147.063C198.553 147.469 198.724 147.813 199.066 148.095C199.412 148.373 199.998 148.629 200.823 148.861C201.652 149.094 202.299 149.351 202.764 149.634C203.234 149.912 203.58 150.237 203.803 150.611C204.031 150.985 204.145 151.425 204.145 151.93C204.145 152.737 203.831 153.384 203.202 153.872C202.573 154.355 201.732 154.596 200.679 154.596C199.996 154.596 199.358 154.467 198.765 154.207C198.173 153.942 197.715 153.582 197.391 153.127C197.072 152.671 196.913 152.154 196.913 151.575H198.232C198.232 152.177 198.453 152.653 198.895 153.004C199.342 153.35 199.936 153.523 200.679 153.523C201.372 153.523 201.903 153.382 202.272 153.099C202.641 152.817 202.826 152.432 202.826 151.944C202.826 151.456 202.655 151.08 202.313 150.816C201.971 150.547 201.351 150.283 200.454 150.023ZM208.602 153.564C209.053 153.564 209.447 153.427 209.785 153.154C210.122 152.881 210.309 152.539 210.345 152.129H211.542C211.519 152.552 211.373 152.956 211.104 153.339C210.835 153.721 210.475 154.027 210.024 154.255C209.577 154.483 209.103 154.596 208.602 154.596C207.595 154.596 206.793 154.261 206.196 153.592C205.603 152.917 205.307 151.997 205.307 150.83V150.618C205.307 149.898 205.439 149.258 205.704 148.697C205.968 148.136 206.346 147.701 206.838 147.391C207.335 147.081 207.921 146.927 208.595 146.927C209.425 146.927 210.113 147.175 210.66 147.672C211.211 148.168 211.505 148.813 211.542 149.606H210.345C210.309 149.128 210.126 148.736 209.798 148.43C209.475 148.121 209.074 147.966 208.595 147.966C207.953 147.966 207.454 148.198 207.098 148.663C206.747 149.123 206.572 149.791 206.572 150.666V150.905C206.572 151.757 206.747 152.413 207.098 152.874C207.449 153.334 207.95 153.564 208.602 153.564ZM214.337 154.46H213.073V147.063H214.337V154.46ZM212.97 145.101C212.97 144.896 213.032 144.723 213.155 144.582C213.282 144.441 213.469 144.37 213.715 144.37C213.961 144.37 214.148 144.441 214.276 144.582C214.403 144.723 214.467 144.896 214.467 145.101C214.467 145.306 214.403 145.477 214.276 145.614C214.148 145.751 213.961 145.819 213.715 145.819C213.469 145.819 213.282 145.751 213.155 145.614C213.032 145.477 212.97 145.306 212.97 145.101ZM219.437 154.596C218.434 154.596 217.619 154.268 216.99 153.612C216.361 152.951 216.046 152.069 216.046 150.967V150.734C216.046 150 216.185 149.346 216.463 148.772C216.746 148.193 217.138 147.742 217.639 147.419C218.145 147.091 218.692 146.927 219.28 146.927C220.241 146.927 220.989 147.243 221.522 147.877C222.055 148.51 222.322 149.417 222.322 150.597V151.124H217.311C217.329 151.853 217.541 152.443 217.947 152.894C218.357 153.341 218.876 153.564 219.505 153.564C219.952 153.564 220.33 153.473 220.64 153.291C220.95 153.108 221.221 152.867 221.454 152.566L222.226 153.168C221.606 154.12 220.677 154.596 219.437 154.596ZM219.28 147.966C218.769 147.966 218.341 148.152 217.995 148.526C217.648 148.895 217.434 149.415 217.352 150.085H221.057V149.989C221.021 149.346 220.847 148.85 220.538 148.499C220.228 148.143 219.808 147.966 219.28 147.966ZM224.988 147.063L225.029 147.993C225.594 147.282 226.332 146.927 227.244 146.927C228.807 146.927 229.595 147.808 229.609 149.572V154.46H228.344V149.565C228.34 149.032 228.217 148.638 227.975 148.383C227.738 148.127 227.367 148 226.861 148C226.451 148 226.091 148.109 225.781 148.328C225.471 148.547 225.229 148.834 225.056 149.189V154.46H223.792V147.063H224.988ZM234.483 153.564C234.934 153.564 235.328 153.427 235.666 153.154C236.003 152.881 236.19 152.539 236.226 152.129H237.422C237.4 152.552 237.254 152.956 236.985 153.339C236.716 153.721 236.356 154.027 235.905 154.255C235.458 154.483 234.984 154.596 234.483 154.596C233.476 154.596 232.674 154.261 232.077 153.592C231.484 152.917 231.188 151.997 231.188 150.83V150.618C231.188 149.898 231.32 149.258 231.584 148.697C231.849 148.136 232.227 147.701 232.719 147.391C233.216 147.081 233.802 146.927 234.476 146.927C235.306 146.927 235.994 147.175 236.541 147.672C237.092 148.168 237.386 148.813 237.422 149.606H236.226C236.19 149.128 236.007 148.736 235.679 148.43C235.356 148.121 234.955 147.966 234.476 147.966C233.833 147.966 233.334 148.198 232.979 148.663C232.628 149.123 232.453 149.791 232.453 150.666V150.905C232.453 151.757 232.628 152.413 232.979 152.874C233.33 153.334 233.831 153.564 234.483 153.564ZM241.914 154.596C240.911 154.596 240.095 154.268 239.466 153.612C238.837 152.951 238.523 152.069 238.523 150.967V150.734C238.523 150 238.662 149.346 238.94 148.772C239.222 148.193 239.614 147.742 240.116 147.419C240.622 147.091 241.168 146.927 241.756 146.927C242.718 146.927 243.465 147.243 243.999 147.877C244.532 148.51 244.798 149.417 244.798 150.597V151.124H239.788C239.806 151.853 240.018 152.443 240.423 152.894C240.833 153.341 241.353 153.564 241.982 153.564C242.429 153.564 242.807 153.473 243.117 153.291C243.427 153.108 243.698 152.867 243.93 152.566L244.703 153.168C244.083 154.12 243.153 154.596 241.914 154.596ZM241.756 147.966C241.246 147.966 240.818 148.152 240.471 148.526C240.125 148.895 239.911 149.415 239.829 150.085H243.534V149.989C243.497 149.346 243.324 148.85 243.014 148.499C242.704 148.143 242.285 147.966 241.756 147.966ZM249.768 153.797C249.768 153.578 249.832 153.396 249.959 153.25C250.092 153.104 250.288 153.031 250.547 153.031C250.807 153.031 251.003 153.104 251.135 153.25C251.272 153.396 251.34 153.578 251.34 153.797C251.34 154.006 251.272 154.182 251.135 154.323C251.003 154.464 250.807 154.535 250.547 154.535C250.288 154.535 250.092 154.464 249.959 154.323C249.832 154.182 249.768 154.006 249.768 153.797ZM253.459 153.797C253.459 153.578 253.523 153.396 253.651 153.25C253.783 153.104 253.979 153.031 254.239 153.031C254.499 153.031 254.694 153.104 254.827 153.25C254.963 153.396 255.032 153.578 255.032 153.797C255.032 154.006 254.963 154.182 254.827 154.323C254.694 154.464 254.499 154.535 254.239 154.535C253.979 154.535 253.783 154.464 253.651 154.323C253.523 154.182 253.459 154.006 253.459 153.797ZM264.219 149.121H266.995V150.317H264.219V153.462H262.948V150.317H260.172V149.121H262.948V146.216H264.219V149.121ZM273.373 144.5V145.573H273.14C272.156 145.591 271.372 145.883 270.789 146.448C270.205 147.013 269.868 147.808 269.777 148.834C270.301 148.232 271.016 147.931 271.923 147.931C272.789 147.931 273.48 148.237 273.995 148.847C274.514 149.458 274.774 150.247 274.774 151.213C274.774 152.238 274.494 153.058 273.933 153.674C273.377 154.289 272.63 154.596 271.691 154.596C270.738 154.596 269.966 154.232 269.374 153.503C268.781 152.769 268.485 151.826 268.485 150.673V150.187C268.485 148.355 268.875 146.956 269.654 145.99C270.438 145.019 271.602 144.523 273.147 144.5H273.373ZM271.711 148.984C271.278 148.984 270.88 149.114 270.515 149.374C270.151 149.634 269.898 149.959 269.756 150.351V150.816C269.756 151.636 269.941 152.297 270.31 152.799C270.679 153.3 271.139 153.551 271.691 153.551C272.261 153.551 272.707 153.341 273.031 152.922C273.359 152.502 273.523 151.953 273.523 151.274C273.523 150.591 273.357 150.039 273.024 149.62C272.696 149.196 272.258 148.984 271.711 148.984ZM281.063 147.063L281.097 147.884C281.639 147.246 282.371 146.927 283.292 146.927C284.326 146.927 285.03 147.323 285.404 148.116C285.65 147.76 285.969 147.473 286.361 147.255C286.757 147.036 287.224 146.927 287.762 146.927C289.385 146.927 290.209 147.786 290.237 149.504V154.46H288.972V149.579C288.972 149.05 288.851 148.656 288.61 148.396C288.368 148.132 287.963 148 287.393 148C286.924 148 286.534 148.141 286.224 148.424C285.914 148.702 285.734 149.078 285.684 149.552V154.46H284.413V149.613C284.413 148.538 283.886 148 282.833 148C282.004 148 281.437 148.353 281.131 149.059V154.46H279.867V147.063H281.063ZM291.816 150.693C291.816 149.969 291.957 149.317 292.24 148.738C292.527 148.159 292.923 147.713 293.429 147.398C293.94 147.084 294.521 146.927 295.172 146.927C296.18 146.927 296.993 147.275 297.613 147.972C298.237 148.67 298.549 149.597 298.549 150.755V150.844C298.549 151.564 298.41 152.211 298.132 152.785C297.859 153.355 297.465 153.799 296.95 154.118C296.439 154.437 295.851 154.596 295.186 154.596C294.183 154.596 293.37 154.248 292.746 153.551C292.126 152.853 291.816 151.93 291.816 150.782V150.693ZM293.087 150.844C293.087 151.664 293.277 152.322 293.655 152.819C294.038 153.316 294.548 153.564 295.186 153.564C295.829 153.564 296.339 153.314 296.717 152.812C297.096 152.306 297.285 151.6 297.285 150.693C297.285 149.882 297.091 149.226 296.704 148.724C296.321 148.219 295.81 147.966 295.172 147.966C294.548 147.966 294.044 148.214 293.662 148.711C293.279 149.207 293.087 149.918 293.087 150.844ZM303.71 148.198C303.519 148.166 303.312 148.15 303.088 148.15C302.259 148.15 301.696 148.503 301.4 149.21V154.46H300.135V147.063H301.366L301.386 147.918C301.801 147.257 302.389 146.927 303.15 146.927C303.396 146.927 303.583 146.958 303.71 147.022V148.198ZM307.812 154.596C306.809 154.596 305.994 154.268 305.365 153.612C304.736 152.951 304.421 152.069 304.421 150.967V150.734C304.421 150 304.56 149.346 304.838 148.772C305.121 148.193 305.513 147.742 306.014 147.419C306.52 147.091 307.067 146.927 307.655 146.927C308.616 146.927 309.364 147.243 309.897 147.877C310.43 148.51 310.697 149.417 310.697 150.597V151.124H305.686C305.704 151.853 305.916 152.443 306.322 152.894C306.732 153.341 307.251 153.564 307.88 153.564C308.327 153.564 308.705 153.473 309.015 153.291C309.325 153.108 309.596 152.867 309.829 152.566L310.601 153.168C309.981 154.12 309.052 154.596 307.812 154.596ZM307.655 147.966C307.144 147.966 306.716 148.152 306.37 148.526C306.023 148.895 305.809 149.415 305.727 150.085H309.432V149.989C309.396 149.346 309.222 148.85 308.913 148.499C308.603 148.143 308.183 147.966 307.655 147.966Z"
          fill="#696969"/>
    <path d="M310.648 121.419L311.443 113.62H319.457V115.457H313.13L312.657 119.722C313.423 119.271 314.293 119.045 315.267 119.045C316.693 119.045 317.824 119.518 318.662 120.463C319.5 121.401 319.919 122.672 319.919 124.277C319.919 125.888 319.482 127.159 318.608 128.09C317.742 129.014 316.528 129.476 314.967 129.476C313.585 129.476 312.457 129.093 311.583 128.326C310.709 127.56 310.211 126.5 310.09 125.147H311.97C312.091 126.042 312.41 126.719 312.926 127.177C313.441 127.628 314.122 127.854 314.967 127.854C315.891 127.854 316.614 127.539 317.137 126.908C317.667 126.278 317.932 125.408 317.932 124.298C317.932 123.253 317.645 122.415 317.072 121.784C316.506 121.147 315.751 120.828 314.806 120.828C313.939 120.828 313.259 121.018 312.765 121.398L312.238 121.827L310.648 121.419ZM331.896 122.59C331.896 124.918 331.499 126.647 330.704 127.779C329.909 128.91 328.667 129.476 326.976 129.476C325.308 129.476 324.072 128.924 323.27 127.822C322.468 126.712 322.053 125.057 322.024 122.859V120.205C322.024 117.906 322.422 116.198 323.217 115.081C324.012 113.964 325.258 113.406 326.955 113.406C328.638 113.406 329.877 113.946 330.672 115.028C331.467 116.102 331.875 117.763 331.896 120.012V122.59ZM329.909 119.872C329.909 118.189 329.673 116.965 329.2 116.198C328.727 115.425 327.979 115.038 326.955 115.038C325.938 115.038 325.197 115.421 324.731 116.188C324.266 116.954 324.026 118.132 324.012 119.722V122.902C324.012 124.592 324.255 125.841 324.742 126.651C325.236 127.453 325.981 127.854 326.976 127.854C327.958 127.854 328.684 127.474 329.157 126.715C329.637 125.956 329.888 124.76 329.909 123.127V119.872ZM334.27 116.628C334.27 115.69 334.568 114.917 335.162 114.308C335.764 113.699 336.533 113.395 337.472 113.395C338.424 113.395 339.194 113.703 339.781 114.319C340.376 114.927 340.673 115.719 340.673 116.693V117.455C340.673 118.401 340.372 119.174 339.77 119.776C339.176 120.37 338.417 120.667 337.493 120.667C336.562 120.667 335.792 120.37 335.183 119.776C334.575 119.174 334.27 118.376 334.27 117.38V116.628ZM335.753 117.455C335.753 118.014 335.91 118.476 336.225 118.841C336.541 119.199 336.963 119.378 337.493 119.378C338.002 119.378 338.41 119.203 338.718 118.852C339.033 118.501 339.19 118.021 339.19 117.412V116.628C339.19 116.07 339.036 115.608 338.728 115.242C338.42 114.877 338.002 114.695 337.472 114.695C336.942 114.695 336.523 114.877 336.215 115.242C335.907 115.608 335.753 116.084 335.753 116.671V117.455ZM341.887 125.426C341.887 124.488 342.184 123.718 342.778 123.116C343.38 122.508 344.15 122.203 345.088 122.203C346.026 122.203 346.796 122.504 347.397 123.106C347.999 123.707 348.3 124.506 348.3 125.501V126.264C348.3 127.202 347.999 127.976 347.397 128.584C346.803 129.186 346.04 129.487 345.109 129.487C344.178 129.487 343.408 129.189 342.8 128.595C342.191 127.993 341.887 127.195 341.887 126.199V125.426ZM343.369 126.264C343.369 126.83 343.527 127.295 343.842 127.66C344.157 128.018 344.579 128.198 345.109 128.198C345.625 128.198 346.037 128.022 346.345 127.671C346.653 127.313 346.807 126.83 346.807 126.221V125.426C346.807 124.86 346.649 124.398 346.334 124.04C346.026 123.682 345.611 123.503 345.088 123.503C344.579 123.503 344.164 123.682 343.842 124.04C343.527 124.391 343.369 124.867 343.369 125.469V126.264ZM337.944 128.079L336.816 127.37L344.454 115.146L345.582 115.855L337.944 128.079Z"
          fill="#696969"/>
    <rect x="19.6622" y="106.988" width="278.005" height="30.7453" rx="15.3727" fill="#798A93"/>
    <rect x="28.0365" y="113.509" width="155.715" height="17.7019" rx="8.85093" fill="#E9E9E9"/>
    <ellipse cx="324.031" cy="56.0473" rx="30.7016" ry="30.3166" fill="#FDFDFD"/>
    <g filter="url(#filter1_d)">
        <path d="M325.566 25C306.91 25 291.794 38.7326 291.794 55.6818C291.794 72.631 306.91 86.3636 325.566 86.3636C344.222 86.3636 359.338 72.631 359.338 55.6818C359.338 38.7326 344.222 25 325.566 25ZM341.322 58.651L317.355 71.1464C315.203 72.2352 312.493 70.8371 312.493 68.5484V42.8152C312.493 40.5389 315.189 39.1285 317.355 40.2172L341.322 53.4549C343.555 54.5931 343.555 57.5252 341.322 58.651Z"
              fill="#FFB763"/>
    </g>
    <path d="M185.917 34.7865C186.238 35.0712 186.76 35.0712 187.082 34.7865L202.735 20.9326C204.422 19.4398 204.422 17.0194 202.735 15.5266C201.048 14.0338 198.314 14.0338 196.627 15.5266L190.619 20.8436V3.64575C190.619 1.63226 188.775 0 186.5 0C184.225 0 182.381 1.63226 182.381 3.64575V20.8436L176.373 15.5267C174.686 14.0339 171.952 14.0339 170.265 15.5267C168.578 17.0195 168.578 19.4398 170.265 20.9326L185.917 34.7865Z"
          fill="white"/>
    <defs>
        <filter id="filter0_d" x="0" y="52.7454" width="385" height="133.255" filterUnits="userSpaceOnUse"
                color-interpolation-filters="sRGB">
            <feFlood flood-opacity="0" result="BackgroundImageFix"/>
            <feColorMatrix in="SourceAlpha" type="matrix" values="0 0 0 0 0 0 0 0 0 0 0 0 0 0 0 0 0 0 127 0"/>
            <feMorphology radius="3" operator="dilate" in="SourceAlpha" result="effect1_dropShadow"/>
            <feOffset dx="3" dy="4"/>
            <feGaussianBlur stdDeviation="2"/>
            <feColorMatrix type="matrix" values="0 0 0 0 0 0 0 0 0 0 0 0 0 0 0 0 0 0 0.25 0"/>
            <feBlend mode="normal" in2="BackgroundImageFix" result="effect1_dropShadow"/>
            <feBlend mode="normal" in="SourceGraphic" in2="effect1_dropShadow" result="shape"/>
        </filter>
        <filter id="filter1_d" x="289.794" y="23" width="75.5435" height="69.3636" filterUnits="userSpaceOnUse"
                color-interpolation-filters="sRGB">
            <feFlood flood-opacity="0" result="BackgroundImageFix"/>
            <feColorMatrix in="SourceAlpha" type="matrix" values="0 0 0 0 0 0 0 0 0 0 0 0 0 0 0 0 0 0 127 0"/>
            <feOffset dx="2" dy="2"/>
            <feGaussianBlur stdDeviation="2"/>
            <feColorMatrix type="matrix" values="0 0 0 0 0 0 0 0 0 0 0 0 0 0 0 0 0 0 0.25 0"/>
            <feBlend mode="normal" in2="BackgroundImageFix" result="effect1_dropShadow"/>
            <feBlend mode="normal" in="SourceGraphic" in2="effect1_dropShadow" result="shape"/>
        </filter>
    </defs>
</svg>
