<svg width="303" height="181" viewBox="0 0 303 181" fill="none" xmlns="http://www.w3.org/2000/svg">
    <path d="M252.917 34.7865C253.238 35.0712 253.76 35.0712 254.082 34.7865L269.735 20.9326C271.422 19.4398 271.422 17.0194 269.735 15.5266C268.048 14.0338 265.314 14.0338 263.627 15.5266L257.619 20.8436V3.64575C257.619 1.63226 255.775 0 253.5 0C251.225 0 249.381 1.63226 249.381 3.64575V20.8436L243.373 15.5267C241.686 14.0339 238.952 14.0339 237.265 15.5267C235.578 17.0195 235.578 19.4398 237.265 20.9326L252.917 34.7865Z"
          fill="white"/>
    <g filter="url(#filter0_d)">
        <rect x="4" y="72.1274" width="288.584" height="97.4637" rx="18" fill="#C29157"/>
    </g>
    <rect x="12.3757" y="110.199" width="271.071" height="48.7318" rx="18" fill="white"/>
    <path d="M28.3348 94.486C28.2131 96.1689 27.59 97.4938 26.4657 98.4606C25.3485 99.4274 23.8733 99.9108 22.0399 99.9108C20.0347 99.9108 18.4556 99.2376 17.3026 97.8912C16.1568 96.5377 15.5839 94.6829 15.5839 92.3268V91.3707C15.5839 89.8668 15.8488 88.542 16.3788 87.3961C16.9087 86.2503 17.6643 85.373 18.6454 84.7643C19.6337 84.1484 20.7795 83.8405 22.0829 83.8405C23.8876 83.8405 25.3413 84.3239 26.4442 85.2906C27.5471 86.2574 28.1844 87.6145 28.3563 89.3619H25.1337C25.0549 88.3522 24.772 87.6217 24.285 87.1705C23.8052 86.7122 23.0712 86.483 22.0829 86.483C21.0087 86.483 20.203 86.8698 19.6659 87.6432C19.1359 88.4095 18.8638 89.6018 18.8495 91.2203V92.402C18.8495 94.0921 19.1037 95.3274 19.6122 96.108C20.1278 96.8886 20.9371 97.2789 22.0399 97.2789C23.0354 97.2789 23.7766 97.0533 24.2635 96.6022C24.7577 96.1438 25.0406 95.4384 25.1122 94.486H28.3348ZM36.9823 99.6959C36.8391 99.4166 36.7352 99.0693 36.6708 98.6539C35.9188 99.4918 34.9413 99.9108 33.7382 99.9108C32.5995 99.9108 31.6542 99.5813 30.9022 98.9225C30.1574 98.2636 29.785 97.4329 29.785 96.4303C29.785 95.1985 30.2398 94.2532 31.1493 93.5944C32.066 92.9355 33.3872 92.6025 35.1132 92.5953H36.5419V91.9293C36.5419 91.3922 36.4022 90.9625 36.1229 90.6403C35.8508 90.318 35.4175 90.1569 34.8231 90.1569C34.3003 90.1569 33.8885 90.2822 33.5878 90.5328C33.2941 90.7835 33.1473 91.1272 33.1473 91.5641H30.0428C30.0428 90.8909 30.2505 90.2679 30.6659 89.6949C31.0813 89.122 31.6685 88.6744 32.4276 88.3522C33.1867 88.0227 34.0389 87.858 34.9843 87.858C36.4165 87.858 37.5516 88.2197 38.3895 88.943C39.2346 89.6591 39.6571 90.6689 39.6571 91.9723V97.0104C39.6643 98.1132 39.8182 98.9476 40.119 99.5133V99.6959H36.9823ZM34.4149 97.5367C34.8733 97.5367 35.2958 97.4365 35.6825 97.236C36.0692 97.0283 36.3557 96.7526 36.5419 96.4088V94.4108H35.3817C33.8277 94.4108 33.0005 94.9479 32.9003 96.0221L32.8895 96.2047C32.8895 96.5914 33.0256 96.9101 33.2977 97.1608C33.5699 97.4114 33.9423 97.5367 34.4149 97.5367ZM52.5048 93.9918C52.5048 95.7822 52.0966 97.2181 51.2802 98.2994C50.4709 99.3737 49.3752 99.9108 47.993 99.9108C46.8186 99.9108 45.8697 99.5026 45.1464 98.6862V104.165H42.0419V88.0729H44.9208L45.0282 89.2115C45.7802 88.3092 46.7613 87.858 47.9716 87.858C49.4038 87.858 50.5175 88.388 51.3124 89.4479C52.1073 90.5078 52.5048 91.9687 52.5048 93.8307V93.9918ZM49.4003 93.7662C49.4003 92.6849 49.2069 91.8505 48.8202 91.2633C48.4406 90.6761 47.8856 90.3824 47.1552 90.3824C46.1812 90.3824 45.5116 90.7548 45.1464 91.4996V96.2584C45.5259 97.0247 46.2027 97.4078 47.1766 97.4078C48.6591 97.4078 49.4003 96.194 49.4003 93.7662ZM57.7147 99.6959H54.5995V88.0729H57.7147V99.6959ZM54.4169 85.0651C54.4169 84.5996 54.5708 84.2164 54.8788 83.9156C55.1939 83.6149 55.62 83.4645 56.1571 83.4645C56.6871 83.4645 57.1096 83.6149 57.4247 83.9156C57.7398 84.2164 57.8973 84.5996 57.8973 85.0651C57.8973 85.5377 57.7362 85.9244 57.4139 86.2252C57.0988 86.526 56.6799 86.6764 56.1571 86.6764C55.6343 86.6764 55.2118 86.526 54.8895 86.2252C54.5744 85.9244 54.4169 85.5377 54.4169 85.0651ZM63.9989 85.2155V88.0729H65.9862V90.3502H63.9989V96.151C63.9989 96.5807 64.0813 96.8886 64.246 97.0748C64.4107 97.261 64.7258 97.3541 65.1913 97.3541C65.535 97.3541 65.8394 97.3291 66.1044 97.2789V99.6315C65.4956 99.8177 64.869 99.9108 64.2245 99.9108C62.0474 99.9108 60.9374 98.8115 60.8944 96.6129V90.3502H59.1971V88.0729H60.8944V85.2155H63.9989ZM66.91 93.777C66.91 92.624 67.132 91.5963 67.576 90.694C68.0201 89.7916 68.6574 89.0934 69.4882 88.5992C70.326 88.1051 71.2964 87.858 72.3993 87.858C73.9677 87.858 75.246 88.3378 76.2343 89.2975C77.2297 90.2571 77.7847 91.5605 77.8993 93.2076L77.9208 94.0026C77.9208 95.7858 77.4231 97.2181 76.4276 98.2994C75.4322 99.3737 74.0966 99.9108 72.4208 99.9108C70.745 99.9108 69.4058 99.3737 68.4032 98.2994C67.4078 97.2252 66.91 95.7643 66.91 93.9166V93.777ZM70.0145 94.0026C70.0145 95.1054 70.2222 95.9505 70.6376 96.5377C71.0529 97.1178 71.6473 97.4078 72.4208 97.4078C73.1727 97.4078 73.76 97.1214 74.1825 96.5485C74.605 95.9684 74.8163 95.0446 74.8163 93.777C74.8163 92.6956 74.605 91.8577 74.1825 91.2633C73.76 90.6689 73.1656 90.3717 72.3993 90.3717C71.6402 90.3717 71.0529 90.6689 70.6376 91.2633C70.2222 91.8505 70.0145 92.7636 70.0145 94.0026ZM83.1093 99.6959H79.994V83.1959H83.1093V99.6959ZM91.9716 96.484C91.9716 96.1045 91.7818 95.8073 91.4022 95.5924C91.0298 95.3704 90.4283 95.1735 89.5975 95.0016C86.8332 94.4215 85.451 93.247 85.451 91.4781C85.451 90.4469 85.8772 89.5875 86.7294 88.9C87.5887 88.2054 88.7095 87.858 90.0917 87.858C91.5669 87.858 92.745 88.2054 93.6259 88.9C94.5139 89.5947 94.9579 90.497 94.9579 91.6071H91.8534C91.8534 91.163 91.7102 90.7978 91.4237 90.5114C91.1372 90.2177 90.6897 90.0709 90.0809 90.0709C89.5581 90.0709 89.1535 90.1891 88.8671 90.4254C88.5806 90.6617 88.4374 90.9625 88.4374 91.3278C88.4374 91.6715 88.5985 91.9508 88.9208 92.1656C89.2502 92.3733 89.8016 92.5559 90.5751 92.7135C91.3485 92.8639 92.0002 93.0358 92.5302 93.2291C94.1701 93.8307 94.9901 94.8727 94.9901 96.3551C94.9901 97.415 94.5354 98.2744 93.6259 98.9332C92.7163 99.5849 91.5419 99.9108 90.1024 99.9108C89.1285 99.9108 88.2619 99.7389 87.5028 99.3951C86.7509 99.0442 86.16 98.568 85.7303 97.9664C85.3007 97.3577 85.0858 96.7024 85.0858 96.0006H88.0292C88.0578 96.552 88.2619 96.9746 88.6415 97.2682C89.021 97.5618 89.5295 97.7086 90.1669 97.7086C90.7613 97.7086 91.2089 97.5976 91.5096 97.3756C91.8176 97.1464 91.9716 96.8492 91.9716 96.484ZM101.994 93.777C101.994 92.624 102.216 91.5963 102.66 90.694C103.104 89.7916 103.741 89.0934 104.572 88.5992C105.41 88.1051 106.38 87.858 107.483 87.858C109.052 87.858 110.33 88.3378 111.318 89.2975C112.314 90.2571 112.869 91.5605 112.983 93.2076L113.005 94.0026C113.005 95.7858 112.507 97.2181 111.512 98.2994C110.516 99.3737 109.181 99.9108 107.505 99.9108C105.829 99.9108 104.49 99.3737 103.487 98.2994C102.492 97.2252 101.994 95.7643 101.994 93.9166V93.777ZM105.099 94.0026C105.099 95.1054 105.306 95.9505 105.722 96.5377C106.137 97.1178 106.731 97.4078 107.505 97.4078C108.257 97.4078 108.844 97.1214 109.266 96.5485C109.689 95.9684 109.9 95.0446 109.9 93.777C109.9 92.6956 109.689 91.8577 109.266 91.2633C108.844 90.6689 108.25 90.3717 107.483 90.3717C106.724 90.3717 106.137 90.6689 105.722 91.2633C105.306 91.8505 105.099 92.7636 105.099 94.0026ZM115.766 99.6959V90.3502H114.036V88.0729H115.766V87.0846C115.766 85.7812 116.138 84.7714 116.883 84.0553C117.635 83.332 118.684 82.9703 120.03 82.9703C120.46 82.9703 120.986 83.042 121.609 83.1852L121.577 85.5914C121.319 85.527 121.004 85.4948 120.632 85.4948C119.464 85.4948 118.881 86.0426 118.881 87.1383V88.0729H121.19V90.3502H118.881V99.6959H115.766ZM137.314 96.4733H131.664L130.59 99.6959H127.163L132.985 84.0553H135.972L141.826 99.6959H138.399L137.314 96.4733ZM132.534 93.8629H136.444L134.478 88.0084L132.534 93.8629ZM143.932 99.6959V90.3502H142.202V88.0729H143.932V87.0846C143.932 85.7812 144.304 84.7714 145.049 84.0553C145.801 83.332 146.85 82.9703 148.196 82.9703C148.626 82.9703 149.152 83.042 149.775 83.1852L149.743 85.5914C149.485 85.527 149.17 85.4948 148.798 85.4948C147.63 85.4948 147.047 86.0426 147.047 87.1383V88.0729H149.356V90.3502H147.047V99.6959H143.932ZM157.499 90.984C157.076 90.9267 156.704 90.8981 156.382 90.8981C155.207 90.8981 154.437 91.2955 154.072 92.0905V99.6959H150.968V88.0729H153.9L153.986 89.4586C154.609 88.3916 155.472 87.858 156.575 87.858C156.919 87.858 157.241 87.9046 157.542 87.9977L157.499 90.984ZM162.279 99.6959H159.164V88.0729H162.279V99.6959ZM158.981 85.0651C158.981 84.5996 159.135 84.2164 159.443 83.9156C159.758 83.6149 160.184 83.4645 160.722 83.4645C161.252 83.4645 161.674 83.6149 161.989 83.9156C162.304 84.2164 162.462 84.5996 162.462 85.0651C162.462 85.5377 162.301 85.9244 161.978 86.2252C161.663 86.526 161.244 86.6764 160.722 86.6764C160.199 86.6764 159.776 86.526 159.454 86.2252C159.139 85.9244 158.981 85.5377 158.981 85.0651ZM169.681 97.4078C170.253 97.4078 170.719 97.2503 171.077 96.9352C171.435 96.6201 171.621 96.2011 171.636 95.6783H174.547C174.54 96.4661 174.325 97.1894 173.902 97.8483C173.48 98.5 172.9 99.0084 172.162 99.3737C171.432 99.7317 170.622 99.9108 169.734 99.9108C168.073 99.9108 166.762 99.3844 165.803 98.3317C164.843 97.2718 164.363 95.8108 164.363 93.9489V93.7448C164.363 91.9544 164.839 90.5257 165.792 89.4586C166.744 88.3916 168.051 87.858 169.713 87.858C171.167 87.858 172.33 88.2734 173.204 89.1041C174.085 89.9277 174.532 91.027 174.547 92.402H171.636C171.621 91.8004 171.435 91.3134 171.077 90.941C170.719 90.5615 170.246 90.3717 169.659 90.3717C168.936 90.3717 168.388 90.6367 168.016 91.1666C167.65 91.6894 167.468 92.5416 167.468 93.7233V94.0455C167.468 95.2415 167.65 96.1009 168.016 96.6237C168.381 97.1464 168.936 97.4078 169.681 97.4078ZM183.055 99.6959C182.911 99.4166 182.807 99.0693 182.743 98.6539C181.991 99.4918 181.014 99.9108 179.81 99.9108C178.672 99.9108 177.726 99.5813 176.974 98.9225C176.23 98.2636 175.857 97.4329 175.857 96.4303C175.857 95.1985 176.312 94.2532 177.222 93.5944C178.138 92.9355 179.46 92.6025 181.185 92.5953H182.614V91.9293C182.614 91.3922 182.474 90.9625 182.195 90.6403C181.923 90.318 181.49 90.1569 180.895 90.1569C180.373 90.1569 179.961 90.2822 179.66 90.5328C179.366 90.7835 179.22 91.1272 179.22 91.5641H176.115C176.115 90.8909 176.323 90.2679 176.738 89.6949C177.154 89.122 177.741 88.6744 178.5 88.3522C179.259 88.0227 180.111 87.858 181.057 87.858C182.489 87.858 183.624 88.2197 184.462 88.943C185.307 89.6591 185.729 90.6689 185.729 91.9723V97.0104C185.737 98.1132 185.891 98.9476 186.191 99.5133V99.6959H183.055ZM180.487 97.5367C180.946 97.5367 181.368 97.4365 181.755 97.236C182.141 97.0283 182.428 96.7526 182.614 96.4088V94.4108H181.454C179.9 94.4108 179.073 94.9479 178.973 96.0221L178.962 96.2047C178.962 96.5914 179.098 96.9101 179.37 97.1608C179.642 97.4114 180.015 97.5367 180.487 97.5367Z"
          fill="white"/>
    <path d="M25.9811 152.376H24.1764L23.6295 155.179H22.652L23.1989 152.376H21.5651V151.44H23.3766L23.8483 149.02H22.0846V148.07H24.0328L24.5934 145.226H25.5709L25.0104 148.07H26.8151L27.3756 145.226H28.36L27.7994 148.07H29.194V149.02H27.6149L27.1432 151.44H28.6813V152.376H26.9655L26.4186 155.179H25.4342L25.9811 152.376ZM24.3541 151.44H26.1588L26.6305 149.02H24.8258L24.3541 151.44ZM37.8824 153.874C37.5452 154.357 37.0735 154.719 36.4674 154.96C35.8658 155.197 35.164 155.316 34.3619 155.316C33.5507 155.316 32.8307 155.127 32.2018 154.749C31.5729 154.366 31.0852 153.823 30.7389 153.122C30.3971 152.42 30.2216 151.606 30.2125 150.681V149.813C30.2125 148.314 30.5612 147.152 31.2584 146.327C31.9602 145.502 32.9446 145.089 34.2115 145.089C35.2506 145.089 36.0869 145.356 36.7203 145.889C37.3538 146.418 37.7412 147.17 37.8824 148.145H36.5699C36.3239 146.828 35.54 146.169 34.2184 146.169C33.3388 146.169 32.6712 146.479 32.2155 147.099C31.7643 147.714 31.5364 148.608 31.5319 149.779V150.592C31.5319 151.709 31.7871 152.597 32.2975 153.258C32.8079 153.915 33.4983 154.243 34.3688 154.243C34.861 154.243 35.2916 154.188 35.6608 154.079C36.0299 153.969 36.3352 153.785 36.5768 153.525V151.29H34.2731V150.223H37.8824V153.874ZM42.9479 155.316C41.9453 155.316 41.1295 154.988 40.5006 154.332C39.8717 153.671 39.5573 152.789 39.5573 151.686V151.454C39.5573 150.72 39.6962 150.066 39.9742 149.492C40.2568 148.913 40.6487 148.462 41.15 148.138C41.6559 147.81 42.2028 147.646 42.7906 147.646C43.7522 147.646 44.4996 147.963 45.0328 148.596C45.566 149.23 45.8326 150.137 45.8326 151.317V151.843H40.8219C40.8401 152.572 41.052 153.163 41.4576 153.614C41.8678 154.06 42.3873 154.284 43.0162 154.284C43.4628 154.284 43.8411 154.193 44.151 154.01C44.4609 153.828 44.7321 153.586 44.9645 153.286L45.7369 153.887C45.1171 154.84 44.1875 155.316 42.9479 155.316ZM42.7906 148.685C42.2802 148.685 41.8518 148.872 41.5055 149.246C41.1591 149.615 40.9449 150.134 40.8629 150.804H44.568V150.708C44.5315 150.066 44.3584 149.569 44.0485 149.218C43.7386 148.863 43.3193 148.685 42.7906 148.685ZM46.9674 151.413C46.9674 150.688 47.1087 150.036 47.3912 149.458C47.6783 148.879 48.0748 148.432 48.5807 148.118C49.0911 147.803 49.6722 147.646 50.3239 147.646C51.331 147.646 52.1445 147.995 52.7643 148.692C53.3886 149.389 53.7008 150.317 53.7008 151.474V151.563C53.7008 152.283 53.5618 152.93 53.2838 153.504C53.0104 154.074 52.6162 154.518 52.1012 154.837C51.5908 155.156 51.0029 155.316 50.3375 155.316C49.3349 155.316 48.5214 154.967 47.8971 154.27C47.2773 153.573 46.9674 152.65 46.9674 151.501V151.413ZM48.2389 151.563C48.2389 152.383 48.428 153.042 48.8063 153.539C49.1891 154.035 49.6995 154.284 50.3375 154.284C50.9801 154.284 51.4905 154.033 51.8688 153.532C52.247 153.026 52.4362 152.319 52.4362 151.413C52.4362 150.601 52.2425 149.945 51.8551 149.444C51.4723 148.938 50.9619 148.685 50.3239 148.685C49.6995 148.685 49.1959 148.933 48.8131 149.43C48.4303 149.927 48.2389 150.638 48.2389 151.563ZM54.986 151.419C54.986 150.266 55.2526 149.35 55.7858 148.671C56.319 147.988 57.0253 147.646 57.9049 147.646C58.8073 147.646 59.5114 147.965 60.0172 148.603L60.0787 147.783H61.234V155.001C61.234 155.958 60.9492 156.713 60.3795 157.264C59.8144 157.816 59.0533 158.091 58.0963 158.091C57.5631 158.091 57.0413 157.977 56.5309 157.75C56.0205 157.522 55.6308 157.209 55.3619 156.813L56.0182 156.054C56.5605 156.724 57.2236 157.059 58.0074 157.059C58.6227 157.059 59.1012 156.886 59.443 156.54C59.7893 156.193 59.9625 155.706 59.9625 155.077V154.441C59.4567 155.024 58.7662 155.316 57.8912 155.316C57.0253 155.316 56.3235 154.967 55.7858 154.27C55.2526 153.573 54.986 152.623 54.986 151.419ZM56.2574 151.563C56.2574 152.397 56.4283 153.053 56.7701 153.532C57.1119 154.006 57.5905 154.243 58.2057 154.243C59.0032 154.243 59.5888 153.88 59.9625 153.156V149.779C59.5752 149.072 58.9941 148.719 58.2194 148.719C57.6041 148.719 57.1233 148.958 56.777 149.437C56.4306 149.916 56.2574 150.624 56.2574 151.563ZM66.7233 148.917C66.5319 148.886 66.3245 148.87 66.1012 148.87C65.2718 148.87 64.7089 149.223 64.4127 149.929V155.179H63.1481V147.783H64.3785L64.399 148.637C64.8138 147.976 65.4017 147.646 66.1627 147.646C66.4088 147.646 66.5957 147.678 66.7233 147.742V148.917ZM72.1852 155.179C72.1123 155.033 72.053 154.774 72.0074 154.4C71.4196 155.011 70.7177 155.316 69.902 155.316C69.1728 155.316 68.5735 155.111 68.1041 154.701C67.6393 154.286 67.4069 153.762 67.4069 153.128C67.4069 152.358 67.6985 151.761 68.2819 151.337C68.8698 150.909 69.6946 150.695 70.7565 150.695H71.9869V150.114C71.9869 149.672 71.8548 149.321 71.5905 149.061C71.3261 148.797 70.9365 148.665 70.4215 148.665C69.9703 148.665 69.5921 148.778 69.2867 149.006C68.9814 149.234 68.8287 149.51 68.8287 149.833H67.5573C67.5573 149.464 67.6871 149.109 67.9469 148.767C68.2112 148.421 68.5667 148.147 69.0133 147.947C69.4645 147.746 69.9589 147.646 70.4967 147.646C71.3489 147.646 72.0166 147.86 72.4996 148.289C72.9827 148.712 73.2334 149.298 73.2516 150.045V153.45C73.2516 154.129 73.3382 154.669 73.5114 155.07V155.179H72.1852ZM70.0865 154.215C70.483 154.215 70.859 154.113 71.2145 153.908C71.5699 153.703 71.8274 153.436 71.9869 153.108V151.59H70.9957C69.4462 151.59 68.6715 152.044 68.6715 152.951C68.6715 153.347 68.8037 153.657 69.068 153.88C69.3323 154.104 69.6718 154.215 70.0865 154.215ZM81.4821 151.563C81.4821 152.689 81.2246 153.596 80.7096 154.284C80.1946 154.972 79.4974 155.316 78.6178 155.316C77.72 155.316 77.0136 155.031 76.4987 154.461V158.023H75.234V147.783H76.3893L76.4508 148.603C76.9658 147.965 77.6813 147.646 78.5973 147.646C79.486 147.646 80.1878 147.981 80.7028 148.651C81.2223 149.321 81.4821 150.253 81.4821 151.447V151.563ZM80.2174 151.419C80.2174 150.585 80.0397 149.927 79.6842 149.444C79.3287 148.961 78.8411 148.719 78.2213 148.719C77.4557 148.719 76.8815 149.059 76.4987 149.738V153.272C76.8769 153.946 77.4557 154.284 78.235 154.284C78.8411 154.284 79.3219 154.044 79.6774 153.566C80.0374 153.083 80.2174 152.367 80.2174 151.419ZM84.36 148.678C84.9205 147.99 85.6497 147.646 86.5475 147.646C88.1106 147.646 88.899 148.528 88.9127 150.292V155.179H87.6481V150.285C87.6435 149.751 87.5205 149.357 87.2789 149.102C87.042 148.847 86.6705 148.719 86.1647 148.719C85.7545 148.719 85.3945 148.829 85.0846 149.047C84.7747 149.266 84.5332 149.553 84.36 149.909V155.179H83.0953V144.679H84.36V148.678ZM93.2262 153.327L94.9489 147.783H96.3024L93.3287 156.321C92.8684 157.551 92.137 158.167 91.1344 158.167L90.8951 158.146L90.4235 158.057V157.032L90.7653 157.059C91.1936 157.059 91.5263 156.972 91.7633 156.799C92.0048 156.626 92.2031 156.309 92.358 155.849L92.6383 155.097L89.9996 147.783H91.3805L93.2262 153.327ZM105.182 152.376H103.378L102.831 155.179H101.853L102.4 152.376H100.766V151.44H102.578L103.049 149.02H101.286V148.07H103.234L103.795 145.226H104.772L104.212 148.07H106.016L106.577 145.226H107.561L107.001 148.07H108.395V149.02H106.816L106.344 151.44H107.882V152.376H106.167L105.62 155.179H104.635L105.182 152.376ZM103.555 151.44H105.36L105.832 149.02H104.027L103.555 151.44ZM117.056 152.021C116.933 153.074 116.544 153.887 115.887 154.461C115.236 155.031 114.367 155.316 113.283 155.316C112.107 155.316 111.164 154.894 110.453 154.051C109.746 153.208 109.393 152.08 109.393 150.667V149.71C109.393 148.785 109.557 147.972 109.885 147.27C110.218 146.568 110.687 146.03 111.294 145.657C111.9 145.278 112.602 145.089 113.399 145.089C114.456 145.089 115.304 145.386 115.942 145.978C116.58 146.566 116.951 147.382 117.056 148.425H115.737C115.623 147.632 115.375 147.058 114.992 146.703C114.614 146.347 114.083 146.169 113.399 146.169C112.561 146.169 111.902 146.479 111.423 147.099C110.95 147.719 110.713 148.601 110.713 149.745V150.708C110.713 151.789 110.938 152.648 111.389 153.286C111.84 153.924 112.472 154.243 113.283 154.243C114.012 154.243 114.57 154.079 114.958 153.75C115.35 153.418 115.609 152.841 115.737 152.021H117.056ZM123.222 155.179C123.149 155.033 123.09 154.774 123.045 154.4C122.457 155.011 121.755 155.316 120.939 155.316C120.21 155.316 119.611 155.111 119.141 154.701C118.676 154.286 118.444 153.762 118.444 153.128C118.444 152.358 118.736 151.761 119.319 151.337C119.907 150.909 120.732 150.695 121.794 150.695H123.024V150.114C123.024 149.672 122.892 149.321 122.628 149.061C122.363 148.797 121.974 148.665 121.459 148.665C121.007 148.665 120.629 148.778 120.324 149.006C120.019 149.234 119.866 149.51 119.866 149.833H118.594C118.594 149.464 118.724 149.109 118.984 148.767C119.248 148.421 119.604 148.147 120.05 147.947C120.502 147.746 120.996 147.646 121.534 147.646C122.386 147.646 123.054 147.86 123.537 148.289C124.02 148.712 124.27 149.298 124.289 150.045V153.45C124.289 154.129 124.375 154.669 124.548 155.07V155.179H123.222ZM121.124 154.215C121.52 154.215 121.896 154.113 122.252 153.908C122.607 153.703 122.865 153.436 123.024 153.108V151.59H122.033C120.483 151.59 119.709 152.044 119.709 152.951C119.709 153.347 119.841 153.657 120.105 153.88C120.369 154.104 120.709 154.215 121.124 154.215ZM132.519 151.563C132.519 152.689 132.262 153.596 131.747 154.284C131.232 154.972 130.534 155.316 129.655 155.316C128.757 155.316 128.051 155.031 127.536 154.461V158.023H126.271V147.783H127.426L127.488 148.603C128.003 147.965 128.718 147.646 129.634 147.646C130.523 147.646 131.225 147.981 131.74 148.651C132.259 149.321 132.519 150.253 132.519 151.447V151.563ZM131.255 151.419C131.255 150.585 131.077 149.927 130.721 149.444C130.366 148.961 129.878 148.719 129.258 148.719C128.493 148.719 127.919 149.059 127.536 149.738V153.272C127.914 153.946 128.493 154.284 129.272 154.284C129.878 154.284 130.359 154.044 130.714 153.566C131.075 153.083 131.255 152.367 131.255 151.419ZM135.506 155.179H134.242V147.783H135.506V155.179ZM134.139 145.821C134.139 145.616 134.201 145.443 134.324 145.301C134.451 145.16 134.638 145.089 134.884 145.089C135.13 145.089 135.317 145.16 135.445 145.301C135.573 145.443 135.636 145.616 135.636 145.821C135.636 146.026 135.573 146.197 135.445 146.333C135.317 146.47 135.13 146.539 134.884 146.539C134.638 146.539 134.451 146.47 134.324 146.333C134.201 146.197 134.139 146.026 134.139 145.821ZM139.253 145.992V147.783H140.633V148.76H139.253V153.347C139.253 153.643 139.314 153.867 139.437 154.017C139.56 154.163 139.77 154.236 140.066 154.236C140.212 154.236 140.412 154.208 140.668 154.154V155.179C140.335 155.27 140.011 155.316 139.697 155.316C139.132 155.316 138.706 155.145 138.419 154.803C138.131 154.461 137.988 153.976 137.988 153.347V148.76H136.641V147.783H137.988V145.992H139.253ZM141.645 151.413C141.645 150.688 141.786 150.036 142.069 149.458C142.356 148.879 142.753 148.432 143.258 148.118C143.769 147.803 144.35 147.646 145.002 147.646C146.009 147.646 146.822 147.995 147.442 148.692C148.066 149.389 148.379 150.317 148.379 151.474V151.563C148.379 152.283 148.24 152.93 147.962 153.504C147.688 154.074 147.294 154.518 146.779 154.837C146.269 155.156 145.681 155.316 145.015 155.316C144.013 155.316 143.199 154.967 142.575 154.27C141.955 153.573 141.645 152.65 141.645 151.501V151.413ZM142.917 151.563C142.917 152.383 143.106 153.042 143.484 153.539C143.867 154.035 144.377 154.284 145.015 154.284C145.658 154.284 146.168 154.033 146.547 153.532C146.925 153.026 147.114 152.319 147.114 151.413C147.114 150.601 146.92 149.945 146.533 149.444C146.15 148.938 145.64 148.685 145.002 148.685C144.377 148.685 143.874 148.933 143.491 149.43C143.108 149.927 142.917 150.638 142.917 151.563ZM151.339 155.179H150.074V144.679H151.339V155.179ZM157.675 153.217C157.675 152.875 157.546 152.611 157.286 152.424C157.031 152.233 156.582 152.069 155.939 151.932C155.301 151.795 154.793 151.631 154.415 151.44C154.041 151.249 153.763 151.021 153.581 150.756C153.403 150.492 153.314 150.178 153.314 149.813C153.314 149.207 153.569 148.694 154.08 148.275C154.595 147.856 155.251 147.646 156.048 147.646C156.887 147.646 157.566 147.862 158.086 148.295C158.61 148.728 158.872 149.282 158.872 149.957H157.6C157.6 149.61 157.452 149.312 157.156 149.061C156.864 148.81 156.495 148.685 156.048 148.685C155.588 148.685 155.228 148.785 154.968 148.986C154.709 149.186 154.579 149.448 154.579 149.772C154.579 150.077 154.7 150.307 154.941 150.462C155.183 150.617 155.618 150.765 156.247 150.907C156.88 151.048 157.393 151.217 157.785 151.413C158.177 151.609 158.466 151.846 158.653 152.124C158.844 152.397 158.94 152.732 158.94 153.128C158.94 153.789 158.676 154.32 158.147 154.721C157.618 155.118 156.933 155.316 156.089 155.316C155.497 155.316 154.973 155.211 154.517 155.001C154.061 154.792 153.704 154.5 153.444 154.126C153.189 153.748 153.061 153.34 153.061 152.903H154.326C154.349 153.327 154.517 153.664 154.832 153.915C155.151 154.161 155.57 154.284 156.089 154.284C156.568 154.284 156.951 154.188 157.238 153.997C157.53 153.801 157.675 153.541 157.675 153.217ZM168.333 152.376H166.528L165.981 155.179H165.004L165.55 152.376H163.917V151.44H165.728L166.2 149.02H164.436V148.07H166.384L166.945 145.226H167.922L167.362 148.07H169.167L169.727 145.226H170.712L170.151 148.07H171.546V149.02H169.966L169.495 151.44H171.033V152.376H169.317L168.77 155.179H167.786L168.333 152.376ZM166.706 151.44H168.51L168.982 149.02H167.177L166.706 151.44ZM178.381 152.582H174.212L173.275 155.179H171.922L175.722 145.226H176.871L180.678 155.179H179.332L178.381 152.582ZM174.608 151.501H177.992L176.297 146.846L174.608 151.501ZM182.442 155.179V148.76H181.273V147.783H182.442V147.024C182.442 146.231 182.654 145.618 183.078 145.185C183.502 144.752 184.101 144.536 184.876 144.536C185.167 144.536 185.457 144.574 185.744 144.652L185.675 145.677C185.461 145.636 185.233 145.616 184.992 145.616C184.582 145.616 184.265 145.736 184.042 145.978C183.818 146.215 183.707 146.557 183.707 147.003V147.783H185.286V148.76H183.707V155.179H182.442ZM190.262 148.917C190.071 148.886 189.864 148.87 189.64 148.87C188.811 148.87 188.248 149.223 187.952 149.929V155.179H186.687V147.783H187.918L187.938 148.637C188.353 147.976 188.941 147.646 189.702 147.646C189.948 147.646 190.135 147.678 190.262 147.742V148.917ZM192.805 155.179H191.541V147.783H192.805V155.179ZM191.438 145.821C191.438 145.616 191.5 145.443 191.623 145.301C191.75 145.16 191.937 145.089 192.183 145.089C192.429 145.089 192.616 145.16 192.744 145.301C192.871 145.443 192.935 145.616 192.935 145.821C192.935 146.026 192.871 146.197 192.744 146.333C192.616 146.47 192.429 146.539 192.183 146.539C191.937 146.539 191.75 146.47 191.623 146.333C191.5 146.197 191.438 146.026 191.438 145.821ZM197.802 154.284C198.254 154.284 198.648 154.147 198.985 153.874C199.322 153.6 199.509 153.258 199.546 152.848H200.742C200.719 153.272 200.573 153.675 200.304 154.058C200.035 154.441 199.675 154.746 199.224 154.974C198.778 155.202 198.304 155.316 197.802 155.316C196.795 155.316 195.993 154.981 195.396 154.311C194.804 153.637 194.507 152.716 194.507 151.549V151.337C194.507 150.617 194.64 149.977 194.904 149.417C195.168 148.856 195.547 148.421 196.039 148.111C196.535 147.801 197.121 147.646 197.796 147.646C198.625 147.646 199.313 147.894 199.86 148.391C200.411 148.888 200.705 149.533 200.742 150.326H199.546C199.509 149.847 199.327 149.455 198.999 149.15C198.675 148.84 198.274 148.685 197.796 148.685C197.153 148.685 196.654 148.917 196.298 149.382C195.948 149.843 195.772 150.51 195.772 151.385V151.625C195.772 152.477 195.948 153.133 196.298 153.593C196.649 154.054 197.151 154.284 197.802 154.284ZM206.73 155.179C206.657 155.033 206.598 154.774 206.552 154.4C205.964 155.011 205.263 155.316 204.447 155.316C203.718 155.316 203.118 155.111 202.649 154.701C202.184 154.286 201.952 153.762 201.952 153.128C201.952 152.358 202.243 151.761 202.827 151.337C203.415 150.909 204.24 150.695 205.301 150.695H206.532V150.114C206.532 149.672 206.4 149.321 206.135 149.061C205.871 148.797 205.481 148.665 204.966 148.665C204.515 148.665 204.137 148.778 203.832 149.006C203.526 149.234 203.374 149.51 203.374 149.833H202.102C202.102 149.464 202.232 149.109 202.492 148.767C202.756 148.421 203.112 148.147 203.558 147.947C204.009 147.746 204.504 147.646 205.042 147.646C205.894 147.646 206.561 147.86 207.045 148.289C207.528 148.712 207.778 149.298 207.797 150.045V153.45C207.797 154.129 207.883 154.669 208.056 155.07V155.179H206.73ZM204.631 154.215C205.028 154.215 205.404 154.113 205.759 153.908C206.115 153.703 206.372 153.436 206.532 153.108V151.59H205.541C203.991 151.59 203.216 152.044 203.216 152.951C203.216 153.347 203.349 153.657 203.613 153.88C203.877 154.104 204.217 154.215 204.631 154.215Z"
          fill="#696969"/>
    <path d="M251.914 127.29C251.914 129.617 251.516 131.347 250.721 132.478C249.926 133.61 248.684 134.176 246.994 134.176C245.325 134.176 244.09 133.624 243.288 132.521C242.486 131.411 242.07 129.757 242.042 127.558V124.905C242.042 122.606 242.439 120.898 243.234 119.781C244.029 118.664 245.275 118.105 246.972 118.105C248.655 118.105 249.894 118.646 250.689 119.727C251.484 120.802 251.892 122.463 251.914 124.712V127.29ZM249.926 124.572C249.926 122.889 249.69 121.664 249.217 120.898C248.745 120.125 247.996 119.738 246.972 119.738C245.955 119.738 245.214 120.121 244.749 120.887C244.283 121.654 244.043 122.832 244.029 124.422V127.601C244.029 129.291 244.272 130.541 244.759 131.35C245.254 132.152 245.998 132.553 246.994 132.553C247.975 132.553 248.702 132.174 249.174 131.415C249.654 130.656 249.905 129.46 249.926 127.827V124.572ZM254.288 121.328C254.288 120.39 254.585 119.616 255.179 119.008C255.781 118.399 256.551 118.094 257.489 118.094C258.441 118.094 259.211 118.402 259.798 119.018C260.393 119.627 260.69 120.418 260.69 121.392V122.155C260.69 123.1 260.389 123.874 259.788 124.475C259.193 125.07 258.434 125.367 257.51 125.367C256.579 125.367 255.81 125.07 255.201 124.475C254.592 123.874 254.288 123.075 254.288 122.08V121.328ZM255.77 122.155C255.77 122.714 255.928 123.176 256.243 123.541C256.558 123.899 256.98 124.078 257.51 124.078C258.019 124.078 258.427 123.902 258.735 123.552C259.05 123.201 259.208 122.721 259.208 122.112V121.328C259.208 120.769 259.054 120.307 258.746 119.942C258.438 119.577 258.019 119.394 257.489 119.394C256.959 119.394 256.54 119.577 256.232 119.942C255.924 120.307 255.77 120.784 255.77 121.371V122.155ZM261.904 130.126C261.904 129.188 262.201 128.418 262.796 127.816C263.397 127.207 264.167 126.903 265.105 126.903C266.043 126.903 266.813 127.204 267.415 127.805C268.016 128.407 268.317 129.205 268.317 130.201V130.964C268.317 131.902 268.016 132.675 267.415 133.284C266.82 133.885 266.058 134.186 265.127 134.186C264.196 134.186 263.426 133.889 262.817 133.295C262.208 132.693 261.904 131.895 261.904 130.899V130.126ZM263.386 130.964C263.386 131.529 263.544 131.995 263.859 132.36C264.174 132.718 264.597 132.897 265.127 132.897C265.642 132.897 266.054 132.722 266.362 132.371C266.67 132.013 266.824 131.529 266.824 130.921V130.126C266.824 129.56 266.666 129.098 266.351 128.74C266.043 128.382 265.628 128.203 265.105 128.203C264.597 128.203 264.181 128.382 263.859 128.74C263.544 129.091 263.386 129.567 263.386 130.169V130.964ZM257.962 132.779L256.834 132.07L264.471 119.845L265.599 120.554L257.962 132.779Z"
          fill="#696969"/>
    <rect x="16.183" y="114.006" width="216.248" height="25.1274" rx="12.5637" fill="#798A93"/>
    <rect x="22.2744" y="119.336" width="105.839" height="14.4673" rx="7.23363" fill="#E9E9E9"/>
    <ellipse cx="252.937" cy="72.3738" rx="23.8814" ry="24.7769" fill="#FDFDFD"/>
    <g filter="url(#filter1_d)">
        <path d="M254.131 47C239.62 47 227.862 58.2233 227.862 72.0754C227.862 85.9276 239.62 97.1509 254.131 97.1509C268.643 97.1509 280.401 85.9276 280.401 72.0754C280.401 58.2233 268.643 47 254.131 47ZM266.387 74.5021L247.744 84.7143C246.07 85.604 243.962 84.4615 243.962 82.5909V61.5599C243.962 59.6995 246.06 58.5468 247.744 59.4366L266.387 70.2554C268.124 71.1857 268.124 73.582 266.387 74.5021Z"
              fill="#FFB763"/>
    </g>
    <defs>
        <filter id="filter0_d" x="0" y="69.1274" width="302.584" height="111.464" filterUnits="userSpaceOnUse"
                color-interpolation-filters="sRGB">
            <feFlood flood-opacity="0" result="BackgroundImageFix"/>
            <feColorMatrix in="SourceAlpha" type="matrix" values="0 0 0 0 0 0 0 0 0 0 0 0 0 0 0 0 0 0 127 0"/>
            <feMorphology radius="3" operator="dilate" in="SourceAlpha" result="effect1_dropShadow"/>
            <feOffset dx="3" dy="4"/>
            <feGaussianBlur stdDeviation="2"/>
            <feColorMatrix type="matrix" values="0 0 0 0 0 0 0 0 0 0 0 0 0 0 0 0 0 0 0.25 0"/>
            <feBlend mode="normal" in2="BackgroundImageFix" result="effect1_dropShadow"/>
            <feBlend mode="normal" in="SourceGraphic" in2="effect1_dropShadow" result="shape"/>
        </filter>
        <filter id="filter1_d" x="225.862" y="45" width="60.539" height="58.1509" filterUnits="userSpaceOnUse"
                color-interpolation-filters="sRGB">
            <feFlood flood-opacity="0" result="BackgroundImageFix"/>
            <feColorMatrix in="SourceAlpha" type="matrix" values="0 0 0 0 0 0 0 0 0 0 0 0 0 0 0 0 0 0 127 0"/>
            <feOffset dx="2" dy="2"/>
            <feGaussianBlur stdDeviation="2"/>
            <feColorMatrix type="matrix" values="0 0 0 0 0 0 0 0 0 0 0 0 0 0 0 0 0 0 0.25 0"/>
            <feBlend mode="normal" in2="BackgroundImageFix" result="effect1_dropShadow"/>
            <feBlend mode="normal" in="SourceGraphic" in2="effect1_dropShadow" result="shape"/>
        </filter>
    </defs>
</svg>
