<svg width="278" height="105" viewBox="0 0 278 105" fill="none" xmlns="http://www.w3.org/2000/svg">
    <path d="M137.917 34.7865C138.238 35.0712 138.76 35.0712 139.082 34.7865L154.735 20.9326C156.422 19.4398 156.422 17.0194 154.735 15.5266C153.048 14.0338 150.314 14.0338 148.627 15.5266L142.619 20.8436V3.64575C142.619 1.63226 140.775 0 138.5 0C136.225 0 134.381 1.63226 134.381 3.64575V20.8436L128.373 15.5267C126.686 14.0339 123.952 14.0339 122.265 15.5267C120.578 17.0195 120.578 19.4398 122.265 20.9326L137.917 34.7865Z"
          fill="white"/>
    <rect y="57" width="278" height="47.6763" fill="#1B5777"/>
    <g filter="url(#filter0_f)">
        <path d="M97.507 71.605H92.2936V69.6115C92.2936 68.9487 91.7572 68.4154 91.0905 68.4154H77.4553C76.7886 68.4154 76.2522 68.9487 76.2522 69.6115V71.605H71.0388C70.3721 71.605 69.8357 72.1383 69.8357 72.8011V75.592C69.8357 77.3712 70.9636 79.2003 72.9387 80.6107C74.5178 81.742 76.4377 82.4597 78.4529 82.6889C80.027 85.2855 81.8667 86.357 81.8667 86.357V89.9453H79.4605C77.6909 89.9453 76.2522 90.9769 76.2522 92.7362V93.3343C76.2522 93.6632 76.5229 93.9323 76.8538 93.9323H91.692C92.0229 93.9323 92.2936 93.6632 92.2936 93.3343V92.7362C92.2936 90.9769 90.8549 89.9453 89.0853 89.9453H86.6791V86.357C86.6791 86.357 88.5188 85.2855 90.0929 82.6889C92.1131 82.4597 94.033 81.742 95.6071 80.6107C97.5772 79.2003 98.7101 77.3712 98.7101 75.592V72.8011C98.7101 72.1383 98.1737 71.605 97.507 71.605ZM74.8135 78.0241C73.5904 77.147 73.044 76.1702 73.044 75.592V74.7946H76.2623C76.3124 76.4193 76.553 77.8447 76.9039 79.0906C76.147 78.8315 75.4401 78.4727 74.8135 78.0241ZM95.5018 75.592C95.5018 76.3944 94.6145 77.3912 93.7323 78.0241C93.1056 78.4727 92.3938 78.8315 91.6369 79.0906C91.9878 77.8447 92.2284 76.4193 92.2785 74.7946H95.5018V75.592Z"
              fill="#BBCDD6"/>
    </g>
    <g filter="url(#filter1_f)">
        <path d="M29.4454 75.0352L18.9143 83.6851V93.0209C18.9143 93.2626 19.0105 93.4944 19.1819 93.6654C19.3533 93.8363 19.5858 93.9323 19.8282 93.9323L26.229 93.9158C26.4706 93.9146 26.7019 93.818 26.8723 93.6472C27.0427 93.4764 27.1383 93.2453 27.1383 93.0044V87.5524C27.1383 87.3106 27.2346 87.0788 27.406 86.9079C27.5774 86.737 27.8099 86.641 28.0522 86.641H31.7079C31.9503 86.641 32.1827 86.737 32.3541 86.9079C32.5255 87.0788 32.6218 87.3106 32.6218 87.5524V93.0004C32.6214 93.1203 32.6448 93.2391 32.6906 93.35C32.7363 93.461 32.8036 93.5618 32.8885 93.6467C32.9734 93.7316 33.0742 93.799 33.1853 93.845C33.2964 93.891 33.4155 93.9147 33.5357 93.9147L39.9342 93.9323C40.1766 93.9323 40.4091 93.8363 40.5805 93.6654C40.7519 93.4944 40.8482 93.2626 40.8482 93.0209V83.6788L30.3193 75.0352C30.1955 74.9357 30.0413 74.8814 29.8824 74.8814C29.7234 74.8814 29.5692 74.9357 29.4454 75.0352ZM46.0803 80.9144L41.3051 76.989V69.099C41.3051 68.9177 41.2329 68.7438 41.1044 68.6156C40.9758 68.4874 40.8015 68.4154 40.6197 68.4154H37.421C37.2392 68.4154 37.0649 68.4874 36.9363 68.6156C36.8078 68.7438 36.7356 68.9177 36.7356 69.099V73.2351L31.6216 69.0392C31.1309 68.6364 30.5151 68.4162 29.8795 68.4162C29.2439 68.4162 28.6281 68.6364 28.1374 69.0392L13.6787 80.9144C13.6093 80.9716 13.5519 81.0419 13.5097 81.1212C13.4675 81.2006 13.4415 81.2874 13.433 81.3768C13.4245 81.4663 13.4338 81.5564 13.4602 81.6423C13.4867 81.7281 13.5299 81.8079 13.5873 81.8771L15.0438 83.643C15.1011 83.7124 15.1715 83.7699 15.2511 83.8121C15.3306 83.8544 15.4178 83.8805 15.5075 83.8892C15.5972 83.8978 15.6877 83.8887 15.7739 83.8624C15.8601 83.8361 15.9402 83.793 16.0097 83.7358L29.4454 72.6996C29.5692 72.6001 29.7234 72.5459 29.8824 72.5459C30.0413 72.5459 30.1955 72.6001 30.3193 72.6996L43.7555 83.7358C43.8249 83.7931 43.9049 83.8361 43.991 83.8625C44.0771 83.8889 44.1675 83.8982 44.2571 83.8897C44.3468 83.8812 44.4339 83.8552 44.5135 83.8132C44.593 83.7711 44.6635 83.7139 44.7209 83.6447L46.1774 81.8788C46.2348 81.8092 46.2778 81.729 46.3039 81.6428C46.3301 81.5566 46.3389 81.4661 46.3299 81.3765C46.3209 81.2868 46.2942 81.1999 46.2513 81.1206C46.2085 81.0413 46.1504 80.9712 46.0803 80.9144Z"
              fill="white" fill-opacity="0.7"/>
    </g>
    <g filter="url(#filter2_f)">
        <path d="M249.797 68.4154C242.749 68.4154 237.039 74.1258 237.039 81.1739C237.039 88.2219 242.749 93.9323 249.797 93.9323C256.845 93.9323 262.556 88.2219 262.556 81.1739C262.556 74.1258 256.845 68.4154 249.797 68.4154ZM249.797 73.3542C252.297 73.3542 254.324 75.3811 254.324 77.8814C254.324 80.3816 252.297 82.4085 249.797 82.4085C247.297 82.4085 245.27 80.3816 245.27 77.8814C245.27 75.3811 247.297 73.3542 249.797 73.3542ZM249.797 91.0514C246.777 91.0514 244.071 89.6829 242.26 87.5428C243.228 85.7216 245.121 84.4664 247.328 84.4664C247.451 84.4664 247.575 84.4869 247.693 84.523C248.362 84.739 249.061 84.8779 249.797 84.8779C250.533 84.8779 251.238 84.739 251.901 84.523C252.02 84.4869 252.143 84.4664 252.267 84.4664C254.474 84.4664 256.367 85.7216 257.334 87.5428C255.523 89.6829 252.817 91.0514 249.797 91.0514Z"
              fill="white" fill-opacity="0.7"/>
    </g>
    <path d="M152.555 68.4184C149.488 68.5909 143.393 69.2187 139.63 71.5013C139.371 71.6588 139.224 71.9389 139.224 72.2317V92.4113C139.224 93.0519 139.93 93.4567 140.526 93.1594C144.398 91.2284 149.996 90.7015 152.765 90.5573C153.71 90.508 154.444 89.7571 154.444 88.857V70.121C154.445 69.1388 153.585 68.3607 152.555 68.4184ZM137.027 71.5013C133.264 69.2187 127.169 68.5914 124.103 68.4184C123.072 68.3607 122.213 69.1388 122.213 70.121V88.8575C122.213 89.7582 122.947 90.5091 123.892 90.5579C126.662 90.7021 132.263 91.2295 136.135 93.1617C136.729 93.4584 137.433 93.0541 137.433 92.4152V72.2217C137.433 71.9284 137.287 71.6594 137.027 71.5013Z"
          fill="white"/>
    <g filter="url(#filter3_f)">
        <path d="M207.842 79.2076C208.07 78.6142 208.198 77.9654 208.198 77.2888C208.198 74.3495 205.807 71.9647 202.859 71.9647C201.764 71.9647 200.741 72.2975 199.896 72.8632C198.355 70.2012 195.48 68.4154 192.183 68.4154C187.267 68.4154 183.285 72.3862 183.285 77.2888C183.285 77.4385 183.291 77.5882 183.296 77.738C180.182 78.8305 177.947 81.792 177.947 85.2748C177.947 89.6837 181.534 93.2608 185.955 93.2608H206.418C210.35 93.2608 213.536 90.083 213.536 86.1621C213.536 82.7292 211.09 79.862 207.842 79.2076ZM200.452 84.1268L194.59 89.9721C194.246 90.316 193.679 90.316 193.334 89.9721L187.473 84.1268C186.911 83.5667 187.311 82.6128 188.101 82.6128H191.738V76.4014C191.738 75.9134 192.138 75.5141 192.628 75.5141H195.297C195.786 75.5141 196.186 75.9134 196.186 76.4014V82.6128H199.823C200.613 82.6128 201.013 83.5667 200.452 84.1268Z"
              fill="#BBCDD6"/>
    </g>
    <defs>
        <filter id="filter0_f" x="65.8357" y="64.4154" width="36.8744" height="33.5169" filterUnits="userSpaceOnUse"
                color-interpolation-filters="sRGB">
            <feFlood flood-opacity="0" result="BackgroundImageFix"/>
            <feBlend mode="normal" in="SourceGraphic" in2="BackgroundImageFix" result="shape"/>
            <feGaussianBlur stdDeviation="2" result="effect1_foregroundBlur"/>
        </filter>
        <filter id="filter1_f" x="9.42993" y="64.4154" width="40.9034" height="33.5169" filterUnits="userSpaceOnUse"
                color-interpolation-filters="sRGB">
            <feFlood flood-opacity="0" result="BackgroundImageFix"/>
            <feBlend mode="normal" in="SourceGraphic" in2="BackgroundImageFix" result="shape"/>
            <feGaussianBlur stdDeviation="2" result="effect1_foregroundBlur"/>
        </filter>
        <filter id="filter2_f" x="233.039" y="64.4154" width="33.5169" height="33.5169" filterUnits="userSpaceOnUse"
                color-interpolation-filters="sRGB">
            <feFlood flood-opacity="0" result="BackgroundImageFix"/>
            <feBlend mode="normal" in="SourceGraphic" in2="BackgroundImageFix" result="shape"/>
            <feGaussianBlur stdDeviation="2" result="effect1_foregroundBlur"/>
        </filter>
        <filter id="filter3_f" x="173.947" y="64.4154" width="43.5894" height="32.8454" filterUnits="userSpaceOnUse"
                color-interpolation-filters="sRGB">
            <feFlood flood-opacity="0" result="BackgroundImageFix"/>
            <feBlend mode="normal" in="SourceGraphic" in2="BackgroundImageFix" result="shape"/>
            <feGaussianBlur stdDeviation="2" result="effect1_foregroundBlur"/>
        </filter>
    </defs>
</svg>
