<svg width="324" height="76" viewBox="0 0 324 76" fill="none" xmlns="http://www.w3.org/2000/svg">
    <g opacity="0.25" filter="url(#filter0_di)">
        <rect x="252" y="3" width="62" height="62" rx="18" fill="white"/>
    </g>
    <g opacity="0.25" filter="url(#filter1_d)">
        <rect x="4" y="3" width="223" height="62" rx="15" fill="#52FF00"/>
    </g>
    <path d="M50.0542 24.9375H52.3159V37.0195C52.3159 38.6523 51.8237 39.9297 50.8394 40.8516C49.8628 41.7734 48.5581 42.2344 46.9253 42.2344C45.23 42.2344 43.9097 41.8008 42.9644 40.9336C42.019 40.0664 41.5464 38.8516 41.5464 37.2891H43.7964C43.7964 38.2656 44.062 39.0273 44.5933 39.5742C45.1323 40.1211 45.9097 40.3945 46.9253 40.3945C47.855 40.3945 48.605 40.1016 49.1753 39.5156C49.7534 38.9297 50.0464 38.1094 50.0542 37.0547V24.9375ZM63.6362 42C63.5112 41.75 63.4097 41.3047 63.3315 40.6641C62.3237 41.7109 61.1206 42.2344 59.7222 42.2344C58.4722 42.2344 57.4448 41.8828 56.6401 41.1797C55.8433 40.4688 55.4448 39.5703 55.4448 38.4844C55.4448 37.1641 55.9448 36.1406 56.9448 35.4141C57.9526 34.6797 59.3667 34.3125 61.187 34.3125H63.2964V33.3164C63.2964 32.5586 63.0698 31.957 62.6167 31.5117C62.1636 31.0586 61.4956 30.832 60.6128 30.832C59.8394 30.832 59.1909 31.0273 58.6675 31.418C58.144 31.8086 57.8823 32.2812 57.8823 32.8359H55.7026C55.7026 32.2031 55.9253 31.5938 56.3706 31.0078C56.8237 30.4141 57.4331 29.9453 58.1987 29.6016C58.9722 29.2578 59.8198 29.0859 60.7417 29.0859C62.2026 29.0859 63.3472 29.4531 64.1753 30.1875C65.0034 30.9141 65.4331 31.918 65.4644 33.1992V39.0352C65.4644 40.1992 65.6128 41.125 65.9097 41.8125V42H63.6362ZM60.0386 40.3477C60.7183 40.3477 61.3628 40.1719 61.9722 39.8203C62.5815 39.4688 63.0229 39.0117 63.2964 38.4492V35.8477H61.5972C58.9409 35.8477 57.6128 36.625 57.6128 38.1797C57.6128 38.8594 57.8394 39.3906 58.2925 39.7734C58.7456 40.1562 59.3276 40.3477 60.0386 40.3477ZM76.6909 40.7461C75.8472 41.7383 74.6089 42.2344 72.9761 42.2344C71.6245 42.2344 70.5933 41.8438 69.8823 41.0625C69.1792 40.2734 68.8237 39.1094 68.8159 37.5703V29.3203H70.9839V37.5117C70.9839 39.4336 71.7651 40.3945 73.3276 40.3945C74.9839 40.3945 76.0854 39.7773 76.6323 38.543V29.3203H78.8003V42H76.7378L76.6909 40.7461ZM84.1558 29.3203L84.2261 30.9141C85.1948 29.6953 86.4604 29.0859 88.0229 29.0859C90.7026 29.0859 92.0542 30.5977 92.0776 33.6211V42H89.9097V33.6094C89.9019 32.6953 89.6909 32.0195 89.2769 31.582C88.8706 31.1445 88.2339 30.9258 87.3667 30.9258C86.6636 30.9258 86.0464 31.1133 85.5151 31.4883C84.9839 31.8633 84.5698 32.3555 84.2729 32.9648V42H82.105V29.3203H84.1558ZM94.8198 35.5547C94.8198 33.6094 95.2808 32.0469 96.2026 30.8672C97.1245 29.6797 98.3315 29.0859 99.8237 29.0859C101.308 29.0859 102.484 29.5938 103.351 30.6094V24H105.519V42H103.527L103.421 40.6406C102.554 41.7031 101.347 42.2344 99.8003 42.2344C98.3315 42.2344 97.1323 41.6328 96.2026 40.4297C95.2808 39.2266 94.8198 37.6562 94.8198 35.7188V35.5547ZM96.9878 35.8008C96.9878 37.2383 97.2847 38.3633 97.8784 39.1758C98.4722 39.9883 99.2925 40.3945 100.339 40.3945C101.714 40.3945 102.718 39.7773 103.351 38.543V32.7188C102.703 31.5234 101.707 30.9258 100.363 30.9258C99.3003 30.9258 98.4722 31.3359 97.8784 32.1562C97.2847 32.9766 96.9878 34.1914 96.9878 35.8008ZM114.156 42.2344C112.437 42.2344 111.039 41.6719 109.96 40.5469C108.882 39.4141 108.343 37.9023 108.343 36.0117V35.6133C108.343 34.3555 108.582 33.2344 109.058 32.25C109.542 31.2578 110.214 30.4844 111.074 29.9297C111.941 29.3672 112.878 29.0859 113.886 29.0859C115.535 29.0859 116.816 29.6289 117.73 30.7148C118.644 31.8008 119.101 33.3555 119.101 35.3789V36.2812H110.511C110.542 37.5312 110.906 38.543 111.601 39.3164C112.304 40.082 113.195 40.4648 114.273 40.4648C115.039 40.4648 115.687 40.3086 116.218 39.9961C116.75 39.6836 117.214 39.2695 117.613 38.7539L118.937 39.7852C117.875 41.418 116.281 42.2344 114.156 42.2344ZM113.886 30.8672C113.011 30.8672 112.277 31.1875 111.683 31.8281C111.089 32.4609 110.722 33.3516 110.582 34.5H116.933V34.3359C116.871 33.2344 116.574 32.3828 116.042 31.7812C115.511 31.1719 114.792 30.8672 113.886 30.8672Z"
          fill="white"/>
    <path d="M27.1229 37.5469H19.9744L18.369 42H16.0487L22.5643 24.9375H24.533L31.0604 42H28.7518L27.1229 37.5469ZM20.6541 35.6953H26.4549L23.5487 27.7148L20.6541 35.6953Z"
          fill="white"/>
    <path d="M294 35.5C294 29.151 288.849 24 282.5 24C276.151 24 271 29.151 271 35.5C271 41.849 276.151 47 282.5 47C288.849 47 294 41.849 294 35.5Z"
          stroke="white" stroke-width="2" stroke-miterlimit="10"/>
    <path d="M288.25 30.708L280.2 40.2913L276.75 36.458" stroke="white" stroke-width="2" stroke-linecap="round"
          stroke-linejoin="round"/>
    <defs>
        <filter id="filter0_di" x="248" y="0" width="76" height="76" filterUnits="userSpaceOnUse"
                color-interpolation-filters="sRGB">
            <feFlood flood-opacity="0" result="BackgroundImageFix"/>
            <feColorMatrix in="SourceAlpha" type="matrix" values="0 0 0 0 0 0 0 0 0 0 0 0 0 0 0 0 0 0 127 0"/>
            <feMorphology radius="3" operator="dilate" in="SourceAlpha" result="effect1_dropShadow"/>
            <feOffset dx="3" dy="4"/>
            <feGaussianBlur stdDeviation="2"/>
            <feColorMatrix type="matrix" values="0 0 0 0 0 0 0 0 0 0 0 0 0 0 0 0 0 0 0.25 0"/>
            <feBlend mode="normal" in2="BackgroundImageFix" result="effect1_dropShadow"/>
            <feBlend mode="normal" in="SourceGraphic" in2="effect1_dropShadow" result="shape"/>
            <feColorMatrix in="SourceAlpha" type="matrix" values="0 0 0 0 0 0 0 0 0 0 0 0 0 0 0 0 0 0 127 0"
                           result="hardAlpha"/>
            <feOffset dy="4"/>
            <feGaussianBlur stdDeviation="2"/>
            <feComposite in2="hardAlpha" operator="arithmetic" k2="-1" k3="1"/>
            <feColorMatrix type="matrix" values="0 0 0 0 0 0 0 0 0 0 0 0 0 0 0 0 0 0 1 0"/>
            <feBlend mode="normal" in2="shape" result="effect2_innerShadow"/>
        </filter>
        <filter id="filter1_d" x="0" y="3" width="231" height="70" filterUnits="userSpaceOnUse"
                color-interpolation-filters="sRGB">
            <feFlood flood-opacity="0" result="BackgroundImageFix"/>
            <feColorMatrix in="SourceAlpha" type="matrix" values="0 0 0 0 0 0 0 0 0 0 0 0 0 0 0 0 0 0 127 0"/>
            <feOffset dy="4"/>
            <feGaussianBlur stdDeviation="2"/>
            <feColorMatrix type="matrix" values="0 0 0 0 0 0 0 0 0 0 0 0 0 0 0 0 0 0 0.25 0"/>
            <feBlend mode="normal" in2="BackgroundImageFix" result="effect1_dropShadow"/>
            <feBlend mode="normal" in="SourceGraphic" in2="effect1_dropShadow" result="shape"/>
        </filter>
    </defs>
</svg>
