<svg id="light" enable-background="new 0 0 24 24" height="512" viewBox="0 0 24 24" width="512"
     xmlns="http://www.w3.org/2000/svg">
    <path d="m18.5 24h-18c-.176 0-.34-.093-.43-.245-.09-.152-.093-.34-.009-.495l9-16.5c.175-.321.703-.321.878 0l9 16.5c.084.155.081.343-.009.495s-.254.245-.43.245zm-17.158-1h16.315l-8.157-14.956z"/>
    <path d="m23.5 24h-5c-.276 0-.5-.224-.5-.5s.224-.5.5-.5h4.154l-4.625-8.41-1.906 3.944c-.12.248-.417.353-.668.232-.249-.12-.353-.419-.232-.668l2.328-4.816c.082-.168.25-.277.437-.282.188.009.361.095.451.259l5.5 10c.085.155.083.343-.008.495-.091.153-.254.246-.431.246z"/>
    <path d="m9.5 7.5c-.276 0-.5-.224-.5-.5v-6.5c0-.276.224-.5.5-.5h6c.202 0 .385.122.462.309.078.187.035.402-.108.545l-1.647 1.646 1.646 1.646c.143.143.186.358.108.545-.076.187-.259.309-.461.309h-5.5v2c0 .276-.224.5-.5.5zm.5-3.5h4.293l-1.146-1.146c-.195-.195-.195-.512 0-.707l1.146-1.147h-4.293z"/>
    <path d="m11 15c-.012 0-.023 0-.036-.001-.145-.01-.277-.083-.364-.199l-1.1-1.466-1.1 1.466c-.087.116-.22.188-.364.199-.151.012-.287-.042-.389-.145l-1.68-1.68c-.195-.195-.195-.512 0-.707s.512-.195.707 0l1.272 1.272 1.154-1.539c.188-.252.611-.252.8 0l1.154 1.539 1.272-1.272c.195-.195.512-.195.707 0s.195.512 0 .707l-1.68 1.68c-.094.094-.221.146-.353.146z"/>
</svg>
