<?xml version="1.0" encoding="UTF-8" standalone="no"?>
<svg
        xmlns:dc="http://purl.org/dc/elements/1.1/"
        xmlns:cc="http://creativecommons.org/ns#"
        xmlns:rdf="http://www.w3.org/1999/02/22-rdf-syntax-ns#"
        xmlns:svg="http://www.w3.org/2000/svg"
        xmlns="http://www.w3.org/2000/svg"
        xmlns:sodipodi="http://sodipodi.sourceforge.net/DTD/sodipodi-0.dtd"
        xmlns:inkscape="http://www.inkscape.org/namespaces/inkscape"
        inkscape:version="1.0 (4035a4fb49, 2020-05-01)"
        sodipodi:docname="navbarachiev_with_arrow.svg"
        id="svg54"
        version="1.1"
        fill="none"
        viewBox="0 0 278 105"
        height="105"
        width="278">
    <metadata
            id="metadata58">
        <rdf:RDF>
            <cc:Work
                    rdf:about="">
                <dc:format>image/svg+xml</dc:format>
                <dc:type
                        rdf:resource="http://purl.org/dc/dcmitype/StillImage"/>
            </cc:Work>
        </rdf:RDF>
    </metadata>
    <sodipodi:namedview
            inkscape:current-layer="svg54"
            inkscape:window-maximized="1"
            inkscape:window-y="-9"
            inkscape:window-x="2391"
            inkscape:cy="52.5"
            inkscape:cx="139"
            inkscape:zoom="3.9856115"
            showgrid="false"
            id="namedview56"
            inkscape:window-height="1271"
            inkscape:window-width="2400"
            inkscape:pageshadow="2"
            inkscape:pageopacity="0"
            guidetolerance="10"
            gridtolerance="10"
            objecttolerance="10"
            borderopacity="1"
            bordercolor="#666666"
            pagecolor="#ffffff"/>
    <path
            style="fill:#ffffff"
            id="path2"
            fill="#ffffff"
            d="m 83.917,34.7865 c 0.321,0.2847 0.843,0.2847 1.165,0 l 15.653,-13.8539 c 1.687,-1.4928 1.687,-3.9132 0,-5.406 -1.687,-1.4928 -4.421,-1.4928 -6.108,0 l -6.008,5.317 V 3.64575 C 88.619,1.63226 86.775,1.2517e-6 84.5,1.2517e-6 82.225,1.2517e-6 80.381,1.63226 80.381,3.64575 V 20.8436 l -6.008,-5.3169 c -1.687,-1.4928 -4.421,-1.4928 -6.108,0 -1.687,1.4928 -1.687,3.9131 0,5.4059 z"/>
    <rect
            id="rect4"
            fill="#1B5777"
            height="47.6763"
            width="278"
            y="57"/>
    <path
            id="path6"
            fill="white"
            d="M97.507 71.6051H92.2936V69.6116C92.2936 68.9488 91.7572 68.4155 91.0905 68.4155H77.4554C76.7887 68.4155 76.2523 68.9488 76.2523 69.6116V71.6051H71.0389C70.3721 71.6051 69.8358 72.1384 69.8358 72.8012V75.5922C69.8358 77.3714 70.9637 79.2004 72.9387 80.6108C74.5178 81.7421 76.4378 82.4598 78.453 82.689C80.027 85.2856 81.8668 86.3571 81.8668 86.3571V89.9454H79.4606C77.691 89.9454 76.2523 90.9771 76.2523 92.7363V93.3344C76.2523 93.6633 76.523 93.9324 76.8538 93.9324H91.6921C92.0229 93.9324 92.2936 93.6633 92.2936 93.3344V92.7363C92.2936 90.9771 90.8549 89.9454 89.0854 89.9454H86.6792V86.3571C86.6792 86.3571 88.5189 85.2856 90.0929 82.689C92.1132 82.4598 94.0331 81.7421 95.6072 80.6108C97.5772 79.2004 98.7102 77.3714 98.7102 75.5922V72.8012C98.7102 72.1384 98.1738 71.6051 97.507 71.6051ZM74.8136 78.0242C73.5904 77.1471 73.044 76.1703 73.044 75.5922V74.7948H76.2623C76.3124 76.4195 76.5531 77.8448 76.904 79.0908C76.147 78.8316 75.4402 78.4728 74.8136 78.0242ZM95.5019 75.5922C95.5019 76.3945 94.6146 77.3913 93.7323 78.0242C93.1057 78.4728 92.3939 78.8316 91.6369 79.0908C91.9878 77.8448 92.2285 76.4195 92.2786 74.7948H95.5019V75.5922Z"/>
    <g
            id="g10"
            filter="url(#filter0_f)">
        <path
                id="path8"
                fill-opacity="0.7"
                fill="white"
                d="M29.4454 75.0353L18.9143 83.6852V93.021C18.9143 93.2627 19.0105 93.4946 19.1819 93.6655C19.3533 93.8364 19.5858 93.9324 19.8282 93.9324L26.229 93.9159C26.4706 93.9147 26.7019 93.8182 26.8723 93.6474C27.0427 93.4766 27.1383 93.2454 27.1383 93.0045V87.5525C27.1383 87.3108 27.2346 87.0789 27.406 86.908C27.5774 86.7371 27.8099 86.6411 28.0522 86.6411H31.7079C31.9503 86.6411 32.1827 86.7371 32.3541 86.908C32.5255 87.0789 32.6218 87.3108 32.6218 87.5525V93.0005C32.6214 93.1204 32.6448 93.2393 32.6906 93.3502C32.7363 93.4611 32.8036 93.5619 32.8885 93.6468C32.9734 93.7318 33.0743 93.7991 33.1853 93.8451C33.2964 93.8911 33.4155 93.9148 33.5357 93.9148L39.9342 93.9324C40.1766 93.9324 40.4091 93.8364 40.5805 93.6655C40.7519 93.4946 40.8482 93.2627 40.8482 93.021V83.679L30.3193 75.0353C30.1955 74.9358 30.0413 74.8815 29.8824 74.8815C29.7234 74.8815 29.5692 74.9358 29.4454 75.0353ZM46.0803 80.9145L41.3051 76.9891V69.0991C41.3051 68.9178 41.2329 68.7439 41.1044 68.6157C40.9758 68.4875 40.8015 68.4155 40.6197 68.4155H37.421C37.2392 68.4155 37.0649 68.4875 36.9363 68.6157C36.8078 68.7439 36.7356 68.9178 36.7356 69.0991V73.2352L31.6216 69.0393C31.1309 68.6365 30.5151 68.4163 29.8795 68.4163C29.2439 68.4163 28.6281 68.6365 28.1374 69.0393L13.6787 80.9145C13.6093 80.9717 13.5519 81.042 13.5097 81.1214C13.4675 81.2007 13.4415 81.2876 13.433 81.377C13.4245 81.4664 13.4338 81.5566 13.4602 81.6424C13.4867 81.7282 13.5299 81.808 13.5873 81.8772L15.0438 83.6431C15.1011 83.7125 15.1715 83.77 15.2511 83.8122C15.3306 83.8545 15.4178 83.8807 15.5075 83.8893C15.5972 83.8979 15.6877 83.8888 15.7739 83.8625C15.8601 83.8362 15.9402 83.7932 16.0097 83.7359L29.4454 72.6998C29.5692 72.6003 29.7234 72.546 29.8824 72.546C30.0413 72.546 30.1955 72.6003 30.3193 72.6998L43.7555 83.7359C43.8249 83.7932 43.9049 83.8362 43.991 83.8626C44.0771 83.889 44.1675 83.8983 44.2571 83.8898C44.3468 83.8814 44.4339 83.8554 44.5135 83.8133C44.593 83.7713 44.6635 83.714 44.7209 83.6448L46.1774 81.8789C46.2348 81.8093 46.2778 81.7291 46.3039 81.6429C46.3301 81.5567 46.3389 81.4662 46.3299 81.3766C46.3209 81.287 46.2942 81.2 46.2513 81.1207C46.2085 81.0414 46.1504 80.9713 46.0803 80.9145Z"/>
    </g>
    <g
            id="g14"
            filter="url(#filter1_f)">
        <path
                id="path12"
                fill-opacity="0.7"
                fill="white"
                d="M249.797 68.4155C242.749 68.4155 237.039 74.126 237.039 81.174C237.039 88.222 242.749 93.9324 249.797 93.9324C256.845 93.9324 262.556 88.222 262.556 81.174C262.556 74.126 256.845 68.4155 249.797 68.4155ZM249.797 73.3543C252.297 73.3543 254.324 75.3812 254.324 77.8815C254.324 80.3817 252.297 82.4087 249.797 82.4087C247.297 82.4087 245.27 80.3817 245.27 77.8815C245.27 75.3812 247.297 73.3543 249.797 73.3543ZM249.797 91.0515C246.777 91.0515 244.071 89.683 242.26 87.5429C243.228 85.7218 245.121 84.4665 247.328 84.4665C247.451 84.4665 247.575 84.4871 247.693 84.5231C248.362 84.7391 249.061 84.878 249.797 84.878C250.533 84.878 251.238 84.7391 251.901 84.5231C252.02 84.4871 252.143 84.4665 252.266 84.4665C254.473 84.4665 256.367 85.7218 257.334 87.5429C255.523 89.683 252.817 91.0515 249.797 91.0515Z"/>
    </g>
    <g
            id="g18"
            filter="url(#filter2_f)">
        <path
                id="path16"
                fill="#B4C8D2"
                d="M152.555 68.4185C149.488 68.591 143.393 69.2188 139.63 71.5015C139.371 71.659 139.224 71.939 139.224 72.2318V92.4114C139.224 93.052 139.93 93.4568 140.526 93.1596C144.398 91.2285 149.996 90.7017 152.765 90.5575C153.71 90.5081 154.444 89.7572 154.444 88.8571V70.1211C154.445 69.1389 153.585 68.3609 152.555 68.4185ZM137.027 71.5015C133.265 69.2188 127.169 68.5916 124.103 68.4185C123.072 68.3609 122.213 69.1389 122.213 70.1211V88.8577C122.213 89.7583 122.947 90.5092 123.892 90.558C126.662 90.7022 132.263 91.2296 136.135 93.1618C136.729 93.4585 137.433 93.0542 137.433 92.4153V72.2219C137.433 71.9285 137.287 71.6595 137.027 71.5015Z"/>
    </g>
    <g
            id="g22"
            filter="url(#filter3_f)">
        <path
                id="path20"
                fill="#BBCDD6"
                d="M207.842 79.2078C208.07 78.6143 208.198 77.9655 208.198 77.2889C208.198 74.3496 205.807 71.9649 202.859 71.9649C201.764 71.9649 200.741 72.2976 199.895 72.8633C198.355 70.2013 195.48 68.4155 192.183 68.4155C187.267 68.4155 183.285 72.3864 183.285 77.2889C183.285 77.4386 183.291 77.5884 183.296 77.7381C180.182 78.8306 177.947 81.7921 177.947 85.2749C177.947 89.6839 181.534 93.2609 185.954 93.2609H206.418C210.35 93.2609 213.536 90.0832 213.536 86.1623C213.536 82.7294 211.089 79.8622 207.842 79.2078ZM200.452 84.1269L194.59 89.9723C194.246 90.3161 193.678 90.3161 193.334 89.9723L187.473 84.1269C186.911 83.5668 187.311 82.6129 188.101 82.6129H191.738V76.4016C191.738 75.9135 192.138 75.5142 192.627 75.5142H195.297C195.786 75.5142 196.186 75.9135 196.186 76.4016V82.6129H199.823C200.613 82.6129 201.013 83.5668 200.452 84.1269V84.1269Z"/>
    </g>
    <defs
            id="defs52">
        <filter
                color-interpolation-filters="sRGB"
                filterUnits="userSpaceOnUse"
                height="33.5169"
                width="40.9034"
                y="64.4155"
                x="9.42993"
                id="filter0_f">
            <feFlood
                    id="feFlood24"
                    result="BackgroundImageFix"
                    flood-opacity="0"/>
            <feBlend
                    id="feBlend26"
                    result="shape"
                    in2="BackgroundImageFix"
                    in="SourceGraphic"
                    mode="normal"/>
            <feGaussianBlur
                    id="feGaussianBlur28"
                    result="effect1_foregroundBlur"
                    stdDeviation="2"/>
        </filter>
        <filter
                color-interpolation-filters="sRGB"
                filterUnits="userSpaceOnUse"
                height="33.5169"
                width="33.5169"
                y="64.4155"
                x="233.039"
                id="filter1_f">
            <feFlood
                    id="feFlood31"
                    result="BackgroundImageFix"
                    flood-opacity="0"/>
            <feBlend
                    id="feBlend33"
                    result="shape"
                    in2="BackgroundImageFix"
                    in="SourceGraphic"
                    mode="normal"/>
            <feGaussianBlur
                    id="feGaussianBlur35"
                    result="effect1_foregroundBlur"
                    stdDeviation="2"/>
        </filter>
        <filter
                color-interpolation-filters="sRGB"
                filterUnits="userSpaceOnUse"
                height="32.8454"
                width="40.2319"
                y="64.4155"
                x="118.213"
                id="filter2_f">
            <feFlood
                    id="feFlood38"
                    result="BackgroundImageFix"
                    flood-opacity="0"/>
            <feBlend
                    id="feBlend40"
                    result="shape"
                    in2="BackgroundImageFix"
                    in="SourceGraphic"
                    mode="normal"/>
            <feGaussianBlur
                    id="feGaussianBlur42"
                    result="effect1_foregroundBlur"
                    stdDeviation="2"/>
        </filter>
        <filter
                color-interpolation-filters="sRGB"
                filterUnits="userSpaceOnUse"
                height="32.8454"
                width="43.5894"
                y="64.4155"
                x="173.947"
                id="filter3_f">
            <feFlood
                    id="feFlood45"
                    result="BackgroundImageFix"
                    flood-opacity="0"/>
            <feBlend
                    id="feBlend47"
                    result="shape"
                    in2="BackgroundImageFix"
                    in="SourceGraphic"
                    mode="normal"/>
            <feGaussianBlur
                    id="feGaussianBlur49"
                    result="effect1_foregroundBlur"
                    stdDeviation="2"/>
        </filter>
    </defs>
</svg>
