<?xml version="1.0" encoding="UTF-8" standalone="no"?>
<svg
        xmlns:dc="http://purl.org/dc/elements/1.1/"
        xmlns:cc="http://creativecommons.org/ns#"
        xmlns:rdf="http://www.w3.org/1999/02/22-rdf-syntax-ns#"
        xmlns:svg="http://www.w3.org/2000/svg"
        xmlns="http://www.w3.org/2000/svg"
        xmlns:sodipodi="http://sodipodi.sourceforge.net/DTD/sodipodi-0.dtd"
        xmlns:inkscape="http://www.inkscape.org/namespaces/inkscape"
        width="278"
        height="94.928162"
        viewBox="0 0 278 94.928162"
        fill="none"
        version="1.1"
        id="svg52"
        sodipodi:docname="navbar_book_active.svg"
        inkscape:version="1.0 (4035a4fb49, 2020-05-01)">
    <metadata
            id="metadata56">
        <rdf:RDF>
            <cc:Work
                    rdf:about="">
                <dc:format>image/svg+xml</dc:format>
                <dc:type
                        rdf:resource="http://purl.org/dc/dcmitype/StillImage"/>
            </cc:Work>
        </rdf:RDF>
    </metadata>
    <sodipodi:namedview
            inkscape:document-rotation="0"
            pagecolor="#ffffff"
            bordercolor="#666666"
            borderopacity="1"
            objecttolerance="10"
            gridtolerance="10"
            guidetolerance="10"
            inkscape:pageopacity="0"
            inkscape:pageshadow="2"
            inkscape:window-width="1920"
            inkscape:window-height="1001"
            id="namedview54"
            showgrid="false"
            inkscape:zoom="1.8486246"
            inkscape:cx="138.07206"
            inkscape:cy="124.07125"
            inkscape:window-x="-9"
            inkscape:window-y="-9"
            inkscape:window-maximized="1"
            inkscape:current-layer="svg52"/>
    <rect
            width="278"
            height="47.6763"
            fill="#1b5777"
            id="rect2"
            x="0"
            y="47.251862"/>
    <g
            transform="translate(0,47.251862)"
            filter="url(#filter0_f)"
            id="g6">
        <path
                d="m 97.507,14.605 h -5.2134 v -1.9935 c 0,-0.6628 -0.5364,-1.1961 -1.2031,-1.1961 H 77.4554 c -0.6667,0 -1.2031,0.5333 -1.2031,1.1961 v 1.9935 h -5.2134 c -0.6668,0 -1.2031,0.5333 -1.2031,1.1961 v 2.7909 c 0,1.7792 1.1279,3.6083 3.1029,5.0187 1.5791,1.1313 3.4991,1.849 5.5143,2.0782 1.574,2.5966 3.4138,3.6681 3.4138,3.6681 v 3.5883 h -2.4062 c -1.7696,0 -3.2083,1.0316 -3.2083,2.7909 v 0.5981 c 0,0.3289 0.2707,0.598 0.6015,0.598 h 14.8383 c 0.3308,0 0.6015,-0.2691 0.6015,-0.598 v -0.5981 c 0,-1.7593 -1.4387,-2.7909 -3.2082,-2.7909 H 86.6792 V 29.357 c 0,0 1.8397,-1.0715 3.4137,-3.6681 2.0203,-0.2292 3.9402,-0.9469 5.5143,-2.0782 1.97,-1.4104 3.1029,-3.2395 3.1029,-5.0187 v -2.7909 c 0,-0.6628 -0.5363,-1.1961 -1.2031,-1.1961 z M 74.8136,21.0241 C 73.5904,20.147 73.044,19.1702 73.044,18.592 v -0.7974 h 3.2183 c 0.0501,1.6247 0.2908,3.0501 0.6417,4.296 -0.757,-0.2591 -1.4638,-0.6179 -2.0904,-1.0665 z M 95.5019,18.592 c 0,0.8024 -0.8873,1.7992 -1.7696,2.4321 -0.6266,0.4486 -1.3384,0.8074 -2.0954,1.0665 0.3509,-1.2459 0.5916,-2.6713 0.6417,-4.296 h 3.2233 z"
                fill="#bbcdd6"
                id="path4"/>
    </g>
    <g
            transform="translate(0,47.251862)"
            filter="url(#filter1_f)"
            id="g10">
        <path
                d="m 29.4454,18.0352 -10.5311,8.6499 v 9.3358 c 0,0.2417 0.0963,0.4735 0.2677,0.6445 0.1714,0.1709 0.4038,0.2669 0.6462,0.2669 l 6.4008,-0.0165 c 0.2416,-0.0012 0.4729,-0.0978 0.6433,-0.2686 0.1704,-0.1708 0.2661,-0.4019 0.2661,-0.6428 v -5.452 c 0,-0.2418 0.0962,-0.4736 0.2676,-0.6445 0.1714,-0.1709 0.4039,-0.2669 0.6463,-0.2669 h 3.6556 c 0.2424,0 0.4749,0.096 0.6463,0.2669 0.1713,0.1709 0.2676,0.4027 0.2676,0.6445 v 5.448 c -3e-4,0.1199 0.023,0.2387 0.0688,0.3496 0.0457,0.111 0.113,0.2118 0.1979,0.2967 0.0849,0.0849 0.1858,0.1523 0.2968,0.1983 0.1111,0.046 0.2302,0.0697 0.3504,0.0697 l 6.3986,0.0176 c 0.2424,0 0.4748,-0.096 0.6462,-0.2669 0.1714,-0.171 0.2677,-0.4028 0.2677,-0.6445 V 26.6788 L 30.3193,18.0352 c -0.1237,-0.0995 -0.2779,-0.1538 -0.4369,-0.1538 -0.159,0 -0.3132,0.0543 -0.437,0.1538 z m 16.6349,5.8792 -4.7752,-3.9254 v -7.89 c 0,-0.1813 -0.0722,-0.3552 -0.2007,-0.4834 -0.1286,-0.1282 -0.3029,-0.2002 -0.4847,-0.2002 H 37.421 c -0.1818,0 -0.3561,0.072 -0.4847,0.2002 -0.1285,0.1282 -0.2007,0.3021 -0.2007,0.4834 v 4.1361 l -5.1139,-4.1959 c -0.4908,-0.4028 -1.1066,-0.623 -1.7422,-0.623 -0.6355,0 -1.2514,0.2202 -1.7421,0.623 L 13.6787,23.9144 c -0.0694,0.0572 -0.1268,0.1275 -0.169,0.2068 -0.0421,0.0794 -0.0682,0.1662 -0.0767,0.2556 -0.0085,0.0895 8e-4,0.1796 0.0273,0.2655 0.0264,0.0858 0.0696,0.1656 0.127,0.2348 l 1.4566,1.7659 c 0.0572,0.0694 0.1276,0.1269 0.2072,0.1691 0.0796,0.0423 0.1667,0.0684 0.2564,0.0771 0.0897,0.0086 0.1803,-5e-4 0.2665,-0.0268 0.0861,-0.0263 0.1663,-0.0694 0.2358,-0.1266 L 29.4454,15.6996 c 0.1238,-0.0995 0.278,-0.1537 0.437,-0.1537 0.159,0 0.3132,0.0542 0.4369,0.1537 l 13.4363,11.0362 c 0.0694,0.0573 0.1494,0.1003 0.2354,0.1267 0.0861,0.0264 0.1765,0.0357 0.2662,0.0272 0.0896,-0.0085 0.1767,-0.0345 0.2563,-0.0765 0.0795,-0.0421 0.15,-0.0993 0.2074,-0.1685 l 1.4565,-1.7659 c 0.0574,-0.0696 0.1004,-0.1498 0.1266,-0.236 0.0261,-0.0862 0.0349,-0.1767 0.0259,-0.2663 -0.009,-0.0897 -0.0357,-0.1766 -0.0785,-0.2559 -0.0429,-0.0793 -0.101,-0.1494 -0.1711,-0.2062 z"
                fill="#ffffff"
                fill-opacity="0.7"
                id="path8"/>
    </g>
    <g
            transform="translate(0,47.251862)"
            filter="url(#filter2_f)"
            id="g14">
        <path
                d="m 249.797,11.4154 c -7.048,0 -12.758,5.7104 -12.758,12.7585 0,7.048 5.71,12.7584 12.758,12.7584 7.048,0 12.759,-5.7104 12.759,-12.7584 0,-7.0481 -5.711,-12.7585 -12.759,-12.7585 z m 0,4.9388 c 2.5,0 4.527,2.0269 4.527,4.5272 0,2.5002 -2.027,4.5271 -4.527,4.5271 -2.5,0 -4.527,-2.0269 -4.527,-4.5271 0,-2.5003 2.027,-4.5272 4.527,-4.5272 z m 0,17.6972 c -3.02,0 -5.726,-1.3685 -7.537,-3.5086 0.968,-1.8212 2.861,-3.0764 5.068,-3.0764 0.123,0 0.247,0.0205 0.365,0.0566 0.669,0.216 1.368,0.3549 2.104,0.3549 0.736,0 1.441,-0.1389 2.104,-0.3549 0.119,-0.0361 0.242,-0.0566 0.365,-0.0566 2.207,0 4.101,1.2552 5.068,3.0764 -1.811,2.1401 -4.517,3.5086 -7.537,3.5086 z"
                fill="#ffffff"
                fill-opacity="0.7"
                id="path12"/>
    </g>
    <path
            d="m 152.555,58.670262 c -3.067,0.1725 -9.162,0.8003 -12.925,3.0829 -0.259,0.1575 -0.406,0.4376 -0.406,0.7304 v 20.1796 c 0,0.6406 0.706,1.0454 1.302,0.7481 3.872,-1.931 9.47,-2.4579 12.239,-2.6021 0.945,-0.0493 1.679,-0.8002 1.679,-1.7003 v -18.736 c 0.001,-0.9822 -0.859,-1.7603 -1.889,-1.7026 z m -15.528,3.0829 c -3.762,-2.2826 -9.858,-2.9099 -12.924,-3.0829 -1.031,-0.0577 -1.89,0.7204 -1.89,1.7026 v 18.7365 c 0,0.9007 0.734,1.6516 1.679,1.7004 2.77,0.1442 8.371,0.6716 12.243,2.6038 0.594,0.2967 1.298,-0.1076 1.298,-0.7465 v -20.1935 c 0,-0.2933 -0.146,-0.5623 -0.406,-0.7204 z"
            fill="#ffffff"
            id="path16"/>
    <g
            transform="translate(0,47.251862)"
            filter="url(#filter3_f)"
            id="g20">
        <path
                d="m 207.842,22.2076 c 0.228,-0.5934 0.356,-1.2422 0.356,-1.9188 0,-2.9393 -2.391,-5.3241 -5.339,-5.3241 -1.095,0 -2.118,0.3328 -2.964,0.8985 -1.54,-2.662 -4.415,-4.4478 -7.712,-4.4478 -4.916,0 -8.898,3.9708 -8.898,8.8734 0,0.1497 0.006,0.2994 0.011,0.4492 -3.114,1.0925 -5.349,4.054 -5.349,7.5368 0,4.4089 3.587,7.986 8.007,7.986 h 20.464 c 3.932,0 7.118,-3.1778 7.118,-7.0987 0,-3.4329 -2.447,-6.3001 -5.694,-6.9545 z m -7.39,4.9192 -5.862,5.8453 c -0.344,0.3439 -0.912,0.3439 -1.256,0 l -5.861,-5.8453 c -0.562,-0.5601 -0.162,-1.514 0.628,-1.514 h 3.637 v -6.2114 c 0,-0.488 0.4,-0.8873 0.889,-0.8873 h 2.67 c 0.489,0 0.889,0.3993 0.889,0.8873 v 6.2114 h 3.637 c 0.79,0 1.19,0.9539 0.629,1.514 z"
                fill="#bbcdd6"
                id="path18"/>
    </g>
    <defs
            id="defs50">
        <filter
                id="filter0_f"
                x="65.8358"
                y="7.41541"
                width="36.874401"
                height="33.516899"
                filterUnits="userSpaceOnUse"
                color-interpolation-filters="sRGB">
            <feFlood
                    flood-opacity="0"
                    result="BackgroundImageFix"
                    id="feFlood22"/>
            <feBlend
                    mode="normal"
                    in="SourceGraphic"
                    in2="BackgroundImageFix"
                    result="shape"
                    id="feBlend24"/>
            <feGaussianBlur
                    stdDeviation="2"
                    result="effect1_foregroundBlur"
                    id="feGaussianBlur26"/>
        </filter>
        <filter
                id="filter1_f"
                x="9.4299603"
                y="7.41541"
                width="40.9034"
                height="33.516899"
                filterUnits="userSpaceOnUse"
                color-interpolation-filters="sRGB">
            <feFlood
                    flood-opacity="0"
                    result="BackgroundImageFix"
                    id="feFlood29"/>
            <feBlend
                    mode="normal"
                    in="SourceGraphic"
                    in2="BackgroundImageFix"
                    result="shape"
                    id="feBlend31"/>
            <feGaussianBlur
                    stdDeviation="2"
                    result="effect1_foregroundBlur"
                    id="feGaussianBlur33"/>
        </filter>
        <filter
                id="filter2_f"
                x="233.039"
                y="7.41541"
                width="33.516899"
                height="33.516899"
                filterUnits="userSpaceOnUse"
                color-interpolation-filters="sRGB">
            <feFlood
                    flood-opacity="0"
                    result="BackgroundImageFix"
                    id="feFlood36"/>
            <feBlend
                    mode="normal"
                    in="SourceGraphic"
                    in2="BackgroundImageFix"
                    result="shape"
                    id="feBlend38"/>
            <feGaussianBlur
                    stdDeviation="2"
                    result="effect1_foregroundBlur"
                    id="feGaussianBlur40"/>
        </filter>
        <filter
                id="filter3_f"
                x="173.94701"
                y="7.41541"
                width="43.589401"
                height="32.845402"
                filterUnits="userSpaceOnUse"
                color-interpolation-filters="sRGB">
            <feFlood
                    flood-opacity="0"
                    result="BackgroundImageFix"
                    id="feFlood43"/>
            <feBlend
                    mode="normal"
                    in="SourceGraphic"
                    in2="BackgroundImageFix"
                    result="shape"
                    id="feBlend45"/>
            <feGaussianBlur
                    stdDeviation="2"
                    result="effect1_foregroundBlur"
                    id="feGaussianBlur47"/>
        </filter>
    </defs>
    <path
            id="path2"
            fill="#ffffff"
            d="m 138.43896,34.7865 c 0.3217,0.2847 0.8432,0.2847 1.165,0 l 15.6533,-13.8539 c 1.6867,-1.4928 1.6867,-3.9132 0,-5.406 -1.6867,-1.4928 -4.4215,-1.4928 -6.1082,0 l -6.0075,5.317 V 3.64575 C 143.14156,1.63226 141.29726,0 139.02226,0 c -2.275,0 -4.1193,1.63226 -4.1193,3.64575 V 20.8436 l -6.00755,-5.3169 c -1.6867,-1.4928 -4.42142,-1.4928 -6.10812,0 -1.68671,1.4928 -1.68671,3.9131 0,5.4059 z"/>
</svg>
