<svg width="278" height="48" viewBox="0 0 278 48" fill="none" xmlns="http://www.w3.org/2000/svg">
    <rect width="278" height="47.6763" fill="#1B5777"/>
    <g filter="url(#filter0_f)">
        <path d="M97.507 14.6051H92.2936V12.6116C92.2936 11.9487 91.7572 11.4155 91.0905 11.4155H77.4554C76.7887 11.4155 76.2523 11.9487 76.2523 12.6116V14.6051H71.0389C70.3721 14.6051 69.8358 15.1383 69.8358 15.8012V18.5921C69.8358 20.3713 70.9637 22.2003 72.9387 23.6108C74.5178 24.7421 76.4378 25.4597 78.453 25.689C80.027 28.2855 81.8668 29.357 81.8668 29.357V32.9454H79.4606C77.691 32.9454 76.2523 33.977 76.2523 35.7363V36.3343C76.2523 36.6632 76.523 36.9324 76.8538 36.9324H91.6921C92.0229 36.9324 92.2936 36.6632 92.2936 36.3343V35.7363C92.2936 33.977 90.8549 32.9454 89.0854 32.9454H86.6792V29.357C86.6792 29.357 88.5189 28.2855 90.0929 25.689C92.1132 25.4597 94.0331 24.7421 95.6072 23.6108C97.5772 22.2003 98.7101 20.3713 98.7101 18.5921V15.8012C98.7101 15.1383 98.1738 14.6051 97.507 14.6051ZM74.8136 21.0242C73.5904 20.147 73.044 19.1702 73.044 18.5921V17.7947H76.2623C76.3124 19.4194 76.5531 20.8448 76.904 22.0907C76.147 21.8315 75.4402 21.4727 74.8136 21.0242ZM95.5019 18.5921C95.5019 19.3945 94.6146 20.3912 93.7323 21.0242C93.1057 21.4727 92.3939 21.8315 91.6369 22.0907C91.9878 20.8448 92.2285 19.4194 92.2786 17.7947H95.5019V18.5921Z"
              fill="#BBCDD6"/>
    </g>
    <g filter="url(#filter1_f)">
        <path d="M29.4454 18.0352L18.9143 26.6852V36.021C18.9143 36.2627 19.0106 36.4945 19.182 36.6654C19.3534 36.8364 19.5858 36.9324 19.8282 36.9324L26.229 36.9159C26.4706 36.9146 26.7019 36.8181 26.8723 36.6473C27.0427 36.4765 27.1384 36.2454 27.1384 36.0044V30.5524C27.1384 30.3107 27.2346 30.0789 27.406 29.908C27.5774 29.737 27.8099 29.641 28.0523 29.641H31.7079C31.9503 29.641 32.1828 29.737 32.3542 29.908C32.5255 30.0789 32.6218 30.3107 32.6218 30.5524V36.0004C32.6215 36.1204 32.6448 36.2392 32.6906 36.3501C32.7363 36.461 32.8036 36.5618 32.8885 36.6468C32.9734 36.7317 33.0743 36.7991 33.1853 36.8451C33.2964 36.891 33.4155 36.9147 33.5357 36.9147L39.9343 36.9324C40.1767 36.9324 40.4091 36.8364 40.5805 36.6654C40.7519 36.4945 40.8482 36.2627 40.8482 36.021V26.6789L30.3193 18.0352C30.1956 17.9357 30.0414 17.8815 29.8824 17.8815C29.7234 17.8815 29.5692 17.9357 29.4454 18.0352ZM46.0803 23.9144L41.3051 19.9891V12.099C41.3051 11.9177 41.2329 11.7439 41.1044 11.6157C40.9758 11.4875 40.8015 11.4155 40.6197 11.4155H37.421C37.2392 11.4155 37.0649 11.4875 36.9363 11.6157C36.8078 11.7439 36.7356 11.9177 36.7356 12.099V16.2352L31.6217 12.0392C31.1309 11.6365 30.5151 11.4163 29.8795 11.4163C29.244 11.4163 28.6281 11.6365 28.1374 12.0392L13.6787 23.9144C13.6093 23.9717 13.5519 24.042 13.5097 24.1213C13.4676 24.2007 13.4415 24.2875 13.433 24.3769C13.4245 24.4663 13.4338 24.5565 13.4603 24.6423C13.4867 24.7282 13.5299 24.808 13.5873 24.8771L15.0439 26.643C15.1011 26.7124 15.1715 26.7699 15.2511 26.8122C15.3307 26.8544 15.4178 26.8806 15.5075 26.8892C15.5972 26.8979 15.6878 26.8888 15.774 26.8624C15.8601 26.8361 15.9403 26.7931 16.0098 26.7359L29.4454 15.6997C29.5692 15.6002 29.7234 15.5459 29.8824 15.5459C30.0414 15.5459 30.1956 15.6002 30.3193 15.6997L43.7556 26.7359C43.825 26.7931 43.905 26.8362 43.991 26.8626C44.0771 26.889 44.1675 26.8982 44.2572 26.8898C44.3468 26.8813 44.4339 26.8553 44.5135 26.8133C44.593 26.7712 44.6635 26.7139 44.7209 26.6447L46.1774 24.8788C46.2348 24.8093 46.2778 24.7291 46.304 24.6429C46.3301 24.5567 46.3389 24.4661 46.3299 24.3765C46.3209 24.2869 46.2942 24.1999 46.2514 24.1206C46.2085 24.0413 46.1504 23.9713 46.0803 23.9144Z"
              fill="white" fill-opacity="0.7"/>
    </g>
    <g filter="url(#filter2_f)">
        <path d="M249.797 11.4155C242.749 11.4155 237.039 17.1259 237.039 24.1739C237.039 31.2219 242.749 36.9324 249.797 36.9324C256.845 36.9324 262.556 31.2219 262.556 24.1739C262.556 17.1259 256.845 11.4155 249.797 11.4155ZM249.797 16.3542C252.297 16.3542 254.324 18.3812 254.324 20.8814C254.324 23.3817 252.297 25.4086 249.797 25.4086C247.297 25.4086 245.27 23.3817 245.27 20.8814C245.27 18.3812 247.297 16.3542 249.797 16.3542ZM249.797 34.0514C246.777 34.0514 244.071 32.683 242.26 30.5429C243.228 28.7217 245.121 27.4664 247.328 27.4664C247.451 27.4664 247.575 27.487 247.693 27.523C248.362 27.7391 249.061 27.878 249.797 27.878C250.533 27.878 251.238 27.7391 251.901 27.523C252.02 27.487 252.143 27.4664 252.266 27.4664C254.473 27.4664 256.367 28.7217 257.334 30.5429C255.523 32.683 252.817 34.0514 249.797 34.0514Z"
              fill="white" fill-opacity="0.7"/>
    </g>
    <g filter="url(#filter3_f)">
        <path d="M152.555 11.4185C149.488 11.591 143.393 12.2187 139.63 14.5014C139.371 14.6589 139.224 14.939 139.224 15.2318V35.4114C139.224 36.0519 139.93 36.4568 140.526 36.1595C144.398 34.2285 149.996 33.7016 152.765 33.5574C153.71 33.508 154.444 32.7571 154.444 31.8571V13.121C154.445 12.1389 153.585 11.3608 152.555 11.4185ZM137.027 14.5014C133.265 12.2187 127.169 11.5915 124.103 11.4185C123.072 11.3608 122.213 12.1389 122.213 13.121V31.8576C122.213 32.7583 122.947 33.5092 123.892 33.558C126.662 33.7022 132.263 34.2296 136.135 36.1617C136.729 36.4584 137.433 36.0541 137.433 35.4153V15.2218C137.433 14.9284 137.287 14.6595 137.027 14.5014Z"
              fill="#BBCDD6"/>
    </g>
    <path d="M207.842 22.2077C208.07 21.6143 208.198 20.9654 208.198 20.2888C208.198 17.3495 205.807 14.9648 202.859 14.9648C201.764 14.9648 200.741 15.2976 199.895 15.8632C198.355 13.2012 195.48 11.4155 192.183 11.4155C187.267 11.4155 183.285 15.3863 183.285 20.2888C183.285 20.4386 183.291 20.5883 183.296 20.738C180.182 21.8306 177.947 24.7921 177.947 28.2749C177.947 32.6838 181.534 36.2609 185.954 36.2609H206.418C210.35 36.2609 213.536 33.0831 213.536 29.1622C213.536 25.7293 211.089 22.8621 207.842 22.2077ZM200.452 27.1269L194.59 32.9722C194.246 33.316 193.678 33.316 193.334 32.9722L187.473 27.1269C186.911 26.5667 187.311 25.6128 188.101 25.6128H191.738V19.4015C191.738 18.9135 192.138 18.5142 192.627 18.5142H195.297C195.786 18.5142 196.186 18.9135 196.186 19.4015V25.6128H199.823C200.613 25.6128 201.013 26.5667 200.452 27.1269Z"
          fill="white"/>
    <defs>
        <filter id="filter0_f" x="65.8358" y="7.41547" width="36.8744" height="33.5169" filterUnits="userSpaceOnUse"
                color-interpolation-filters="sRGB">
            <feFlood flood-opacity="0" result="BackgroundImageFix"/>
            <feBlend mode="normal" in="SourceGraphic" in2="BackgroundImageFix" result="shape"/>
            <feGaussianBlur stdDeviation="2" result="effect1_foregroundBlur"/>
        </filter>
        <filter id="filter1_f" x="9.42996" y="7.41547" width="40.9034" height="33.5169" filterUnits="userSpaceOnUse"
                color-interpolation-filters="sRGB">
            <feFlood flood-opacity="0" result="BackgroundImageFix"/>
            <feBlend mode="normal" in="SourceGraphic" in2="BackgroundImageFix" result="shape"/>
            <feGaussianBlur stdDeviation="2" result="effect1_foregroundBlur"/>
        </filter>
        <filter id="filter2_f" x="233.039" y="7.41547" width="33.5169" height="33.5169" filterUnits="userSpaceOnUse"
                color-interpolation-filters="sRGB">
            <feFlood flood-opacity="0" result="BackgroundImageFix"/>
            <feBlend mode="normal" in="SourceGraphic" in2="BackgroundImageFix" result="shape"/>
            <feGaussianBlur stdDeviation="2" result="effect1_foregroundBlur"/>
        </filter>
        <filter id="filter3_f" x="118.213" y="7.41547" width="40.2319" height="32.8454" filterUnits="userSpaceOnUse"
                color-interpolation-filters="sRGB">
            <feFlood flood-opacity="0" result="BackgroundImageFix"/>
            <feBlend mode="normal" in="SourceGraphic" in2="BackgroundImageFix" result="shape"/>
            <feGaussianBlur stdDeviation="2" result="effect1_foregroundBlur"/>
        </filter>
    </defs>
</svg>
