<svg id="Layer_1" enable-background="new 0 0 512 512" height="512" viewBox="0 0 512 512" width="512"
     xmlns="http://www.w3.org/2000/svg">
    <g>
        <path d="m482.38 261.17c0 74.593-36.047 140.766-91.667 182.067l-79.725 27.681-15.553-6.52-242.365-101.554c-9.402-18.681-16.283-38.832-20.224-60.032l52.12-141.376 146.017-112.894 9.142-7.07 50.669-4.25c23.564 3.66 45.929 10.95 66.492 21.281l124.314 193.277.71 6.3.06 2.12c0 .31.01.64.01.97z"
              fill="#7ac2ed"/>
        <path d="m482.38 261.17c0 74.593-36.047 140.766-91.667 182.067l-79.725 27.681-15.553-6.52c86.826-26.761 149.928-107.634 149.928-203.228 0-117.435-95.218-212.638-212.67-212.638-.57 0-1.14 0-1.71.01l9.142-7.07 50.669-4.25c23.564 3.66 45.929 10.95 66.492 21.281l124.314 193.277.71 6.3.06 2.12c0 .31.01.64.01.97z"
              fill="#68a6dc"/>
        <path d="m290.794 37.221c-8.922 4.9-16.563 9.62-23.084 14.18-63.172 44.082-22.614 72.923-38.917 103.994-20.344 38.762-99.128 14.28-118.372 29.321-25.675 20.061 0 102.244-77.574 118.095-2.51-13.501-3.821-27.421-3.821-41.642 0-69.963 31.706-132.525 81.535-174.097 39.317-32.811 89.917-52.552 145.137-52.552 11.932.001 23.654.921 35.096 2.701z"
              fill="#d1e16f"/>
        <g fill="#d0edf5">
            <path d="m40.453 496.999h-32.856c-4.143 0-7.501 3.358-7.501 7.5s3.359 7.5 7.501 7.5h32.857c4.143 0 7.501-3.358 7.501-7.5s-3.359-7.5-7.502-7.5z"/>
            <path d="m143.472 496.999h-67.863c-4.143 0-7.501 3.358-7.501 7.5s3.359 7.5 7.501 7.5h67.863c4.143 0 7.501-3.358 7.501-7.5.001-4.142-3.358-7.5-7.501-7.5z"/>
            <path d="m27.6 479.999h62.862c4.143 0 7.501-3.358 7.501-7.5s-3.359-7.5-7.501-7.5h-62.862c-4.143 0-7.501 3.358-7.501 7.5s3.358 7.5 7.501 7.5z"/>
            <path d="m415.049 496.999h-62.862c-4.143 0-7.501 3.358-7.501 7.5s3.359 7.5 7.501 7.5h62.862c4.143 0 7.501-3.358 7.501-7.5s-3.358-7.5-7.501-7.5z"/>
            <path d="m504.499 464.998h-92.868c-4.143 0-7.501 3.358-7.501 7.5s3.359 7.5 7.501 7.5h92.868c4.143 0 7.501-3.358 7.501-7.5s-3.359-7.5-7.501-7.5z"/>
            <g>
                <path d="m408.981 7.5c0-4.142-3.359-7.5-7.501-7.5h-32.857c-4.143 0-7.501 3.358-7.501 7.5s3.359 7.5 7.501 7.5h32.857c4.142.001 7.501-3.357 7.501-7.5z"/>
                <path d="m504.499 0h-67.863c-4.143 0-7.501 3.358-7.501 7.5s3.359 7.5 7.501 7.5h67.863c4.143 0 7.501-3.358 7.501-7.5s-3.359-7.5-7.501-7.5z"/>
                <path d="m461.491 32.001h-62.862c-4.143 0-7.501 3.358-7.501 7.5s3.359 7.5 7.501 7.5h62.862c4.143 0 7.501-3.358 7.501-7.5s-3.359-7.5-7.501-7.5z"/>
            </g>
        </g>
        <path d="m296.258 321.916c-7.141 16.339-58.722 12.608-71.332 0s-16.475-64.498 0-71.321c23.3-9.65 81.431 48.214 71.332 71.321z"
              fill="#d1e16f"/>
        <path d="m390.713 443.237c-37.707 28.001-84.426 44.572-135.015 44.572-55.17 0-105.73-19.701-145.027-52.462-23.844-19.861-43.528-44.532-57.601-72.503 89.307 0 34.106-60.032 75.514-60.032 55.33 0 48.189 89.813 78.415 105.414 29.856 15.421 52.16-16.881 94.608-16.881 32.246 0 32.596 28.101 54.59 42.952 7.891 5.32 18.573 8.94 34.516 8.94z"
              fill="#d1e16f"/>
        <path d="m482.37 260.2c-.57-18.061-17.283-10.28-37.317-10.57-14.703-.21-31.196-4.78-44.408-27.091-31.096-52.522-105.43-13.541-105.43-78.403 0-36.061 47.099-6.51 59.241-57.322 1.8-7.52 2.831-16.801 2.831-28.311 73.913 37.101 124.723 113.444 125.083 201.697z"
              fill="#e6f8fc"/>
        <path d="m232.693 48.532c-45.448 0-87.576 14.261-122.133 38.542 39.317-32.811 89.917-52.552 145.137-52.552 11.932 0 23.654.92 35.096 2.7-8.922 4.9-16.563 9.62-23.084 14.18-11.391-1.89-23.083-2.87-35.016-2.87z"
              fill="#9ccc4b"/>
        <path d="m356.196 434.297c7.891 5.32 18.573 8.94 34.516 8.94-37.707 28.001-84.426 44.572-135.015 44.572-55.17 0-105.73-19.701-145.027-52.462 34.536 24.241 76.614 38.461 122.023 38.461 46.049.001 88.687-14.64 123.503-39.511z"
              fill="#9ccc4b"/>
        <path d="m482.37 260.2c-.57-18.061-17.283-10.28-37.317-10.57-3.601-67.383-38.587-126.435-90.597-162.816 1.8-7.52 2.831-16.801 2.831-28.311 73.913 37.101 124.723 113.444 125.083 201.697z"
              fill="#d0edf5"/>
        <g>
            <path d="m192.666 79.013c0 13.851-11.242 25.091-25.095 25.091h-133.365c-18.893 0-34.206-15.32-34.206-34.211 0-18.881 15.313-34.201 34.206-34.201 7.871 0 15.123 2.66 20.904 7.13 4.361-24.341 25.645-42.822 51.24-42.822 11.652 0 22.424 3.83 31.106 10.3 12.712 9.49 20.954 24.661 20.954 41.752 0 1.22-.04 2.44-.12 3.64 2.871-1.14 6.001-1.77 9.282-1.77 13.852 0 25.094 11.231 25.094 25.091z"
                  fill="#e6f8fc"/>
            <path d="m192.666 79.013c0 13.851-11.242 25.091-25.095 25.091h-133.365c-18.893 0-34.206-15.32-34.206-34.211 0 9.39 11.612 17.851 20.994 17.851h74.204c27.675-.27 50.019-22.791 50.019-50.522 0-9.9-2.84-19.131-7.761-26.921 12.712 9.49 20.954 24.661 20.954 41.752 0 1.22-.04 2.44-.12 3.64 2.871-1.14 6.001-1.77 9.282-1.77 13.852-.001 25.094 11.23 25.094 25.09z"
                  fill="#d0edf5"/>
        </g>
        <g>
            <path d="m512 370.358c0 10.588-8.594 19.18-19.183 19.18h-101.949c-14.443 0-26.148-11.712-26.148-26.152 0-14.433 11.706-26.145 26.148-26.145 6.017 0 11.56 2.034 15.98 5.451 3.334-18.607 19.604-32.734 39.169-32.734 8.907 0 17.142 2.928 23.778 7.874 9.718 7.255 16.018 18.852 16.018 31.916 0 .933-.031 1.865-.092 2.783 2.194-.871 4.587-1.353 7.095-1.353 10.59 0 19.184 8.585 19.184 19.18z"
                  fill="#e6f8fc"/>
            <path d="m512 370.358c0 10.588-8.594 19.18-19.183 19.18h-101.949c-14.443 0-26.148-11.712-26.148-26.152 0 7.178 8.877 13.646 16.048 13.646h56.724c21.156-.206 38.236-17.422 38.236-38.621 0-7.568-2.171-14.624-5.933-20.579 9.718 7.255 16.018 18.852 16.018 31.916 0 .933-.031 1.865-.092 2.783 2.194-.871 4.587-1.353 7.095-1.353 10.59 0 19.184 8.585 19.184 19.18z"
                  fill="#d0edf5"/>
        </g>
    </g>
</svg>
