<?xml version="1.0" encoding="UTF-8" standalone="no"?>
<svg
        xmlns:dc="http://purl.org/dc/elements/1.1/"
        xmlns:cc="http://creativecommons.org/ns#"
        xmlns:rdf="http://www.w3.org/1999/02/22-rdf-syntax-ns#"
        xmlns:svg="http://www.w3.org/2000/svg"
        xmlns="http://www.w3.org/2000/svg"
        xmlns:sodipodi="http://sodipodi.sourceforge.net/DTD/sodipodi-0.dtd"
        xmlns:inkscape="http://www.inkscape.org/namespaces/inkscape"
        width="306"
        height="177.77542"
        viewBox="0 0 306 177.77542"
        fill="none"
        version="1.1"
        id="svg69"
        sodipodi:docname="play_lesson_overview_with_arrow.svg"
        inkscape:version="1.0 (4035a4fb49, 2020-05-01)">
    <metadata
            id="metadata73">
        <rdf:RDF>
            <cc:Work
                    rdf:about="">
                <dc:format>image/svg+xml</dc:format>
                <dc:type
                        rdf:resource="http://purl.org/dc/dcmitype/StillImage"/>
            </cc:Work>
        </rdf:RDF>
    </metadata>
    <sodipodi:namedview
            inkscape:document-rotation="0"
            pagecolor="#ffffff"
            bordercolor="#666666"
            borderopacity="1"
            objecttolerance="10"
            gridtolerance="10"
            guidetolerance="10"
            inkscape:pageopacity="0"
            inkscape:pageshadow="2"
            inkscape:window-width="1920"
            inkscape:window-height="1001"
            id="namedview71"
            showgrid="false"
            inkscape:zoom="3.5512821"
            inkscape:cx="156"
            inkscape:cy="68.844765"
            inkscape:window-x="-9"
            inkscape:window-y="-9"
            inkscape:window-maximized="1"
            inkscape:current-layer="svg69"/>
    <path
            d="m 262.04335,34.7865 c 0.321,0.2847 0.843,0.2847 1.165,0 l 15.653,-13.8539 c 1.687,-1.4928 1.687,-3.9132 0,-5.406 -1.687,-1.4928 -4.421,-1.4928 -6.108,0 l -6.008,5.317 V 3.64575 c 0,-2.01349 -1.844,-3.64575 -4.119,-3.64575 -2.275,0 -4.119,1.63226 -4.119,3.64575 V 20.8436 l -6.008,-5.3169 c -1.687,-1.4928 -4.421,-1.4928 -6.108,0 -1.687,1.4928 -1.687,3.9131 0,5.4059 z"
            fill="#ffffff"
            id="path2"/>
    <g
            filter="url(#filter0_f)"
            id="g20"
            transform="translate(0,-2.815885)">
        <g
                filter="url(#filter1_d)"
                id="g6">
            <rect
                    x="4"
                    y="75.947304"
                    width="298"
                    height="100.644"
                    rx="18"
                    fill="#c29157"
                    id="rect4"/>
        </g>
        <rect
                x="12.6491"
                y="115.261"
                width="279.91599"
                height="50.321899"
                rx="18"
                fill="#ffffff"
                id="rect8"/>
        <path
                d="m 28.6827,98.4551 c -0.1217,1.6829 -0.7448,3.0079 -1.8691,3.9749 -1.1172,0.966 -2.5925,1.45 -4.4258,1.45 -2.0052,0 -3.5843,-0.673 -4.7373,-2.02 -1.1459,-1.353 -1.7188,-3.208 -1.7188,-5.5641 v -0.9561 c 0,-1.5039 0.265,-2.8287 0.795,-3.9746 0.5299,-1.1458 1.2854,-2.0231 2.2666,-2.6318 0.9882,-0.6159 2.1341,-0.9238 3.4375,-0.9238 1.8046,0 3.2584,0.4834 4.3613,1.4502 1.1028,0.9668 1.7402,2.3239 1.9121,4.0713 h -3.2227 c -0.0787,-1.0098 -0.3616,-1.7403 -0.8486,-2.1915 -0.4798,-0.4583 -1.2139,-0.6875 -2.2021,-0.6875 -1.0743,0 -1.8799,0.3868 -2.417,1.1602 -0.53,0.7663 -0.8021,1.9587 -0.8164,3.5772 v 1.1816 c 0,1.6901 0.2542,2.9254 0.7627,3.7059 0.5156,0.781 1.3248,1.171 2.4277,1.171 0.9954,0 1.7366,-0.226 2.2236,-0.677 0.4942,-0.458 0.777,-1.1634 0.8487,-2.1159 z m 8.6475,5.2099 c -0.1433,-0.279 -0.2471,-0.627 -0.3116,-1.042 -0.7519,0.838 -1.7294,1.257 -2.9326,1.257 -1.1386,0 -2.084,-0.33 -2.8359,-0.988 -0.7448,-0.659 -1.1172,-1.49 -1.1172,-2.493 0,-1.2314 0.4548,-2.1767 1.3643,-2.8355 0.9166,-0.6589 2.2379,-0.9919 3.9638,-0.999 h 1.4287 v -0.6661 c 0,-0.5371 -0.1396,-0.9668 -0.4189,-1.289 -0.2721,-0.3223 -0.7054,-0.4834 -1.2998,-0.4834 -0.5228,0 -0.9346,0.1253 -1.2354,0.376 -0.2936,0.2506 -0.4404,0.5944 -0.4404,1.0312 h -3.1045 c 0,-0.6732 0.2077,-1.2962 0.6231,-1.8691 0.4153,-0.573 1.0026,-1.0205 1.7617,-1.3428 0.7591,-0.3294 1.6113,-0.4942 2.5566,-0.4942 1.4323,0 2.5674,0.3617 3.4053,1.085 0.845,0.7162 1.2676,1.7259 1.2676,3.0293 v 5.0376 c 0.0071,1.103 0.1611,1.938 0.4619,2.503 v 0.183 z m -2.5674,-2.159 c 0.4583,0 0.8808,-0.1 1.2676,-0.301 0.3867,-0.208 0.6731,-0.483 0.8593,-0.827 v -1.9981 h -1.1601 c -1.5541,0 -2.3812,0.5371 -2.4815,1.6113 l -0.0107,0.1828 c 0,0.387 0.1361,0.705 0.4082,0.956 0.2721,0.251 0.6445,0.376 1.1172,0.376 z m 18.0898,-3.5451 c 0,1.7904 -0.4082,3.2261 -1.2246,4.3081 -0.8092,1.074 -1.9049,1.611 -3.2871,1.611 -1.1745,0 -2.1234,-0.408 -2.8467,-1.225 v 5.479 H 42.3897 V 92.042 h 2.8789 l 0.1075,1.1387 c 0.7519,-0.9024 1.733,-1.3536 2.9433,-1.3536 1.4323,0 2.5459,0.53 3.3408,1.5899 0.795,1.0599 1.1924,2.5208 1.1924,4.3828 z m -3.1045,-0.2255 c 0,-1.0814 -0.1933,-1.9157 -0.58,-2.503 -0.3796,-0.5872 -0.9346,-0.8808 -1.6651,-0.8808 -0.9739,0 -1.6435,0.3724 -2.0088,1.1172 v 4.7592 c 0.3796,0.766 1.0563,1.149 2.0303,1.149 1.4824,0 2.2236,-1.214 2.2236,-3.6416 z m 8.3145,5.9296 H 54.9474 V 92.042 h 3.1152 z M 54.7647,89.0342 c 0,-0.4655 0.154,-0.8487 0.462,-1.1494 0.3151,-0.3008 0.7412,-0.4512 1.2783,-0.4512 0.5299,0 0.9524,0.1504 1.2676,0.4512 0.3151,0.3007 0.4726,0.6839 0.4726,1.1494 0,0.4726 -0.1611,0.8594 -0.4834,1.1601 -0.3151,0.3008 -0.734,0.4512 -1.2568,0.4512 -0.5228,0 -0.9453,-0.1504 -1.2676,-0.4512 -0.3151,-0.3007 -0.4727,-0.6875 -0.4727,-1.1601 z m 9.5821,0.1504 v 2.8574 h 1.9873 v 2.2773 h -1.9873 v 5.8007 c 0,0.43 0.0823,0.738 0.247,0.924 0.1648,0.186 0.4799,0.279 0.9454,0.279 0.3437,0 0.6481,-0.025 0.913,-0.075 v 2.353 c -0.6087,0.186 -1.2353,0.279 -1.8798,0.279 -2.1771,0 -3.2872,-1.099 -3.3301,-3.298 V 94.3193 H 59.545 V 92.042 h 1.6973 v -2.8574 z m 2.9111,8.5615 c 0,-1.153 0.222,-2.1807 0.666,-3.083 0.444,-0.9024 1.0814,-1.6006 1.9121,-2.0947 0.8379,-0.4942 1.8083,-0.7413 2.9112,-0.7413 1.5683,0 2.8466,0.4799 3.8349,1.4395 0.9955,0.9596 1.5505,2.263 1.6651,3.9102 l 0.0214,0.7949 c 0,1.7832 -0.4977,3.2153 -1.4931,4.2973 -0.9955,1.074 -2.3311,1.611 -4.0069,1.611 -1.6757,0 -3.0149,-0.537 -4.0175,-1.611 -0.9955,-1.075 -1.4932,-2.5356 -1.4932,-4.3833 z m 3.1045,0.2256 c 0,1.1028 0.2077,1.9479 0.623,2.5353 0.4154,0.58 1.0098,0.87 1.7832,0.87 0.752,0 1.3392,-0.287 1.7618,-0.859 0.4225,-0.5805 0.6338,-1.5043 0.6338,-2.7719 0,-1.0814 -0.2113,-1.9193 -0.6338,-2.5137 -0.4226,-0.5944 -1.017,-0.8916 -1.7832,-0.8916 -0.7592,0 -1.3464,0.2972 -1.7618,0.8916 -0.4153,0.5873 -0.623,1.5003 -0.623,2.7393 z m 13.0947,5.6933 h -3.1152 v -16.5 h 3.1152 z m 8.8623,-3.212 c 0,-0.379 -0.1898,-0.6766 -0.5693,-0.8915 -0.3724,-0.222 -0.974,-0.4189 -1.8047,-0.5908 -2.7643,-0.5801 -4.1465,-1.7546 -4.1465,-3.5234 0,-1.0313 0.4261,-1.8907 1.2783,-2.5782 0.8594,-0.6946 1.9802,-1.042 3.3623,-1.042 1.4753,0 2.6534,0.3474 3.5342,1.042 0.888,0.6947 1.3321,1.597 1.3321,2.7071 h -3.1045 c 0,-0.444 -0.1433,-0.8093 -0.4297,-1.0957 -0.2865,-0.2937 -0.7341,-0.4405 -1.3428,-0.4405 -0.5228,0 -0.9274,0.1182 -1.2139,0.3545 -0.2864,0.2364 -0.4297,0.5371 -0.4297,0.9024 0,0.3437 0.1612,0.623 0.4834,0.8379 0.3295,0.2076 0.8809,0.3903 1.6543,0.5478 0.7735,0.1504 1.4252,0.3223 1.9551,0.5156 1.64,0.6016 2.46,1.6436 2.46,3.1258 0,1.06 -0.4548,1.919 -1.3643,2.578 -0.9095,0.652 -2.084,0.978 -3.5234,0.978 -0.974,0 -1.8405,-0.172 -2.5996,-0.516 -0.752,-0.351 -1.3428,-0.827 -1.7725,-1.428 -0.4297,-0.609 -0.6445,-1.264 -0.6445,-1.9663 h 2.9433 c 0.0287,0.5513 0.2328,0.9743 0.6123,1.2673 0.3796,0.294 0.8881,0.441 1.5254,0.441 0.5944,0 1.042,-0.111 1.3428,-0.333 0.308,-0.229 0.4619,-0.527 0.4619,-0.892 z m 10.0226,-2.7069 c 0,-1.153 0.222,-2.1807 0.666,-3.083 0.444,-0.9024 1.081,-1.6006 1.912,-2.0947 0.838,-0.4942 1.808,-0.7413 2.911,-0.7413 1.569,0 2.847,0.4799 3.835,1.4395 0.996,0.9596 1.551,2.263 1.665,3.9102 l 0.022,0.7949 c 0,1.7832 -0.498,3.2153 -1.494,4.2973 -0.995,1.074 -2.331,1.611 -4.006,1.611 -1.676,0 -3.015,-0.537 -4.018,-1.611 -0.995,-1.075 -1.493,-2.5356 -1.493,-4.3833 z m 3.104,0.2256 c 0,1.1028 0.208,1.9479 0.623,2.5353 0.416,0.58 1.01,0.87 1.784,0.87 0.752,0 1.339,-0.287 1.761,-0.859 0.423,-0.5805 0.634,-1.5043 0.634,-2.7719 0,-1.0814 -0.211,-1.9193 -0.634,-2.5137 -0.422,-0.5944 -1.017,-0.8916 -1.783,-0.8916 -0.759,0 -1.346,0.2972 -1.762,0.8916 -0.415,0.5873 -0.623,1.5003 -0.623,2.7393 z m 10.667,5.6933 v -9.3457 h -1.729 V 92.042 h 1.729 v -0.9883 c 0,-1.3034 0.373,-2.3131 1.118,-3.0293 0.752,-0.7233 1.801,-1.0849 3.147,-1.0849 0.43,0 0.956,0.0716 1.579,0.2148 l -0.032,2.4062 c -0.258,-0.0644 -0.573,-0.0966 -0.945,-0.0966 -1.168,0 -1.751,0.5478 -1.751,1.6435 v 0.9346 h 2.309 v 2.2773 h -2.309 v 9.3457 z m 21.549,-3.223 h -5.65 l -1.074,3.223 h -3.427 l 5.822,-15.6406 h 2.986 l 5.855,15.6406 h -3.427 z m -4.78,-2.61 h 3.91 l -1.966,-5.8545 z m 11.397,5.833 V 94.3193 H 142.55 V 92.042 h 1.729 v -0.9883 c 0,-1.3034 0.373,-2.3131 1.118,-3.0293 0.752,-0.7233 1.801,-1.0849 3.147,-1.0849 0.43,0 0.956,0.0716 1.579,0.2148 l -0.032,2.4062 c -0.258,-0.0644 -0.573,-0.0966 -0.945,-0.0966 -1.168,0 -1.751,0.5478 -1.751,1.6435 v 0.9346 h 2.309 v 2.2773 h -2.309 v 9.3457 z m 13.568,-8.7119 c -0.423,-0.0573 -0.795,-0.0859 -1.117,-0.0859 -1.175,0 -1.945,0.3974 -2.31,1.1924 v 7.6054 h -3.104 V 92.042 h 2.932 l 0.086,1.3857 c 0.623,-1.067 1.486,-1.6006 2.589,-1.6006 0.344,0 0.666,0.0466 0.967,0.1397 z m 4.78,8.7119 h -3.115 V 92.042 h 3.115 z m -3.298,-14.6308 c 0,-0.4655 0.154,-0.8487 0.462,-1.1494 0.315,-0.3008 0.741,-0.4512 1.278,-0.4512 0.53,0 0.953,0.1504 1.268,0.4512 0.315,0.3007 0.473,0.6839 0.473,1.1494 0,0.4726 -0.161,0.8594 -0.484,1.1601 -0.315,0.3008 -0.734,0.4512 -1.257,0.4512 -0.522,0 -0.945,-0.1504 -1.267,-0.4512 -0.315,-0.3007 -0.473,-0.6875 -0.473,-1.1601 z m 10.699,12.3428 c 0.573,0 1.039,-0.158 1.397,-0.473 0.358,-0.315 0.544,-0.734 0.558,-1.2565 h 2.912 c -0.008,0.7875 -0.222,1.5115 -0.645,2.1695 -0.422,0.652 -1.003,1.161 -1.74,1.526 -0.731,0.358 -1.54,0.537 -2.428,0.537 -1.661,0 -2.972,-0.526 -3.932,-1.579 -0.959,-1.06 -1.439,-2.5211 -1.439,-4.383 v -0.2041 c 0,-1.7904 0.476,-3.2191 1.429,-4.2862 0.952,-1.067 2.259,-1.6006 3.921,-1.6006 1.453,0 2.617,0.4154 3.491,1.2461 0.881,0.8236 1.328,1.9229 1.343,3.2979 h -2.912 c -0.014,-0.6016 -0.2,-1.0885 -0.558,-1.4609 -0.358,-0.3796 -0.831,-0.5694 -1.418,-0.5694 -0.723,0 -1.271,0.265 -1.644,0.7949 -0.365,0.5228 -0.547,1.375 -0.547,2.5567 v 0.3222 c 0,1.196 0.182,2.0554 0.547,2.5784 0.366,0.523 0.921,0.784 1.665,0.784 z m 13.374,2.288 c -0.143,-0.279 -0.247,-0.627 -0.311,-1.042 -0.752,0.838 -1.73,1.257 -2.933,1.257 -1.138,0 -2.084,-0.33 -2.836,-0.988 -0.744,-0.659 -1.117,-1.49 -1.117,-2.493 0,-1.2314 0.455,-2.1767 1.364,-2.8355 0.917,-0.6589 2.238,-0.9919 3.964,-0.999 h 1.429 v -0.6661 c 0,-0.5371 -0.14,-0.9668 -0.419,-1.289 -0.272,-0.3223 -0.705,-0.4834 -1.3,-0.4834 -0.523,0 -0.934,0.1253 -1.235,0.376 -0.294,0.2506 -0.441,0.5944 -0.441,1.0312 h -3.104 c 0,-0.6732 0.208,-1.2962 0.623,-1.8691 0.415,-0.573 1.003,-1.0205 1.762,-1.3428 0.759,-0.3294 1.611,-0.4942 2.556,-0.4942 1.433,0 2.568,0.3617 3.406,1.085 0.845,0.7162 1.267,1.7259 1.267,3.0293 v 5.0376 c 0.007,1.103 0.161,1.938 0.462,2.503 v 0.183 z m -2.567,-2.159 c 0.458,0 0.881,-0.1 1.268,-0.301 0.386,-0.208 0.673,-0.483 0.859,-0.827 v -1.9981 h -1.16 c -1.554,0 -2.381,0.5371 -2.482,1.6113 l -0.01,0.1828 c 0,0.387 0.136,0.705 0.408,0.956 0.272,0.251 0.644,0.376 1.117,0.376 z"
                fill="#ffffff"
                id="path10"/>
        <path
                d="M 26.5276,158.482 H 24.723 l -0.5469,2.803 h -0.9776 l 0.5469,-2.803 h -1.6338 v -0.936 h 1.8116 l 0.4716,-2.42 h -1.7636 v -0.95 h 1.9482 l 0.5606,-2.844 h 0.9775 l -0.5606,2.844 h 1.8047 l 0.5606,-2.844 h 0.9844 l -0.5606,2.844 h 1.3945 v 0.95 h -1.5791 l -0.4716,2.42 h 1.538 v 0.936 H 27.512 l -0.5469,2.803 h -0.9843 z m -1.6269,-0.936 h 1.8047 l 0.4717,-2.42 h -1.8047 z m 13.5283,2.433 c -0.3372,0.483 -0.8089,0.846 -1.415,1.087 -0.6016,0.237 -1.3034,0.356 -2.1055,0.356 -0.8112,0 -1.5312,-0.189 -2.1601,-0.568 -0.629,-0.383 -1.1166,-0.925 -1.4629,-1.627 -0.3418,-0.702 -0.5173,-1.515 -0.5264,-2.44 v -0.868 c 0,-1.5 0.3486,-2.662 1.0459,-3.487 0.7018,-0.824 1.6862,-1.237 2.9531,-1.237 1.0391,0 1.8753,0.267 2.5088,0.8 0.6335,0.529 1.0208,1.28 1.1621,2.256 h -1.3125 c -0.2461,-1.317 -1.0299,-1.976 -2.3515,-1.976 -0.8796,0 -1.5472,0.31 -2.003,0.93 -0.4511,0.615 -0.679,1.508 -0.6836,2.68 v 0.813 c 0,1.117 0.2552,2.005 0.7657,2.666 0.5104,0.656 1.2008,0.984 2.0712,0.984 0.4922,0 0.9229,-0.054 1.292,-0.164 0.3692,-0.109 0.6745,-0.294 0.9161,-0.553 v -2.236 h -2.3038 v -1.066 h 3.6094 z m 5.0654,1.443 c -1.0026,0 -1.8183,-0.328 -2.4472,-0.985 -0.6289,-0.661 -0.9434,-1.542 -0.9434,-2.645 v -0.233 c 0,-0.733 0.139,-1.387 0.417,-1.962 0.2826,-0.578 0.6745,-1.03 1.1758,-1.353 0.5059,-0.328 1.0527,-0.492 1.6406,-0.492 0.9616,0 1.709,0.316 2.2422,0.95 0.5332,0.633 0.7998,1.54 0.7998,2.721 v 0.526 h -5.0107 c 0.0182,0.729 0.2301,1.319 0.6357,1.77 0.4102,0.447 0.9297,0.67 1.5586,0.67 0.4466,0 0.8249,-0.091 1.1348,-0.273 0.3099,-0.182 0.581,-0.424 0.8134,-0.725 l 0.7725,0.602 c -0.6198,0.952 -1.5495,1.429 -2.7891,1.429 z m -0.1572,-6.631 c -0.5104,0 -0.9388,0.187 -1.2851,0.56 -0.3464,0.369 -0.5606,0.889 -0.6426,1.559 h 3.7051 v -0.096 c -0.0365,-0.642 -0.2097,-1.139 -0.5196,-1.49 -0.3099,-0.355 -0.7291,-0.533 -1.2578,-0.533 z m 4.1768,2.727 c 0,-0.724 0.1413,-1.376 0.4238,-1.955 0.2871,-0.579 0.6836,-1.025 1.1895,-1.34 0.5104,-0.314 1.0914,-0.471 1.7431,-0.471 1.0072,0 1.8207,0.348 2.4405,1.046 0.6243,0.697 0.9365,1.624 0.9365,2.782 v 0.089 c 0,0.72 -0.139,1.367 -0.417,1.941 -0.2735,0.57 -0.6677,1.014 -1.1826,1.333 -0.5105,0.319 -1.0983,0.479 -1.7637,0.479 -1.0026,0 -1.8161,-0.349 -2.4404,-1.046 -0.6198,-0.698 -0.9297,-1.62 -0.9297,-2.769 z m 1.2715,0.151 c 0,0.82 0.1891,1.479 0.5673,1.975 0.3829,0.497 0.8933,0.745 1.5313,0.745 0.6426,0 1.153,-0.25 1.5312,-0.752 0.3783,-0.505 0.5674,-1.212 0.5674,-2.119 0,-0.811 -0.1937,-1.467 -0.581,-1.968 -0.3828,-0.506 -0.8933,-0.759 -1.5313,-0.759 -0.6243,0 -1.1279,0.248 -1.5107,0.745 -0.3828,0.497 -0.5742,1.208 -0.5742,2.133 z m 6.747,-0.144 c 0,-1.153 0.2666,-2.069 0.7998,-2.748 0.5332,-0.683 1.2396,-1.025 2.1192,-1.025 0.9023,0 1.6064,0.319 2.1123,0.957 l 0.0615,-0.821 h 1.1553 v 7.219 c 0,0.957 -0.2849,1.711 -0.8545,2.263 -0.5651,0.551 -1.3262,0.827 -2.2832,0.827 -0.5332,0 -1.055,-0.114 -1.5654,-0.342 -0.5105,-0.228 -0.9001,-0.54 -1.169,-0.936 l 0.6563,-0.759 c 0.5423,0.67 1.2054,1.005 1.9892,1.005 0.6153,0 1.0938,-0.173 1.4356,-0.52 0.3463,-0.346 0.5195,-0.834 0.5195,-1.463 v -0.635 c -0.5059,0.583 -1.1963,0.875 -2.0713,0.875 -0.8659,0 -1.5677,-0.349 -2.1055,-1.046 -0.5332,-0.698 -0.7998,-1.648 -0.7998,-2.851 z m 1.2715,0.144 c 0,0.834 0.1709,1.49 0.5127,1.968 0.3418,0.474 0.8203,0.711 1.4356,0.711 0.7975,0 1.3831,-0.362 1.7568,-1.087 v -3.376 c -0.3874,-0.707 -0.9684,-1.06 -1.7432,-1.06 -0.6152,0 -1.096,0.239 -1.4424,0.718 -0.3463,0.478 -0.5195,1.187 -0.5195,2.126 z m 10.4658,-2.646 c -0.1914,-0.032 -0.3987,-0.048 -0.622,-0.048 -0.8295,0 -1.3923,0.354 -1.6885,1.06 v 5.25 h -1.2647 v -7.397 h 1.2305 l 0.0205,0.855 c 0.4147,-0.661 1.0026,-0.991 1.7637,-0.991 0.2461,0 0.4329,0.032 0.5605,0.095 z m 5.462,6.262 c -0.073,-0.146 -0.1322,-0.406 -0.1778,-0.779 -0.5879,0.61 -1.2897,0.916 -2.1055,0.916 -0.7291,0 -1.3284,-0.205 -1.7978,-0.616 -0.4648,-0.414 -0.6973,-0.938 -0.6973,-1.572 0,-0.77 0.2917,-1.367 0.875,-1.791 0.5879,-0.428 1.4128,-0.642 2.4746,-0.642 h 1.2305 v -0.582 c 0,-0.442 -0.1322,-0.792 -0.3965,-1.052 -0.2643,-0.265 -0.6539,-0.397 -1.1689,-0.397 -0.4512,0 -0.8294,0.114 -1.1348,0.342 -0.3053,0.228 -0.458,0.504 -0.458,0.827 h -1.2715 c 0,-0.369 0.1299,-0.724 0.3897,-1.066 0.2643,-0.347 0.6198,-0.62 1.0664,-0.821 0.4511,-0.2 0.9456,-0.3 1.4834,-0.3 0.8522,0 1.5198,0.214 2.0029,0.642 0.4831,0.424 0.7337,1.01 0.752,1.757 v 3.404 c 0,0.679 0.0865,1.219 0.2597,1.621 v 0.109 z m -2.0987,-0.964 c 0.3965,0 0.7725,-0.102 1.1279,-0.308 0.3555,-0.205 0.613,-0.471 0.7725,-0.799 v -1.518 h -0.9912 c -1.5495,0 -2.3242,0.453 -2.3242,1.36 0,0.397 0.1321,0.707 0.3965,0.93 0.2643,0.223 0.6038,0.335 1.0185,0.335 z m 11.3955,-2.652 c 0,1.125 -0.2575,2.032 -0.7724,2.72 -0.515,0.689 -1.2123,1.033 -2.0918,1.033 -0.8978,0 -1.6042,-0.285 -2.1192,-0.855 v 3.562 h -1.2646 v -10.241 h 1.1553 l 0.0615,0.821 c 0.5149,-0.638 1.2304,-0.957 2.1465,-0.957 0.8886,0 1.5905,0.335 2.1054,1.005 0.5196,0.67 0.7793,1.601 0.7793,2.795 z m -1.2646,-0.144 c 0,-0.834 -0.1778,-1.492 -0.5332,-1.975 -0.3555,-0.484 -0.8431,-0.725 -1.4629,-0.725 -0.7656,0 -1.3399,0.339 -1.7227,1.019 v 3.534 c 0.3783,0.674 0.9571,1.011 1.7364,1.011 0.6061,0 1.0869,-0.239 1.4423,-0.717 0.3601,-0.483 0.5401,-1.199 0.5401,-2.147 z m 4.1426,-2.741 c 0.5605,-0.688 1.2897,-1.032 2.1875,-1.032 1.5631,0 2.3515,0.882 2.3652,2.645 v 4.888 h -1.2647 v -4.895 c -0.0045,-0.533 -0.1276,-0.927 -0.3691,-1.182 -0.237,-0.255 -0.6084,-0.383 -1.1143,-0.383 -0.4101,0 -0.7701,0.109 -1.08,0.328 -0.3099,0.219 -0.5515,0.506 -0.7246,0.861 v 5.271 h -1.2647 v -10.5 h 1.2647 z m 8.8662,4.648 1.7226,-5.544 h 1.3535 l -2.9736,8.539 c -0.4603,1.23 -1.1917,1.845 -2.1943,1.845 l -0.2393,-0.02 -0.4717,-0.089 v -1.026 l 0.3418,0.028 c 0.4284,0 0.7611,-0.087 0.9981,-0.26 0.2415,-0.173 0.4398,-0.49 0.5947,-0.95 l 0.2803,-0.752 -2.6387,-7.315 h 1.3809 z m 11.9562,-0.95 h -1.805 l -0.547,2.803 H 102.4 l 0.547,-2.803 h -1.634 v -0.936 h 1.811 l 0.472,-2.42 h -1.764 v -0.95 h 1.949 l 0.56,-2.844 h 0.978 l -0.561,2.844 h 1.805 l 0.56,-2.844 h 0.985 l -0.561,2.844 h 1.395 v 0.95 h -1.579 l -0.472,2.42 h 1.538 v 0.936 h -1.716 l -0.547,2.803 h -0.984 z m -1.627,-0.936 h 1.805 l 0.471,-2.42 h -1.804 z m 13.501,0.581 c -0.123,1.052 -0.513,1.866 -1.169,2.44 -0.652,0.57 -1.52,0.855 -2.605,0.855 -1.175,0 -2.119,-0.422 -2.83,-1.265 -0.706,-0.843 -1.059,-1.971 -1.059,-3.384 v -0.957 c 0,-0.925 0.164,-1.738 0.492,-2.44 0.333,-0.702 0.802,-1.24 1.408,-1.614 0.606,-0.378 1.308,-0.567 2.106,-0.567 1.057,0 1.905,0.296 2.543,0.889 0.638,0.588 1.009,1.403 1.114,2.447 h -1.319 c -0.114,-0.793 -0.363,-1.367 -0.746,-1.723 -0.378,-0.355 -0.909,-0.533 -1.592,-0.533 -0.839,0 -1.497,0.31 -1.976,0.93 -0.474,0.62 -0.711,1.501 -0.711,2.645 v 0.964 c 0,1.08 0.226,1.939 0.677,2.577 0.451,0.638 1.082,0.957 1.893,0.957 0.73,0 1.288,-0.164 1.675,-0.492 0.392,-0.332 0.652,-0.909 0.78,-1.729 z m 6.166,3.158 c -0.073,-0.146 -0.132,-0.406 -0.178,-0.779 -0.588,0.61 -1.29,0.916 -2.105,0.916 -0.73,0 -1.329,-0.205 -1.798,-0.616 -0.465,-0.414 -0.697,-0.938 -0.697,-1.572 0,-0.77 0.291,-1.367 0.875,-1.791 0.587,-0.428 1.412,-0.642 2.474,-0.642 h 1.231 v -0.582 c 0,-0.442 -0.133,-0.792 -0.397,-1.052 -0.264,-0.265 -0.654,-0.397 -1.169,-0.397 -0.451,0 -0.829,0.114 -1.135,0.342 -0.305,0.228 -0.458,0.504 -0.458,0.827 h -1.271 c 0,-0.369 0.13,-0.724 0.39,-1.066 0.264,-0.347 0.619,-0.62 1.066,-0.821 0.451,-0.2 0.946,-0.3 1.483,-0.3 0.853,0 1.52,0.214 2.003,0.642 0.483,0.424 0.734,1.01 0.752,1.757 v 3.404 c 0,0.679 0.087,1.219 0.26,1.621 v 0.109 z m -2.099,-0.964 c 0.397,0 0.773,-0.102 1.128,-0.308 0.356,-0.205 0.613,-0.471 0.773,-0.799 v -1.518 h -0.992 c -1.549,0 -2.324,0.453 -2.324,1.36 0,0.397 0.132,0.707 0.397,0.93 0.264,0.223 0.604,0.335 1.018,0.335 z m 11.396,-2.652 c 0,1.125 -0.258,2.032 -0.773,2.72 -0.515,0.689 -1.212,1.033 -2.092,1.033 -0.897,0 -1.604,-0.285 -2.119,-0.855 v 3.562 h -1.264 v -10.241 h 1.155 l 0.061,0.821 c 0.515,-0.638 1.231,-0.957 2.147,-0.957 0.889,0 1.59,0.335 2.105,1.005 0.52,0.67 0.78,1.601 0.78,2.795 z m -1.265,-0.144 c 0,-0.834 -0.178,-1.492 -0.533,-1.975 -0.356,-0.484 -0.843,-0.725 -1.463,-0.725 -0.766,0 -1.34,0.339 -1.723,1.019 v 3.534 c 0.379,0.674 0.957,1.011 1.737,1.011 0.606,0 1.087,-0.239 1.442,-0.717 0.36,-0.483 0.54,-1.199 0.54,-2.147 z m 4.252,3.76 h -1.265 v -7.397 h 1.265 z m -1.367,-9.358 c 0,-0.206 0.061,-0.379 0.184,-0.52 0.128,-0.141 0.315,-0.212 0.561,-0.212 0.246,0 0.433,0.071 0.561,0.212 0.127,0.141 0.191,0.314 0.191,0.52 0,0.205 -0.064,0.375 -0.191,0.512 -0.128,0.137 -0.315,0.205 -0.561,0.205 -0.246,0 -0.433,-0.068 -0.561,-0.205 -0.123,-0.137 -0.184,-0.307 -0.184,-0.512 z m 5.113,0.17 v 1.791 h 1.381 v 0.978 h -1.381 v 4.587 c 0,0.296 0.062,0.519 0.185,0.67 0.123,0.146 0.332,0.219 0.629,0.219 0.145,0 0.346,-0.028 0.601,-0.082 v 1.025 c -0.333,0.091 -0.656,0.137 -0.971,0.137 -0.565,0 -0.991,-0.171 -1.278,-0.513 -0.287,-0.342 -0.431,-0.827 -0.431,-1.456 v -4.587 h -1.346 v -0.978 h 1.346 v -1.791 z m 2.393,5.421 c 0,-0.724 0.141,-1.376 0.424,-1.955 0.287,-0.579 0.683,-1.025 1.189,-1.34 0.51,-0.314 1.091,-0.471 1.743,-0.471 1.007,0 1.821,0.348 2.441,1.046 0.624,0.697 0.936,1.624 0.936,2.782 v 0.089 c 0,0.72 -0.139,1.367 -0.417,1.941 -0.273,0.57 -0.668,1.014 -1.182,1.333 -0.511,0.319 -1.099,0.479 -1.764,0.479 -1.003,0 -1.816,-0.349 -2.441,-1.046 -0.619,-0.698 -0.929,-1.62 -0.929,-2.769 z m 1.271,0.151 c 0,0.82 0.189,1.479 0.568,1.975 0.382,0.497 0.893,0.745 1.531,0.745 0.642,0 1.153,-0.25 1.531,-0.752 0.378,-0.505 0.567,-1.212 0.567,-2.119 0,-0.811 -0.193,-1.467 -0.581,-1.968 -0.382,-0.506 -0.893,-0.759 -1.531,-0.759 -0.624,0 -1.128,0.248 -1.511,0.745 -0.382,0.497 -0.574,1.208 -0.574,2.133 z m 8.422,3.616 h -1.265 v -10.5 h 1.265 z m 6.337,-1.962 c 0,-0.342 -0.13,-0.606 -0.39,-0.793 -0.255,-0.191 -0.704,-0.355 -1.346,-0.492 -0.638,-0.137 -1.147,-0.301 -1.525,-0.492 -0.373,-0.192 -0.651,-0.42 -0.834,-0.684 -0.177,-0.264 -0.266,-0.579 -0.266,-0.943 0,-0.606 0.255,-1.119 0.765,-1.538 0.515,-0.42 1.172,-0.629 1.969,-0.629 0.839,0 1.518,0.216 2.037,0.649 0.524,0.433 0.786,0.987 0.786,1.661 h -1.271 c 0,-0.346 -0.148,-0.645 -0.445,-0.895 -0.291,-0.251 -0.66,-0.376 -1.107,-0.376 -0.46,0 -0.82,0.1 -1.08,0.301 -0.26,0.2 -0.39,0.462 -0.39,0.786 0,0.305 0.121,0.535 0.363,0.69 0.241,0.155 0.676,0.303 1.305,0.444 0.634,0.142 1.146,0.31 1.538,0.506 0.392,0.196 0.682,0.433 0.869,0.711 0.191,0.274 0.287,0.609 0.287,1.005 0,0.661 -0.265,1.192 -0.793,1.593 -0.529,0.396 -1.215,0.595 -2.058,0.595 -0.592,0 -1.116,-0.105 -1.572,-0.315 -0.456,-0.209 -0.814,-0.501 -1.073,-0.875 -0.256,-0.378 -0.383,-0.786 -0.383,-1.223 h 1.264 c 0.023,0.423 0.192,0.761 0.506,1.011 0.319,0.246 0.739,0.369 1.258,0.369 0.479,0 0.861,-0.095 1.148,-0.287 0.292,-0.196 0.438,-0.455 0.438,-0.779 z m 10.657,-0.841 h -1.804 l -0.547,2.803 h -0.978 l 0.547,-2.803 h -1.634 v -0.936 h 1.812 l 0.471,-2.42 h -1.763 v -0.95 h 1.948 l 0.561,-2.844 h 0.977 l -0.56,2.844 h 1.804 l 0.561,-2.844 h 0.984 l -0.56,2.844 h 1.394 v 0.95 h -1.579 l -0.472,2.42 h 1.538 v 0.936 h -1.715 l -0.547,2.803 h -0.985 z m -1.627,-0.936 h 1.805 l 0.472,-2.42 h -1.805 z m 11.676,1.141 h -4.17 l -0.936,2.598 h -1.354 l 3.801,-9.953 h 1.148 l 3.808,9.953 h -1.347 z m -3.773,-1.08 h 3.383 l -1.695,-4.655 z m 7.834,3.678 v -6.419 h -1.169 v -0.978 h 1.169 v -0.758 c 0,-0.793 0.212,-1.406 0.635,-1.839 0.424,-0.433 1.023,-0.65 1.798,-0.65 0.292,0 0.581,0.039 0.868,0.117 l -0.068,1.025 c -0.214,-0.041 -0.442,-0.062 -0.684,-0.062 -0.41,0 -0.726,0.121 -0.95,0.363 -0.223,0.237 -0.335,0.579 -0.335,1.025 v 0.779 h 1.579 v 0.978 h -1.579 v 6.419 z m 7.82,-6.262 c -0.192,-0.032 -0.399,-0.048 -0.622,-0.048 -0.83,0 -1.392,0.354 -1.689,1.06 v 5.25 h -1.264 v -7.397 h 1.23 l 0.021,0.855 c 0.414,-0.661 1.002,-0.991 1.763,-0.991 0.246,0 0.433,0.032 0.561,0.095 z m 2.543,6.262 h -1.265 v -7.397 h 1.265 z m -1.367,-9.358 c 0,-0.206 0.061,-0.379 0.184,-0.52 0.128,-0.141 0.315,-0.212 0.561,-0.212 0.246,0 0.433,0.071 0.56,0.212 0.128,0.141 0.192,0.314 0.192,0.52 0,0.205 -0.064,0.375 -0.192,0.512 -0.127,0.137 -0.314,0.205 -0.56,0.205 -0.246,0 -0.433,-0.068 -0.561,-0.205 -0.123,-0.137 -0.184,-0.307 -0.184,-0.512 z m 6.364,8.462 c 0.451,0 0.845,-0.136 1.183,-0.41 0.337,-0.273 0.524,-0.615 0.56,-1.025 h 1.196 c -0.022,0.424 -0.168,0.827 -0.437,1.21 -0.269,0.383 -0.629,0.688 -1.08,0.916 -0.447,0.228 -0.921,0.342 -1.422,0.342 -1.007,0 -1.809,-0.335 -2.406,-1.005 -0.593,-0.675 -0.889,-1.595 -0.889,-2.762 v -0.212 c 0,-0.72 0.132,-1.36 0.397,-1.921 0.264,-0.56 0.642,-0.996 1.134,-1.305 0.497,-0.31 1.083,-0.465 1.757,-0.465 0.83,0 1.518,0.248 2.065,0.745 0.551,0.497 0.845,1.141 0.881,1.934 h -1.196 c -0.036,-0.478 -0.219,-0.87 -0.547,-1.175 -0.323,-0.31 -0.724,-0.465 -1.203,-0.465 -0.642,0 -1.141,0.232 -1.497,0.697 -0.351,0.46 -0.526,1.128 -0.526,2.003 v 0.239 c 0,0.852 0.175,1.509 0.526,1.969 0.351,0.46 0.852,0.69 1.504,0.69 z m 8.928,0.896 c -0.073,-0.146 -0.132,-0.406 -0.178,-0.779 -0.588,0.61 -1.29,0.916 -2.106,0.916 -0.729,0 -1.328,-0.205 -1.797,-0.616 -0.465,-0.414 -0.698,-0.938 -0.698,-1.572 0,-0.77 0.292,-1.367 0.875,-1.791 0.588,-0.428 1.413,-0.642 2.475,-0.642 h 1.23 v -0.582 c 0,-0.442 -0.132,-0.792 -0.396,-1.052 -0.264,-0.265 -0.654,-0.397 -1.169,-0.397 -0.451,0 -0.829,0.114 -1.135,0.342 -0.305,0.228 -0.458,0.504 -0.458,0.827 h -1.271 c 0,-0.369 0.13,-0.724 0.389,-1.066 0.265,-0.347 0.62,-0.62 1.067,-0.821 0.451,-0.2 0.945,-0.3 1.483,-0.3 0.852,0 1.52,0.214 2.003,0.642 0.483,0.424 0.734,1.01 0.752,1.757 v 3.404 c 0,0.679 0.087,1.219 0.26,1.621 v 0.109 z m -2.099,-0.964 c 0.397,0 0.773,-0.102 1.128,-0.308 0.355,-0.205 0.613,-0.471 0.772,-0.799 v -1.518 h -0.991 c -1.549,0 -2.324,0.453 -2.324,1.36 0,0.397 0.132,0.707 0.396,0.93 0.265,0.223 0.604,0.335 1.019,0.335 z"
                fill="#696969"
                id="path12"/>
        <path
                d="m 259.64,132.377 c 0,2.327 -0.397,4.057 -1.192,5.188 -0.795,1.132 -2.037,1.697 -3.728,1.697 -1.668,0 -2.904,-0.551 -3.706,-1.654 -0.802,-1.11 -1.217,-2.764 -1.246,-4.963 v -2.653 c 0,-2.299 0.398,-4.007 1.193,-5.124 0.795,-1.117 2.041,-1.676 3.738,-1.676 1.683,0 2.922,0.541 3.717,1.622 0.795,1.074 1.203,2.736 1.224,4.985 z m -1.987,-2.718 c 0,-1.683 -0.236,-2.908 -0.709,-3.674 -0.473,-0.773 -1.221,-1.16 -2.245,-1.16 -1.017,0 -1.758,0.383 -2.224,1.149 -0.465,0.767 -0.705,1.945 -0.719,3.535 v 3.179 c 0,1.69 0.243,2.94 0.73,3.749 0.494,0.802 1.239,1.203 2.234,1.203 0.982,0 1.708,-0.379 2.181,-1.138 0.48,-0.759 0.731,-1.955 0.752,-3.588 z m 4.361,-3.244 c 0,-0.938 0.298,-1.712 0.892,-2.321 0.602,-0.608 1.371,-0.913 2.31,-0.913 0.952,0 1.722,0.308 2.309,0.924 0.595,0.609 0.892,1.4 0.892,2.374 v 0.763 c 0,0.945 -0.301,1.719 -0.903,2.32 -0.594,0.595 -1.353,0.892 -2.277,0.892 -0.931,0 -1.701,-0.297 -2.31,-0.892 -0.608,-0.601 -0.913,-1.4 -0.913,-2.395 z m 1.483,0.827 c 0,0.559 0.157,1.02 0.472,1.386 0.316,0.358 0.738,0.537 1.268,0.537 0.509,0 0.917,-0.176 1.225,-0.527 0.315,-0.35 0.472,-0.83 0.472,-1.439 v -0.784 c 0,-0.559 -0.154,-1.021 -0.462,-1.386 -0.308,-0.365 -0.726,-0.548 -1.256,-0.548 -0.53,0 -0.949,0.183 -1.257,0.548 -0.308,0.365 -0.462,0.842 -0.462,1.429 z m 6.134,7.971 c 0,-0.939 0.297,-1.708 0.891,-2.31 0.602,-0.609 1.372,-0.913 2.31,-0.913 0.938,0 1.708,0.301 2.309,0.902 0.602,0.602 0.903,1.4 0.903,2.396 v 0.763 c 0,0.938 -0.301,1.711 -0.903,2.32 -0.594,0.601 -1.357,0.902 -2.288,0.902 -0.931,0 -1.701,-0.297 -2.309,-0.891 -0.609,-0.602 -0.913,-1.4 -0.913,-2.396 z m 1.482,0.838 c 0,0.565 0.158,1.031 0.473,1.396 0.315,0.358 0.737,0.537 1.267,0.537 0.516,0 0.928,-0.175 1.236,-0.526 0.308,-0.358 0.462,-0.842 0.462,-1.45 v -0.795 c 0,-0.566 -0.158,-1.028 -0.473,-1.386 -0.308,-0.358 -0.723,-0.537 -1.246,-0.537 -0.509,0 -0.924,0.179 -1.246,0.537 -0.315,0.351 -0.473,0.827 -0.473,1.429 z m -5.425,1.815 -1.128,-0.709 7.638,-12.225 1.128,0.709 z"
                fill="#696969"
                id="path14"/>
        <rect
                x="16.5805"
                y="119.193"
                width="223.30299"
                height="25.947201"
                rx="12.9736"
                fill="#798a93"
                id="rect16"/>
        <rect
                x="22.870701"
                y="124.697"
                width="109.293"
                height="14.9393"
                rx="7.4696598"
                fill="#e9e9e9"
                id="rect18"/>
    </g>
    <ellipse
            cx="261.06"
            cy="73.38591"
            rx="24.660601"
            ry="25.5854"
            fill="#fdfdfd"
            id="ellipse22"/>
    <g
            filter="url(#filter2_d)"
            id="g26"
            transform="translate(0,-2.815885)">
        <path
                d="m 262.293,50 c -14.985,0 -27.127,11.5895 -27.127,25.8936 0,14.3042 12.142,25.8934 27.127,25.8934 14.985,0 27.126,-11.5892 27.126,-25.8934 C 289.419,61.5895 277.278,50 262.293,50 Z m 12.655,28.3995 -19.251,10.5453 c -1.728,0.9188 -3.905,-0.261 -3.905,-2.1926 V 65.035 c 0,-1.9211 2.166,-3.1114 3.905,-2.1926 l 19.251,11.1718 c 1.794,0.9606 1.794,3.4351 0,4.3853 z"
                fill="#ffb763"
                id="path24"/>
    </g>
    <defs
            id="defs67">
        <filter
                id="filter0_f"
                x="0"
                y="71.947304"
                width="306"
                height="108.644"
                filterUnits="userSpaceOnUse"
                color-interpolation-filters="sRGB">
            <feFlood
                    flood-opacity="0"
                    result="BackgroundImageFix"
                    id="feFlood28"/>
            <feBlend
                    mode="normal"
                    in="SourceGraphic"
                    in2="BackgroundImageFix"
                    result="shape"
                    id="feBlend30"/>
            <feGaussianBlur
                    stdDeviation="2"
                    result="effect1_foregroundBlur"
                    id="feGaussianBlur32"/>
        </filter>
        <filter
                id="filter1_d"
                x="0"
                y="72.947304"
                width="312"
                height="114.644"
                filterUnits="userSpaceOnUse"
                color-interpolation-filters="sRGB">
            <feFlood
                    flood-opacity="0"
                    result="BackgroundImageFix"
                    id="feFlood35"/>
            <feColorMatrix
                    in="SourceAlpha"
                    type="matrix"
                    values="0 0 0 0 0 0 0 0 0 0 0 0 0 0 0 0 0 0 127 0"
                    id="feColorMatrix37"/>
            <feMorphology
                    radius="3"
                    operator="dilate"
                    in="SourceAlpha"
                    result="effect1_dropShadow"
                    id="feMorphology39"/>
            <feOffset
                    dx="3"
                    dy="4"
                    id="feOffset41"/>
            <feGaussianBlur
                    stdDeviation="2"
                    id="feGaussianBlur43"/>
            <feColorMatrix
                    type="matrix"
                    values="0 0 0 0 0 0 0 0 0 0 0 0 0 0 0 0 0 0 0.25 0"
                    id="feColorMatrix45"/>
            <feBlend
                    mode="normal"
                    in2="BackgroundImageFix"
                    result="effect1_dropShadow"
                    id="feBlend47"/>
            <feBlend
                    mode="normal"
                    in="SourceGraphic"
                    in2="effect1_dropShadow"
                    result="shape"
                    id="feBlend49"/>
        </filter>
        <filter
                id="filter2_d"
                x="233.166"
                y="48"
                width="62.2533"
                height="59.787201"
                filterUnits="userSpaceOnUse"
                color-interpolation-filters="sRGB">
            <feFlood
                    flood-opacity="0"
                    result="BackgroundImageFix"
                    id="feFlood52"/>
            <feColorMatrix
                    in="SourceAlpha"
                    type="matrix"
                    values="0 0 0 0 0 0 0 0 0 0 0 0 0 0 0 0 0 0 127 0"
                    id="feColorMatrix54"/>
            <feOffset
                    dx="2"
                    dy="2"
                    id="feOffset56"/>
            <feGaussianBlur
                    stdDeviation="2"
                    id="feGaussianBlur58"/>
            <feColorMatrix
                    type="matrix"
                    values="0 0 0 0 0 0 0 0 0 0 0 0 0 0 0 0 0 0 0.25 0"
                    id="feColorMatrix60"/>
            <feBlend
                    mode="normal"
                    in2="BackgroundImageFix"
                    result="effect1_dropShadow"
                    id="feBlend62"/>
            <feBlend
                    mode="normal"
                    in="SourceGraphic"
                    in2="effect1_dropShadow"
                    result="shape"
                    id="feBlend64"/>
        </filter>
    </defs>
</svg>
