<svg width="387" height="136" viewBox="0 0 387 136" fill="none" xmlns="http://www.w3.org/2000/svg">
    <g filter="url(#filter0_f)">
        <rect x="4" y="4" width="379" height="128" rx="18" fill="#CF5D5D"/>
    </g>
    <g filter="url(#filter1_f)">
        <rect x="15" y="54" width="356" height="64" rx="18" fill="white"/>
    </g>
    <g filter="url(#filter2_f)">
        <path d="M23.6074 22.3594L27.625 33.7031L31.6211 22.3594H35.8535V38H32.6201V33.7246L32.9424 26.3447L28.7207 38H26.5078L22.2969 26.3555L22.6191 33.7246V38H19.3965V22.3594H23.6074ZM37.9805 32.0811C37.9805 30.9281 38.2025 29.9004 38.6465 28.998C39.0905 28.0957 39.7279 27.3975 40.5586 26.9033C41.3965 26.4092 42.3669 26.1621 43.4697 26.1621C45.0381 26.1621 46.3164 26.6419 47.3047 27.6016C48.3001 28.5612 48.8551 29.8646 48.9697 31.5117L48.9912 32.3066C48.9912 34.0898 48.4935 35.5221 47.498 36.6035C46.5026 37.6777 45.167 38.2148 43.4912 38.2148C41.8154 38.2148 40.4762 37.6777 39.4736 36.6035C38.4782 35.5293 37.9805 34.0684 37.9805 32.2207V32.0811ZM41.085 32.3066C41.085 33.4095 41.2926 34.2546 41.708 34.8418C42.1234 35.4219 42.7178 35.7119 43.4912 35.7119C44.2432 35.7119 44.8304 35.4255 45.2529 34.8525C45.6755 34.2725 45.8867 33.3486 45.8867 32.0811C45.8867 30.9997 45.6755 30.1618 45.2529 29.5674C44.8304 28.973 44.236 28.6758 43.4697 28.6758C42.7106 28.6758 42.1234 28.973 41.708 29.5674C41.2926 30.1546 41.085 31.0677 41.085 32.3066ZM61.377 32.2959C61.377 34.1579 60.9795 35.6117 60.1846 36.6572C59.3896 37.6956 58.2796 38.2148 56.8545 38.2148C55.5941 38.2148 54.5879 37.7314 53.8359 36.7646L53.6963 38H50.9033V21.5H54.0078V27.4189C54.724 26.5811 55.6657 26.1621 56.833 26.1621C58.251 26.1621 59.361 26.6849 60.1631 27.7305C60.9723 28.7689 61.377 30.2334 61.377 32.124V32.2959ZM58.2725 32.0703C58.2725 30.8958 58.0863 30.04 57.7139 29.5029C57.3415 28.9587 56.7865 28.6865 56.0488 28.6865C55.0605 28.6865 54.3802 29.0911 54.0078 29.9004V34.4873C54.3874 35.3037 55.0749 35.7119 56.0703 35.7119C57.0729 35.7119 57.7318 35.2178 58.0469 34.2295C58.1973 33.7568 58.2725 33.0371 58.2725 32.0703ZM66.5762 38H63.4609V26.377H66.5762V38ZM63.2783 23.3691C63.2783 22.9036 63.4323 22.5205 63.7402 22.2197C64.0553 21.9189 64.4814 21.7686 65.0186 21.7686C65.5485 21.7686 65.971 21.9189 66.2861 22.2197C66.6012 22.5205 66.7588 22.9036 66.7588 23.3691C66.7588 23.8418 66.5977 24.2285 66.2754 24.5293C65.9603 24.8301 65.5413 24.9805 65.0186 24.9805C64.4958 24.9805 64.0732 24.8301 63.751 24.5293C63.4359 24.2285 63.2783 23.8418 63.2783 23.3691ZM72.4199 38H69.3047V21.5H72.4199V38ZM80.3369 38.2148C78.6325 38.2148 77.2432 37.6921 76.1689 36.6465C75.1019 35.6009 74.5684 34.208 74.5684 32.4678V32.167C74.5684 30.9997 74.7939 29.9577 75.2451 29.041C75.6963 28.1172 76.3337 27.4082 77.1572 26.9141C77.988 26.4128 78.9333 26.1621 79.9932 26.1621C81.583 26.1621 82.8327 26.6634 83.7422 27.666C84.6589 28.6686 85.1172 30.0902 85.1172 31.9307V33.1982H77.7158C77.8161 33.9574 78.1169 34.5661 78.6182 35.0244C79.1266 35.4827 79.7676 35.7119 80.541 35.7119C81.737 35.7119 82.6715 35.2786 83.3447 34.4121L84.8701 36.1201C84.4046 36.779 83.7744 37.2946 82.9795 37.667C82.1846 38.0322 81.3037 38.2148 80.3369 38.2148ZM79.9824 28.6758C79.3665 28.6758 78.8652 28.8835 78.4785 29.2988C78.099 29.7142 77.8555 30.3086 77.748 31.082H82.0664V30.835C82.0521 30.1475 81.8659 29.6175 81.5078 29.2451C81.1497 28.8656 80.6413 28.6758 79.9824 28.6758ZM101.402 34.7773H95.752L94.6777 38H91.251L97.0732 22.3594H100.06L105.914 38H102.487L101.402 34.7773ZM96.6221 32.167H100.532L98.5664 26.3125L96.6221 32.167ZM117.118 32.2959C117.118 34.0863 116.71 35.5221 115.894 36.6035C115.084 37.6777 113.989 38.2148 112.606 38.2148C111.432 38.2148 110.483 37.8066 109.76 36.9902V42.4688H106.655V26.377H109.534L109.642 27.5156C110.394 26.6133 111.375 26.1621 112.585 26.1621C114.017 26.1621 115.131 26.6921 115.926 27.752C116.721 28.8118 117.118 30.2728 117.118 32.1348V32.2959ZM114.014 32.0703C114.014 30.9889 113.82 30.1546 113.434 29.5674C113.054 28.9801 112.499 28.6865 111.769 28.6865C110.795 28.6865 110.125 29.0589 109.76 29.8037V34.5625C110.139 35.3288 110.816 35.7119 111.79 35.7119C113.272 35.7119 114.014 34.498 114.014 32.0703ZM129.515 32.2959C129.515 34.0863 129.106 35.5221 128.29 36.6035C127.481 37.6777 126.385 38.2148 125.003 38.2148C123.828 38.2148 122.88 37.8066 122.156 36.9902V42.4688H119.052V26.377H121.931L122.038 27.5156C122.79 26.6133 123.771 26.1621 124.981 26.1621C126.414 26.1621 127.527 26.6921 128.322 27.752C129.117 28.8118 129.515 30.2728 129.515 32.1348V32.2959ZM126.41 32.0703C126.41 30.9889 126.217 30.1546 125.83 29.5674C125.451 28.9801 124.896 28.6865 124.165 28.6865C123.191 28.6865 122.521 29.0589 122.156 29.8037V34.5625C122.536 35.3288 123.213 35.7119 124.187 35.7119C125.669 35.7119 126.41 34.498 126.41 32.0703ZM134.725 38H131.609V21.5H134.725V38ZM140.568 38H137.453V26.377H140.568V38ZM137.271 23.3691C137.271 22.9036 137.424 22.5205 137.732 22.2197C138.048 21.9189 138.474 21.7686 139.011 21.7686C139.541 21.7686 139.963 21.9189 140.278 22.2197C140.593 22.5205 140.751 22.9036 140.751 23.3691C140.751 23.8418 140.59 24.2285 140.268 24.5293C139.952 24.8301 139.534 24.9805 139.011 24.9805C138.488 24.9805 138.065 24.8301 137.743 24.5293C137.428 24.2285 137.271 23.8418 137.271 23.3691ZM147.97 35.7119C148.543 35.7119 149.008 35.5544 149.366 35.2393C149.724 34.9242 149.91 34.5052 149.925 33.9824H152.836C152.829 34.7702 152.614 35.4935 152.191 36.1523C151.769 36.804 151.189 37.3125 150.451 37.6777C149.721 38.0358 148.911 38.2148 148.023 38.2148C146.362 38.2148 145.051 37.6885 144.092 36.6357C143.132 35.5758 142.652 34.1149 142.652 32.2529V32.0488C142.652 30.2585 143.129 28.8298 144.081 27.7627C145.034 26.6956 146.34 26.1621 148.002 26.1621C149.456 26.1621 150.619 26.5775 151.493 27.4082C152.374 28.2318 152.822 29.3311 152.836 30.7061H149.925C149.91 30.1045 149.724 29.6175 149.366 29.2451C149.008 28.8656 148.535 28.6758 147.948 28.6758C147.225 28.6758 146.677 28.9408 146.305 29.4707C145.939 29.9935 145.757 30.8457 145.757 32.0273V32.3496C145.757 33.5456 145.939 34.4049 146.305 34.9277C146.67 35.4505 147.225 35.7119 147.97 35.7119ZM161.344 38C161.201 37.7207 161.097 37.3734 161.032 36.958C160.28 37.7959 159.303 38.2148 158.1 38.2148C156.961 38.2148 156.016 37.8854 155.264 37.2266C154.519 36.5677 154.146 35.737 154.146 34.7344C154.146 33.5026 154.601 32.5573 155.511 31.8984C156.427 31.2396 157.749 30.9066 159.475 30.8994H160.903V30.2334C160.903 29.6963 160.764 29.2666 160.484 28.9443C160.212 28.6221 159.779 28.4609 159.185 28.4609C158.662 28.4609 158.25 28.5863 157.949 28.8369C157.656 29.0876 157.509 29.4313 157.509 29.8682H154.404C154.404 29.195 154.612 28.5719 155.027 27.999C155.443 27.4261 156.03 26.9785 156.789 26.6562C157.548 26.3268 158.4 26.1621 159.346 26.1621C160.778 26.1621 161.913 26.5238 162.751 27.2471C163.596 27.9632 164.019 28.973 164.019 30.2764V35.3145C164.026 36.4173 164.18 37.2516 164.48 37.8174V38H161.344ZM158.776 35.8408C159.235 35.8408 159.657 35.7406 160.044 35.54C160.431 35.3324 160.717 35.0566 160.903 34.7129V32.7148H159.743C158.189 32.7148 157.362 33.252 157.262 34.3262L157.251 34.5088C157.251 34.8955 157.387 35.2142 157.659 35.4648C157.931 35.7155 158.304 35.8408 158.776 35.8408ZM170.12 23.5195V26.377H172.107V28.6543H170.12V34.4551C170.12 34.8848 170.202 35.1927 170.367 35.3789C170.532 35.5651 170.847 35.6582 171.312 35.6582C171.656 35.6582 171.961 35.6331 172.226 35.583V37.9355C171.617 38.1217 170.99 38.2148 170.346 38.2148C168.169 38.2148 167.059 37.1156 167.016 34.917V28.6543H165.318V26.377H167.016V23.5195H170.12ZM177.113 38H173.998V26.377H177.113V38ZM173.815 23.3691C173.815 22.9036 173.969 22.5205 174.277 22.2197C174.592 21.9189 175.019 21.7686 175.556 21.7686C176.086 21.7686 176.508 21.9189 176.823 22.2197C177.138 22.5205 177.296 22.9036 177.296 23.3691C177.296 23.8418 177.135 24.2285 176.812 24.5293C176.497 24.8301 176.078 24.9805 175.556 24.9805C175.033 24.9805 174.61 24.8301 174.288 24.5293C173.973 24.2285 173.815 23.8418 173.815 23.3691ZM179.197 32.0811C179.197 30.9281 179.419 29.9004 179.863 28.998C180.307 28.0957 180.945 27.3975 181.775 26.9033C182.613 26.4092 183.584 26.1621 184.687 26.1621C186.255 26.1621 187.533 26.6419 188.521 27.6016C189.517 28.5612 190.072 29.8646 190.187 31.5117L190.208 32.3066C190.208 34.0898 189.71 35.5221 188.715 36.6035C187.719 37.6777 186.384 38.2148 184.708 38.2148C183.032 38.2148 181.693 37.6777 180.69 36.6035C179.695 35.5293 179.197 34.0684 179.197 32.2207V32.0811ZM182.302 32.3066C182.302 33.4095 182.509 34.2546 182.925 34.8418C183.34 35.4219 183.935 35.7119 184.708 35.7119C185.46 35.7119 186.047 35.4255 186.47 34.8525C186.892 34.2725 187.104 33.3486 187.104 32.0811C187.104 30.9997 186.892 30.1618 186.47 29.5674C186.047 28.973 185.453 28.6758 184.687 28.6758C183.927 28.6758 183.34 28.973 182.925 29.5674C182.509 30.1546 182.302 31.0677 182.302 32.3066ZM194.978 26.377L195.074 27.7197C195.905 26.6813 197.019 26.1621 198.415 26.1621C199.647 26.1621 200.563 26.5238 201.165 27.2471C201.767 27.9704 202.075 29.0518 202.089 30.4912V38H198.984V30.5664C198.984 29.9076 198.841 29.4313 198.555 29.1377C198.268 28.8369 197.792 28.6865 197.126 28.6865C196.252 28.6865 195.597 29.0589 195.16 29.8037V38H192.056V26.377H194.978ZM209.802 38.2148C208.097 38.2148 206.708 37.6921 205.634 36.6465C204.567 35.6009 204.033 34.208 204.033 32.4678V32.167C204.033 30.9997 204.259 29.9577 204.71 29.041C205.161 28.1172 205.799 27.4082 206.622 26.9141C207.453 26.4128 208.398 26.1621 209.458 26.1621C211.048 26.1621 212.298 26.6634 213.207 27.666C214.124 28.6686 214.582 30.0902 214.582 31.9307V33.1982H207.181C207.281 33.9574 207.582 34.5661 208.083 35.0244C208.591 35.4827 209.232 35.7119 210.006 35.7119C211.202 35.7119 212.136 35.2786 212.81 34.4121L214.335 36.1201C213.869 36.779 213.239 37.2946 212.444 37.667C211.649 38.0322 210.769 38.2148 209.802 38.2148ZM209.447 28.6758C208.831 28.6758 208.33 28.8835 207.943 29.2988C207.564 29.7142 207.32 30.3086 207.213 31.082H211.531V30.835C211.517 30.1475 211.331 29.6175 210.973 29.2451C210.615 28.8656 210.106 28.6758 209.447 28.6758ZM219.212 26.377L219.309 27.7197C220.139 26.6813 221.253 26.1621 222.649 26.1621C223.881 26.1621 224.798 26.5238 225.399 27.2471C226.001 27.9704 226.309 29.0518 226.323 30.4912V38H223.219V30.5664C223.219 29.9076 223.076 29.4313 222.789 29.1377C222.503 28.8369 222.026 28.6865 221.36 28.6865C220.487 28.6865 219.831 29.0589 219.395 29.8037V38H216.29V26.377H219.212ZM234.369 38V22.3594H239.182C240.557 22.3594 241.785 22.6709 242.866 23.2939C243.955 23.9098 244.803 24.7907 245.412 25.9365C246.021 27.0752 246.325 28.3714 246.325 29.8252V30.5449C246.325 31.9987 246.024 33.2913 245.423 34.4229C244.828 35.5544 243.987 36.4316 242.898 37.0547C241.81 37.6777 240.582 37.9928 239.214 38H234.369ZM237.592 24.9697V35.4111H239.149C240.41 35.4111 241.373 34.9993 242.039 34.1758C242.705 33.3522 243.045 32.1742 243.06 30.6416V29.8145C243.06 28.2246 242.73 27.0215 242.071 26.2051C241.412 25.3815 240.449 24.9697 239.182 24.9697H237.592ZM253.823 38.2148C252.119 38.2148 250.729 37.6921 249.655 36.6465C248.588 35.6009 248.055 34.208 248.055 32.4678V32.167C248.055 30.9997 248.28 29.9577 248.731 29.041C249.183 28.1172 249.82 27.4082 250.644 26.9141C251.474 26.4128 252.42 26.1621 253.479 26.1621C255.069 26.1621 256.319 26.6634 257.229 27.666C258.145 28.6686 258.604 30.0902 258.604 31.9307V33.1982H251.202C251.302 33.9574 251.603 34.5661 252.104 35.0244C252.613 35.4827 253.254 35.7119 254.027 35.7119C255.223 35.7119 256.158 35.2786 256.831 34.4121L258.356 36.1201C257.891 36.779 257.261 37.2946 256.466 37.667C255.671 38.0322 254.79 38.2148 253.823 38.2148ZM253.469 28.6758C252.853 28.6758 252.352 28.8835 251.965 29.2988C251.585 29.7142 251.342 30.3086 251.234 31.082H255.553V30.835C255.538 30.1475 255.352 29.6175 254.994 29.2451C254.636 28.8656 254.128 28.6758 253.469 28.6758ZM264.576 34.208L266.735 26.377H269.979L266.059 38H263.094L259.173 26.377H262.417L264.576 34.208Z"
              fill="white"/>
    </g>
    <g filter="url(#filter3_f)">
        <path d="M31.2295 106.197H29.4248L28.8779 109H27.9004L28.4473 106.197H26.8135V105.261H28.625L29.0967 102.841H27.333V101.891H29.2812L29.8418 99.0469H30.8193L30.2588 101.891H32.0635L32.624 99.0469H33.6084L33.0479 101.891H34.4424V102.841H32.8633L32.3916 105.261H33.9297V106.197H32.2139L31.667 109H30.6826L31.2295 106.197ZM29.6025 105.261H31.4072L31.8789 102.841H30.0742L29.6025 105.261ZM37.0947 105.104V109H35.7822V99.0469H39.4531C40.5423 99.0469 41.3945 99.3249 42.0098 99.8809C42.6296 100.437 42.9395 101.173 42.9395 102.089C42.9395 103.055 42.6364 103.8 42.0303 104.324C41.4287 104.844 40.5651 105.104 39.4395 105.104H37.0947ZM37.0947 104.03H39.4531C40.1549 104.03 40.6927 103.866 41.0664 103.538C41.4401 103.205 41.627 102.727 41.627 102.103C41.627 101.51 41.4401 101.036 41.0664 100.681C40.6927 100.325 40.18 100.141 39.5283 100.127H37.0947V104.03ZM47.9912 102.738C47.7998 102.706 47.5924 102.69 47.3691 102.69C46.5397 102.69 45.9769 103.044 45.6807 103.75V109H44.416V101.604H45.6465L45.667 102.458C46.0817 101.797 46.6696 101.467 47.4307 101.467C47.6768 101.467 47.8636 101.499 47.9912 101.562V102.738ZM48.6885 105.233C48.6885 104.509 48.8298 103.857 49.1123 103.278C49.3994 102.7 49.7959 102.253 50.3018 101.938C50.8122 101.624 51.3932 101.467 52.0449 101.467C53.0521 101.467 53.8656 101.815 54.4854 102.513C55.1097 103.21 55.4219 104.137 55.4219 105.295V105.384C55.4219 106.104 55.2829 106.751 55.0049 107.325C54.7314 107.895 54.3372 108.339 53.8223 108.658C53.3118 108.977 52.724 109.137 52.0586 109.137C51.056 109.137 50.2425 108.788 49.6182 108.091C48.9984 107.394 48.6885 106.471 48.6885 105.322V105.233ZM49.96 105.384C49.96 106.204 50.1491 106.863 50.5273 107.359C50.9102 107.856 51.4206 108.104 52.0586 108.104C52.7012 108.104 53.2116 107.854 53.5898 107.353C53.9681 106.847 54.1572 106.14 54.1572 105.233C54.1572 104.422 53.9635 103.766 53.5762 103.265C53.1934 102.759 52.6829 102.506 52.0449 102.506C51.4206 102.506 50.917 102.754 50.5342 103.251C50.1514 103.748 49.96 104.459 49.96 105.384ZM56.707 105.24C56.707 104.087 56.9736 103.171 57.5068 102.492C58.04 101.809 58.7464 101.467 59.626 101.467C60.5283 101.467 61.2324 101.786 61.7383 102.424L61.7998 101.604H62.9551V108.822C62.9551 109.779 62.6702 110.534 62.1006 111.085C61.5355 111.636 60.7744 111.912 59.8174 111.912C59.2842 111.912 58.7624 111.798 58.252 111.57C57.7415 111.342 57.3519 111.03 57.083 110.634L57.7393 109.875C58.2816 110.545 58.9447 110.88 59.7285 110.88C60.3438 110.88 60.8223 110.707 61.1641 110.36C61.5104 110.014 61.6836 109.526 61.6836 108.897V108.262C61.1777 108.845 60.4873 109.137 59.6123 109.137C58.7464 109.137 58.0446 108.788 57.5068 108.091C56.9736 107.394 56.707 106.443 56.707 105.24ZM57.9785 105.384C57.9785 106.218 58.1494 106.874 58.4912 107.353C58.833 107.826 59.3115 108.063 59.9268 108.063C60.7243 108.063 61.3099 107.701 61.6836 106.977V103.6C61.2962 102.893 60.7152 102.54 59.9404 102.54C59.3252 102.54 58.8444 102.779 58.498 103.258C58.1517 103.736 57.9785 104.445 57.9785 105.384ZM68.4443 102.738C68.2529 102.706 68.0456 102.69 67.8223 102.69C66.9928 102.69 66.43 103.044 66.1338 103.75V109H64.8691V101.604H66.0996L66.1201 102.458C66.5348 101.797 67.1227 101.467 67.8838 101.467C68.1299 101.467 68.3167 101.499 68.4443 101.562V102.738ZM73.9062 109C73.8333 108.854 73.7741 108.594 73.7285 108.221C73.1406 108.831 72.4388 109.137 71.623 109.137C70.8939 109.137 70.2946 108.932 69.8252 108.521C69.3604 108.107 69.1279 107.583 69.1279 106.949C69.1279 106.179 69.4196 105.582 70.0029 105.158C70.5908 104.73 71.4157 104.516 72.4775 104.516H73.708V103.935C73.708 103.493 73.5758 103.142 73.3115 102.882C73.0472 102.618 72.6576 102.485 72.1426 102.485C71.6914 102.485 71.3132 102.599 71.0078 102.827C70.7025 103.055 70.5498 103.331 70.5498 103.654H69.2783C69.2783 103.285 69.4082 102.93 69.668 102.588C69.9323 102.242 70.2878 101.968 70.7344 101.768C71.1855 101.567 71.68 101.467 72.2178 101.467C73.07 101.467 73.7376 101.681 74.2207 102.109C74.7038 102.533 74.9544 103.119 74.9727 103.866V107.271C74.9727 107.95 75.0592 108.49 75.2324 108.891V109H73.9062ZM71.8076 108.036C72.2041 108.036 72.5801 107.934 72.9355 107.729C73.291 107.523 73.5485 107.257 73.708 106.929V105.411H72.7168C71.1673 105.411 70.3926 105.865 70.3926 106.771C70.3926 107.168 70.5247 107.478 70.7891 107.701C71.0534 107.924 71.3929 108.036 71.8076 108.036ZM78.1445 101.604L78.1787 102.424C78.721 101.786 79.4525 101.467 80.373 101.467C81.4076 101.467 82.1117 101.863 82.4854 102.656C82.7314 102.301 83.0505 102.014 83.4424 101.795C83.8389 101.576 84.306 101.467 84.8438 101.467C86.4661 101.467 87.291 102.326 87.3184 104.044V109H86.0537V104.119C86.0537 103.59 85.9329 103.196 85.6914 102.937C85.4499 102.672 85.0443 102.54 84.4746 102.54C84.0052 102.54 83.6156 102.681 83.3057 102.964C82.9958 103.242 82.8158 103.618 82.7656 104.092V109H81.4941V104.153C81.4941 103.078 80.9678 102.54 79.915 102.54C79.0856 102.54 78.5182 102.893 78.2129 103.6V109H76.9482V101.604H78.1445ZM90.4219 101.604L90.4561 102.424C90.9984 101.786 91.7298 101.467 92.6504 101.467C93.6849 101.467 94.389 101.863 94.7627 102.656C95.0088 102.301 95.3278 102.014 95.7197 101.795C96.1162 101.576 96.5833 101.467 97.1211 101.467C98.7435 101.467 99.5684 102.326 99.5957 104.044V109H98.3311V104.119C98.3311 103.59 98.2103 103.196 97.9688 102.937C97.7272 102.672 97.3216 102.54 96.752 102.54C96.2826 102.54 95.8929 102.681 95.583 102.964C95.2731 103.242 95.0931 103.618 95.043 104.092V109H93.7715V104.153C93.7715 103.078 93.2451 102.54 92.1924 102.54C91.363 102.54 90.7956 102.893 90.4902 103.6V109H89.2256V101.604H90.4219ZM102.884 109H101.619V101.604H102.884V109ZM101.517 99.6416C101.517 99.4365 101.578 99.2633 101.701 99.1221C101.829 98.9808 102.016 98.9102 102.262 98.9102C102.508 98.9102 102.695 98.9808 102.822 99.1221C102.95 99.2633 103.014 99.4365 103.014 99.6416C103.014 99.8467 102.95 100.018 102.822 100.154C102.695 100.291 102.508 100.359 102.262 100.359C102.016 100.359 101.829 100.291 101.701 100.154C101.578 100.018 101.517 99.8467 101.517 99.6416ZM106.11 101.604L106.151 102.533C106.716 101.822 107.455 101.467 108.366 101.467C109.929 101.467 110.718 102.349 110.731 104.112V109H109.467V104.105C109.462 103.572 109.339 103.178 109.098 102.923C108.861 102.668 108.489 102.54 107.983 102.54C107.573 102.54 107.213 102.649 106.903 102.868C106.593 103.087 106.352 103.374 106.179 103.729V109H104.914V101.604H106.11ZM112.338 105.24C112.338 104.087 112.604 103.171 113.138 102.492C113.671 101.809 114.377 101.467 115.257 101.467C116.159 101.467 116.863 101.786 117.369 102.424L117.431 101.604H118.586V108.822C118.586 109.779 118.301 110.534 117.731 111.085C117.166 111.636 116.405 111.912 115.448 111.912C114.915 111.912 114.393 111.798 113.883 111.57C113.372 111.342 112.983 111.03 112.714 110.634L113.37 109.875C113.912 110.545 114.576 110.88 115.359 110.88C115.975 110.88 116.453 110.707 116.795 110.36C117.141 110.014 117.314 109.526 117.314 108.897V108.262C116.809 108.845 116.118 109.137 115.243 109.137C114.377 109.137 113.675 108.788 113.138 108.091C112.604 107.394 112.338 106.443 112.338 105.24ZM113.609 105.384C113.609 106.218 113.78 106.874 114.122 107.353C114.464 107.826 114.942 108.063 115.558 108.063C116.355 108.063 116.941 107.701 117.314 106.977V103.6C116.927 102.893 116.346 102.54 115.571 102.54C114.956 102.54 114.475 102.779 114.129 103.258C113.783 103.736 113.609 104.445 113.609 105.384ZM128.245 106.197H126.44L125.894 109H124.916L125.463 106.197H123.829V105.261H125.641L126.112 102.841H124.349V101.891H126.297L126.857 99.0469H127.835L127.274 101.891H129.079L129.64 99.0469H130.624L130.063 101.891H131.458V102.841H129.879L129.407 105.261H130.945V106.197H129.229L128.683 109H127.698L128.245 106.197ZM126.618 105.261H128.423L128.895 102.841H127.09L126.618 105.261ZM140.119 105.842C139.996 106.895 139.606 107.708 138.95 108.282C138.299 108.852 137.43 109.137 136.346 109.137C135.17 109.137 134.227 108.715 133.516 107.872C132.809 107.029 132.456 105.901 132.456 104.488V103.531C132.456 102.606 132.62 101.793 132.948 101.091C133.281 100.389 133.75 99.8512 134.356 99.4775C134.963 99.0993 135.664 98.9102 136.462 98.9102C137.519 98.9102 138.367 99.2064 139.005 99.7988C139.643 100.387 140.014 101.202 140.119 102.246H138.8C138.686 101.453 138.438 100.879 138.055 100.523C137.676 100.168 137.146 99.9902 136.462 99.9902C135.623 99.9902 134.965 100.3 134.486 100.92C134.012 101.54 133.775 102.422 133.775 103.565V104.529C133.775 105.609 134.001 106.468 134.452 107.106C134.903 107.744 135.535 108.063 136.346 108.063C137.075 108.063 137.633 107.899 138.021 107.571C138.412 107.239 138.672 106.662 138.8 105.842H140.119ZM141.384 105.233C141.384 104.509 141.525 103.857 141.808 103.278C142.095 102.7 142.491 102.253 142.997 101.938C143.507 101.624 144.089 101.467 144.74 101.467C145.747 101.467 146.561 101.815 147.181 102.513C147.805 103.21 148.117 104.137 148.117 105.295V105.384C148.117 106.104 147.978 106.751 147.7 107.325C147.427 107.895 147.033 108.339 146.518 108.658C146.007 108.977 145.419 109.137 144.754 109.137C143.751 109.137 142.938 108.788 142.313 108.091C141.694 107.394 141.384 106.471 141.384 105.322V105.233ZM142.655 105.384C142.655 106.204 142.844 106.863 143.223 107.359C143.605 107.856 144.116 108.104 144.754 108.104C145.396 108.104 145.907 107.854 146.285 107.353C146.663 106.847 146.853 106.14 146.853 105.233C146.853 104.422 146.659 103.766 146.271 103.265C145.889 102.759 145.378 102.506 144.74 102.506C144.116 102.506 143.612 102.754 143.229 103.251C142.847 103.748 142.655 104.459 142.655 105.384ZM150.893 101.604L150.927 102.424C151.469 101.786 152.201 101.467 153.121 101.467C154.156 101.467 154.86 101.863 155.233 102.656C155.479 102.301 155.799 102.014 156.19 101.795C156.587 101.576 157.054 101.467 157.592 101.467C159.214 101.467 160.039 102.326 160.066 104.044V109H158.802V104.119C158.802 103.59 158.681 103.196 158.439 102.937C158.198 102.672 157.792 102.54 157.223 102.54C156.753 102.54 156.364 102.681 156.054 102.964C155.744 103.242 155.564 103.618 155.514 104.092V109H154.242V104.153C154.242 103.078 153.716 102.54 152.663 102.54C151.834 102.54 151.266 102.893 150.961 103.6V109H149.696V101.604H150.893ZM168.229 105.384C168.229 106.509 167.971 107.416 167.456 108.104C166.941 108.793 166.244 109.137 165.364 109.137C164.466 109.137 163.76 108.852 163.245 108.282V111.844H161.98V101.604H163.136L163.197 102.424C163.712 101.786 164.428 101.467 165.344 101.467C166.232 101.467 166.934 101.802 167.449 102.472C167.969 103.142 168.229 104.074 168.229 105.268V105.384ZM166.964 105.24C166.964 104.406 166.786 103.748 166.431 103.265C166.075 102.782 165.588 102.54 164.968 102.54C164.202 102.54 163.628 102.88 163.245 103.559V107.093C163.623 107.767 164.202 108.104 164.981 108.104C165.588 108.104 166.068 107.865 166.424 107.387C166.784 106.904 166.964 106.188 166.964 105.24ZM174.408 108.269C173.916 108.847 173.194 109.137 172.241 109.137C171.453 109.137 170.851 108.909 170.437 108.453C170.026 107.993 169.819 107.314 169.814 106.416V101.604H171.079V106.382C171.079 107.503 171.535 108.063 172.446 108.063C173.412 108.063 174.055 107.703 174.374 106.983V101.604H175.639V109H174.436L174.408 108.269ZM179.282 99.8125V101.604H180.663V102.581H179.282V107.168C179.282 107.464 179.344 107.688 179.467 107.838C179.59 107.984 179.799 108.057 180.096 108.057C180.242 108.057 180.442 108.029 180.697 107.975V109C180.365 109.091 180.041 109.137 179.727 109.137C179.161 109.137 178.735 108.966 178.448 108.624C178.161 108.282 178.018 107.797 178.018 107.168V102.581H176.671V101.604H178.018V99.8125H179.282ZM185.216 109.137C184.213 109.137 183.397 108.809 182.769 108.152C182.14 107.492 181.825 106.61 181.825 105.507V105.274C181.825 104.541 181.964 103.887 182.242 103.312C182.525 102.734 182.917 102.283 183.418 101.959C183.924 101.631 184.471 101.467 185.059 101.467C186.02 101.467 186.768 101.784 187.301 102.417C187.834 103.05 188.101 103.957 188.101 105.138V105.664H183.09C183.108 106.393 183.32 106.983 183.726 107.435C184.136 107.881 184.655 108.104 185.284 108.104C185.731 108.104 186.109 108.013 186.419 107.831C186.729 107.649 187 107.407 187.232 107.106L188.005 107.708C187.385 108.66 186.455 109.137 185.216 109.137ZM185.059 102.506C184.548 102.506 184.12 102.693 183.773 103.066C183.427 103.436 183.213 103.955 183.131 104.625H186.836V104.529C186.799 103.887 186.626 103.39 186.316 103.039C186.007 102.684 185.587 102.506 185.059 102.506ZM193.146 102.738C192.954 102.706 192.747 102.69 192.523 102.69C191.694 102.69 191.131 103.044 190.835 103.75V109H189.57V101.604H190.801L190.821 102.458C191.236 101.797 191.824 101.467 192.585 101.467C192.831 101.467 193.018 101.499 193.146 101.562V102.738ZM200.918 104.563C199.792 104.24 198.972 103.843 198.457 103.374C197.947 102.9 197.691 102.317 197.691 101.624C197.691 100.84 198.004 100.193 198.628 99.6826C199.257 99.1676 200.073 98.9102 201.075 98.9102C201.759 98.9102 202.367 99.0423 202.9 99.3066C203.438 99.571 203.853 99.9355 204.145 100.4C204.441 100.865 204.589 101.373 204.589 101.925H203.27C203.27 101.323 203.078 100.852 202.695 100.51C202.312 100.163 201.772 99.9902 201.075 99.9902C200.428 99.9902 199.922 100.134 199.558 100.421C199.198 100.703 199.018 101.098 199.018 101.604C199.018 102.009 199.188 102.353 199.53 102.636C199.877 102.914 200.462 103.169 201.287 103.401C202.117 103.634 202.764 103.891 203.229 104.174C203.698 104.452 204.044 104.778 204.268 105.151C204.495 105.525 204.609 105.965 204.609 106.471C204.609 107.277 204.295 107.924 203.666 108.412C203.037 108.895 202.196 109.137 201.144 109.137C200.46 109.137 199.822 109.007 199.229 108.747C198.637 108.483 198.179 108.123 197.855 107.667C197.536 107.211 197.377 106.694 197.377 106.115H198.696C198.696 106.717 198.917 107.193 199.359 107.544C199.806 107.89 200.401 108.063 201.144 108.063C201.836 108.063 202.367 107.922 202.736 107.64C203.105 107.357 203.29 106.972 203.29 106.484C203.29 105.997 203.119 105.621 202.777 105.356C202.436 105.088 201.816 104.823 200.918 104.563ZM209.066 108.104C209.518 108.104 209.912 107.968 210.249 107.694C210.586 107.421 210.773 107.079 210.81 106.669H212.006C211.983 107.093 211.837 107.496 211.568 107.879C211.299 108.262 210.939 108.567 210.488 108.795C210.042 109.023 209.568 109.137 209.066 109.137C208.059 109.137 207.257 108.802 206.66 108.132C206.068 107.457 205.771 106.537 205.771 105.37V105.158C205.771 104.438 205.904 103.798 206.168 103.237C206.432 102.677 206.811 102.242 207.303 101.932C207.799 101.622 208.385 101.467 209.06 101.467C209.889 101.467 210.577 101.715 211.124 102.212C211.675 102.709 211.969 103.354 212.006 104.146H210.81C210.773 103.668 210.591 103.276 210.263 102.971C209.939 102.661 209.538 102.506 209.06 102.506C208.417 102.506 207.918 102.738 207.562 103.203C207.212 103.663 207.036 104.331 207.036 105.206V105.445C207.036 106.298 207.212 106.954 207.562 107.414C207.913 107.874 208.415 108.104 209.066 108.104ZM214.802 109H213.537V101.604H214.802V109ZM213.435 99.6416C213.435 99.4365 213.496 99.2633 213.619 99.1221C213.747 98.9808 213.934 98.9102 214.18 98.9102C214.426 98.9102 214.613 98.9808 214.74 99.1221C214.868 99.2633 214.932 99.4365 214.932 99.6416C214.932 99.8467 214.868 100.018 214.74 100.154C214.613 100.291 214.426 100.359 214.18 100.359C213.934 100.359 213.747 100.291 213.619 100.154C213.496 100.018 213.435 99.8467 213.435 99.6416ZM219.901 109.137C218.899 109.137 218.083 108.809 217.454 108.152C216.825 107.492 216.511 106.61 216.511 105.507V105.274C216.511 104.541 216.65 103.887 216.928 103.312C217.21 102.734 217.602 102.283 218.104 101.959C218.609 101.631 219.156 101.467 219.744 101.467C220.706 101.467 221.453 101.784 221.986 102.417C222.52 103.05 222.786 103.957 222.786 105.138V105.664H217.775C217.794 106.393 218.006 106.983 218.411 107.435C218.821 107.881 219.341 108.104 219.97 108.104C220.416 108.104 220.795 108.013 221.104 107.831C221.414 107.649 221.686 107.407 221.918 107.106L222.69 107.708C222.071 108.66 221.141 109.137 219.901 109.137ZM219.744 102.506C219.234 102.506 218.805 102.693 218.459 103.066C218.113 103.436 217.898 103.955 217.816 104.625H221.521V104.529C221.485 103.887 221.312 103.39 221.002 103.039C220.692 102.684 220.273 102.506 219.744 102.506ZM225.452 101.604L225.493 102.533C226.058 101.822 226.797 101.467 227.708 101.467C229.271 101.467 230.06 102.349 230.073 104.112V109H228.809V104.105C228.804 103.572 228.681 103.178 228.439 102.923C228.202 102.668 227.831 102.54 227.325 102.54C226.915 102.54 226.555 102.649 226.245 102.868C225.935 103.087 225.694 103.374 225.521 103.729V109H224.256V101.604H225.452ZM234.947 108.104C235.398 108.104 235.793 107.968 236.13 107.694C236.467 107.421 236.654 107.079 236.69 106.669H237.887C237.864 107.093 237.718 107.496 237.449 107.879C237.18 108.262 236.82 108.567 236.369 108.795C235.923 109.023 235.449 109.137 234.947 109.137C233.94 109.137 233.138 108.802 232.541 108.132C231.949 107.457 231.652 106.537 231.652 105.37V105.158C231.652 104.438 231.785 103.798 232.049 103.237C232.313 102.677 232.691 102.242 233.184 101.932C233.68 101.622 234.266 101.467 234.94 101.467C235.77 101.467 236.458 101.715 237.005 102.212C237.556 102.709 237.85 103.354 237.887 104.146H236.69C236.654 103.668 236.472 103.276 236.144 102.971C235.82 102.661 235.419 102.506 234.94 102.506C234.298 102.506 233.799 102.738 233.443 103.203C233.092 103.663 232.917 104.331 232.917 105.206V105.445C232.917 106.298 233.092 106.954 233.443 107.414C233.794 107.874 234.296 108.104 234.947 108.104ZM242.378 109.137C241.375 109.137 240.56 108.809 239.931 108.152C239.302 107.492 238.987 106.61 238.987 105.507V105.274C238.987 104.541 239.126 103.887 239.404 103.312C239.687 102.734 240.079 102.283 240.58 101.959C241.086 101.631 241.633 101.467 242.221 101.467C243.182 101.467 243.93 101.784 244.463 102.417C244.996 103.05 245.263 103.957 245.263 105.138V105.664H240.252C240.27 106.393 240.482 106.983 240.888 107.435C241.298 107.881 241.817 108.104 242.446 108.104C242.893 108.104 243.271 108.013 243.581 107.831C243.891 107.649 244.162 107.407 244.395 107.106L245.167 107.708C244.547 108.66 243.618 109.137 242.378 109.137ZM242.221 102.506C241.71 102.506 241.282 102.693 240.936 103.066C240.589 103.436 240.375 103.955 240.293 104.625H243.998V104.529C243.962 103.887 243.788 103.39 243.479 103.039C243.169 102.684 242.749 102.506 242.221 102.506ZM250.232 108.337C250.232 108.118 250.296 107.936 250.424 107.79C250.556 107.644 250.752 107.571 251.012 107.571C251.271 107.571 251.467 107.644 251.6 107.79C251.736 107.936 251.805 108.118 251.805 108.337C251.805 108.547 251.736 108.722 251.6 108.863C251.467 109.005 251.271 109.075 251.012 109.075C250.752 109.075 250.556 109.005 250.424 108.863C250.296 108.722 250.232 108.547 250.232 108.337ZM253.924 108.337C253.924 108.118 253.988 107.936 254.115 107.79C254.247 107.644 254.443 107.571 254.703 107.571C254.963 107.571 255.159 107.644 255.291 107.79C255.428 107.936 255.496 108.118 255.496 108.337C255.496 108.547 255.428 108.722 255.291 108.863C255.159 109.005 254.963 109.075 254.703 109.075C254.443 109.075 254.247 109.005 254.115 108.863C253.988 108.722 253.924 108.547 253.924 108.337ZM264.684 103.661H267.459V104.857H264.684V108.002H263.412V104.857H260.637V103.661H263.412V100.756H264.684V103.661ZM273.837 99.04V100.113H273.604C272.62 100.132 271.836 100.423 271.253 100.988C270.67 101.553 270.332 102.349 270.241 103.374C270.765 102.772 271.481 102.472 272.388 102.472C273.254 102.472 273.944 102.777 274.459 103.388C274.979 103.998 275.238 104.787 275.238 105.753C275.238 106.778 274.958 107.599 274.397 108.214C273.841 108.829 273.094 109.137 272.155 109.137C271.203 109.137 270.43 108.772 269.838 108.043C269.245 107.309 268.949 106.366 268.949 105.213V104.728C268.949 102.896 269.339 101.496 270.118 100.53C270.902 99.5596 272.066 99.0628 273.611 99.04H273.837ZM272.176 103.524C271.743 103.524 271.344 103.654 270.979 103.914C270.615 104.174 270.362 104.5 270.221 104.892V105.356C270.221 106.177 270.405 106.838 270.774 107.339C271.144 107.84 271.604 108.091 272.155 108.091C272.725 108.091 273.172 107.881 273.495 107.462C273.823 107.043 273.987 106.493 273.987 105.814C273.987 105.131 273.821 104.579 273.488 104.16C273.16 103.736 272.723 103.524 272.176 103.524ZM281.527 101.604L281.562 102.424C282.104 101.786 282.835 101.467 283.756 101.467C284.79 101.467 285.494 101.863 285.868 102.656C286.114 102.301 286.433 102.014 286.825 101.795C287.222 101.576 287.689 101.467 288.227 101.467C289.849 101.467 290.674 102.326 290.701 104.044V109H289.437V104.119C289.437 103.59 289.316 103.196 289.074 102.937C288.833 102.672 288.427 102.54 287.857 102.54C287.388 102.54 286.998 102.681 286.688 102.964C286.379 103.242 286.199 103.618 286.148 104.092V109H284.877V104.153C284.877 103.078 284.351 102.54 283.298 102.54C282.468 102.54 281.901 102.893 281.596 103.6V109H280.331V101.604H281.527ZM292.28 105.233C292.28 104.509 292.422 103.857 292.704 103.278C292.991 102.7 293.388 102.253 293.894 101.938C294.404 101.624 294.985 101.467 295.637 101.467C296.644 101.467 297.457 101.815 298.077 102.513C298.701 103.21 299.014 104.137 299.014 105.295V105.384C299.014 106.104 298.875 106.751 298.597 107.325C298.323 107.895 297.929 108.339 297.414 108.658C296.904 108.977 296.316 109.137 295.65 109.137C294.648 109.137 293.834 108.788 293.21 108.091C292.59 107.394 292.28 106.471 292.28 105.322V105.233ZM293.552 105.384C293.552 106.204 293.741 106.863 294.119 107.359C294.502 107.856 295.012 108.104 295.65 108.104C296.293 108.104 296.803 107.854 297.182 107.353C297.56 106.847 297.749 106.14 297.749 105.233C297.749 104.422 297.555 103.766 297.168 103.265C296.785 102.759 296.275 102.506 295.637 102.506C295.012 102.506 294.509 102.754 294.126 103.251C293.743 103.748 293.552 104.459 293.552 105.384ZM304.175 102.738C303.983 102.706 303.776 102.69 303.553 102.69C302.723 102.69 302.16 103.044 301.864 103.75V109H300.6V101.604H301.83L301.851 102.458C302.265 101.797 302.853 101.467 303.614 101.467C303.86 101.467 304.047 101.499 304.175 101.562V102.738ZM308.276 109.137C307.274 109.137 306.458 108.809 305.829 108.152C305.2 107.492 304.886 106.61 304.886 105.507V105.274C304.886 104.541 305.025 103.887 305.303 103.312C305.585 102.734 305.977 102.283 306.479 101.959C306.984 101.631 307.531 101.467 308.119 101.467C309.081 101.467 309.828 101.784 310.361 102.417C310.895 103.05 311.161 103.957 311.161 105.138V105.664H306.15C306.169 106.393 306.381 106.983 306.786 107.435C307.196 107.881 307.716 108.104 308.345 108.104C308.791 108.104 309.17 108.013 309.479 107.831C309.789 107.649 310.061 107.407 310.293 107.106L311.065 107.708C310.446 108.66 309.516 109.137 308.276 109.137ZM308.119 102.506C307.609 102.506 307.18 102.693 306.834 103.066C306.488 103.436 306.273 103.955 306.191 104.625H309.896V104.529C309.86 103.887 309.687 103.39 309.377 103.039C309.067 102.684 308.648 102.506 308.119 102.506Z"
              fill="#696969"/>
    </g>
    <g filter="url(#filter4_d)">
        <path d="M316.543 83H314.363V68.5508L309.992 70.1562V68.1875L316.203 65.8555H316.543V83ZM333.594 75.7227C333.594 78.2617 333.16 80.1484 332.293 81.3828C331.426 82.6172 330.07 83.2344 328.227 83.2344C326.406 83.2344 325.059 82.6328 324.184 81.4297C323.309 80.2188 322.855 78.4141 322.824 76.0156V73.1211C322.824 70.6133 323.258 68.75 324.125 67.5312C324.992 66.3125 326.352 65.7031 328.203 65.7031C330.039 65.7031 331.391 66.293 332.258 67.4727C333.125 68.6445 333.57 70.457 333.594 72.9102V75.7227ZM331.426 72.7578C331.426 70.9219 331.168 69.5859 330.652 68.75C330.137 67.9062 329.32 67.4844 328.203 67.4844C327.094 67.4844 326.285 67.9023 325.777 68.7383C325.27 69.5742 325.008 70.8594 324.992 72.5938V76.0625C324.992 77.9062 325.258 79.2695 325.789 80.1523C326.328 81.0273 327.141 81.4648 328.227 81.4648C329.297 81.4648 330.09 81.0508 330.605 80.2227C331.129 79.3945 331.402 78.0898 331.426 76.3086V72.7578ZM347.07 75.7227C347.07 78.2617 346.637 80.1484 345.77 81.3828C344.902 82.6172 343.547 83.2344 341.703 83.2344C339.883 83.2344 338.535 82.6328 337.66 81.4297C336.785 80.2188 336.332 78.4141 336.301 76.0156V73.1211C336.301 70.6133 336.734 68.75 337.602 67.5312C338.469 66.3125 339.828 65.7031 341.68 65.7031C343.516 65.7031 344.867 66.293 345.734 67.4727C346.602 68.6445 347.047 70.457 347.07 72.9102V75.7227ZM344.902 72.7578C344.902 70.9219 344.645 69.5859 344.129 68.75C343.613 67.9062 342.797 67.4844 341.68 67.4844C340.57 67.4844 339.762 67.9023 339.254 68.7383C338.746 69.5742 338.484 70.8594 338.469 72.5938V76.0625C338.469 77.9062 338.734 79.2695 339.266 80.1523C339.805 81.0273 340.617 81.4648 341.703 81.4648C342.773 81.4648 343.566 81.0508 344.082 80.2227C344.605 79.3945 344.879 78.0898 344.902 76.3086V72.7578ZM349.66 69.2188C349.66 68.1953 349.984 67.3516 350.633 66.6875C351.289 66.0234 352.129 65.6914 353.152 65.6914C354.191 65.6914 355.031 66.0273 355.672 66.6992C356.32 67.3633 356.645 68.2266 356.645 69.2891V70.1211C356.645 71.1523 356.316 71.9961 355.66 72.6523C355.012 73.3008 354.184 73.625 353.176 73.625C352.16 73.625 351.32 73.3008 350.656 72.6523C349.992 71.9961 349.66 71.125 349.66 70.0391V69.2188ZM351.277 70.1211C351.277 70.7305 351.449 71.2344 351.793 71.6328C352.137 72.0234 352.598 72.2188 353.176 72.2188C353.73 72.2188 354.176 72.0273 354.512 71.6445C354.855 71.2617 355.027 70.7383 355.027 70.0742V69.2188C355.027 68.6094 354.859 68.1055 354.523 67.707C354.188 67.3086 353.73 67.1094 353.152 67.1094C352.574 67.1094 352.117 67.3086 351.781 67.707C351.445 68.1055 351.277 68.625 351.277 69.2656V70.1211ZM357.969 78.8164C357.969 77.793 358.293 76.9531 358.941 76.2969C359.598 75.6328 360.438 75.3008 361.461 75.3008C362.484 75.3008 363.324 75.6289 363.98 76.2852C364.637 76.9414 364.965 77.8125 364.965 78.8984V79.7305C364.965 80.7539 364.637 81.5977 363.98 82.2617C363.332 82.918 362.5 83.2461 361.484 83.2461C360.469 83.2461 359.629 82.9219 358.965 82.2734C358.301 81.6172 357.969 80.7461 357.969 79.6602V78.8164ZM359.586 79.7305C359.586 80.3477 359.758 80.8555 360.102 81.2539C360.445 81.6445 360.906 81.8398 361.484 81.8398C362.047 81.8398 362.496 81.6484 362.832 81.2656C363.168 80.875 363.336 80.3477 363.336 79.6836V78.8164C363.336 78.1992 363.164 77.6953 362.82 77.3047C362.484 76.9141 362.031 76.7188 361.461 76.7188C360.906 76.7188 360.453 76.9141 360.102 77.3047C359.758 77.6875 359.586 78.207 359.586 78.8633V79.7305ZM353.668 81.7109L352.438 80.9375L360.77 67.6016L362 68.375L353.668 81.7109Z"
              fill="#66BF91"/>
    </g>
    <rect x="20" y="59" width="284" height="33" rx="16.5" fill="#798A93"/>
    <rect x="28" y="66" width="266" height="19" rx="9.5" fill="#66BF91"/>
    <defs>
        <filter id="filter0_f" x="0" y="0" width="387" height="136" filterUnits="userSpaceOnUse"
                color-interpolation-filters="sRGB">
            <feFlood flood-opacity="0" result="BackgroundImageFix"/>
            <feBlend mode="normal" in="SourceGraphic" in2="BackgroundImageFix" result="shape"/>
            <feGaussianBlur stdDeviation="2" result="effect1_foregroundBlur"/>
        </filter>
        <filter id="filter1_f" x="11" y="50" width="364" height="72" filterUnits="userSpaceOnUse"
                color-interpolation-filters="sRGB">
            <feFlood flood-opacity="0" result="BackgroundImageFix"/>
            <feBlend mode="normal" in="SourceGraphic" in2="BackgroundImageFix" result="shape"/>
            <feGaussianBlur stdDeviation="2" result="effect1_foregroundBlur"/>
        </filter>
        <filter id="filter2_f" x="15.3965" y="17.5" width="258.583" height="28.9688" filterUnits="userSpaceOnUse"
                color-interpolation-filters="sRGB">
            <feFlood flood-opacity="0" result="BackgroundImageFix"/>
            <feBlend mode="normal" in="SourceGraphic" in2="BackgroundImageFix" result="shape"/>
            <feGaussianBlur stdDeviation="2" result="effect1_foregroundBlur"/>
        </filter>
        <filter id="filter3_f" x="22.8135" y="94.9102" width="292.348" height="21.002" filterUnits="userSpaceOnUse"
                color-interpolation-filters="sRGB">
            <feFlood flood-opacity="0" result="BackgroundImageFix"/>
            <feBlend mode="normal" in="SourceGraphic" in2="BackgroundImageFix" result="shape"/>
            <feGaussianBlur stdDeviation="2" result="effect1_foregroundBlur"/>
        </filter>
        <filter id="filter4_d" x="305.992" y="65.6914" width="62.9727" height="25.5547" filterUnits="userSpaceOnUse"
                color-interpolation-filters="sRGB">
            <feFlood flood-opacity="0" result="BackgroundImageFix"/>
            <feColorMatrix in="SourceAlpha" type="matrix" values="0 0 0 0 0 0 0 0 0 0 0 0 0 0 0 0 0 0 127 0"/>
            <feOffset dy="4"/>
            <feGaussianBlur stdDeviation="2"/>
            <feColorMatrix type="matrix" values="0 0 0 0 0 0 0 0 0 0 0 0 0 0 0 0 0 0 0.25 0"/>
            <feBlend mode="normal" in2="BackgroundImageFix" result="effect1_dropShadow"/>
            <feBlend mode="normal" in="SourceGraphic" in2="effect1_dropShadow" result="shape"/>
        </filter>
    </defs>
</svg>
