<svg height="512" viewBox="0 0 64 64" width="512" xmlns="http://www.w3.org/2000/svg">
    <g id="purchasing">
        <path d="m61 35h-4v11h-6v-11h-4l7-7z" fill="#00d7df"/>
        <path d="m53 52.67v.91a2 2 0 0 1 -1.33 1.89l-15.67 5.53h-15l-12-4v-16h7l3 .88 6 1.77 6.56 1.93a1.992 1.992 0 0 1 1.44 1.92v.5a2.006 2.006 0 0 1 -2 2h-12l9 5h8l6-1.77 8.44-2.48a2 2 0 0 1 2.56 1.92z"
              fill="#ffdaaa"/>
        <path d="m53 52.67v.91a2 2 0 0 1 -1.33 1.89l-15.67 5.53h-15l-12-4v-2.67l8 2.67h15l14.04-4.96 4.4-1.29a2 2 0 0 1 2.56 1.92z"
              fill="#ffc477"/>
        <path d="m46 42h-4v11.23l-6 1.77v-7-6h-4l7-7z" fill="#00d7df"/>
        <path d="m29 37h-4v6.65l-6-1.77v-4.88h-4l7-7z" fill="#00d7df"/>
        <path d="m17 27h-4v7h-6v-7h-4l7-7z" fill="#00d7df"/>
        <path d="m9 57v3h-6v-22h6v3z" fill="#c0ab91"/>
        <circle cx="34" cy="17" fill="#e0e0e2" r="14"/>
        <g fill="#ffde55">
            <path d="m48 17h-4a9.966 9.966 0 0 0 -1.34-5l3.46-2a13.854 13.854 0 0 1 1.88 7z"/>
            <path d="m42.66 22 3.46 2a13.821 13.821 0 0 1 -5.12 5.12l-2-3.46a10.19 10.19 0 0 0 3.66-3.66z"/>
            <path d="m41 4.88-2 3.46a9.966 9.966 0 0 0 -5-1.34v-4a13.854 13.854 0 0 1 7 1.88z"/>
            <path d="m34 27v4a13.854 13.854 0 0 1 -7-1.88l2-3.46a9.966 9.966 0 0 0 5 1.34z"/>
            <path d="m27 4.88 2 3.46a10.19 10.19 0 0 0 -3.66 3.66l-3.46-2a13.821 13.821 0 0 1 5.12-5.12z"/>
            <path d="m25.34 22-3.46 2a13.854 13.854 0 0 1 -1.88-7h4a9.966 9.966 0 0 0 1.34 5z"/>
            <circle cx="34" cy="17" r="10"/>
        </g>
        <path d="m44 17a10 10 0 0 1 -18.78 4.78 9.9 9.9 0 0 0 4.78 1.22 10 10 0 0 0 10-10 9.9 9.9 0 0 0 -1.22-4.78 9.984 9.984 0 0 1 5.22 8.78z"
              fill="#ffcd00"/>
        <path d="m52.8 50.27a3.025 3.025 0 0 0 -2.65-.48l-7.15 2.11v-8.9h3a.987.987 0 0 0 .92-.62 1 1 0 0 0 -.21-1.09l-7-7a1.008 1.008 0 0 0 -1.42 0l-7 7a1 1 0 0 0 -.21 1.09.987.987 0 0 0 .92.62h3v11h-6.74l-5.4-3h8.14a3.009 3.009 0 0 0 3-3v-.5a3.015 3.015 0 0 0 -2.15-2.88l-5.85-1.72v-4.9h3a.987.987 0 0 0 .92-.62 1 1 0 0 0 -.21-1.09l-7-7a1.008 1.008 0 0 0 -1.42 0l-7 7a1 1 0 0 0 -.21 1.09.987.987 0 0 0 .92.62h3v2.55l-1.72-.51a.863.863 0 0 0 -.28-.04h-6v-2a1 1 0 0 0 -1-1h-6a1 1 0 0 0 -1 1v22a1 1 0 0 0 1 1h6a1 1 0 0 0 1-1v-1.61l10.68 3.56a1.185 1.185 0 0 0 .32.05h15a.919.919 0 0 0 .33-.06l15.67-5.53a3 3 0 0 0 2-2.83v-.91a2.984 2.984 0 0 0 -1.2-2.4zm-44.8 8.73h-4v-20h4zm26.41-18 4.59-4.59 4.59 4.59h-1.59a1 1 0 0 0 -1 1v10.49l-4 1.17v-11.66a1 1 0 0 0 -1-1zm-17-5 4.59-4.59 4.59 4.59h-1.59a1 1 0 0 0 -1 1v5.31l-4-1.18v-4.13a1 1 0 0 0 -1-1zm34.59 17.58a1 1 0 0 1 -.67.95l-15.5 5.47h-14.67l-11.16-3.72v-14.28h5.86l15.42 4.54a1.008 1.008 0 0 1 .72.96v.5a1 1 0 0 1 -1 1h-12a1 1 0 0 0 -.49 1.87l9 5a.947.947 0 0 0 .49.13h8a.863.863 0 0 0 .28-.04l14.44-4.25a1 1 0 0 1 1.28.96z"/>
        <path d="m34 2a15 15 0 1 0 15 15 15.018 15.018 0 0 0 -15-15zm12.95 14h-2a11.089 11.089 0 0 0 -.97-3.6l1.73-1.01a13.022 13.022 0 0 1 1.24 4.61zm-5.61-9.72a13.244 13.244 0 0 1 3.38 3.38l-1.74 1a11.406 11.406 0 0 0 -2.64-2.64zm-6.34-2.23a13.022 13.022 0 0 1 4.61 1.24l-1.01 1.73a11.089 11.089 0 0 0 -3.6-.97zm-2 0v2a11.089 11.089 0 0 0 -3.6.97l-1.01-1.73a13.022 13.022 0 0 1 4.61-1.24zm-6.34 2.23 1 1.74a11.406 11.406 0 0 0 -2.64 2.64l-1.74-1a13.244 13.244 0 0 1 3.38-3.38zm-4.37 5.11 1.73 1.01a11.089 11.089 0 0 0 -.97 3.6h-2a13.022 13.022 0 0 1 1.24-4.61zm-1.24 6.61h2a11.089 11.089 0 0 0 .97 3.6l-1.73 1.01a13.022 13.022 0 0 1 -1.24-4.61zm5.61 9.72a13.244 13.244 0 0 1 -3.38-3.38l1.74-1a11.406 11.406 0 0 0 2.64 2.64zm6.34 2.23a13.022 13.022 0 0 1 -4.61-1.24l1.01-1.73a11.089 11.089 0 0 0 3.6.97zm-8-12.95a9 9 0 1 1 9 9 9.014 9.014 0 0 1 -9-9zm10 12.95v-2a11.089 11.089 0 0 0 3.6-.97l1.01 1.73a13.022 13.022 0 0 1 -4.61 1.24zm6.34-2.23-1-1.74a11.406 11.406 0 0 0 2.64-2.64l1.74 1a13.244 13.244 0 0 1 -3.38 3.38zm4.37-5.11-1.73-1.01a11.089 11.089 0 0 0 .97-3.6h2a13.022 13.022 0 0 1 -1.24 4.61z"/>
        <path d="m33 24h2v-2a2 2 0 0 0 2-2v-2a2 2 0 0 0 -2-2h-2v-2h4v-2h-2v-2h-2v2a2 2 0 0 0 -2 2v2a2 2 0 0 0 2 2h2v2h-4v2h2z"/>
        <path d="m61.707 34.293-7-7a1 1 0 0 0 -1.414 0l-7 7a1 1 0 0 0 .707 1.707h3v10a1 1 0 0 0 1 1h6a1 1 0 0 0 1-1v-10h3a1 1 0 0 0 .707-1.707zm-4.707-.293a1 1 0 0 0 -1 1v10h-4v-10a1 1 0 0 0 -1-1h-1.586l4.586-4.586 4.586 4.586z"/>
        <path d="m3 28h3v6a1 1 0 0 0 1 1h6a1 1 0 0 0 1-1v-6h3a1 1 0 0 0 .707-1.707l-7-7a1 1 0 0 0 -1.414 0l-7 7a1 1 0 0 0 .707 1.707zm7-6.586 4.586 4.586h-1.586a1 1 0 0 0 -1 1v6h-4v-6a1 1 0 0 0 -1-1h-1.586z"/>
    </g>
</svg>
