<?xml version="1.0" encoding="UTF-8" standalone="no"?>
<svg
        xmlns:dc="http://purl.org/dc/elements/1.1/"
        xmlns:cc="http://creativecommons.org/ns#"
        xmlns:rdf="http://www.w3.org/1999/02/22-rdf-syntax-ns#"
        xmlns:svg="http://www.w3.org/2000/svg"
        xmlns="http://www.w3.org/2000/svg"
        xmlns:sodipodi="http://sodipodi.sourceforge.net/DTD/sodipodi-0.dtd"
        xmlns:inkscape="http://www.inkscape.org/namespaces/inkscape"
        inkscape:version="1.0 (4035a4fb49, 2020-05-01)"
        sodipodi:docname="question_round_example.svg"
        id="svg35"
        version="1.1"
        fill="none"
        viewBox="0 0 217 200"
        height="200"
        width="217">
    <metadata
            id="metadata39">
        <rdf:RDF>
            <cc:Work
                    rdf:about="">
                <dc:format>image/svg+xml</dc:format>
                <dc:type
                        rdf:resource="http://purl.org/dc/dcmitype/StillImage"/>
            </cc:Work>
        </rdf:RDF>
    </metadata>
    <sodipodi:namedview
            inkscape:current-layer="svg35"
            inkscape:window-maximized="1"
            inkscape:window-y="-9"
            inkscape:window-x="-9"
            inkscape:cy="99.161174"
            inkscape:cx="109.5"
            inkscape:zoom="3.7899543"
            showgrid="false"
            id="namedview37"
            inkscape:window-height="1001"
            inkscape:window-width="1920"
            inkscape:pageshadow="2"
            inkscape:pageopacity="0"
            guidetolerance="10"
            gridtolerance="10"
            objecttolerance="10"
            borderopacity="1"
            bordercolor="#666666"
            pagecolor="#ffffff"/>
    <g
            transform="translate(0,-18.7822)"
            id="g4"
            filter="url(#filter0_d)"
            opacity="0.25">
        <rect
                id="rect2"
                fill="#ffffff"
                rx="15"
                height="186"
                width="203"
                y="21.7822"
                x="4"/>
    </g>
    <path
            id="path6"
            fill="#ffb763"
            d="M 91.5455,118.9848 H 84.734 V 73.8311 l -13.6597,5.0171 v -6.1524 l 19.4092,-7.2876 h 1.062 z m 22.9615,-26.733 2.71,-26.5872 h 27.319 v 6.2622 h -21.57 l -1.611,14.539 c 2.612,-1.539 5.579,-2.308 8.899,-2.308 4.858,0 8.716,1.612 11.572,4.834 2.857,3.199 4.285,7.532 4.285,13.001 0,5.493 -1.489,9.827 -4.468,13 -2.954,3.15 -7.092,4.725 -12.414,4.725 -4.712,0 -8.558,-1.307 -11.536,-3.919 -2.979,-2.612 -4.675,-6.226 -5.09,-10.84 h 6.408 c 0.415,3.052 1.502,5.359 3.26,6.922 1.757,1.538 4.077,2.307 6.958,2.307 3.149,0 5.615,-1.074 7.397,-3.223 1.807,-2.148 2.71,-5.115 2.71,-8.899 0,-3.564 -0.977,-6.421 -2.93,-8.569 -1.928,-2.173 -4.504,-3.259 -7.727,-3.259 -2.954,0 -5.273,0.647 -6.958,1.94 l -1.794,1.465 z"/>
    <path
            id="path8"
            fill="#ffb763"
            d="m 102.08,172.2658 0.599,-13.355 C 66.3909,157.2828 38.2933,126.5458 39.9213,90.2578 40.3673,80.3155 42.9984,70.9882 47.33,62.7186 L 36.0268,55.4985 c -5.5366,10.2018 -8.9051,21.7851 -9.4603,34.1603 -1.9589,43.663 31.8495,80.648 75.5135,82.607 z"
            clip-rule="evenodd"
            fill-rule="evenodd"/>
    <path
            id="path10"
            fill="#cf5d5d"
            d="m 176.378,56.7703 -11.865,6.1583 c 16.734,32.2402 4.164,71.9422 -28.076,88.6762 -8.834,4.585 -18.227,6.97 -27.554,7.354 l -0.601,13.399 c 11.603,-0.306 23.319,-3.181 34.313,-8.887 38.793,-20.136 53.919,-67.907 33.783,-106.7005 z"
            clip-rule="evenodd"
            fill-rule="evenodd"/>
    <path
            id="path12"
            fill="#66be90"
            d="M 39.5778,50.1893 C 63.1062,13.3548 112.04,2.5681001 148.874,26.0964 c 10.44,6.6683 18.787,15.3771 24.854,25.2728 l -11.905,6.1789 C 156.827,49.6619 150.065,42.7197 141.678,37.3623 111.066,17.8083 70.3977,26.773 50.8437,57.3855 Z"
            clip-rule="evenodd"
            fill-rule="evenodd"/>
    <path
            id="path14"
            fill="#ffffff"
            d="m 82.1313,137.8948 c 0,0.893 -0.1417,1.663 -0.4252,2.311 -0.2836,0.643 -0.6814,1.147 -1.1934,1.511 l 1.6504,1.294 -0.8316,0.769 -1.9487,-1.549 c -0.3047,0.076 -0.6263,0.114 -0.9648,0.114 -0.7279,0 -1.3732,-0.178 -1.9361,-0.533 -0.5628,-0.36 -1.0008,-0.87 -1.3139,-1.53 -0.309,-0.664 -0.4676,-1.432 -0.4761,-2.304 v -0.667 c 0,-0.888 0.1545,-1.673 0.4634,-2.355 0.3089,-0.681 0.7448,-1.202 1.3076,-1.561 0.567,-0.364 1.2145,-0.546 1.9424,-0.546 0.7448,0 1.3986,0.18 1.9614,0.539 0.5671,0.36 1.0029,0.879 1.3076,1.556 0.3047,0.672 0.457,1.46 0.457,2.361 z m -1.2187,-0.596 c 0,-1.088 -0.2179,-1.926 -0.6538,-2.514 -0.4317,-0.593 -1.0495,-0.889 -1.8535,-0.889 -0.766,0 -1.3711,0.294 -1.8155,0.883 -0.4401,0.584 -0.6665,1.396 -0.6792,2.437 v 0.679 c 0,1.058 0.2201,1.892 0.6602,2.501 0.4443,0.61 1.0601,0.914 1.8472,0.914 0.7871,0 1.3965,-0.285 1.8281,-0.857 0.4316,-0.575 0.6538,-1.398 0.6665,-2.469 z m 7.1538,4.24 c -0.457,0.537 -1.1278,0.806 -2.0122,0.806 -0.7321,0 -1.2907,-0.212 -1.6758,-0.635 -0.3808,-0.427 -0.5734,-1.058 -0.5776,-1.891 v -4.469 h 1.1743 v 4.437 c 0,1.041 0.4232,1.561 1.2695,1.561 0.8972,0 1.4938,-0.334 1.7901,-1.003 v -4.995 h 1.1743 v 6.868 h -1.1172 z m 5.7827,0.806 c -0.931,0 -1.6885,-0.305 -2.2724,-0.914 -0.584,-0.614 -0.876,-1.433 -0.876,-2.457 v -0.215 c 0,-0.682 0.1291,-1.289 0.3872,-1.822 0.2624,-0.538 0.6263,-0.957 1.0918,-1.257 0.4697,-0.305 0.9775,-0.457 1.5234,-0.457 0.8929,0 1.5869,0.294 2.0821,0.882 0.4951,0.588 0.7426,1.431 0.7426,2.527 v 0.488 H 91.875 c 0.0169,0.677 0.2137,1.225 0.5903,1.644 0.3809,0.415 0.8633,0.622 1.4473,0.622 0.4147,0 0.7659,-0.084 1.0537,-0.253 0.2878,-0.17 0.5396,-0.394 0.7554,-0.673 l 0.7173,0.558 c -0.5756,0.885 -1.4388,1.327 -2.5899,1.327 z m -0.146,-6.157 c -0.4739,0 -0.8717,0.173 -1.1933,0.52 -0.3216,0.343 -0.5205,0.825 -0.5967,1.448 h 3.4404 v -0.089 c -0.0338,-0.597 -0.1946,-1.058 -0.4824,-1.384 -0.2878,-0.33 -0.6771,-0.495 -1.168,-0.495 z m 8.1889,4.208 c 0,-0.317 -0.121,-0.563 -0.362,-0.736 -0.237,-0.178 -0.654,-0.33 -1.251,-0.457 -0.5922,-0.127 -1.064,-0.279 -1.4152,-0.457 -0.347,-0.178 -0.6052,-0.389 -0.7744,-0.635 -0.1651,-0.245 -0.2476,-0.537 -0.2476,-0.876 0,-0.563 0.237,-1.039 0.7109,-1.428 0.4782,-0.389 1.0876,-0.584 1.8283,-0.584 0.779,0 1.409,0.201 1.891,0.603 0.487,0.402 0.73,0.916 0.73,1.542 h -1.18 c 0,-0.321 -0.138,-0.598 -0.413,-0.831 -0.271,-0.233 -0.613,-0.349 -1.028,-0.349 -0.4275,0 -0.7619,0.093 -1.0031,0.279 -0.2412,0.186 -0.3618,0.43 -0.3618,0.73 0,0.284 0.1122,0.497 0.3364,0.641 0.2243,0.144 0.6285,0.282 1.2125,0.413 0.588,0.131 1.064,0.287 1.428,0.469 0.364,0.182 0.633,0.402 0.806,0.661 0.178,0.254 0.267,0.565 0.267,0.933 0,0.613 -0.246,1.106 -0.736,1.479 -0.491,0.368 -1.128,0.552 -1.911,0.552 -0.5502,0 -1.0368,-0.097 -1.46,-0.292 -0.4232,-0.195 -0.7554,-0.466 -0.9966,-0.813 -0.237,-0.351 -0.3555,-0.73 -0.3555,-1.136 h 1.1743 c 0.0212,0.394 0.1778,0.707 0.4698,0.94 0.2962,0.228 0.6855,0.342 1.168,0.342 0.444,0 0.8,-0.088 1.066,-0.266 0.271,-0.182 0.407,-0.423 0.407,-0.724 z m 4.297,-6.709 v 1.663 h 1.282 v 0.908 h -1.282 v 4.259 c 0,0.275 0.057,0.482 0.171,0.622 0.115,0.135 0.309,0.203 0.584,0.203 0.136,0 0.322,-0.025 0.559,-0.076 v 0.952 c -0.309,0.085 -0.609,0.127 -0.901,0.127 -0.525,0 -0.921,-0.159 -1.187,-0.476 -0.267,-0.318 -0.4,-0.768 -0.4,-1.352 v -4.259 h -1.251 v -0.908 h 1.251 v -1.663 z m 3.936,8.531 h -1.175 v -6.868 h 1.175 z m -1.27,-8.69 c 0,-0.19 0.057,-0.351 0.171,-0.482 0.119,-0.132 0.292,-0.197 0.521,-0.197 0.228,0 0.402,0.065 0.52,0.197 0.119,0.131 0.178,0.292 0.178,0.482 0,0.19 -0.059,0.349 -0.178,0.476 -0.118,0.127 -0.292,0.191 -0.52,0.191 -0.229,0 -0.402,-0.064 -0.521,-0.191 -0.114,-0.127 -0.171,-0.286 -0.171,-0.476 z m 2.844,5.192 c 0,-0.672 0.131,-1.278 0.393,-1.815 0.267,-0.537 0.635,-0.952 1.105,-1.244 0.474,-0.292 1.013,-0.438 1.618,-0.438 0.936,0 1.691,0.324 2.267,0.971 0.579,0.648 0.869,1.509 0.869,2.584 v 0.082 c 0,0.669 -0.129,1.27 -0.387,1.803 -0.254,0.529 -0.62,0.941 -1.098,1.238 -0.474,0.296 -1.02,0.444 -1.638,0.444 -0.931,0 -1.686,-0.324 -2.266,-0.971 -0.576,-0.648 -0.863,-1.505 -0.863,-2.571 z m 1.18,0.14 c 0,0.762 0.176,1.373 0.527,1.835 0.356,0.461 0.83,0.691 1.422,0.691 0.597,0 1.071,-0.232 1.422,-0.698 0.351,-0.47 0.527,-1.125 0.527,-1.968 0,-0.753 -0.18,-1.362 -0.54,-1.828 -0.355,-0.469 -0.829,-0.704 -1.422,-0.704 -0.579,0 -1.047,0.23 -1.402,0.692 -0.356,0.461 -0.534,1.121 -0.534,1.98 z m 7.656,-3.51 0.038,0.863 c 0.524,-0.66 1.21,-0.99 2.056,-0.99 1.452,0 2.184,0.819 2.197,2.456 v 4.539 h -1.175 v -4.545 c -0.004,-0.495 -0.118,-0.861 -0.342,-1.098 -0.22,-0.237 -0.565,-0.356 -1.035,-0.356 -0.381,0 -0.715,0.102 -1.003,0.305 -0.288,0.203 -0.512,0.47 -0.673,0.8 v 4.894 h -1.174 v -6.868 z m 10.061,5.046 c 0,-0.317 -0.121,-0.563 -0.362,-0.736 -0.237,-0.178 -0.654,-0.33 -1.251,-0.457 -0.592,-0.127 -1.064,-0.279 -1.415,-0.457 -0.347,-0.178 -0.605,-0.389 -0.775,-0.635 -0.165,-0.245 -0.247,-0.537 -0.247,-0.876 0,-0.563 0.237,-1.039 0.711,-1.428 0.478,-0.389 1.087,-0.584 1.828,-0.584 0.779,0 1.409,0.201 1.892,0.603 0.486,0.402 0.73,0.916 0.73,1.542 h -1.181 c 0,-0.321 -0.138,-0.598 -0.413,-0.831 -0.271,-0.233 -0.613,-0.349 -1.028,-0.349 -0.427,0 -0.762,0.093 -1.003,0.279 -0.241,0.186 -0.362,0.43 -0.362,0.73 0,0.284 0.112,0.497 0.337,0.641 0.224,0.144 0.628,0.282 1.212,0.413 0.588,0.131 1.064,0.287 1.428,0.469 0.364,0.182 0.633,0.402 0.806,0.661 0.178,0.254 0.267,0.565 0.267,0.933 0,0.613 -0.245,1.106 -0.736,1.479 -0.491,0.368 -1.128,0.552 -1.911,0.552 -0.55,0 -1.037,-0.097 -1.46,-0.292 -0.423,-0.195 -0.755,-0.466 -0.996,-0.813 -0.237,-0.351 -0.356,-0.73 -0.356,-1.136 h 1.174 c 0.022,0.394 0.178,0.707 0.47,0.94 0.296,0.228 0.686,0.342 1.168,0.342 0.444,0 0.8,-0.088 1.066,-0.266 0.271,-0.182 0.407,-0.423 0.407,-0.724 z"/>
    <defs
            id="defs33">
        <filter
                color-interpolation-filters="sRGB"
                filterUnits="userSpaceOnUse"
                height="200"
                width="217"
                y="18.7822"
                x="0"
                id="filter0_d">
            <feFlood
                    id="feFlood16"
                    result="BackgroundImageFix"
                    flood-opacity="0"/>
            <feColorMatrix
                    id="feColorMatrix18"
                    values="0 0 0 0 0 0 0 0 0 0 0 0 0 0 0 0 0 0 127 0"
                    type="matrix"
                    in="SourceAlpha"/>
            <feMorphology
                    id="feMorphology20"
                    result="effect1_dropShadow"
                    in="SourceAlpha"
                    operator="dilate"
                    radius="3"/>
            <feOffset
                    id="feOffset22"
                    dy="4"
                    dx="3"/>
            <feGaussianBlur
                    id="feGaussianBlur24"
                    stdDeviation="2"/>
            <feColorMatrix
                    id="feColorMatrix26"
                    values="0 0 0 0 0 0 0 0 0 0 0 0 0 0 0 0 0 0 0.25 0"
                    type="matrix"/>
            <feBlend
                    id="feBlend28"
                    result="effect1_dropShadow"
                    in2="BackgroundImageFix"
                    mode="normal"/>
            <feBlend
                    id="feBlend30"
                    result="shape"
                    in2="effect1_dropShadow"
                    in="SourceGraphic"
                    mode="normal"/>
        </filter>
    </defs>
</svg>
