<?xml version="1.0" encoding="UTF-8" standalone="no"?>
<svg
   xmlns:dc="http://purl.org/dc/elements/1.1/"
   xmlns:cc="http://creativecommons.org/ns#"
   xmlns:rdf="http://www.w3.org/1999/02/22-rdf-syntax-ns#"
   xmlns:svg="http://www.w3.org/2000/svg"
   xmlns="http://www.w3.org/2000/svg"
   xmlns:sodipodi="http://sodipodi.sourceforge.net/DTD/sodipodi-0.dtd"
   xmlns:inkscape="http://www.inkscape.org/namespaces/inkscape"
   id="color"
   enable-background="new 0 0 24 24"
   height="512"
   viewBox="0 0 24 24"
   width="512"
   version="1.1"
   sodipodi:docname="register.svg"
   inkscape:version="0.92.3 (2405546, 2018-03-11)">
  <metadata
     id="metadata37">
    <rdf:RDF>
      <cc:Work
         rdf:about="">
        <dc:format>image/svg+xml</dc:format>
        <dc:type
           rdf:resource="http://purl.org/dc/dcmitype/StillImage" />
      </cc:Work>
    </rdf:RDF>
  </metadata>
  <defs
     id="defs35" />
  <sodipodi:namedview
     pagecolor="#ffffff"
     bordercolor="#666666"
     borderopacity="1"
     objecttolerance="10"
     gridtolerance="10"
     guidetolerance="10"
     inkscape:pageopacity="0"
     inkscape:pageshadow="2"
     inkscape:window-width="756"
     inkscape:window-height="480"
     id="namedview33"
     showgrid="false"
     inkscape:zoom="0.4609375"
     inkscape:cx="292.53144"
     inkscape:cy="256"
     inkscape:window-x="523"
     inkscape:window-y="74"
     inkscape:window-maximized="0"
     inkscape:current-layer="color" />
  <path
     d="m15.25 24h-12.5c-1.517 0-2.75-1.233-2.75-2.75v-15.5c0-1.517 1.233-2.75 2.75-2.75h12.5c1.517 0 2.75 1.233 2.75 2.75v15.5c0 1.517-1.233 2.75-2.75 2.75z"
     fill="#2196f3"
     id="path2"
     style="fill:#cf5d5d;fill-opacity:1" />
  <path
     d="m12.25 6h-6.5c-.965 0-1.75-.785-1.75-1.75v-1.5c0-.414.336-.75.75-.75h1.603c.329-1.153 1.39-2 2.647-2s2.318.847 2.646 2h1.604c.414 0 .75.336.75.75v1.5c0 .965-.785 1.75-1.75 1.75z"
     fill="#1976d2"
     id="path4"
     style="fill:#cf5d5d;fill-opacity:1" />
  <path
     d="m4 3h-1.25c-1.517 0-2.75 1.233-2.75 2.75v15.5c0 1.517 1.233 2.75 2.75 2.75h6.25v-18h-3.25c-.965 0-1.75-.785-1.75-1.75z"
     fill="#1d83d4"
     id="path6"
     style="fill:#cf4351;fill-opacity:1" />
  <path
     d="m9 0c-1.257 0-2.318.847-2.646 2h-1.604c-.414 0-.75.336-.75.75v.25 1.25c0 .965.785 1.75 1.75 1.75h3.25z"
     fill="#1667b7"
     id="path8"
     style="fill:#cf4351;fill-opacity:1" />
  <g
     fill="#fff"
     id="g18">
    <path
       d="m14.25 10.5h-10.5c-.414 0-.75-.336-.75-.75s.336-.75.75-.75h10.5c.414 0 .75.336.75.75s-.336.75-.75.75z"
       id="path10" />
    <path
       d="m14.25 13.5h-10.5c-.414 0-.75-.336-.75-.75s.336-.75.75-.75h10.5c.414 0 .75.336.75.75s-.336.75-.75.75z"
       id="path12" />
    <path
       d="m14.25 16.5h-10.5c-.414 0-.75-.336-.75-.75s.336-.75.75-.75h10.5c.414 0 .75.336.75.75s-.336.75-.75.75z"
       id="path14" />
    <path
       d="m14.25 19.5h-10.5c-.414 0-.75-.336-.75-.75s.336-.75.75-.75h10.5c.414 0 .75.336.75.75s-.336.75-.75.75z"
       id="path16" />
  </g>
  <path
     d="m9 9h-5.25c-.414 0-.75.336-.75.75s.336.75.75.75h5.25z"
     fill="#dedede"
     id="path20" />
  <path
     d="m9 12h-5.25c-.414 0-.75.336-.75.75s.336.75.75.75h5.25z"
     fill="#dedede"
     id="path22" />
  <path
     d="m9 15h-5.25c-.414 0-.75.336-.75.75s.336.75.75.75h5.25z"
     fill="#dedede"
     id="path24" />
  <path
     d="m9 18h-5.25c-.414 0-.75.336-.75.75s.336.75.75.75h5.25z"
     fill="#dedede"
     id="path26" />
  <path
     d="m22 21c-.189 0-.362-.107-.447-.276l-1.289-2.578c-.173-.346-.264-.732-.264-1.118v-9.028c0-1.103.897-2 2-2s2 .897 2 2v9.028c0 .386-.091.772-.264 1.118v.001l-1.289 2.578c-.085.168-.258.275-.447.275zm1.289-3.078h.01z"
     fill="#ffc107"
     id="path28" />
  <path
     d="m22 6c-1.103 0-2 .897-2 2v9.028c0 .386.091.772.264 1.118l1.289 2.578c.085.169.258.276.447.276z"
     fill="#dea806"
     id="path30" />
</svg>
