<?xml version="1.0" encoding="UTF-8" standalone="no"?>
<!-- Generator: Adobe Illustrator 17.1.0, SVG Export Plug-In . SVG Version: 6.00 Build 0)  -->

<svg
   xmlns:dc="http://purl.org/dc/elements/1.1/"
   xmlns:cc="http://creativecommons.org/ns#"
   xmlns:rdf="http://www.w3.org/1999/02/22-rdf-syntax-ns#"
   xmlns:svg="http://www.w3.org/2000/svg"
   xmlns="http://www.w3.org/2000/svg"
   xmlns:sodipodi="http://sodipodi.sourceforge.net/DTD/sodipodi-0.dtd"
   xmlns:inkscape="http://www.inkscape.org/namespaces/inkscape"
   version="1.1"
   id="Capa_1"
   x="0px"
   y="0px"
   viewBox="0 0 362.001 362.001"
   style="enable-background:new 0 0 362.001 362.001;"
   xml:space="preserve"
   sodipodi:docname="restart-lesson.svg"
   inkscape:version="0.92.3 (2405546, 2018-03-11)"><metadata
   id="metadata39"><rdf:RDF><cc:Work
       rdf:about=""><dc:format>image/svg+xml</dc:format><dc:type
         rdf:resource="http://purl.org/dc/dcmitype/StillImage" /></cc:Work></rdf:RDF></metadata><defs
   id="defs37" /><sodipodi:namedview
   pagecolor="#ffffff"
   bordercolor="#666666"
   borderopacity="1"
   objecttolerance="10"
   gridtolerance="10"
   guidetolerance="10"
   inkscape:pageopacity="0"
   inkscape:pageshadow="2"
   inkscape:window-width="1920"
   inkscape:window-height="1017"
   id="namedview35"
   showgrid="false"
   inkscape:zoom="0.65193189"
   inkscape:cx="-569.84481"
   inkscape:cy="181.0005"
   inkscape:window-x="1358"
   inkscape:window-y="-8"
   inkscape:window-maximized="1"
   inkscape:current-layer="Capa_1" />
<ellipse
   style="fill:#ffffff;fill-opacity:1;stroke:#ffffff;stroke-width:36.90000153;stroke-linecap:round;stroke-linejoin:round;stroke-miterlimit:4;stroke-dasharray:none;stroke-opacity:1;paint-order:stroke markers fill"
   id="path827"
   cx="180.39879"
   cy="186.20392"
   rx="132.32521"
   ry="136.66374" /><path
   d="M181,0C81.196,0,0,81.196,0,181.001c0,99.804,81.196,181,181,181s181-81.196,181-181C362.001,81.196,280.805,0,181,0z   M290.213,221.115c-3.505,5.256-9.208,8.394-15.254,8.394c-6.046,0-11.749-3.138-15.253-8.394l-22.685-34.018  c-4.596-6.893-2.734-16.206,4.158-20.802c5.496-3.666,12.525-3.213,17.48,0.611c-6.723-38.305-40.209-67.514-80.411-67.514  c-45.03,0-81.664,36.635-81.664,81.664s36.634,81.663,81.664,81.663c8.284,0,15,6.716,15,15s-6.716,15-15,15  c-61.572,0-111.664-50.092-111.664-111.663S116.676,69.394,178.248,69.394c57.429,0,104.864,43.581,110.988,99.406  c4.894-5.497,13.204-6.706,19.503-2.504c6.893,4.596,8.754,13.909,4.158,20.802L290.213,221.115z"
   id="path2"
   style="fill:#ff9955;fill-opacity:1" />
<g
   id="g4">
</g>
<g
   id="g6">
</g>
<g
   id="g8">
</g>
<g
   id="g10">
</g>
<g
   id="g12">
</g>
<g
   id="g14">
</g>
<g
   id="g16">
</g>
<g
   id="g18">
</g>
<g
   id="g20">
</g>
<g
   id="g22">
</g>
<g
   id="g24">
</g>
<g
   id="g26">
</g>
<g
   id="g28">
</g>
<g
   id="g30">
</g>
<g
   id="g32">
</g>
</svg>