<svg width="358" height="38" viewBox="0 0 358 38" fill="none" xmlns="http://www.w3.org/2000/svg">
    <rect opacity="0.54" width="358" height="38" rx="12" fill="white"/>
    <path opacity="0.54"
          d="M20.0234 23.6367C20.0234 23.0508 19.8008 22.5977 19.3555 22.2773C18.918 21.9492 18.1484 21.668 17.0469 21.4336C15.9531 21.1992 15.082 20.918 14.4336 20.5898C13.793 20.2617 13.3164 19.8711 13.0039 19.418C12.6992 18.9648 12.5469 18.4258 12.5469 17.8008C12.5469 16.7617 12.9844 15.8828 13.8594 15.1641C14.7422 14.4453 15.8672 14.0859 17.2344 14.0859C18.6719 14.0859 19.8359 14.457 20.7266 15.1992C21.625 15.9414 22.0742 16.8906 22.0742 18.0469H19.8945C19.8945 17.4531 19.6406 16.9414 19.1328 16.5117C18.6328 16.082 18 15.8672 17.2344 15.8672C16.4453 15.8672 15.8281 16.0391 15.3828 16.3828C14.9375 16.7266 14.7148 17.1758 14.7148 17.7305C14.7148 18.2539 14.9219 18.6484 15.3359 18.9141C15.75 19.1797 16.4961 19.4336 17.5742 19.6758C18.6602 19.918 19.5391 20.207 20.2109 20.543C20.8828 20.8789 21.3789 21.2852 21.6992 21.7617C22.0273 22.2305 22.1914 22.8047 22.1914 23.4844C22.1914 24.6172 21.7383 25.5273 20.832 26.2148C19.9258 26.8945 18.75 27.2344 17.3047 27.2344C16.2891 27.2344 15.3906 27.0547 14.6094 26.6953C13.8281 26.3359 13.2148 25.8359 12.7695 25.1953C12.332 24.5469 12.1133 23.8477 12.1133 23.0977H14.2812C14.3203 23.8242 14.6094 24.4023 15.1484 24.832C15.6953 25.2539 16.4141 25.4648 17.3047 25.4648C18.125 25.4648 18.7812 25.3008 19.2734 24.9727C19.7734 24.6367 20.0234 24.1914 20.0234 23.6367ZM30.2773 27.2344C28.5586 27.2344 27.1602 26.6719 26.082 25.5469C25.0039 24.4141 24.4648 22.9023 24.4648 21.0117V20.6133C24.4648 19.3555 24.7031 18.2344 25.1797 17.25C25.6641 16.2578 26.3359 15.4844 27.1953 14.9297C28.0625 14.3672 29 14.0859 30.0078 14.0859C31.6562 14.0859 32.9375 14.6289 33.8516 15.7148C34.7656 16.8008 35.2227 18.3555 35.2227 20.3789V21.2812H26.6328C26.6641 22.5312 27.0273 23.543 27.7227 24.3164C28.4258 25.082 29.3164 25.4648 30.3945 25.4648C31.1602 25.4648 31.8086 25.3086 32.3398 24.9961C32.8711 24.6836 33.3359 24.2695 33.7344 23.7539L35.0586 24.7852C33.9961 26.418 32.4023 27.2344 30.2773 27.2344ZM30.0078 15.8672C29.1328 15.8672 28.3984 16.1875 27.8047 16.8281C27.2109 17.4609 26.8438 18.3516 26.7031 19.5H33.0547V19.3359C32.9922 18.2344 32.6953 17.3828 32.1641 16.7812C31.6328 16.1719 30.9141 15.8672 30.0078 15.8672ZM45.5703 27C45.4453 26.75 45.3438 26.3047 45.2656 25.6641C44.2578 26.7109 43.0547 27.2344 41.6562 27.2344C40.4062 27.2344 39.3789 26.8828 38.5742 26.1797C37.7773 25.4688 37.3789 24.5703 37.3789 23.4844C37.3789 22.1641 37.8789 21.1406 38.8789 20.4141C39.8867 19.6797 41.3008 19.3125 43.1211 19.3125H45.2305V18.3164C45.2305 17.5586 45.0039 16.957 44.5508 16.5117C44.0977 16.0586 43.4297 15.832 42.5469 15.832C41.7734 15.832 41.125 16.0273 40.6016 16.418C40.0781 16.8086 39.8164 17.2812 39.8164 17.8359H37.6367C37.6367 17.2031 37.8594 16.5938 38.3047 16.0078C38.7578 15.4141 39.3672 14.9453 40.1328 14.6016C40.9062 14.2578 41.7539 14.0859 42.6758 14.0859C44.1367 14.0859 45.2812 14.4531 46.1094 15.1875C46.9375 15.9141 47.3672 16.918 47.3984 18.1992V24.0352C47.3984 25.1992 47.5469 26.125 47.8438 26.8125V27H45.5703ZM41.9727 25.3477C42.6523 25.3477 43.2969 25.1719 43.9062 24.8203C44.5156 24.4688 44.957 24.0117 45.2305 23.4492V20.8477H43.5312C40.875 20.8477 39.5469 21.625 39.5469 23.1797C39.5469 23.8594 39.7734 24.3906 40.2266 24.7734C40.6797 25.1562 41.2617 25.3477 41.9727 25.3477ZM56.9258 16.2656C56.5977 16.2109 56.2422 16.1836 55.8594 16.1836C54.4375 16.1836 53.4727 16.7891 52.9648 18V27H50.7969V14.3203H52.9062L52.9414 15.7852C53.6523 14.6523 54.6602 14.0859 55.9648 14.0859C56.3867 14.0859 56.707 14.1406 56.9258 14.25V16.2656ZM63.7812 25.4648C64.5547 25.4648 65.2305 25.2305 65.8086 24.7617C66.3867 24.293 66.707 23.707 66.7695 23.0039H68.8203C68.7812 23.7305 68.5312 24.4219 68.0703 25.0781C67.6094 25.7344 66.9922 26.2578 66.2188 26.6484C65.4531 27.0391 64.6406 27.2344 63.7812 27.2344C62.0547 27.2344 60.6797 26.6602 59.6562 25.5117C58.6406 24.3555 58.1328 22.7773 58.1328 20.7773V20.4141C58.1328 19.1797 58.3594 18.082 58.8125 17.1211C59.2656 16.1602 59.9141 15.4141 60.7578 14.8828C61.6094 14.3516 62.6133 14.0859 63.7695 14.0859C65.1914 14.0859 66.3711 14.5117 67.3086 15.3633C68.2539 16.2148 68.7578 17.3203 68.8203 18.6797H66.7695C66.707 17.8594 66.3945 17.1875 65.832 16.6641C65.2773 16.1328 64.5898 15.8672 63.7695 15.8672C62.668 15.8672 61.8125 16.2656 61.2031 17.0625C60.6016 17.8516 60.3008 18.9961 60.3008 20.4961V20.9062C60.3008 22.3672 60.6016 23.4922 61.2031 24.2812C61.8047 25.0703 62.6641 25.4648 63.7812 25.4648ZM73.4258 15.8555C74.3867 14.6758 75.6367 14.0859 77.1758 14.0859C79.8555 14.0859 81.207 15.5977 81.2305 18.6211V27H79.0625V18.6094C79.0547 17.6953 78.8438 17.0195 78.4297 16.582C78.0234 16.1445 77.3867 15.9258 76.5195 15.9258C75.8164 15.9258 75.1992 16.1133 74.668 16.4883C74.1367 16.8633 73.7227 17.3555 73.4258 17.9648V27H71.2578V9H73.4258V15.8555ZM84.5234 25.8633C84.5234 25.4883 84.6328 25.1758 84.8516 24.9258C85.0781 24.6758 85.4141 24.5508 85.8594 24.5508C86.3047 24.5508 86.6406 24.6758 86.8672 24.9258C87.1016 25.1758 87.2188 25.4883 87.2188 25.8633C87.2188 26.2227 87.1016 26.5234 86.8672 26.7656C86.6406 27.0078 86.3047 27.1289 85.8594 27.1289C85.4141 27.1289 85.0781 27.0078 84.8516 26.7656C84.6328 26.5234 84.5234 26.2227 84.5234 25.8633ZM90.8516 25.8633C90.8516 25.4883 90.9609 25.1758 91.1797 24.9258C91.4062 24.6758 91.7422 24.5508 92.1875 24.5508C92.6328 24.5508 92.9688 24.6758 93.1953 24.9258C93.4297 25.1758 93.5469 25.4883 93.5469 25.8633C93.5469 26.2227 93.4297 26.5234 93.1953 26.7656C92.9688 27.0078 92.6328 27.1289 92.1875 27.1289C91.7422 27.1289 91.4062 27.0078 91.1797 26.7656C90.9609 26.5234 90.8516 26.2227 90.8516 25.8633ZM97.1797 25.8633C97.1797 25.4883 97.2891 25.1758 97.5078 24.9258C97.7344 24.6758 98.0703 24.5508 98.5156 24.5508C98.9609 24.5508 99.2969 24.6758 99.5234 24.9258C99.7578 25.1758 99.875 25.4883 99.875 25.8633C99.875 26.2227 99.7578 26.5234 99.5234 26.7656C99.2969 27.0078 98.9609 27.1289 98.5156 27.1289C98.0703 27.1289 97.7344 27.0078 97.5078 26.7656C97.2891 26.5234 97.1797 26.2227 97.1797 25.8633Z"
          fill="white"/>
</svg>
