<svg width="369" height="277" viewBox="0 0 369 277" fill="none" xmlns="http://www.w3.org/2000/svg">
    <g filter="url(#filter0_d)">
        <rect x="4" y="35" width="355" height="128" rx="18" fill="#466078"/>
    </g>
    <rect x="14.3033" y="85" width="333.456" height="64" rx="18" fill="white"/>
    <path d="M18.5099 69V53.3594H23.9884C25.8862 53.3594 27.3256 53.7246 28.3067 54.4551C29.2879 55.1784 29.7784 56.2419 29.7784 57.6455C29.7784 58.4118 29.5815 59.0885 29.1876 59.6758C28.7937 60.2559 28.2459 60.682 27.544 60.9541C28.3461 61.1546 28.9763 61.5592 29.4347 62.168C29.9002 62.7767 30.1329 63.5215 30.1329 64.4023C30.1329 65.9062 29.6531 67.0449 28.6935 67.8184C27.7338 68.5918 26.366 68.9857 24.5899 69H18.5099ZM21.7325 62.1895V66.4111H24.4933C25.2524 66.4111 25.8432 66.2321 26.2657 65.874C26.6954 65.5088 26.9102 65.0075 26.9102 64.3701C26.9102 62.9378 26.169 62.2109 24.6866 62.1895H21.7325ZM21.7325 59.9121H24.1173C25.7429 59.8835 26.5558 59.2354 26.5558 57.9678C26.5558 57.2588 26.3481 56.7503 25.9327 56.4424C25.5245 56.1273 24.8764 55.9697 23.9884 55.9697H21.7325V59.9121ZM39.3175 67.8184C38.5512 68.7493 37.4913 69.2148 36.1378 69.2148C34.8917 69.2148 33.9392 68.8568 33.2804 68.1406C32.6287 67.4245 32.2957 66.3753 32.2813 64.9932V57.377H35.3858V64.8857C35.3858 66.096 35.9373 66.7012 37.0401 66.7012C38.0929 66.7012 38.8162 66.3359 39.2101 65.6055V57.377H42.3253V69H39.4034L39.3175 67.8184ZM50.962 65.7881C50.962 65.4085 50.7722 65.1113 50.3927 64.8965C50.0203 64.6745 49.4187 64.4775 48.588 64.3057C45.8237 63.7256 44.4415 62.5511 44.4415 60.7822C44.4415 59.751 44.8676 58.8916 45.7198 58.2041C46.5792 57.5094 47.7 57.1621 49.0821 57.1621C50.5574 57.1621 51.7354 57.5094 52.6163 58.2041C53.5043 58.8988 53.9483 59.8011 53.9483 60.9111H50.8438C50.8438 60.4671 50.7006 60.1019 50.4142 59.8154C50.1277 59.5218 49.6801 59.375 49.0714 59.375C48.5486 59.375 48.144 59.4932 47.8575 59.7295C47.5711 59.9658 47.4278 60.2666 47.4278 60.6318C47.4278 60.9756 47.589 61.2549 47.9112 61.4697C48.2407 61.6774 48.7921 61.86 49.5655 62.0176C50.339 62.168 50.9907 62.3398 51.5206 62.5332C53.1606 63.1348 53.9806 64.1768 53.9806 65.6592C53.9806 66.7191 53.5258 67.5785 52.6163 68.2373C51.7068 68.889 50.5323 69.2148 49.0929 69.2148C48.1189 69.2148 47.2524 69.043 46.4933 68.6992C45.7413 68.3483 45.1505 67.8721 44.7208 67.2705C44.2911 66.6618 44.0763 66.0065 44.0763 65.3047H47.0196C47.0483 65.8561 47.2524 66.2786 47.6319 66.5723C48.0115 66.8659 48.5199 67.0127 49.1573 67.0127C49.7517 67.0127 50.1993 66.9017 50.5001 66.6797C50.808 66.4505 50.962 66.1533 50.962 65.7881ZM59.2657 69H56.1505V57.377H59.2657V69ZM55.9679 54.3691C55.9679 53.9036 56.1218 53.5205 56.4298 53.2197C56.7449 52.9189 57.171 52.7686 57.7081 52.7686C58.238 52.7686 58.6606 52.9189 58.9757 53.2197C59.2908 53.5205 59.4483 53.9036 59.4483 54.3691C59.4483 54.8418 59.2872 55.2285 58.9649 55.5293C58.6498 55.8301 58.2309 55.9805 57.7081 55.9805C57.1853 55.9805 56.7628 55.8301 56.4405 55.5293C56.1254 55.2285 55.9679 54.8418 55.9679 54.3691ZM64.6905 57.377L64.7872 58.7197C65.6179 57.6813 66.7315 57.1621 68.128 57.1621C69.3598 57.1621 70.2765 57.5238 70.878 58.2471C71.4796 58.9704 71.7875 60.0518 71.8018 61.4912V69H68.6974V61.5664C68.6974 60.9076 68.5541 60.4313 68.2677 60.1377C67.9812 59.8369 67.505 59.6865 66.839 59.6865C65.9653 59.6865 65.31 60.0589 64.8731 60.8037V69H61.7686V57.377H64.6905ZM79.5147 69.2148C77.8103 69.2148 76.421 68.6921 75.3468 67.6465C74.2797 66.6009 73.7462 65.208 73.7462 63.4678V63.167C73.7462 61.9997 73.9718 60.9577 74.4229 60.041C74.8741 59.1172 75.5115 58.4082 76.3351 57.9141C77.1658 57.4128 78.1111 57.1621 79.171 57.1621C80.7608 57.1621 82.0105 57.6634 82.92 58.666C83.8367 59.6686 84.295 61.0902 84.295 62.9307V64.1982H76.8936C76.9939 64.9574 77.2947 65.5661 77.796 66.0244C78.3045 66.4827 78.9454 66.7119 79.7188 66.7119C80.9148 66.7119 81.8494 66.2786 82.5226 65.4121L84.0479 67.1201C83.5824 67.779 82.9522 68.2946 82.1573 68.667C81.3624 69.0322 80.4815 69.2148 79.5147 69.2148ZM79.1602 59.6758C78.5444 59.6758 78.0431 59.8835 77.6563 60.2988C77.2768 60.7142 77.0333 61.3086 76.9259 62.082H81.2442V61.835C81.2299 61.1475 81.0437 60.6175 80.6856 60.2451C80.3276 59.8656 79.8191 59.6758 79.1602 59.6758ZM92.3624 65.7881C92.3624 65.4085 92.1726 65.1113 91.7931 64.8965C91.4207 64.6745 90.8191 64.4775 89.9884 64.3057C87.224 63.7256 85.8419 62.5511 85.8419 60.7822C85.8419 59.751 86.268 58.8916 87.1202 58.2041C87.9796 57.5094 89.1004 57.1621 90.4825 57.1621C91.9578 57.1621 93.1358 57.5094 94.0167 58.2041C94.9047 58.8988 95.3487 59.8011 95.3487 60.9111H92.2442C92.2442 60.4671 92.101 60.1019 91.8145 59.8154C91.5281 59.5218 91.0805 59.375 90.4718 59.375C89.949 59.375 89.5444 59.4932 89.2579 59.7295C88.9714 59.9658 88.8282 60.2666 88.8282 60.6318C88.8282 60.9756 88.9893 61.2549 89.3116 61.4697C89.641 61.6774 90.1925 61.86 90.9659 62.0176C91.7393 62.168 92.391 62.3398 92.921 62.5332C94.561 63.1348 95.381 64.1768 95.381 65.6592C95.381 66.7191 94.9262 67.5785 94.0167 68.2373C93.1072 68.889 91.9327 69.2148 90.4933 69.2148C89.5193 69.2148 88.6528 69.043 87.8936 68.6992C87.1417 68.3483 86.5509 67.8721 86.1212 67.2705C85.6915 66.6618 85.4767 66.0065 85.4767 65.3047H88.42C88.4487 65.8561 88.6528 66.2786 89.0323 66.5723C89.4119 66.8659 89.9203 67.0127 90.5577 67.0127C91.1521 67.0127 91.5997 66.9017 91.9005 66.6797C92.2084 66.4505 92.3624 66.1533 92.3624 65.7881ZM103.685 65.7881C103.685 65.4085 103.495 65.1113 103.115 64.8965C102.743 64.6745 102.141 64.4775 101.311 64.3057C98.5463 63.7256 97.1642 62.5511 97.1642 60.7822C97.1642 59.751 97.5903 58.8916 98.4425 58.2041C99.3018 57.5094 100.423 57.1621 101.805 57.1621C103.28 57.1621 104.458 57.5094 105.339 58.2041C106.227 58.8988 106.671 59.8011 106.671 60.9111H103.566C103.566 60.4671 103.423 60.1019 103.137 59.8154C102.85 59.5218 102.403 59.375 101.794 59.375C101.271 59.375 100.867 59.4932 100.58 59.7295C100.294 59.9658 100.15 60.2666 100.15 60.6318C100.15 60.9756 100.312 61.2549 100.634 61.4697C100.963 61.6774 101.515 61.86 102.288 62.0176C103.062 62.168 103.713 62.3398 104.243 62.5332C105.883 63.1348 106.703 64.1768 106.703 65.6592C106.703 66.7191 106.248 67.5785 105.339 68.2373C104.429 68.889 103.255 69.2148 101.816 69.2148C100.842 69.2148 99.975 69.043 99.2159 68.6992C98.464 68.3483 97.8731 67.8721 97.4435 67.2705C97.0138 66.6618 96.7989 66.0065 96.7989 65.3047H99.7423C99.7709 65.8561 99.975 66.2786 100.355 66.5723C100.734 66.8659 101.243 67.0127 101.88 67.0127C102.474 67.0127 102.922 66.9017 103.223 66.6797C103.531 66.4505 103.685 66.1533 103.685 65.7881ZM123.225 65.7773H117.574L116.5 69H113.073L118.896 53.3594H121.882L127.736 69H124.31L123.225 65.7773ZM118.444 63.167H122.355L120.389 57.3125L118.444 63.167ZM131.335 57.377L131.432 58.7197C132.262 57.6813 133.376 57.1621 134.773 57.1621C136.004 57.1621 136.921 57.5238 137.523 58.2471C138.124 58.9704 138.432 60.0518 138.446 61.4912V69H135.342V61.5664C135.342 60.9076 135.199 60.4313 134.912 60.1377C134.626 59.8369 134.15 59.6865 133.483 59.6865C132.61 59.6865 131.955 60.0589 131.518 60.8037V69H128.413V57.377H131.335ZM147.545 69C147.402 68.7207 147.298 68.3734 147.233 67.958C146.482 68.7959 145.504 69.2148 144.301 69.2148C143.162 69.2148 142.217 68.8854 141.465 68.2266C140.72 67.5677 140.348 66.737 140.348 65.7344C140.348 64.5026 140.803 63.5573 141.712 62.8984C142.629 62.2396 143.95 61.9066 145.676 61.8994H147.105V61.2334C147.105 60.6963 146.965 60.2666 146.686 59.9443C146.414 59.6221 145.98 59.4609 145.386 59.4609C144.863 59.4609 144.451 59.5863 144.15 59.8369C143.857 60.0876 143.71 60.4313 143.71 60.8682H140.606C140.606 60.195 140.813 59.5719 141.229 58.999C141.644 58.4261 142.231 57.9785 142.99 57.6562C143.749 57.3268 144.602 57.1621 145.547 57.1621C146.979 57.1621 148.114 57.5238 148.952 58.2471C149.797 58.9632 150.22 59.973 150.22 61.2764V66.3145C150.227 67.4173 150.381 68.2516 150.682 68.8174V69H147.545ZM144.978 66.8408C145.436 66.8408 145.858 66.7406 146.245 66.54C146.632 66.3324 146.918 66.0566 147.105 65.7129V63.7148H145.944C144.39 63.7148 143.563 64.252 143.463 65.3262L143.452 65.5088C143.452 65.8955 143.588 66.2142 143.86 66.4648C144.133 66.7155 144.505 66.8408 144.978 66.8408ZM155.881 69H152.766V52.5H155.881V69ZM162.788 64.6064L164.937 57.377H168.267L163.594 70.8047L163.336 71.417C162.641 72.9352 161.496 73.6943 159.899 73.6943C159.447 73.6943 158.989 73.6263 158.524 73.4902V71.1377L158.996 71.1484C159.583 71.1484 160.02 71.0589 160.307 70.8799C160.6 70.7008 160.83 70.4036 160.994 69.9883L161.359 69.0322L157.288 57.377H160.629L162.788 64.6064ZM173.208 54.5195V57.377H175.195V59.6543H173.208V65.4551C173.208 65.8848 173.29 66.1927 173.455 66.3789C173.62 66.5651 173.935 66.6582 174.4 66.6582C174.744 66.6582 175.049 66.6331 175.314 66.583V68.9355C174.705 69.1217 174.078 69.2148 173.434 69.2148C171.257 69.2148 170.147 68.1156 170.104 65.917V59.6543H168.406V57.377H170.104V54.5195H173.208ZM180.201 69H177.086V57.377H180.201V69ZM176.903 54.3691C176.903 53.9036 177.057 53.5205 177.365 53.2197C177.68 52.9189 178.107 52.7686 178.644 52.7686C179.174 52.7686 179.596 52.9189 179.911 53.2197C180.226 53.5205 180.384 53.9036 180.384 54.3691C180.384 54.8418 180.223 55.2285 179.9 55.5293C179.585 55.8301 179.166 55.9805 178.644 55.9805C178.121 55.9805 177.698 55.8301 177.376 55.5293C177.061 55.2285 176.903 54.8418 176.903 54.3691ZM187.603 66.7119C188.176 66.7119 188.641 66.5544 188.999 66.2393C189.357 65.9242 189.543 65.5052 189.558 64.9824H192.469C192.462 65.7702 192.247 66.4935 191.824 67.1523C191.402 67.804 190.822 68.3125 190.084 68.6777C189.354 69.0358 188.544 69.2148 187.656 69.2148C185.995 69.2148 184.684 68.6885 183.725 67.6357C182.765 66.5758 182.285 65.1149 182.285 63.2529V63.0488C182.285 61.2585 182.761 59.8298 183.714 58.7627C184.666 57.6956 185.973 57.1621 187.635 57.1621C189.089 57.1621 190.252 57.5775 191.126 58.4082C192.007 59.2318 192.455 60.3311 192.469 61.7061H189.558C189.543 61.1045 189.357 60.6175 188.999 60.2451C188.641 59.8656 188.168 59.6758 187.581 59.6758C186.858 59.6758 186.31 59.9408 185.938 60.4707C185.572 60.9935 185.39 61.8457 185.39 63.0273V63.3496C185.39 64.5456 185.572 65.4049 185.938 65.9277C186.303 66.4505 186.858 66.7119 187.603 66.7119ZM200.536 65.7881C200.536 65.4085 200.346 65.1113 199.967 64.8965C199.594 64.6745 198.993 64.4775 198.162 64.3057C195.398 63.7256 194.016 62.5511 194.016 60.7822C194.016 59.751 194.442 58.8916 195.294 58.2041C196.153 57.5094 197.274 57.1621 198.656 57.1621C200.132 57.1621 201.31 57.5094 202.191 58.2041C203.079 58.8988 203.523 59.8011 203.523 60.9111H200.418C200.418 60.4671 200.275 60.1019 199.988 59.8154C199.702 59.5218 199.254 59.375 198.646 59.375C198.123 59.375 197.718 59.4932 197.432 59.7295C197.145 59.9658 197.002 60.2666 197.002 60.6318C197.002 60.9756 197.163 61.2549 197.485 61.4697C197.815 61.6774 198.366 61.86 199.14 62.0176C199.913 62.168 200.565 62.3398 201.095 62.5332C202.735 63.1348 203.555 64.1768 203.555 65.6592C203.555 66.7191 203.1 67.5785 202.191 68.2373C201.281 68.889 200.107 69.2148 198.667 69.2148C197.693 69.2148 196.827 69.043 196.067 68.6992C195.316 68.3483 194.725 67.8721 194.295 67.2705C193.865 66.6618 193.65 66.0065 193.65 65.3047H196.594C196.622 65.8561 196.827 66.2786 197.206 66.5723C197.586 66.8659 198.094 67.0127 198.732 67.0127C199.326 67.0127 199.774 66.9017 200.074 66.6797C200.382 66.4505 200.536 66.1533 200.536 65.7881Z"
          fill="white"/>
    <path d="M29.8364 137.197H28.0317L27.4848 140H26.5073L27.0542 137.197H25.4204V136.261H27.2319L27.7036 133.841H25.9399V132.891H27.8882L28.4487 130.047H29.4262L28.8657 132.891H30.6704L31.2309 130.047H32.2153L31.6548 132.891H33.0493V133.841H31.4702L30.9985 136.261H32.5366V137.197H30.8208L30.2739 140H29.2895L29.8364 137.197ZM28.2094 136.261H30.0141L30.4858 133.841H28.6811L28.2094 136.261ZM35.7016 136.104V140H34.3891V130.047H38.06C39.1492 130.047 40.0014 130.325 40.6167 130.881C41.2365 131.437 41.5464 132.173 41.5464 133.089C41.5464 134.055 41.2433 134.8 40.6372 135.324C40.0356 135.844 39.172 136.104 38.0464 136.104H35.7016ZM35.7016 135.03H38.06C38.7619 135.03 39.2996 134.866 39.6733 134.538C40.047 134.205 40.2339 133.727 40.2339 133.103C40.2339 132.51 40.047 132.036 39.6733 131.681C39.2996 131.325 38.7869 131.141 38.1352 131.127H35.7016V135.03ZM46.5981 133.738C46.4067 133.706 46.1994 133.69 45.976 133.69C45.1466 133.69 44.5838 134.044 44.2876 134.75V140H43.0229V132.604H44.2534L44.2739 133.458C44.6886 132.797 45.2765 132.467 46.0376 132.467C46.2837 132.467 46.4705 132.499 46.5981 132.562V133.738ZM47.2954 136.233C47.2954 135.509 47.4367 134.857 47.7192 134.278C48.0063 133.7 48.4028 133.253 48.9087 132.938C49.4191 132.624 50.0001 132.467 50.6518 132.467C51.659 132.467 52.4725 132.815 53.0923 133.513C53.7166 134.21 54.0288 135.137 54.0288 136.295V136.384C54.0288 137.104 53.8898 137.751 53.6118 138.325C53.3383 138.895 52.9441 139.339 52.4292 139.658C51.9188 139.977 51.3309 140.137 50.6655 140.137C49.6629 140.137 48.8494 139.788 48.2251 139.091C47.6053 138.394 47.2954 137.471 47.2954 136.322V136.233ZM48.5669 136.384C48.5669 137.204 48.756 137.863 49.1342 138.359C49.5171 138.856 50.0275 139.104 50.6655 139.104C51.3081 139.104 51.8185 138.854 52.1967 138.353C52.575 137.847 52.7641 137.14 52.7641 136.233C52.7641 135.422 52.5704 134.766 52.1831 134.265C51.8003 133.759 51.2898 133.506 50.6518 133.506C50.0275 133.506 49.5239 133.754 49.1411 134.251C48.7583 134.748 48.5669 135.459 48.5669 136.384ZM55.3139 136.24C55.3139 135.087 55.5805 134.171 56.1137 133.492C56.6469 132.809 57.3533 132.467 58.2329 132.467C59.1352 132.467 59.8393 132.786 60.3452 133.424L60.4067 132.604H61.562V139.822C61.562 140.779 61.2772 141.534 60.7075 142.085C60.1424 142.636 59.3813 142.912 58.4243 142.912C57.8911 142.912 57.3693 142.798 56.8589 142.57C56.3484 142.342 55.9588 142.03 55.6899 141.634L56.3462 140.875C56.8885 141.545 57.5516 141.88 58.3354 141.88C58.9507 141.88 59.4292 141.707 59.771 141.36C60.1173 141.014 60.2905 140.526 60.2905 139.897V139.262C59.7846 139.845 59.0942 140.137 58.2192 140.137C57.3533 140.137 56.6515 139.788 56.1137 139.091C55.5805 138.394 55.3139 137.443 55.3139 136.24ZM56.5854 136.384C56.5854 137.218 56.7563 137.874 57.0981 138.353C57.4399 138.826 57.9184 139.063 58.5337 139.063C59.3312 139.063 59.9168 138.701 60.2905 137.977V134.6C59.9031 133.893 59.3221 133.54 58.5473 133.54C57.9321 133.54 57.4513 133.779 57.1049 134.258C56.7586 134.736 56.5854 135.445 56.5854 136.384ZM67.0512 133.738C66.8598 133.706 66.6525 133.69 66.4292 133.69C65.5997 133.69 65.0369 134.044 64.7407 134.75V140H63.476V132.604H64.7065L64.727 133.458C65.1417 132.797 65.7296 132.467 66.4907 132.467C66.7368 132.467 66.9236 132.499 67.0512 132.562V133.738ZM72.5132 140C72.4402 139.854 72.381 139.594 72.3354 139.221C71.7475 139.831 71.0457 140.137 70.2299 140.137C69.5008 140.137 68.9015 139.932 68.4321 139.521C67.9673 139.107 67.7348 138.583 67.7348 137.949C67.7348 137.179 68.0265 136.582 68.6098 136.158C69.1977 135.73 70.0226 135.516 71.0844 135.516H72.3149V134.935C72.3149 134.493 72.1827 134.142 71.9184 133.882C71.6541 133.618 71.2645 133.485 70.7495 133.485C70.2983 133.485 69.9201 133.599 69.6147 133.827C69.3094 134.055 69.1567 134.331 69.1567 134.654H67.8852C67.8852 134.285 68.0151 133.93 68.2749 133.588C68.5392 133.242 68.8947 132.968 69.3413 132.768C69.7924 132.567 70.2869 132.467 70.8247 132.467C71.6769 132.467 72.3445 132.681 72.8276 133.109C73.3107 133.533 73.5613 134.119 73.5796 134.866V138.271C73.5796 138.95 73.6661 139.49 73.8393 139.891V140H72.5132ZM70.4145 139.036C70.811 139.036 71.187 138.934 71.5424 138.729C71.8979 138.523 72.1554 138.257 72.3149 137.929V136.411H71.3237C69.7742 136.411 68.9995 136.865 68.9995 137.771C68.9995 138.168 69.1316 138.478 69.396 138.701C69.6603 138.924 69.9998 139.036 70.4145 139.036ZM76.7514 132.604L76.7856 133.424C77.3279 132.786 78.0594 132.467 78.9799 132.467C80.0145 132.467 80.7186 132.863 81.0923 133.656C81.3383 133.301 81.6574 133.014 82.0493 132.795C82.4458 132.576 82.9129 132.467 83.4507 132.467C85.073 132.467 85.8979 133.326 85.9253 135.044V140H84.6606V135.119C84.6606 134.59 84.5398 134.196 84.2983 133.937C84.0568 133.672 83.6512 133.54 83.0815 133.54C82.6121 133.54 82.2225 133.681 81.9126 133.964C81.6027 134.242 81.4227 134.618 81.3725 135.092V140H80.101V135.153C80.101 134.078 79.5747 133.54 78.5219 133.54C77.6925 133.54 77.1251 133.893 76.8198 134.6V140H75.5551V132.604H76.7514ZM89.0288 132.604L89.063 133.424C89.6053 132.786 90.3367 132.467 91.2573 132.467C92.2918 132.467 92.9959 132.863 93.3696 133.656C93.6157 133.301 93.9347 133.014 94.3266 132.795C94.7231 132.576 95.1902 132.467 95.728 132.467C97.3504 132.467 98.1753 133.326 98.2026 135.044V140H96.938V135.119C96.938 134.59 96.8172 134.196 96.5757 133.937C96.3341 133.672 95.9285 133.54 95.3589 133.54C94.8895 133.54 94.4998 133.681 94.1899 133.964C93.88 134.242 93.7 134.618 93.6499 135.092V140H92.3784V135.153C92.3784 134.078 91.852 133.54 90.7993 133.54C89.9699 133.54 89.4025 133.893 89.0971 134.6V140H87.8325V132.604H89.0288ZM101.491 140H100.226V132.604H101.491V140ZM100.124 130.642C100.124 130.437 100.185 130.263 100.308 130.122C100.436 129.981 100.623 129.91 100.869 129.91C101.115 129.91 101.302 129.981 101.429 130.122C101.557 130.263 101.621 130.437 101.621 130.642C101.621 130.847 101.557 131.018 101.429 131.154C101.302 131.291 101.115 131.359 100.869 131.359C100.623 131.359 100.436 131.291 100.308 131.154C100.185 131.018 100.124 130.847 100.124 130.642ZM104.717 132.604L104.758 133.533C105.323 132.822 106.062 132.467 106.973 132.467C108.536 132.467 109.325 133.349 109.338 135.112V140H108.074V135.105C108.069 134.572 107.946 134.178 107.705 133.923C107.468 133.668 107.096 133.54 106.59 133.54C106.18 133.54 105.82 133.649 105.51 133.868C105.2 134.087 104.959 134.374 104.786 134.729V140H103.521V132.604H104.717ZM110.945 136.24C110.945 135.087 111.211 134.171 111.745 133.492C112.278 132.809 112.984 132.467 113.864 132.467C114.766 132.467 115.47 132.786 115.976 133.424L116.038 132.604H117.193V139.822C117.193 140.779 116.908 141.534 116.338 142.085C115.773 142.636 115.012 142.912 114.055 142.912C113.522 142.912 113 142.798 112.49 142.57C111.979 142.342 111.59 142.03 111.321 141.634L111.977 140.875C112.519 141.545 113.182 141.88 113.966 141.88C114.582 141.88 115.06 141.707 115.402 141.36C115.748 141.014 115.921 140.526 115.921 139.897V139.262C115.415 139.845 114.725 140.137 113.85 140.137C112.984 140.137 112.282 139.788 111.745 139.091C111.211 138.394 110.945 137.443 110.945 136.24ZM112.216 136.384C112.216 137.218 112.387 137.874 112.729 138.353C113.071 138.826 113.549 139.063 114.165 139.063C114.962 139.063 115.548 138.701 115.921 137.977V134.6C115.534 133.893 114.953 133.54 114.178 133.54C113.563 133.54 113.082 133.779 112.736 134.258C112.389 134.736 112.216 135.445 112.216 136.384ZM126.852 137.197H125.047L124.5 140H123.523L124.07 137.197H122.436V136.261H124.248L124.719 133.841H122.956V132.891H124.904L125.464 130.047H126.442L125.881 132.891H127.686L128.247 130.047H129.231L128.67 132.891H130.065V133.841H128.486L128.014 136.261H129.552V137.197H127.836L127.29 140H126.305L126.852 137.197ZM125.225 136.261H127.03L127.501 133.841H125.697L125.225 136.261ZM138.726 136.842C138.603 137.895 138.213 138.708 137.557 139.282C136.905 139.852 136.037 140.137 134.953 140.137C133.777 140.137 132.833 139.715 132.123 138.872C131.416 138.029 131.063 136.901 131.063 135.488V134.531C131.063 133.606 131.227 132.793 131.555 132.091C131.888 131.389 132.357 130.851 132.963 130.478C133.569 130.099 134.271 129.91 135.069 129.91C136.126 129.91 136.974 130.206 137.612 130.799C138.25 131.387 138.621 132.202 138.726 133.246H137.407C137.293 132.453 137.044 131.879 136.662 131.523C136.283 131.168 135.752 130.99 135.069 130.99C134.23 130.99 133.572 131.3 133.093 131.92C132.619 132.54 132.382 133.422 132.382 134.565V135.529C132.382 136.609 132.608 137.468 133.059 138.106C133.51 138.744 134.141 139.063 134.953 139.063C135.682 139.063 136.24 138.899 136.627 138.571C137.019 138.239 137.279 137.662 137.407 136.842H138.726ZM139.991 136.233C139.991 135.509 140.132 134.857 140.415 134.278C140.702 133.7 141.098 133.253 141.604 132.938C142.114 132.624 142.695 132.467 143.347 132.467C144.354 132.467 145.168 132.815 145.788 133.513C146.412 134.21 146.724 135.137 146.724 136.295V136.384C146.724 137.104 146.585 137.751 146.307 138.325C146.034 138.895 145.639 139.339 145.124 139.658C144.614 139.977 144.026 140.137 143.361 140.137C142.358 140.137 141.545 139.788 140.92 139.091C140.301 138.394 139.991 137.471 139.991 136.322V136.233ZM141.262 136.384C141.262 137.204 141.451 137.863 141.83 138.359C142.212 138.856 142.723 139.104 143.361 139.104C144.003 139.104 144.514 138.854 144.892 138.353C145.27 137.847 145.459 137.14 145.459 136.233C145.459 135.422 145.266 134.766 144.878 134.265C144.496 133.759 143.985 133.506 143.347 133.506C142.723 133.506 142.219 133.754 141.836 134.251C141.454 134.748 141.262 135.459 141.262 136.384ZM149.499 132.604L149.534 133.424C150.076 132.786 150.807 132.467 151.728 132.467C152.763 132.467 153.467 132.863 153.84 133.656C154.086 133.301 154.405 133.014 154.797 132.795C155.194 132.576 155.661 132.467 156.199 132.467C157.821 132.467 158.646 133.326 158.673 135.044V140H157.409V135.119C157.409 134.59 157.288 134.196 157.046 133.937C156.805 133.672 156.399 133.54 155.83 133.54C155.36 133.54 154.971 133.681 154.661 133.964C154.351 134.242 154.171 134.618 154.121 135.092V140H152.849V135.153C152.849 134.078 152.323 133.54 151.27 133.54C150.441 133.54 149.873 133.893 149.568 134.6V140H148.303V132.604H149.499ZM166.835 136.384C166.835 137.509 166.578 138.416 166.063 139.104C165.548 139.793 164.851 140.137 163.971 140.137C163.073 140.137 162.367 139.852 161.852 139.282V142.844H160.587V132.604H161.743L161.804 133.424C162.319 132.786 163.035 132.467 163.951 132.467C164.839 132.467 165.541 132.802 166.056 133.472C166.576 134.142 166.835 135.074 166.835 136.268V136.384ZM165.571 136.24C165.571 135.406 165.393 134.748 165.038 134.265C164.682 133.782 164.194 133.54 163.575 133.54C162.809 133.54 162.235 133.88 161.852 134.559V138.093C162.23 138.767 162.809 139.104 163.588 139.104C164.194 139.104 164.675 138.865 165.031 138.387C165.391 137.904 165.571 137.188 165.571 136.24ZM173.015 139.269C172.523 139.847 171.801 140.137 170.848 140.137C170.06 140.137 169.458 139.909 169.043 139.453C168.633 138.993 168.426 138.314 168.421 137.416V132.604H169.686V137.382C169.686 138.503 170.142 139.063 171.053 139.063C172.019 139.063 172.662 138.703 172.981 137.983V132.604H174.246V140H173.042L173.015 139.269ZM177.889 130.812V132.604H179.27V133.581H177.889V138.168C177.889 138.464 177.951 138.688 178.074 138.838C178.197 138.984 178.406 139.057 178.703 139.057C178.848 139.057 179.049 139.029 179.304 138.975V140C178.971 140.091 178.648 140.137 178.333 140.137C177.768 140.137 177.342 139.966 177.055 139.624C176.768 139.282 176.624 138.797 176.624 138.168V133.581H175.278V132.604H176.624V130.812H177.889ZM183.823 140.137C182.82 140.137 182.004 139.809 181.375 139.152C180.747 138.492 180.432 137.61 180.432 136.507V136.274C180.432 135.541 180.571 134.887 180.849 134.312C181.132 133.734 181.524 133.283 182.025 132.959C182.531 132.631 183.078 132.467 183.665 132.467C184.627 132.467 185.374 132.784 185.908 133.417C186.441 134.05 186.707 134.957 186.707 136.138V136.664H181.697C181.715 137.393 181.927 137.983 182.332 138.435C182.743 138.881 183.262 139.104 183.891 139.104C184.338 139.104 184.716 139.013 185.026 138.831C185.336 138.649 185.607 138.407 185.839 138.106L186.612 138.708C185.992 139.66 185.062 140.137 183.823 140.137ZM183.665 133.506C183.155 133.506 182.727 133.693 182.38 134.066C182.034 134.436 181.82 134.955 181.738 135.625H185.443V135.529C185.406 134.887 185.233 134.39 184.923 134.039C184.613 133.684 184.194 133.506 183.665 133.506ZM191.752 133.738C191.561 133.706 191.354 133.69 191.13 133.69C190.301 133.69 189.738 134.044 189.442 134.75V140H188.177V132.604H189.408L189.428 133.458C189.843 132.797 190.431 132.467 191.192 132.467C191.438 132.467 191.625 132.499 191.752 132.562V133.738ZM199.525 135.563C198.399 135.24 197.579 134.843 197.064 134.374C196.554 133.9 196.298 133.317 196.298 132.624C196.298 131.84 196.61 131.193 197.235 130.683C197.864 130.168 198.679 129.91 199.682 129.91C200.366 129.91 200.974 130.042 201.507 130.307C202.045 130.571 202.46 130.936 202.751 131.4C203.048 131.865 203.196 132.373 203.196 132.925H201.876C201.876 132.323 201.685 131.852 201.302 131.51C200.919 131.163 200.379 130.99 199.682 130.99C199.035 130.99 198.529 131.134 198.165 131.421C197.804 131.703 197.624 132.098 197.624 132.604C197.624 133.009 197.795 133.353 198.137 133.636C198.484 133.914 199.069 134.169 199.894 134.401C200.723 134.634 201.371 134.891 201.835 135.174C202.305 135.452 202.651 135.778 202.874 136.151C203.102 136.525 203.216 136.965 203.216 137.471C203.216 138.277 202.902 138.924 202.273 139.412C201.644 139.895 200.803 140.137 199.75 140.137C199.067 140.137 198.429 140.007 197.836 139.747C197.244 139.483 196.786 139.123 196.462 138.667C196.143 138.211 195.984 137.694 195.984 137.115H197.303C197.303 137.717 197.524 138.193 197.966 138.544C198.413 138.89 199.008 139.063 199.75 139.063C200.443 139.063 200.974 138.922 201.343 138.64C201.712 138.357 201.897 137.972 201.897 137.484C201.897 136.997 201.726 136.621 201.384 136.356C201.042 136.088 200.423 135.823 199.525 135.563ZM207.673 139.104C208.124 139.104 208.519 138.968 208.856 138.694C209.193 138.421 209.38 138.079 209.416 137.669H210.613C210.59 138.093 210.444 138.496 210.175 138.879C209.906 139.262 209.546 139.567 209.095 139.795C208.649 140.023 208.175 140.137 207.673 140.137C206.666 140.137 205.864 139.802 205.267 139.132C204.675 138.457 204.378 137.537 204.378 136.37V136.158C204.378 135.438 204.511 134.798 204.775 134.237C205.039 133.677 205.417 133.242 205.91 132.932C206.406 132.622 206.992 132.467 207.666 132.467C208.496 132.467 209.184 132.715 209.731 133.212C210.282 133.709 210.576 134.354 210.613 135.146H209.416C209.38 134.668 209.198 134.276 208.87 133.971C208.546 133.661 208.145 133.506 207.666 133.506C207.024 133.506 206.525 133.738 206.169 134.203C205.818 134.663 205.643 135.331 205.643 136.206V136.445C205.643 137.298 205.818 137.954 206.169 138.414C206.52 138.874 207.022 139.104 207.673 139.104ZM213.409 140H212.144V132.604H213.409V140ZM212.041 130.642C212.041 130.437 212.103 130.263 212.226 130.122C212.354 129.981 212.54 129.91 212.787 129.91C213.033 129.91 213.22 129.981 213.347 130.122C213.475 130.263 213.539 130.437 213.539 130.642C213.539 130.847 213.475 131.018 213.347 131.154C213.22 131.291 213.033 131.359 212.787 131.359C212.54 131.359 212.354 131.291 212.226 131.154C212.103 131.018 212.041 130.847 212.041 130.642ZM218.508 140.137C217.506 140.137 216.69 139.809 216.061 139.152C215.432 138.492 215.118 137.61 215.118 136.507V136.274C215.118 135.541 215.257 134.887 215.535 134.312C215.817 133.734 216.209 133.283 216.71 132.959C217.216 132.631 217.763 132.467 218.351 132.467C219.313 132.467 220.06 132.784 220.593 133.417C221.126 134.05 221.393 134.957 221.393 136.138V136.664H216.382C216.401 137.393 216.612 137.983 217.018 138.435C217.428 138.881 217.948 139.104 218.577 139.104C219.023 139.104 219.401 139.013 219.711 138.831C220.021 138.649 220.292 138.407 220.525 138.106L221.297 138.708C220.678 139.66 219.748 140.137 218.508 140.137ZM218.351 133.506C217.841 133.506 217.412 133.693 217.066 134.066C216.72 134.436 216.505 134.955 216.423 135.625H220.128V135.529C220.092 134.887 219.919 134.39 219.609 134.039C219.299 133.684 218.88 133.506 218.351 133.506ZM224.059 132.604L224.1 133.533C224.665 132.822 225.403 132.467 226.315 132.467C227.878 132.467 228.666 133.349 228.68 135.112V140H227.415V135.105C227.411 134.572 227.288 134.178 227.046 133.923C226.809 133.668 226.438 133.54 225.932 133.54C225.522 133.54 225.162 133.649 224.852 133.868C224.542 134.087 224.301 134.374 224.127 134.729V140H222.863V132.604H224.059ZM233.554 139.104C234.005 139.104 234.4 138.968 234.737 138.694C235.074 138.421 235.261 138.079 235.297 137.669H236.494C236.471 138.093 236.325 138.496 236.056 138.879C235.787 139.262 235.427 139.567 234.976 139.795C234.529 140.023 234.055 140.137 233.554 140.137C232.547 140.137 231.745 139.802 231.148 139.132C230.555 138.457 230.259 137.537 230.259 136.37V136.158C230.259 135.438 230.391 134.798 230.656 134.237C230.92 133.677 231.298 133.242 231.79 132.932C232.287 132.622 232.873 132.467 233.547 132.467C234.377 132.467 235.065 132.715 235.612 133.212C236.163 133.709 236.457 134.354 236.494 135.146H235.297C235.261 134.668 235.079 134.276 234.75 133.971C234.427 133.661 234.026 133.506 233.547 133.506C232.905 133.506 232.406 133.738 232.05 134.203C231.699 134.663 231.524 135.331 231.524 136.206V136.445C231.524 137.298 231.699 137.954 232.05 138.414C232.401 138.874 232.902 139.104 233.554 139.104ZM240.985 140.137C239.982 140.137 239.166 139.809 238.538 139.152C237.909 138.492 237.594 137.61 237.594 136.507V136.274C237.594 135.541 237.733 134.887 238.011 134.312C238.294 133.734 238.686 133.283 239.187 132.959C239.693 132.631 240.24 132.467 240.828 132.467C241.789 132.467 242.537 132.784 243.07 133.417C243.603 134.05 243.87 134.957 243.87 136.138V136.664H238.859C238.877 137.393 239.089 137.983 239.495 138.435C239.905 138.881 240.424 139.104 241.053 139.104C241.5 139.104 241.878 139.013 242.188 138.831C242.498 138.649 242.769 138.407 243.001 138.106L243.774 138.708C243.154 139.66 242.224 140.137 240.985 140.137ZM240.828 133.506C240.317 133.506 239.889 133.693 239.542 134.066C239.196 134.436 238.982 134.955 238.9 135.625H242.605V135.529C242.568 134.887 242.395 134.39 242.085 134.039C241.776 133.684 241.356 133.506 240.828 133.506ZM248.839 139.337C248.839 139.118 248.903 138.936 249.031 138.79C249.163 138.644 249.359 138.571 249.619 138.571C249.878 138.571 250.074 138.644 250.207 138.79C250.343 138.936 250.412 139.118 250.412 139.337C250.412 139.547 250.343 139.722 250.207 139.863C250.074 140.005 249.878 140.075 249.619 140.075C249.359 140.075 249.163 140.005 249.031 139.863C248.903 139.722 248.839 139.547 248.839 139.337ZM252.531 139.337C252.531 139.118 252.595 138.936 252.722 138.79C252.854 138.644 253.05 138.571 253.31 138.571C253.57 138.571 253.766 138.644 253.898 138.79C254.035 138.936 254.103 139.118 254.103 139.337C254.103 139.547 254.035 139.722 253.898 139.863C253.766 140.005 253.57 140.075 253.31 140.075C253.05 140.075 252.854 140.005 252.722 139.863C252.595 139.722 252.531 139.547 252.531 139.337ZM263.29 134.661H266.066V135.857H263.29V139.002H262.019V135.857H259.244V134.661H262.019V131.756H263.29V134.661ZM272.444 130.04V131.113H272.211C271.227 131.132 270.443 131.423 269.86 131.988C269.276 132.553 268.939 133.349 268.848 134.374C269.372 133.772 270.088 133.472 270.995 133.472C271.86 133.472 272.551 133.777 273.066 134.388C273.585 134.998 273.845 135.787 273.845 136.753C273.845 137.778 273.565 138.599 273.004 139.214C272.448 139.829 271.701 140.137 270.762 140.137C269.81 140.137 269.037 139.772 268.445 139.043C267.852 138.309 267.556 137.366 267.556 136.213V135.728C267.556 133.896 267.946 132.496 268.725 131.53C269.509 130.56 270.673 130.063 272.218 130.04H272.444ZM270.783 134.524C270.35 134.524 269.951 134.654 269.586 134.914C269.222 135.174 268.969 135.5 268.828 135.892V136.356C268.828 137.177 269.012 137.838 269.381 138.339C269.75 138.84 270.211 139.091 270.762 139.091C271.332 139.091 271.778 138.881 272.102 138.462C272.43 138.043 272.594 137.493 272.594 136.814C272.594 136.131 272.428 135.579 272.095 135.16C271.767 134.736 271.33 134.524 270.783 134.524ZM280.134 132.604L280.168 133.424C280.711 132.786 281.442 132.467 282.363 132.467C283.397 132.467 284.101 132.863 284.475 133.656C284.721 133.301 285.04 133.014 285.432 132.795C285.829 132.576 286.296 132.467 286.833 132.467C288.456 132.467 289.281 133.326 289.308 135.044V140H288.043V135.119C288.043 134.59 287.923 134.196 287.681 133.937C287.44 133.672 287.034 133.54 286.464 133.54C285.995 133.54 285.605 133.681 285.295 133.964C284.985 134.242 284.805 134.618 284.755 135.092V140H283.484V135.153C283.484 134.078 282.957 133.54 281.905 133.54C281.075 133.54 280.508 133.893 280.203 134.6V140H278.938V132.604H280.134ZM290.887 136.233C290.887 135.509 291.028 134.857 291.311 134.278C291.598 133.7 291.995 133.253 292.5 132.938C293.011 132.624 293.592 132.467 294.244 132.467C295.251 132.467 296.064 132.815 296.684 133.513C297.308 134.21 297.621 135.137 297.621 136.295V136.384C297.621 137.104 297.482 137.751 297.204 138.325C296.93 138.895 296.536 139.339 296.021 139.658C295.511 139.977 294.923 140.137 294.257 140.137C293.255 140.137 292.441 139.788 291.817 139.091C291.197 138.394 290.887 137.471 290.887 136.322V136.233ZM292.159 136.384C292.159 137.204 292.348 137.863 292.726 138.359C293.109 138.856 293.619 139.104 294.257 139.104C294.9 139.104 295.41 138.854 295.789 138.353C296.167 137.847 296.356 137.14 296.356 136.233C296.356 135.422 296.162 134.766 295.775 134.265C295.392 133.759 294.882 133.506 294.244 133.506C293.619 133.506 293.116 133.754 292.733 134.251C292.35 134.748 292.159 135.459 292.159 136.384ZM302.782 133.738C302.59 133.706 302.383 133.69 302.16 133.69C301.33 133.69 300.767 134.044 300.471 134.75V140H299.207V132.604H300.437L300.457 133.458C300.872 132.797 301.46 132.467 302.221 132.467C302.467 132.467 302.654 132.499 302.782 132.562V133.738ZM306.883 140.137C305.881 140.137 305.065 139.809 304.436 139.152C303.807 138.492 303.493 137.61 303.493 136.507V136.274C303.493 135.541 303.632 134.887 303.91 134.312C304.192 133.734 304.584 133.283 305.085 132.959C305.591 132.631 306.138 132.467 306.726 132.467C307.688 132.467 308.435 132.784 308.968 133.417C309.501 134.05 309.768 134.957 309.768 136.138V136.664H304.757C304.776 137.393 304.987 137.983 305.393 138.435C305.803 138.881 306.323 139.104 306.952 139.104C307.398 139.104 307.776 139.013 308.086 138.831C308.396 138.649 308.667 138.407 308.9 138.106L309.672 138.708C309.053 139.66 308.123 140.137 306.883 140.137ZM306.726 133.506C306.216 133.506 305.787 133.693 305.441 134.066C305.095 134.436 304.88 134.955 304.798 135.625H308.503V135.529C308.467 134.887 308.294 134.39 307.984 134.039C307.674 133.684 307.255 133.506 306.726 133.506Z"
          fill="#696969"/>
    <path d="M297.519 106.158L298.314 98.3594H306.328V100.196H300L299.528 104.461C300.294 104.01 301.164 103.784 302.138 103.784C303.563 103.784 304.695 104.257 305.533 105.202C306.371 106.14 306.79 107.411 306.79 109.016C306.79 110.627 306.353 111.898 305.479 112.829C304.612 113.753 303.399 114.215 301.837 114.215C300.455 114.215 299.327 113.832 298.454 113.065C297.58 112.299 297.082 111.239 296.96 109.886H298.84C298.962 110.781 299.281 111.458 299.796 111.916C300.312 112.367 300.992 112.593 301.837 112.593C302.761 112.593 303.485 112.278 304.007 111.647C304.537 111.017 304.802 110.147 304.802 109.037C304.802 107.992 304.516 107.154 303.943 106.523C303.377 105.886 302.622 105.567 301.676 105.567C300.81 105.567 300.129 105.757 299.635 106.137L299.109 106.566L297.519 106.158ZM318.767 107.329C318.767 109.657 318.37 111.386 317.575 112.518C316.78 113.649 315.537 114.215 313.847 114.215C312.179 114.215 310.943 113.663 310.141 112.561C309.339 111.451 308.924 109.796 308.895 107.598V104.944C308.895 102.646 309.292 100.938 310.087 99.8203C310.882 98.7031 312.128 98.1445 313.826 98.1445C315.509 98.1445 316.748 98.6852 317.542 99.7666C318.337 100.841 318.746 102.502 318.767 104.751V107.329ZM316.78 104.611C316.78 102.928 316.543 101.704 316.071 100.938C315.598 100.164 314.85 99.7773 313.826 99.7773C312.809 99.7773 312.068 100.16 311.602 100.927C311.137 101.693 310.897 102.871 310.882 104.461V107.641C310.882 109.331 311.126 110.58 311.613 111.39C312.107 112.192 312.852 112.593 313.847 112.593C314.828 112.593 315.555 112.213 316.028 111.454C316.508 110.695 316.758 109.499 316.78 107.866V104.611ZM321.141 101.367C321.141 100.429 321.438 99.6556 322.033 99.0469C322.634 98.4382 323.404 98.1338 324.342 98.1338C325.295 98.1338 326.065 98.4417 326.652 99.0576C327.246 99.6663 327.543 100.458 327.543 101.432V102.194C327.543 103.14 327.243 103.913 326.641 104.515C326.047 105.109 325.288 105.406 324.364 105.406C323.433 105.406 322.663 105.109 322.054 104.515C321.445 103.913 321.141 103.115 321.141 102.119V101.367ZM322.624 102.194C322.624 102.753 322.781 103.215 323.096 103.58C323.411 103.938 323.834 104.117 324.364 104.117C324.872 104.117 325.28 103.942 325.588 103.591C325.903 103.24 326.061 102.76 326.061 102.151V101.367C326.061 100.809 325.907 100.347 325.599 99.9814C325.291 99.6162 324.872 99.4336 324.342 99.4336C323.812 99.4336 323.393 99.6162 323.085 99.9814C322.778 100.347 322.624 100.823 322.624 101.41V102.194ZM328.757 110.165C328.757 109.227 329.055 108.457 329.649 107.855C330.25 107.247 331.02 106.942 331.958 106.942C332.897 106.942 333.667 107.243 334.268 107.845C334.87 108.446 335.17 109.245 335.17 110.24V111.003C335.17 111.941 334.87 112.715 334.268 113.323C333.674 113.925 332.911 114.226 331.98 114.226C331.049 114.226 330.279 113.928 329.67 113.334C329.062 112.732 328.757 111.934 328.757 110.938V110.165ZM330.24 111.003C330.24 111.569 330.397 112.034 330.712 112.399C331.028 112.757 331.45 112.937 331.98 112.937C332.496 112.937 332.907 112.761 333.215 112.41C333.523 112.052 333.677 111.569 333.677 110.96V110.165C333.677 109.599 333.52 109.137 333.205 108.779C332.897 108.421 332.481 108.242 331.958 108.242C331.45 108.242 331.035 108.421 330.712 108.779C330.397 109.13 330.24 109.606 330.24 110.208V111.003ZM324.815 112.818L323.687 112.109L331.325 99.8848L332.453 100.594L324.815 112.818Z"
          fill="#696969"/>
    <rect x="18.9868" y="90" width="266.016" height="33" rx="16.5" fill="#798A93"/>
    <rect x="27" y="97" width="149" height="19" rx="9.5" fill="#E9E9E9"/>
    <ellipse cx="310.229" cy="35.324" rx="29.3775" ry="32.5398" fill="#FDFDFD"/>
    <g filter="url(#filter1_d)">
        <path d="M311.698 2C293.846 2 279.383 16.7396 279.383 34.9318C279.383 53.124 293.846 67.8636 311.698 67.8636C329.55 67.8636 344.013 53.124 344.013 34.9318C344.013 16.7396 329.55 2 311.698 2ZM326.774 38.1188L303.841 51.5305C301.782 52.6991 299.189 51.1985 299.189 48.7419V21.1217C299.189 18.6784 301.769 17.1646 303.841 18.3331L326.774 32.5416C328.911 33.7633 328.911 36.9104 326.774 38.1188Z"
              fill="#FFB763"/>
    </g>
    <rect x="74" y="172.098" width="162" height="104" rx="15" fill="white"/>
    <path d="M112.221 222.76C110.613 222.298 109.441 221.731 108.705 221.061C107.976 220.383 107.611 219.55 107.611 218.561C107.611 217.441 108.057 216.516 108.949 215.787C109.848 215.051 111.013 214.684 112.445 214.684C113.422 214.684 114.291 214.872 115.053 215.25C115.821 215.628 116.413 216.148 116.83 216.812C117.253 217.477 117.465 218.202 117.465 218.99H115.58C115.58 218.131 115.307 217.457 114.76 216.969C114.213 216.474 113.441 216.227 112.445 216.227C111.521 216.227 110.798 216.432 110.277 216.842C109.763 217.245 109.506 217.809 109.506 218.531C109.506 219.111 109.75 219.602 110.238 220.006C110.733 220.403 111.57 220.768 112.748 221.1C113.933 221.432 114.857 221.799 115.521 222.203C116.192 222.6 116.687 223.066 117.006 223.6C117.331 224.133 117.494 224.762 117.494 225.484C117.494 226.637 117.045 227.561 116.146 228.258C115.248 228.948 114.047 229.293 112.543 229.293C111.566 229.293 110.655 229.107 109.809 228.736C108.962 228.359 108.308 227.844 107.846 227.193C107.39 226.542 107.162 225.803 107.162 224.977H109.047C109.047 225.836 109.363 226.516 109.994 227.018C110.632 227.512 111.482 227.76 112.543 227.76C113.533 227.76 114.291 227.558 114.818 227.154C115.346 226.751 115.609 226.201 115.609 225.504C115.609 224.807 115.365 224.27 114.877 223.893C114.389 223.508 113.503 223.131 112.221 222.76ZM124.008 229.293C122.576 229.293 121.41 228.824 120.512 227.887C119.613 226.943 119.164 225.683 119.164 224.107V223.775C119.164 222.727 119.363 221.793 119.76 220.973C120.163 220.146 120.723 219.501 121.439 219.039C122.162 218.57 122.943 218.336 123.783 218.336C125.157 218.336 126.225 218.788 126.986 219.693C127.748 220.598 128.129 221.894 128.129 223.58V224.332H120.971C120.997 225.374 121.299 226.217 121.879 226.861C122.465 227.499 123.207 227.818 124.105 227.818C124.743 227.818 125.284 227.688 125.727 227.428C126.169 227.167 126.557 226.822 126.889 226.393L127.992 227.252C127.107 228.613 125.779 229.293 124.008 229.293ZM123.783 219.82C123.054 219.82 122.442 220.087 121.947 220.621C121.452 221.148 121.146 221.891 121.029 222.848H126.322V222.711C126.27 221.793 126.023 221.083 125.58 220.582C125.137 220.074 124.538 219.82 123.783 219.82ZM134.613 229.293C133.181 229.293 132.016 228.824 131.117 227.887C130.219 226.943 129.77 225.683 129.77 224.107V223.775C129.77 222.727 129.968 221.793 130.365 220.973C130.769 220.146 131.329 219.501 132.045 219.039C132.768 218.57 133.549 218.336 134.389 218.336C135.762 218.336 136.83 218.788 137.592 219.693C138.354 220.598 138.734 221.894 138.734 223.58V224.332H131.576C131.602 225.374 131.905 226.217 132.484 226.861C133.07 227.499 133.812 227.818 134.711 227.818C135.349 227.818 135.889 227.688 136.332 227.428C136.775 227.167 137.162 226.822 137.494 226.393L138.598 227.252C137.712 228.613 136.384 229.293 134.613 229.293ZM134.389 219.82C133.66 219.82 133.048 220.087 132.553 220.621C132.058 221.148 131.752 221.891 131.635 222.848H136.928V222.711C136.876 221.793 136.628 221.083 136.186 220.582C135.743 220.074 135.144 219.82 134.389 219.82ZM146.078 229.098V214.879H150.092C151.329 214.879 152.423 215.152 153.373 215.699C154.324 216.246 155.056 217.024 155.57 218.033C156.091 219.042 156.355 220.201 156.361 221.51V222.418C156.361 223.759 156.101 224.934 155.58 225.943C155.066 226.952 154.327 227.727 153.363 228.268C152.406 228.808 151.29 229.085 150.014 229.098H146.078ZM147.953 216.422V227.564H149.926C151.371 227.564 152.494 227.115 153.295 226.217C154.102 225.318 154.506 224.039 154.506 222.379V221.549C154.506 219.934 154.125 218.681 153.363 217.789C152.608 216.891 151.534 216.435 150.141 216.422H147.953ZM163.305 229.293C161.872 229.293 160.707 228.824 159.809 227.887C158.91 226.943 158.461 225.683 158.461 224.107V223.775C158.461 222.727 158.66 221.793 159.057 220.973C159.46 220.146 160.02 219.501 160.736 219.039C161.459 218.57 162.24 218.336 163.08 218.336C164.454 218.336 165.521 218.788 166.283 219.693C167.045 220.598 167.426 221.894 167.426 223.58V224.332H160.268C160.294 225.374 160.596 226.217 161.176 226.861C161.762 227.499 162.504 227.818 163.402 227.818C164.04 227.818 164.581 227.688 165.023 227.428C165.466 227.167 165.854 226.822 166.186 226.393L167.289 227.252C166.404 228.613 165.076 229.293 163.305 229.293ZM163.08 219.82C162.351 219.82 161.739 220.087 161.244 220.621C160.749 221.148 160.443 221.891 160.326 222.848H165.619V222.711C165.567 221.793 165.32 221.083 164.877 220.582C164.434 220.074 163.835 219.82 163.08 219.82ZM171.977 215.973V218.531H173.949V219.928H171.977V226.48C171.977 226.904 172.064 227.223 172.24 227.438C172.416 227.646 172.715 227.75 173.139 227.75C173.347 227.75 173.633 227.711 173.998 227.633V229.098C173.523 229.228 173.061 229.293 172.611 229.293C171.804 229.293 171.195 229.049 170.785 228.561C170.375 228.072 170.17 227.379 170.17 226.48V219.928H168.246V218.531H170.17V215.973H171.977ZM182.592 229.098C182.488 228.889 182.403 228.518 182.338 227.984C181.498 228.857 180.495 229.293 179.33 229.293C178.288 229.293 177.432 229 176.762 228.414C176.098 227.822 175.766 227.073 175.766 226.168C175.766 225.068 176.182 224.215 177.016 223.609C177.855 222.997 179.034 222.691 180.551 222.691H182.309V221.861C182.309 221.23 182.12 220.729 181.742 220.357C181.365 219.98 180.808 219.791 180.072 219.791C179.428 219.791 178.887 219.954 178.451 220.279C178.015 220.605 177.797 220.999 177.797 221.461H175.98C175.98 220.934 176.166 220.426 176.537 219.938C176.915 219.443 177.423 219.052 178.061 218.766C178.705 218.479 179.411 218.336 180.18 218.336C181.397 218.336 182.351 218.642 183.041 219.254C183.731 219.859 184.089 220.696 184.115 221.764V226.627C184.115 227.597 184.239 228.368 184.486 228.941V229.098H182.592ZM179.594 227.721C180.16 227.721 180.697 227.574 181.205 227.281C181.713 226.988 182.081 226.607 182.309 226.139V223.971H180.893C178.679 223.971 177.572 224.618 177.572 225.914C177.572 226.48 177.761 226.923 178.139 227.242C178.516 227.561 179.001 227.721 179.594 227.721ZM188.91 229.098H187.104V218.531H188.91V229.098ZM186.957 215.729C186.957 215.436 187.045 215.188 187.221 214.986C187.403 214.785 187.67 214.684 188.021 214.684C188.373 214.684 188.64 214.785 188.822 214.986C189.005 215.188 189.096 215.436 189.096 215.729C189.096 216.021 189.005 216.266 188.822 216.461C188.64 216.656 188.373 216.754 188.021 216.754C187.67 216.754 187.403 216.656 187.221 216.461C187.045 216.266 186.957 216.021 186.957 215.729ZM193.773 229.098H191.967V214.098H193.773V229.098ZM202.826 226.295C202.826 225.807 202.641 225.429 202.27 225.162C201.905 224.889 201.264 224.654 200.346 224.459C199.434 224.264 198.708 224.029 198.168 223.756C197.634 223.482 197.237 223.157 196.977 222.779C196.723 222.402 196.596 221.952 196.596 221.432C196.596 220.566 196.96 219.833 197.689 219.234C198.425 218.635 199.363 218.336 200.502 218.336C201.7 218.336 202.67 218.645 203.412 219.264C204.161 219.882 204.535 220.673 204.535 221.637H202.719C202.719 221.142 202.507 220.715 202.084 220.357C201.667 219.999 201.14 219.82 200.502 219.82C199.844 219.82 199.33 219.964 198.959 220.25C198.588 220.536 198.402 220.911 198.402 221.373C198.402 221.809 198.575 222.138 198.92 222.359C199.265 222.581 199.887 222.792 200.785 222.994C201.69 223.196 202.423 223.437 202.982 223.717C203.542 223.997 203.956 224.335 204.223 224.732C204.496 225.123 204.633 225.602 204.633 226.168C204.633 227.112 204.255 227.87 203.5 228.443C202.745 229.01 201.765 229.293 200.561 229.293C199.714 229.293 198.965 229.143 198.314 228.844C197.663 228.544 197.152 228.128 196.781 227.594C196.417 227.053 196.234 226.471 196.234 225.846H198.041C198.074 226.451 198.314 226.933 198.764 227.291C199.219 227.643 199.818 227.818 200.561 227.818C201.244 227.818 201.791 227.682 202.201 227.408C202.618 227.128 202.826 226.757 202.826 226.295Z"
          fill="#696969"/>
    <path d="M128.477 266.098V251.879H132.49C133.727 251.879 134.821 252.152 135.771 252.699C136.722 253.246 137.454 254.024 137.969 255.033C138.49 256.042 138.753 257.201 138.76 258.51V259.418C138.76 260.759 138.499 261.934 137.979 262.943C137.464 263.952 136.725 264.727 135.762 265.268C134.805 265.808 133.688 266.085 132.412 266.098H128.477ZM130.352 253.422V264.564H132.324C133.77 264.564 134.893 264.115 135.693 263.217C136.501 262.318 136.904 261.039 136.904 259.379V258.549C136.904 256.934 136.523 255.681 135.762 254.789C135.007 253.891 133.932 253.435 132.539 253.422H130.352ZM145.703 266.293C144.271 266.293 143.105 265.824 142.207 264.887C141.309 263.943 140.859 262.683 140.859 261.107V260.775C140.859 259.727 141.058 258.793 141.455 257.973C141.859 257.146 142.419 256.501 143.135 256.039C143.857 255.57 144.639 255.336 145.479 255.336C146.852 255.336 147.92 255.788 148.682 256.693C149.443 257.598 149.824 258.894 149.824 260.58V261.332H142.666C142.692 262.374 142.995 263.217 143.574 263.861C144.16 264.499 144.902 264.818 145.801 264.818C146.439 264.818 146.979 264.688 147.422 264.428C147.865 264.167 148.252 263.822 148.584 263.393L149.688 264.252C148.802 265.613 147.474 266.293 145.703 266.293ZM145.479 256.82C144.749 256.82 144.137 257.087 143.643 257.621C143.148 258.148 142.842 258.891 142.725 259.848H148.018V259.711C147.965 258.793 147.718 258.083 147.275 257.582C146.833 257.074 146.234 256.82 145.479 256.82ZM153.887 266.098H152.08V251.098H153.887V266.098ZM161.172 266.293C159.74 266.293 158.574 265.824 157.676 264.887C156.777 263.943 156.328 262.683 156.328 261.107V260.775C156.328 259.727 156.527 258.793 156.924 257.973C157.327 257.146 157.887 256.501 158.604 256.039C159.326 255.57 160.107 255.336 160.947 255.336C162.321 255.336 163.389 255.788 164.15 256.693C164.912 257.598 165.293 258.894 165.293 260.58V261.332H158.135C158.161 262.374 158.464 263.217 159.043 263.861C159.629 264.499 160.371 264.818 161.27 264.818C161.908 264.818 162.448 264.688 162.891 264.428C163.333 264.167 163.721 263.822 164.053 263.393L165.156 264.252C164.271 265.613 162.943 266.293 161.172 266.293ZM160.947 256.82C160.218 256.82 159.606 257.087 159.111 257.621C158.617 258.148 158.311 258.891 158.193 259.848H163.486V259.711C163.434 258.793 163.187 258.083 162.744 257.582C162.301 257.074 161.702 256.82 160.947 256.82ZM169.844 252.973V255.531H171.816V256.928H169.844V263.48C169.844 263.904 169.932 264.223 170.107 264.438C170.283 264.646 170.583 264.75 171.006 264.75C171.214 264.75 171.501 264.711 171.865 264.633V266.098C171.39 266.228 170.928 266.293 170.479 266.293C169.671 266.293 169.062 266.049 168.652 265.561C168.242 265.072 168.037 264.379 168.037 263.48V256.928H166.113V255.531H168.037V252.973H169.844ZM178.32 266.293C176.888 266.293 175.723 265.824 174.824 264.887C173.926 263.943 173.477 262.683 173.477 261.107V260.775C173.477 259.727 173.675 258.793 174.072 257.973C174.476 257.146 175.036 256.501 175.752 256.039C176.475 255.57 177.256 255.336 178.096 255.336C179.469 255.336 180.537 255.788 181.299 256.693C182.061 257.598 182.441 258.894 182.441 260.58V261.332H175.283C175.309 262.374 175.612 263.217 176.191 263.861C176.777 264.499 177.52 264.818 178.418 264.818C179.056 264.818 179.596 264.688 180.039 264.428C180.482 264.167 180.869 263.822 181.201 263.393L182.305 264.252C181.419 265.613 180.091 266.293 178.32 266.293ZM178.096 256.82C177.367 256.82 176.755 257.087 176.26 257.621C175.765 258.148 175.459 258.891 175.342 259.848H180.635V259.711C180.583 258.793 180.335 258.083 179.893 257.582C179.45 257.074 178.851 256.82 178.096 256.82Z"
          fill="#696969"/>
    <path d="M96.9668 192.531V198.098H95.0918V183.879H100.336C101.892 183.879 103.109 184.276 103.988 185.07C104.874 185.865 105.316 186.916 105.316 188.225C105.316 189.605 104.883 190.669 104.018 191.418C103.158 192.16 101.924 192.531 100.316 192.531H96.9668ZM96.9668 190.998H100.336C101.339 190.998 102.107 190.764 102.641 190.295C103.174 189.82 103.441 189.136 103.441 188.244C103.441 187.398 103.174 186.721 102.641 186.213C102.107 185.705 101.374 185.441 100.443 185.422H96.9668V190.998ZM109.389 198.098H107.582V187.531H109.389V198.098ZM107.436 184.729C107.436 184.436 107.523 184.188 107.699 183.986C107.882 183.785 108.148 183.684 108.5 183.684C108.852 183.684 109.118 183.785 109.301 183.986C109.483 184.188 109.574 184.436 109.574 184.729C109.574 185.021 109.483 185.266 109.301 185.461C109.118 185.656 108.852 185.754 108.5 185.754C108.148 185.754 107.882 185.656 107.699 185.461C107.523 185.266 107.436 185.021 107.436 184.729ZM116.527 196.818C117.172 196.818 117.735 196.623 118.217 196.232C118.699 195.842 118.965 195.354 119.018 194.768H120.727C120.694 195.373 120.486 195.949 120.102 196.496C119.717 197.043 119.203 197.479 118.559 197.805C117.921 198.13 117.243 198.293 116.527 198.293C115.089 198.293 113.943 197.814 113.09 196.857C112.243 195.894 111.82 194.579 111.82 192.912V192.609C111.82 191.581 112.009 190.666 112.387 189.865C112.764 189.064 113.305 188.443 114.008 188C114.717 187.557 115.554 187.336 116.518 187.336C117.702 187.336 118.686 187.691 119.467 188.4C120.255 189.11 120.674 190.031 120.727 191.164H119.018C118.965 190.48 118.705 189.921 118.236 189.484C117.774 189.042 117.201 188.82 116.518 188.82C115.6 188.82 114.887 189.152 114.379 189.816C113.878 190.474 113.627 191.428 113.627 192.678V193.02C113.627 194.237 113.878 195.174 114.379 195.832C114.88 196.49 115.596 196.818 116.527 196.818ZM125.707 193.205L124.574 194.387V198.098H122.768V183.098H124.574V192.17L125.541 191.008L128.832 187.531H131.029L126.918 191.945L131.508 198.098H129.389L125.707 193.205ZM144.379 198.098C144.275 197.889 144.19 197.518 144.125 196.984C143.285 197.857 142.283 198.293 141.117 198.293C140.076 198.293 139.219 198 138.549 197.414C137.885 196.822 137.553 196.073 137.553 195.168C137.553 194.068 137.969 193.215 138.803 192.609C139.643 191.997 140.821 191.691 142.338 191.691H144.096V190.861C144.096 190.23 143.907 189.729 143.529 189.357C143.152 188.98 142.595 188.791 141.859 188.791C141.215 188.791 140.674 188.954 140.238 189.279C139.802 189.605 139.584 189.999 139.584 190.461H137.768C137.768 189.934 137.953 189.426 138.324 188.938C138.702 188.443 139.21 188.052 139.848 187.766C140.492 187.479 141.199 187.336 141.967 187.336C143.184 187.336 144.138 187.642 144.828 188.254C145.518 188.859 145.876 189.696 145.902 190.764V195.627C145.902 196.597 146.026 197.368 146.273 197.941V198.098H144.379ZM141.381 196.721C141.947 196.721 142.484 196.574 142.992 196.281C143.5 195.988 143.868 195.607 144.096 195.139V192.971H142.68C140.466 192.971 139.359 193.618 139.359 194.914C139.359 195.48 139.548 195.923 139.926 196.242C140.303 196.561 140.788 196.721 141.381 196.721ZM150.443 187.531L150.502 188.859C151.309 187.844 152.364 187.336 153.666 187.336C155.899 187.336 157.025 188.596 157.045 191.115V198.098H155.238V191.105C155.232 190.344 155.056 189.781 154.711 189.416C154.372 189.051 153.842 188.869 153.119 188.869C152.533 188.869 152.019 189.025 151.576 189.338C151.133 189.65 150.788 190.061 150.541 190.568V198.098H148.734V187.531H150.443ZM171.254 198.098C171.15 197.889 171.065 197.518 171 196.984C170.16 197.857 169.158 198.293 167.992 198.293C166.951 198.293 166.094 198 165.424 197.414C164.76 196.822 164.428 196.073 164.428 195.168C164.428 194.068 164.844 193.215 165.678 192.609C166.518 191.997 167.696 191.691 169.213 191.691H170.971V190.861C170.971 190.23 170.782 189.729 170.404 189.357C170.027 188.98 169.47 188.791 168.734 188.791C168.09 188.791 167.549 188.954 167.113 189.279C166.677 189.605 166.459 189.999 166.459 190.461H164.643C164.643 189.934 164.828 189.426 165.199 188.938C165.577 188.443 166.085 188.052 166.723 187.766C167.367 187.479 168.074 187.336 168.842 187.336C170.059 187.336 171.013 187.642 171.703 188.254C172.393 188.859 172.751 189.696 172.777 190.764V195.627C172.777 196.597 172.901 197.368 173.148 197.941V198.098H171.254ZM168.256 196.721C168.822 196.721 169.359 196.574 169.867 196.281C170.375 195.988 170.743 195.607 170.971 195.139V192.971H169.555C167.341 192.971 166.234 193.618 166.234 194.914C166.234 195.48 166.423 195.923 166.801 196.242C167.178 196.561 167.663 196.721 168.256 196.721ZM179.848 196.818C180.492 196.818 181.055 196.623 181.537 196.232C182.019 195.842 182.286 195.354 182.338 194.768H184.047C184.014 195.373 183.806 195.949 183.422 196.496C183.038 197.043 182.523 197.479 181.879 197.805C181.241 198.13 180.564 198.293 179.848 198.293C178.409 198.293 177.263 197.814 176.41 196.857C175.564 195.894 175.141 194.579 175.141 192.912V192.609C175.141 191.581 175.329 190.666 175.707 189.865C176.085 189.064 176.625 188.443 177.328 188C178.038 187.557 178.874 187.336 179.838 187.336C181.023 187.336 182.006 187.691 182.787 188.4C183.575 189.11 183.995 190.031 184.047 191.164H182.338C182.286 190.48 182.025 189.921 181.557 189.484C181.094 189.042 180.521 188.82 179.838 188.82C178.92 188.82 178.207 189.152 177.699 189.816C177.198 190.474 176.947 191.428 176.947 192.678V193.02C176.947 194.237 177.198 195.174 177.699 195.832C178.201 196.49 178.917 196.818 179.848 196.818ZM188.529 184.973V187.531H190.502V188.928H188.529V195.48C188.529 195.904 188.617 196.223 188.793 196.438C188.969 196.646 189.268 196.75 189.691 196.75C189.9 196.75 190.186 196.711 190.551 196.633V198.098C190.076 198.228 189.613 198.293 189.164 198.293C188.357 198.293 187.748 198.049 187.338 197.561C186.928 197.072 186.723 196.379 186.723 195.48V188.928H184.799V187.531H186.723V184.973H188.529ZM194.584 198.098H192.777V187.531H194.584V198.098ZM192.631 184.729C192.631 184.436 192.719 184.188 192.895 183.986C193.077 183.785 193.344 183.684 193.695 183.684C194.047 183.684 194.314 183.785 194.496 183.986C194.678 184.188 194.77 184.436 194.77 184.729C194.77 185.021 194.678 185.266 194.496 185.461C194.314 185.656 194.047 185.754 193.695 185.754C193.344 185.754 193.077 185.656 192.895 185.461C192.719 185.266 192.631 185.021 192.631 184.729ZM197.006 192.717C197.006 191.682 197.208 190.751 197.611 189.924C198.021 189.097 198.588 188.459 199.311 188.01C200.04 187.561 200.87 187.336 201.801 187.336C203.24 187.336 204.402 187.834 205.287 188.83C206.179 189.826 206.625 191.151 206.625 192.805V192.932C206.625 193.96 206.426 194.885 206.029 195.705C205.639 196.519 205.076 197.154 204.34 197.609C203.611 198.065 202.771 198.293 201.82 198.293C200.388 198.293 199.226 197.795 198.334 196.799C197.449 195.803 197.006 194.484 197.006 192.844V192.717ZM198.822 192.932C198.822 194.104 199.092 195.044 199.633 195.754C200.18 196.464 200.909 196.818 201.82 196.818C202.738 196.818 203.467 196.46 204.008 195.744C204.548 195.021 204.818 194.012 204.818 192.717C204.818 191.558 204.542 190.62 203.988 189.904C203.441 189.182 202.712 188.82 201.801 188.82C200.909 188.82 200.189 189.175 199.643 189.885C199.096 190.594 198.822 191.61 198.822 192.932ZM210.6 187.531L210.658 188.859C211.465 187.844 212.52 187.336 213.822 187.336C216.055 187.336 217.182 188.596 217.201 191.115V198.098H215.395V191.105C215.388 190.344 215.212 189.781 214.867 189.416C214.529 189.051 213.998 188.869 213.275 188.869C212.689 188.869 212.175 189.025 211.732 189.338C211.29 189.65 210.945 190.061 210.697 190.568V198.098H208.891V187.531H210.6Z"
          fill="black"/>
    <line x1="74" y1="205.098" x2="236" y2="205.098" stroke="#C4C4C4" stroke-width="2"/>
    <line x1="75" y1="241.098" x2="237" y2="241.098" stroke="#C4C4C4" stroke-width="2"/>
    <path d="M154.5 163.098L160.995 172.098H148.005L154.5 163.098Z" fill="white"/>
    <defs>
        <filter id="filter0_d" x="0" y="32" width="369" height="142" filterUnits="userSpaceOnUse"
                color-interpolation-filters="sRGB">
            <feFlood flood-opacity="0" result="BackgroundImageFix"/>
            <feColorMatrix in="SourceAlpha" type="matrix" values="0 0 0 0 0 0 0 0 0 0 0 0 0 0 0 0 0 0 127 0"/>
            <feMorphology radius="3" operator="dilate" in="SourceAlpha" result="effect1_dropShadow"/>
            <feOffset dx="3" dy="4"/>
            <feGaussianBlur stdDeviation="2"/>
            <feColorMatrix type="matrix" values="0 0 0 0 0 0 0 0 0 0 0 0 0 0 0 0 0 0 0.25 0"/>
            <feBlend mode="normal" in2="BackgroundImageFix" result="effect1_dropShadow"/>
            <feBlend mode="normal" in="SourceGraphic" in2="effect1_dropShadow" result="shape"/>
        </filter>
        <filter id="filter1_d" x="277.383" y="0" width="72.6306" height="73.8636" filterUnits="userSpaceOnUse"
                color-interpolation-filters="sRGB">
            <feFlood flood-opacity="0" result="BackgroundImageFix"/>
            <feColorMatrix in="SourceAlpha" type="matrix" values="0 0 0 0 0 0 0 0 0 0 0 0 0 0 0 0 0 0 127 0"/>
            <feOffset dx="2" dy="2"/>
            <feGaussianBlur stdDeviation="2"/>
            <feColorMatrix type="matrix" values="0 0 0 0 0 0 0 0 0 0 0 0 0 0 0 0 0 0 0.25 0"/>
            <feBlend mode="normal" in2="BackgroundImageFix" result="effect1_dropShadow"/>
            <feBlend mode="normal" in="SourceGraphic" in2="effect1_dropShadow" result="shape"/>
        </filter>
    </defs>
</svg>
