<svg width="326" height="41" viewBox="0 0 326 41" fill="none" xmlns="http://www.w3.org/2000/svg">
    <rect opacity="0.25" width="326" height="41" rx="18" fill="white"/>
    <rect width="163" height="41" rx="18" fill="white"/>
    <path d="M49.6494 26.7539C48.9902 27.5433 48.0584 28.1577 46.854 28.5972C45.6496 29.0285 44.3149 29.2441 42.8501 29.2441C41.312 29.2441 39.9611 28.9105 38.7974 28.2432C37.6418 27.5677 36.7466 26.5911 36.1118 25.3135C35.4852 24.0358 35.1637 22.5343 35.1475 20.8091V19.6006C35.1475 17.8265 35.4445 16.2925 36.0386 14.9985C36.6408 13.6965 37.5034 12.7036 38.6265 12.02C39.7576 11.3283 41.0801 10.9824 42.5938 10.9824C44.7015 10.9824 46.3494 11.487 47.5376 12.4961C48.7257 13.4971 49.4297 14.9578 49.6494 16.8784H46.085C45.9222 15.8612 45.5601 15.1165 44.9985 14.6445C44.4451 14.1725 43.6802 13.9365 42.7036 13.9365C41.4585 13.9365 40.5104 14.4045 39.8594 15.3403C39.2083 16.2762 38.8787 17.6678 38.8706 19.5151V20.6504C38.8706 22.514 39.2246 23.9219 39.9326 24.874C40.6406 25.8262 41.6782 26.3022 43.0454 26.3022C44.4207 26.3022 45.4014 26.0093 45.9873 25.4233V22.3594H42.6548V19.6616H49.6494V26.7539ZM61.6611 23.0796H55.7896V26.168H62.6987V29H52.2495V14.7788H62.7109V17.6353H55.7896V20.2354H61.6611V23.0796ZM76.9932 29H73.4653L67.8501 20.1377V29H64.3101V14.7788H67.8501L73.4653 23.6533V14.7788H76.9932V29ZM88.834 23.0796H82.9624V26.168H89.8716V29H79.4224V14.7788H89.8838V17.6353H82.9624V20.2354H88.834V23.0796ZM97.2324 24.0928H95.0229V29H91.4829V14.7788H97.4155C99.2222 14.7788 100.63 15.1532 101.639 15.9019C102.648 16.6424 103.153 17.6922 103.153 19.0513C103.153 20.0604 102.941 20.8945 102.518 21.5537C102.103 22.2048 101.424 22.7378 100.479 23.1528L103.702 28.8535V29H99.8936L97.2324 24.0928ZM95.0229 21.2485H97.4155C98.8885 21.2485 99.625 20.6423 99.625 19.4297C99.625 18.2334 98.856 17.6353 97.3179 17.6353H95.0229V21.2485ZM114.249 26.29H108.744L107.743 29H104.203L109.83 14.7788H113.15L118.827 29H115.262L114.249 26.29ZM109.696 23.7021H113.272L111.478 18.8926L109.696 23.7021ZM123.563 26.168H130.045V29H120.023V14.7788H123.563V26.168Z"
          fill="#5B5D6E"/>
    <path d="M193.162 20.5161C193.162 22.1763 192.894 23.6208 192.356 24.8496C191.819 26.0703 191.075 27.0509 190.123 27.7915L193.077 30.1108L190.745 32.1738L186.961 29.1343C186.53 29.2075 186.082 29.2441 185.618 29.2441C184.145 29.2441 182.831 28.8901 181.675 28.1821C180.52 27.4741 179.625 26.465 178.99 25.1548C178.355 23.8364 178.034 22.3228 178.025 20.6138V19.7349C178.025 17.9852 178.339 16.4471 178.965 15.1206C179.6 13.786 180.491 12.7646 181.639 12.0566C182.794 11.3405 184.113 10.9824 185.594 10.9824C187.075 10.9824 188.389 11.3405 189.537 12.0566C190.692 12.7646 191.583 13.786 192.21 15.1206C192.845 16.4471 193.162 17.9811 193.162 19.7227V20.5161ZM189.451 19.7104C189.451 17.8468 189.118 16.4308 188.45 15.4624C187.783 14.494 186.831 14.0098 185.594 14.0098C184.365 14.0098 183.417 14.4899 182.75 15.4502C182.082 16.4023 181.744 17.8021 181.736 19.6494V20.5161C181.736 22.3309 182.07 23.7388 182.737 24.7397C183.405 25.7407 184.365 26.2412 185.618 26.2412C186.847 26.2412 187.791 25.7611 188.45 24.8008C189.109 23.8324 189.443 22.4245 189.451 20.5771V19.7104ZM207.347 14.7788V23.9829C207.347 25.6024 206.822 26.876 205.772 27.8037C204.722 28.7314 203.261 29.1953 201.39 29.1953C199.526 29.1953 198.061 28.7314 196.995 27.8037C195.929 26.876 195.396 25.6064 195.396 23.9951V14.7788H198.936V24.166C198.985 25.6309 199.803 26.3633 201.39 26.3633C202.179 26.3633 202.777 26.1802 203.184 25.814C203.599 25.4478 203.807 24.8455 203.807 24.0073V14.7788H207.347ZM219.139 23.0796H213.267V26.168H220.176V29H209.727V14.7788H220.188V17.6353H213.267V20.2354H219.139V23.0796ZM229.698 25.1792C229.698 24.7072 229.498 24.3288 229.1 24.0439C228.701 23.7591 228.021 23.5028 227.061 23.2749C226.101 23.047 225.291 22.807 224.632 22.5547C223.981 22.2943 223.444 21.9891 223.021 21.6392C222.597 21.2892 222.284 20.8864 222.081 20.4307C221.877 19.9668 221.775 19.4175 221.775 18.7827C221.775 17.562 222.284 16.557 223.301 15.7676C224.319 14.9782 225.629 14.5835 227.232 14.5835C228.982 14.5835 230.394 14.9823 231.468 15.7798C232.55 16.5692 233.091 17.6515 233.091 19.0269H229.563C229.563 18.506 229.352 18.0706 228.929 17.7207C228.514 17.3708 227.952 17.1958 227.244 17.1958C226.618 17.1958 226.109 17.3341 225.718 17.6108C225.328 17.8875 225.132 18.2334 225.132 18.6484C225.132 19.0635 225.336 19.4012 225.743 19.6616C226.15 19.9139 226.825 20.158 227.769 20.394C229.665 20.8091 231.02 21.3828 231.834 22.1152C232.656 22.8477 233.067 23.8364 233.067 25.0815C233.067 26.3511 232.566 27.3561 231.565 28.0967C230.564 28.8291 229.197 29.1953 227.464 29.1953C226.284 29.1953 225.218 29.0041 224.266 28.6216C223.313 28.2391 222.577 27.6938 222.056 26.9858C221.543 26.2778 221.287 25.4396 221.287 24.4712H224.827C224.827 25.228 225.059 25.7733 225.523 26.1069C225.995 26.4406 226.699 26.6074 227.635 26.6074C228.27 26.6074 228.77 26.4772 229.136 26.2168C229.511 25.9564 229.698 25.6105 229.698 25.1792ZM247.056 17.6353H242.442V29H238.902V17.6353H234.373V14.7788H247.056V17.6353ZM252.464 29H248.924V14.7788H252.464V29ZM267.967 22.1763C267.967 23.5679 267.694 24.7967 267.149 25.8628C266.604 26.9289 265.822 27.7508 264.805 28.3286C263.796 28.9064 262.649 29.1953 261.363 29.1953C260.069 29.1953 258.913 28.9105 257.896 28.3408C256.887 27.7712 256.106 26.9614 255.552 25.9116C254.999 24.8537 254.718 23.637 254.71 22.2617V21.627C254.71 20.2272 254.983 18.9943 255.528 17.9282C256.073 16.8621 256.85 16.0402 257.859 15.4624C258.868 14.8765 260.028 14.5835 261.338 14.5835C262.624 14.5835 263.768 14.8683 264.769 15.438C265.778 16.0076 266.559 16.8255 267.112 17.8916C267.674 18.9495 267.959 20.1702 267.967 21.5537V22.1763ZM264.427 21.6147C264.427 20.2638 264.154 19.2262 263.609 18.502C263.072 17.7777 262.315 17.4155 261.338 17.4155C260.329 17.4155 259.56 17.7777 259.031 18.502C258.51 19.2262 258.25 20.2638 258.25 21.6147V22.1763C258.25 23.5028 258.519 24.5363 259.056 25.2769C259.593 26.0174 260.362 26.3877 261.363 26.3877C262.307 26.3877 263.051 26.0215 263.597 25.2891C264.15 24.5566 264.427 23.5068 264.427 22.1396V21.6147ZM282.664 29H279.136L273.521 20.1377V29H269.981V14.7788H273.521L279.136 23.6533V14.7788H282.664V29ZM293.003 25.1792C293.003 24.7072 292.804 24.3288 292.405 24.0439C292.007 23.7591 291.327 23.5028 290.367 23.2749C289.406 23.047 288.597 22.807 287.938 22.5547C287.286 22.2943 286.749 21.9891 286.326 21.6392C285.903 21.2892 285.59 20.8864 285.386 20.4307C285.183 19.9668 285.081 19.4175 285.081 18.7827C285.081 17.562 285.59 16.557 286.607 15.7676C287.624 14.9782 288.934 14.5835 290.538 14.5835C292.287 14.5835 293.699 14.9823 294.773 15.7798C295.856 16.5692 296.397 17.6515 296.397 19.0269H292.869C292.869 18.506 292.658 18.0706 292.234 17.7207C291.819 17.3708 291.258 17.1958 290.55 17.1958C289.923 17.1958 289.415 17.3341 289.024 17.6108C288.633 17.8875 288.438 18.2334 288.438 18.6484C288.438 19.0635 288.641 19.4012 289.048 19.6616C289.455 19.9139 290.131 20.158 291.075 20.394C292.971 20.8091 294.326 21.3828 295.14 22.1152C295.962 22.8477 296.373 23.8364 296.373 25.0815C296.373 26.3511 295.872 27.3561 294.871 28.0967C293.87 28.8291 292.503 29.1953 290.77 29.1953C289.59 29.1953 288.523 29.0041 287.571 28.6216C286.619 28.2391 285.883 27.6938 285.362 26.9858C284.849 26.2778 284.593 25.4396 284.593 24.4712H288.133C288.133 25.228 288.365 25.7733 288.829 26.1069C289.301 26.4406 290.005 26.6074 290.94 26.6074C291.575 26.6074 292.076 26.4772 292.442 26.2168C292.816 25.9564 293.003 25.6105 293.003 25.1792Z"
          fill="white"/>
</svg>
