<svg width="326" height="41" viewBox="0 0 326 41" fill="none" xmlns="http://www.w3.org/2000/svg">
    <rect opacity="0.25" width="326" height="41" rx="18" fill="white"/>
    <rect x="162" width="163" height="41" rx="18" fill="white"/>
    <path d="M49.6494 26.7539C48.9902 27.5433 48.0584 28.1577 46.854 28.5972C45.6496 29.0285 44.3149 29.2441 42.8501 29.2441C41.312 29.2441 39.9611 28.9105 38.7974 28.2432C37.6418 27.5677 36.7466 26.5911 36.1118 25.3135C35.4852 24.0358 35.1637 22.5343 35.1475 20.8091V19.6006C35.1475 17.8265 35.4445 16.2925 36.0386 14.9985C36.6408 13.6965 37.5034 12.7036 38.6265 12.02C39.7576 11.3283 41.0801 10.9824 42.5938 10.9824C44.7015 10.9824 46.3494 11.487 47.5376 12.4961C48.7257 13.4971 49.4297 14.9578 49.6494 16.8784H46.085C45.9222 15.8612 45.5601 15.1165 44.9985 14.6445C44.4451 14.1725 43.6802 13.9365 42.7036 13.9365C41.4585 13.9365 40.5104 14.4045 39.8594 15.3403C39.2083 16.2762 38.8787 17.6678 38.8706 19.5151V20.6504C38.8706 22.514 39.2246 23.9219 39.9326 24.874C40.6406 25.8262 41.6782 26.3022 43.0454 26.3022C44.4207 26.3022 45.4014 26.0093 45.9873 25.4233V22.3594H42.6548V19.6616H49.6494V26.7539ZM61.6611 23.0796H55.7896V26.168H62.6987V29H52.2495V14.7788H62.7109V17.6353H55.7896V20.2354H61.6611V23.0796ZM76.9932 29H73.4653L67.8501 20.1377V29H64.3101V14.7788H67.8501L73.4653 23.6533V14.7788H76.9932V29ZM88.834 23.0796H82.9624V26.168H89.8716V29H79.4224V14.7788H89.8838V17.6353H82.9624V20.2354H88.834V23.0796ZM97.2324 24.0928H95.0229V29H91.4829V14.7788H97.4155C99.2222 14.7788 100.63 15.1532 101.639 15.9019C102.648 16.6424 103.153 17.6922 103.153 19.0513C103.153 20.0604 102.941 20.8945 102.518 21.5537C102.103 22.2048 101.424 22.7378 100.479 23.1528L103.702 28.8535V29H99.8936L97.2324 24.0928ZM95.0229 21.2485H97.4155C98.8885 21.2485 99.625 20.6423 99.625 19.4297C99.625 18.2334 98.856 17.6353 97.3179 17.6353H95.0229V21.2485ZM114.249 26.29H108.744L107.743 29H104.203L109.83 14.7788H113.15L118.827 29H115.262L114.249 26.29ZM109.696 23.7021H113.272L111.478 18.8926L109.696 23.7021ZM123.563 26.168H130.045V29H120.023V14.7788H123.563V26.168Z"
          fill="white"/>
    <path d="M200.162 20.5161C200.162 22.1763 199.894 23.6208 199.356 24.8496C198.819 26.0703 198.075 27.0509 197.123 27.7915L200.077 30.1108L197.745 32.1738L193.961 29.1343C193.53 29.2075 193.082 29.2441 192.618 29.2441C191.145 29.2441 189.831 28.8901 188.675 28.1821C187.52 27.4741 186.625 26.465 185.99 25.1548C185.355 23.8364 185.034 22.3228 185.025 20.6138V19.7349C185.025 17.9852 185.339 16.4471 185.965 15.1206C186.6 13.786 187.491 12.7646 188.639 12.0566C189.794 11.3405 191.113 10.9824 192.594 10.9824C194.075 10.9824 195.389 11.3405 196.537 12.0566C197.692 12.7646 198.583 13.786 199.21 15.1206C199.845 16.4471 200.162 17.9811 200.162 19.7227V20.5161ZM196.451 19.7104C196.451 17.8468 196.118 16.4308 195.45 15.4624C194.783 14.494 193.831 14.0098 192.594 14.0098C191.365 14.0098 190.417 14.4899 189.75 15.4502C189.082 16.4023 188.744 17.8021 188.736 19.6494V20.5161C188.736 22.3309 189.07 23.7388 189.737 24.7397C190.405 25.7407 191.365 26.2412 192.618 26.2412C193.847 26.2412 194.791 25.7611 195.45 24.8008C196.109 23.8324 196.443 22.4245 196.451 20.5771V19.7104ZM214.347 14.7788V23.9829C214.347 25.6024 213.822 26.876 212.772 27.8037C211.722 28.7314 210.261 29.1953 208.39 29.1953C206.526 29.1953 205.061 28.7314 203.995 27.8037C202.929 26.876 202.396 25.6064 202.396 23.9951V14.7788H205.936V24.166C205.985 25.6309 206.803 26.3633 208.39 26.3633C209.179 26.3633 209.777 26.1802 210.184 25.814C210.599 25.4478 210.807 24.8455 210.807 24.0073V14.7788H214.347ZM226.139 23.0796H220.267V26.168H227.176V29H216.727V14.7788H227.188V17.6353H220.267V20.2354H226.139V23.0796ZM236.698 25.1792C236.698 24.7072 236.498 24.3288 236.1 24.0439C235.701 23.7591 235.021 23.5028 234.061 23.2749C233.101 23.047 232.291 22.807 231.632 22.5547C230.981 22.2943 230.444 21.9891 230.021 21.6392C229.597 21.2892 229.284 20.8864 229.081 20.4307C228.877 19.9668 228.775 19.4175 228.775 18.7827C228.775 17.562 229.284 16.557 230.301 15.7676C231.319 14.9782 232.629 14.5835 234.232 14.5835C235.982 14.5835 237.394 14.9823 238.468 15.7798C239.55 16.5692 240.091 17.6515 240.091 19.0269H236.563C236.563 18.506 236.352 18.0706 235.929 17.7207C235.514 17.3708 234.952 17.1958 234.244 17.1958C233.618 17.1958 233.109 17.3341 232.718 17.6108C232.328 17.8875 232.132 18.2334 232.132 18.6484C232.132 19.0635 232.336 19.4012 232.743 19.6616C233.15 19.9139 233.825 20.158 234.769 20.394C236.665 20.8091 238.02 21.3828 238.834 22.1152C239.656 22.8477 240.067 23.8364 240.067 25.0815C240.067 26.3511 239.566 27.3561 238.565 28.0967C237.564 28.8291 236.197 29.1953 234.464 29.1953C233.284 29.1953 232.218 29.0041 231.266 28.6216C230.313 28.2391 229.577 27.6938 229.056 26.9858C228.543 26.2778 228.287 25.4396 228.287 24.4712H231.827C231.827 25.228 232.059 25.7733 232.523 26.1069C232.995 26.4406 233.699 26.6074 234.635 26.6074C235.27 26.6074 235.77 26.4772 236.136 26.2168C236.511 25.9564 236.698 25.6105 236.698 25.1792ZM254.056 17.6353H249.442V29H245.902V17.6353H241.373V14.7788H254.056V17.6353ZM259.464 29H255.924V14.7788H259.464V29ZM274.967 22.1763C274.967 23.5679 274.694 24.7967 274.149 25.8628C273.604 26.9289 272.822 27.7508 271.805 28.3286C270.796 28.9064 269.649 29.1953 268.363 29.1953C267.069 29.1953 265.913 28.9105 264.896 28.3408C263.887 27.7712 263.106 26.9614 262.552 25.9116C261.999 24.8537 261.718 23.637 261.71 22.2617V21.627C261.71 20.2272 261.983 18.9943 262.528 17.9282C263.073 16.8621 263.85 16.0402 264.859 15.4624C265.868 14.8765 267.028 14.5835 268.338 14.5835C269.624 14.5835 270.768 14.8683 271.769 15.438C272.778 16.0076 273.559 16.8255 274.112 17.8916C274.674 18.9495 274.959 20.1702 274.967 21.5537V22.1763ZM271.427 21.6147C271.427 20.2638 271.154 19.2262 270.609 18.502C270.072 17.7777 269.315 17.4155 268.338 17.4155C267.329 17.4155 266.56 17.7777 266.031 18.502C265.51 19.2262 265.25 20.2638 265.25 21.6147V22.1763C265.25 23.5028 265.519 24.5363 266.056 25.2769C266.593 26.0174 267.362 26.3877 268.363 26.3877C269.307 26.3877 270.051 26.0215 270.597 25.2891C271.15 24.5566 271.427 23.5068 271.427 22.1396V21.6147ZM289.664 29H286.136L280.521 20.1377V29H276.981V14.7788H280.521L286.136 23.6533V14.7788H289.664V29ZM300.003 25.1792C300.003 24.7072 299.804 24.3288 299.405 24.0439C299.007 23.7591 298.327 23.5028 297.367 23.2749C296.406 23.047 295.597 22.807 294.938 22.5547C294.286 22.2943 293.749 21.9891 293.326 21.6392C292.903 21.2892 292.59 20.8864 292.386 20.4307C292.183 19.9668 292.081 19.4175 292.081 18.7827C292.081 17.562 292.59 16.557 293.607 15.7676C294.624 14.9782 295.934 14.5835 297.538 14.5835C299.287 14.5835 300.699 14.9823 301.773 15.7798C302.856 16.5692 303.397 17.6515 303.397 19.0269H299.869C299.869 18.506 299.658 18.0706 299.234 17.7207C298.819 17.3708 298.258 17.1958 297.55 17.1958C296.923 17.1958 296.415 17.3341 296.024 17.6108C295.633 17.8875 295.438 18.2334 295.438 18.6484C295.438 19.0635 295.641 19.4012 296.048 19.6616C296.455 19.9139 297.131 20.158 298.075 20.394C299.971 20.8091 301.326 21.3828 302.14 22.1152C302.962 22.8477 303.373 23.8364 303.373 25.0815C303.373 26.3511 302.872 27.3561 301.871 28.0967C300.87 28.8291 299.503 29.1953 297.77 29.1953C296.59 29.1953 295.523 29.0041 294.571 28.6216C293.619 28.2391 292.883 27.6938 292.362 26.9858C291.849 26.2778 291.593 25.4396 291.593 24.4712H295.133C295.133 25.228 295.365 25.7733 295.829 26.1069C296.301 26.4406 297.005 26.6074 297.94 26.6074C298.575 26.6074 299.076 26.4772 299.442 26.2168C299.816 25.9564 300.003 25.6105 300.003 25.1792Z"
          fill="#5B5D6E"/>
</svg>
