<?xml version="1.0" encoding="UTF-8" standalone="no"?>
<!-- Generator: Adobe Illustrator 16.0.0, SVG Export Plug-In . SVG Version: 6.00 Build 0)  -->

<svg
   xmlns:dc="http://purl.org/dc/elements/1.1/"
   xmlns:cc="http://creativecommons.org/ns#"
   xmlns:rdf="http://www.w3.org/1999/02/22-rdf-syntax-ns#"
   xmlns:svg="http://www.w3.org/2000/svg"
   xmlns="http://www.w3.org/2000/svg"
   xmlns:sodipodi="http://sodipodi.sourceforge.net/DTD/sodipodi-0.dtd"
   xmlns:inkscape="http://www.inkscape.org/namespaces/inkscape"
   version="1.1"
   id="Capa_1"
   x="0px"
   y="0px"
   width="348.333px"
   height="348.334px"
   viewBox="0 0 348.333 348.334"
   style="enable-background:new 0 0 348.333 348.334;"
   xml:space="preserve"
   sodipodi:docname="testmodus-close-X-icon.svg"
   inkscape:version="0.92.3 (2405546, 2018-03-11)"><metadata
   id="metadata41"><rdf:RDF><cc:Work
       rdf:about=""><dc:format>image/svg+xml</dc:format><dc:type
         rdf:resource="http://purl.org/dc/dcmitype/StillImage" /></cc:Work></rdf:RDF></metadata><defs
   id="defs39" /><sodipodi:namedview
   pagecolor="#ffffff"
   bordercolor="#666666"
   borderopacity="1"
   objecttolerance="10"
   gridtolerance="10"
   guidetolerance="10"
   inkscape:pageopacity="0"
   inkscape:pageshadow="2"
   inkscape:window-width="1920"
   inkscape:window-height="1017"
   id="namedview37"
   showgrid="false"
   inkscape:zoom="0.67751064"
   inkscape:cx="-9.5944489"
   inkscape:cy="174.16701"
   inkscape:window-x="1358"
   inkscape:window-y="-8"
   inkscape:window-maximized="1"
   inkscape:current-layer="Capa_1" />
<g
   id="g4"
   style="fill:#ffffff">
	<path
   d="M336.559,68.611L231.016,174.165l105.543,105.549c15.699,15.705,15.699,41.145,0,56.85   c-7.844,7.844-18.128,11.769-28.407,11.769c-10.296,0-20.581-3.919-28.419-11.769L174.167,231.003L68.609,336.563   c-7.843,7.844-18.128,11.769-28.416,11.769c-10.285,0-20.563-3.919-28.413-11.769c-15.699-15.698-15.699-41.139,0-56.85   l105.54-105.549L11.774,68.611c-15.699-15.699-15.699-41.145,0-56.844c15.696-15.687,41.127-15.687,56.829,0l105.563,105.554   L279.721,11.767c15.705-15.687,41.139-15.687,56.832,0C352.258,27.466,352.258,52.912,336.559,68.611z"
   id="path2"
   style="fill:#ffffff" />
</g>
<g
   id="g6">
</g>
<g
   id="g8">
</g>
<g
   id="g10">
</g>
<g
   id="g12">
</g>
<g
   id="g14">
</g>
<g
   id="g16">
</g>
<g
   id="g18">
</g>
<g
   id="g20">
</g>
<g
   id="g22">
</g>
<g
   id="g24">
</g>
<g
   id="g26">
</g>
<g
   id="g28">
</g>
<g
   id="g30">
</g>
<g
   id="g32">
</g>
<g
   id="g34">
</g>
</svg>