<?xml version="1.0" encoding="iso-8859-1"?>
<!-- Generator: Adobe Illustrator 16.0.0, SVG Export Plug-In . SVG Version: 6.00 Build 0)  -->
<!DOCTYPE svg PUBLIC "-//W3C//DTD SVG 1.1//EN" "http://www.w3.org/Graphics/SVG/1.1/DTD/svg11.dtd">
<svg version="1.1" id="Capa_1" xmlns="http://www.w3.org/2000/svg" xmlns:xlink="http://www.w3.org/1999/xlink" x="0px" y="0px"
	 width="986px" height="986px" viewBox="0 0 986 986" style="enable-background:new 0 0 986 986;" xml:space="preserve">
<g>
	<path d="M907.8,169.7C883.4,145.3,854.9,126,823.3,112.6c-32.899-14-67.8-21.1-103.6-21.1H75c-41.4,0-75,33.6-75,75
		c0,41.4,33.6,75,75,75h644.7c30.899,0,60,12.2,82.1,34.2c22.101,22.1,34.2,51.2,34.2,82.1v97c0,30.9-12.2,60-34.2,82.101
		c-22.1,22.1-51.2,34.2-82.1,34.2h-284L479.8,527c29.3-29.3,29.3-76.8,0-106.1s-76.8-29.3-106.1,0L201,593.7
		c-29.3,29.3-29.3,76.8,0,106.1l172.7,172.7c14.6,14.601,33.8,22,53,22s38.399-7.3,53-22c29.3-29.3,29.3-76.8,0-106.1l-45.2-45.2
		h285.2c35.8,0,70.7-7.1,103.6-21.1C855,686.7,883.4,667.4,907.8,643c24.4-24.399,43.7-52.899,57.101-84.5
		c14-32.899,21.1-67.8,21.1-103.6v-97c0-35.8-7.1-70.7-21.1-103.6C951.5,222.6,932.3,194.2,907.8,169.7z"/>
</g>
<g>
</g>
<g>
</g>
<g>
</g>
<g>
</g>
<g>
</g>
<g>
</g>
<g>
</g>
<g>
</g>
<g>
</g>
<g>
</g>
<g>
</g>
<g>
</g>
<g>
</g>
<g>
</g>
<g>
</g>
</svg>
