<?xml version="1.0" encoding="iso-8859-1"?>
<!-- Generator: Adobe Illustrator 16.0.0, SVG Export Plug-In . SVG Version: 6.00 Build 0)  -->
<!DOCTYPE svg PUBLIC "-//W3C//DTD SVG 1.1//EN" "http://www.w3.org/Graphics/SVG/1.1/DTD/svg11.dtd">
<svg version="1.1" id="Capa_1" xmlns="http://www.w3.org/2000/svg" xmlns:xlink="http://www.w3.org/1999/xlink" x="0px" y="0px"
	 width="296.033px" height="296.033px" viewBox="0 0 296.033 296.033" style="enable-background:new 0 0 296.033 296.033;"
	 xml:space="preserve">
<g>
	<path d="M166.597,125.308L39.605,52.481C17.741,39.934,0,50.21,0,75.434V220.62c0,25.207,17.741,35.47,39.605,22.938
		l126.999-72.814C188.461,158.2,188.461,137.853,166.597,125.308z"/>
	<path d="M152.619,243.559l127.003-72.814c21.881-12.544,21.881-32.891,0-45.428L152.619,52.489
		c-21.41-12.279-38.788-2.673-39.529,21.388l71.901,41.234c14.183,8.123,22.322,20.135,22.322,32.915
		c0,12.803-8.14,24.793-22.322,32.929l-71.901,41.212C113.831,246.212,131.217,255.83,152.619,243.559z"/>
</g>
<g>
</g>
<g>
</g>
<g>
</g>
<g>
</g>
<g>
</g>
<g>
</g>
<g>
</g>
<g>
</g>
<g>
</g>
<g>
</g>
<g>
</g>
<g>
</g>
<g>
</g>
<g>
</g>
<g>
</g>
</svg>
