<?xml version="1.0" encoding="UTF-8" standalone="no"?>
<!-- Generator: Adobe Illustrator 18.1.1, SVG Export Plug-In . SVG Version: 6.00 Build 0)  -->

<svg
   xmlns:dc="http://purl.org/dc/elements/1.1/"
   xmlns:cc="http://creativecommons.org/ns#"
   xmlns:rdf="http://www.w3.org/1999/02/22-rdf-syntax-ns#"
   xmlns:svg="http://www.w3.org/2000/svg"
   xmlns="http://www.w3.org/2000/svg"
   xmlns:sodipodi="http://sodipodi.sourceforge.net/DTD/sodipodi-0.dtd"
   xmlns:inkscape="http://www.inkscape.org/namespaces/inkscape"
   version="1.1"
   id="Capa_1"
   x="0px"
   y="0px"
   viewBox="0 0 14.155 14.155"
   style="enable-background:new 0 0 14.155 14.155;"
   xml:space="preserve"
   sodipodi:docname="update-arrow.svg"
   inkscape:version="0.92.3 (2405546, 2018-03-11)"><metadata
   id="metadata41"><rdf:RDF><cc:Work
       rdf:about=""><dc:format>image/svg+xml</dc:format><dc:type
         rdf:resource="http://purl.org/dc/dcmitype/StillImage" /></cc:Work></rdf:RDF></metadata><defs
   id="defs39" /><sodipodi:namedview
   pagecolor="#ffffff"
   bordercolor="#666666"
   borderopacity="1"
   objecttolerance="10"
   gridtolerance="10"
   guidetolerance="10"
   inkscape:pageopacity="0"
   inkscape:pageshadow="2"
   inkscape:window-width="1920"
   inkscape:window-height="1017"
   id="namedview37"
   showgrid="false"
   inkscape:zoom="16.672554"
   inkscape:cx="-0.38986228"
   inkscape:cy="7.0774999"
   inkscape:window-x="1358"
   inkscape:window-y="-8"
   inkscape:window-maximized="1"
   inkscape:current-layer="Capa_1" />
<g
   id="g4"
   style="fill:#ffffff">
	<path
   style="fill:#ffffff"
   d="M12.083,1.887c-0.795-0.794-1.73-1.359-2.727-1.697v2.135c0.48,0.239,0.935,0.55,1.334,0.95   c1.993,1.994,1.993,5.236,0,7.229c-1.993,1.99-5.233,1.99-7.229,0c-1.991-1.995-1.991-5.235,0-7.229   C3.466,3.269,3.482,3.259,3.489,3.25h0.002l1.181,1.179L4.665,0.685L0.923,0.68l1.176,1.176C2.092,1.868,2.081,1.88,2.072,1.887   c-2.763,2.762-2.763,7.243,0,10.005c2.767,2.765,7.245,2.765,10.011,0C14.844,9.13,14.847,4.649,12.083,1.887z"
   id="path2" />
</g>
    <g
   id="g6">
</g>
    <g
   id="g8">
</g>
    <g
   id="g10">
</g>
    <g
   id="g12">
</g>
    <g
   id="g14">
</g>
    <g
   id="g16">
</g>
    <g
   id="g18">
</g>
    <g
   id="g20">
</g>
    <g
   id="g22">
</g>
    <g
   id="g24">
</g>
    <g
   id="g26">
</g>
    <g
   id="g28">
</g>
    <g
   id="g30">
</g>
    <g
   id="g32">
</g>
    <g
   id="g34">
</g>
</svg>