<?xml version="1.0" encoding="iso-8859-1"?>
<!-- Generator: Adobe Illustrator 19.0.0, SVG Export Plug-In . SVG Version: 6.00 Build 0)  -->
<svg version="1.1" id="Layer_1" xmlns="http://www.w3.org/2000/svg" xmlns:xlink="http://www.w3.org/1999/xlink" x="0px"
	 y="0px"
	 viewBox="0 0 508 508" style="enable-background:new 0 0 508 508;" xml:space="preserve">
<circle style="fill:#FFD05B;" cx="254" cy="254" r="254"/>
	<path style="fill:#FFFFFF;" d="M220.4,219.6c0-3.6,1.2-6.8,1.6-10.4c0.8-4.4,0.8-9.2,0.8-13.6c0-1.2,0.8-1.6,1.6-2
	c-1.6-30-20.4-53.6-44-53.6c-24.4,0-44,25.6-44,57.2s19.6,57.2,44,57.2c18,0,33.2-14,40.4-34C220.4,220.4,220.4,220,220.4,219.6z"/>
	<path style="fill:#324A5E;" d="M207.6,129.6c-0.4-6-5.6-10.8-11.6-12.4c-5.6-1.6-12-1.2-18,0c-2.8,0.4-5.6,0.8-8.4,2
	c-6.8,2.4-12,8-18,12.4s-13.6,8-20.4,5.6c3.6,4,9.2,6,14.4,5.6c-32.8,9.6-12.8,65.2-4.4,81.2c-0.8-4.4-1.6-9.2-2-13.6
	c-0.8-13.2-0.4-55.2,40-56c45.6-0.8,42.4,56,40.8,67.6C220,221.6,245.2,138,207.6,129.6z"/>
	<g>
	<polygon style="fill:#FF7058;" points="159.2,270.8 177.6,289.2 196.4,270.8 	"/>
		<polygon style="fill:#FF7058;" points="196.4,350.8 177.6,278.8 159.2,350.8 	"/>
</g>
	<path style="fill:#324A5E;" d="M218.4,263.6L218.4,263.6c0.4,0.8,0.4,1.6,0,2c0,0.4,0,1.2,0,1.6c0.4,16.8-5.2,28.8-14.8,42
	c-3.6,4.8-10.4,11.6-12.4,17.2c-2.4,7.2-2.4,11.2-8.8,16.8c-1.6,1.2-3.2,2-4.8,2.4l0,0c-1.6-0.4-3.2-1.2-4.8-2.4
	c-6.4-5.2-6.8-9.6-8.8-16.8c-1.6-5.6-8.8-12.4-12.4-17.2c-9.6-13.2-15.2-25.2-14.8-42c0-0.4,0-1.2,0-1.6c-0.4-0.4-0.4-1.2,0-2v-0.4
	c-32.8,17.6-55.6,57.2-55.6,103.6c0,6,0.4,12,1.2,18c24.8,15.6,57.2,24.8,92.8,24.8c0.8,0,1.6,0,2.4,0l0,0c0.8,0,1.6,0,2.4,0
	c35.6,0,68-9.6,92.8-24.8c0.8-6,1.2-12,1.2-18C274,321.2,251.2,281.2,218.4,263.6z"/>
	<g>
	<path style="fill:#E6E9EE;" d="M177.6,346c0,0,23.6-5.6,47.2-50.8l-6.8-6.8l6.4-3.2c-0.4-11.2-6-21.6-6-21.6
		C218.8,275.6,194.8,317.6,177.6,346z"/>
		<path style="fill:#E6E9EE;" d="M177.6,346c0,0-23.6-5.6-47.2-50.8l6.8-6.8l-6.4-3.2c0.4-11.2,6-21.6,6-21.6
		C136.4,275.6,160.8,317.6,177.6,346z"/>
</g>
	<g>
	<path style="fill:#FFFFFF;" d="M421.6,192.4l-12-2.4c-2-9.2-5.6-17.6-10.4-25.2l6.8-10.4c1.6-2.4,1.2-5.6-0.8-7.6l-7.6-7.6
		c-2-2-5.2-2.4-7.6-0.8l-10.4,6.8c-7.6-4.8-16-8.4-25.2-10.4l-2.4-12c-0.4-2.8-3.2-4.8-6-4.8h-10.8c-2.8,0-5.6,2-6,4.8l-2.4,12
		c-9.2,2-17.6,5.6-25.2,10.4l-10.4-6.8c-2.4-1.6-5.6-1.2-7.6,0.8l-7.6,7.6c-2,2-2.4,5.2-0.8,7.6l6.8,10.4c-4.8,7.6-8.4,16-10.4,25.2
		l-12,2.4c-2.8,0.4-4.8,3.2-4.8,6v10.8c0,2.8,2,5.6,4.8,6l12,2.4c2,9.2,5.6,17.6,10.4,25.2l-6.8,10.4c-1.6,2.4-1.2,5.6,0.8,7.6
		l7.6,7.6c2,2,5.2,2.4,7.6,0.8L302,262c7.6,4.8,16,8.4,25.2,10.4l2.4,12c0.4,2.8,3.2,4.8,6,4.8h10.8c2.8,0,5.6-2,6-4.8l2.4-12
		c9.2-2,17.6-5.6,25.2-10.4l10.4,6.8c2.4,1.6,5.6,1.2,7.6-0.8l7.6-7.6c2-2,2.4-5.2,0.8-7.6l-6.8-10.4c4.8-7.6,8.4-16,10.4-25.2
		l12-2.4c2.8-0.4,4.8-3.2,4.8-6V198C426.8,195.2,424.8,192.8,421.6,192.4z M340.8,246c-23.6,0-42.4-18.8-42.4-42.4
		s18.8-42.4,42.4-42.4s42.4,18.8,42.4,42.4S364.4,246,340.8,246z"/>
		<circle style="fill:#FFFFFF;" cx="340.8" cy="203.6" r="22"/>
</g>
	<g>
</g>
	<g>
</g>
	<g>
</g>
	<g>
</g>
	<g>
</g>
	<g>
</g>
	<g>
</g>
	<g>
</g>
	<g>
</g>
	<g>
</g>
	<g>
</g>
	<g>
</g>
	<g>
</g>
	<g>
</g>
	<g>
</g>
</svg>
