<?xml version="1.0" encoding="iso-8859-1"?>
<!-- Generator: Adobe Illustrator 19.0.0, SVG Export Plug-In . SVG Version: 6.00 Build 0)  -->
<svg version="1.1" id="Capa_1" xmlns="http://www.w3.org/2000/svg" xmlns:xlink="http://www.w3.org/1999/xlink" x="0px"
     y="0px"
     viewBox="0 0 496.485 496.485" style="enable-background:new 0 0 496.485 496.485;" xml:space="preserve">
<circle style="fill:#FDBF5E;" cx="248.242" cy="248.242" r="248.242"/>
    <path style="fill:#E1E6E9;"
          d="M176.097,96.194H34.909v252.897h176.097V130.327C211.006,110.933,195.491,96.194,176.097,96.194z"/>
    <path style="fill:#193651;" d="M218.764,356.849H27.152V88.436h149.721c23.273,0,41.891,18.618,41.891,41.891V356.849
	L218.764,356.849z M42.667,341.333h160.582V130.327c0-14.739-11.636-26.376-26.376-26.376H42.667V341.333z"/>
    <path style="fill:#FFFFFF;" d="M62.061,321.164V123.345h114.036c3.879,0,6.982,3.103,6.982,6.982v190.836H62.061z"/>
    <path style="fill:#E1E6E9;"
          d="M245.139,96.194h141.964v252.897H211.006V130.327C211.006,110.933,226.521,96.194,245.139,96.194z"/>
    <path style="fill:#193651;" d="M394.861,356.849H203.248V130.327c0-23.273,18.618-41.891,41.891-41.891h149.721V356.849z
	 M218.764,341.333h160.582V103.952H245.139c-14.739,0-26.376,11.636-26.376,26.376V341.333L218.764,341.333z"/>
    <g>
	<path style="fill:#FFFFFF;" d="M238.158,321.164V130.327c0-3.879,3.103-6.982,6.982-6.982h114.036v197.818H238.158z"/>
        <rect x="100.422" y="34.855" style="fill:#FFFFFF;" width="44.994" height="39.564"/>
</g>
    <path style="fill:#193651;" d="M145.842,82.23h-44.994c-4.655,0-7.758-3.103-7.758-7.758V34.909c0-2.327,0.776-3.879,2.327-5.43
	s3.103-2.327,5.43-2.327l0,0h44.994c4.655,0,7.758,3.103,7.758,7.758v39.564C153.6,78.352,149.721,82.23,145.842,82.23z
	 M107.83,66.715h29.479V42.667H107.83C107.83,42.667,107.83,66.715,107.83,66.715z"/>
    <polygon style="fill:#FDBF5E;" points="155.927,411.927 89.212,411.927 122.57,461.576 "/>
    <path style="fill:#193651;" d="M122.57,469.333L122.57,469.333c-2.327,0-4.655-1.552-6.206-3.103l-33.358-49.648
	c-1.552-2.327-1.552-5.43-0.776-7.758c1.552-2.327,3.879-3.879,6.982-3.879h66.715c3.103,0,5.43,1.552,6.982,3.879
	c1.552,2.327,1.552,5.43-0.776,7.758l-33.358,49.648C128,468.558,125.673,469.333,122.57,469.333z M103.952,419.685l18.618,27.927
	l18.618-27.927H103.952z"/>
    <rect x="89.212" y="74.473" style="fill:#FFFFFF;" width="66.715" height="338.23"/>
    <path style="fill:#193651;" d="M155.927,419.685H89.212c-4.655,0-7.758-3.103-7.758-7.758V74.473c0-4.655,3.103-7.758,7.758-7.758
	h66.715c4.655,0,7.758,3.103,7.758,7.758v338.23C163.685,416.582,160.582,419.685,155.927,419.685z M96.97,404.17h51.2V82.23h-51.2
	V404.17z"/>
    <rect x="110.158" y="94.642" style="fill:#4FBF9F;" width="24.824" height="296.339"/>
    <path style="fill:#2EA2DB;" d="M461.576,461.576H315.733c-14.739,0-27.152-12.412-27.152-27.152l0,0
	c0-14.739,12.412-27.152,27.152-27.152h146.618v54.303H461.576z"/>
    <path style="fill:#193651;" d="M315.733,399.515c-19.394,0-34.909,15.515-34.909,34.909s15.515,34.909,34.909,34.909h154.376
	v-69.818H315.733z M453.818,453.818H315.733c-10.861,0-19.394-8.533-19.394-19.394s8.533-19.394,19.394-19.394h138.861v38.788
	H453.818z"/>
    <rect x="321.939" y="231.952" style="fill:#FFFFFF;" width="139.636" height="176.097"/>
    <path style="fill:#193651;" d="M469.333,415.03H314.182V224.194h155.152V415.03z M329.697,399.515h124.121V239.709H329.697V399.515z
	"/>
    <path style="fill:#F16051;" d="M315.733,231.952c-14.739,0-27.152,12.412-27.152,27.152v148.945v26.376
	c0-14.739,12.412-27.152,27.152-27.152h6.982V231.952H315.733z"/>
    <path style="fill:#193651;" d="M296.339,434.424h-15.515V259.103c0-19.394,15.515-34.909,34.909-34.909h14.739v191.612h-14.739
	C304.873,415.03,296.339,423.564,296.339,434.424z M314.182,239.709c-10.085,0.776-18.618,9.309-18.618,19.394v146.618
	c5.43-3.879,11.636-5.43,18.618-6.206V239.709z"/>
    <rect x="352.194" y="262.206" style="fill:#FDBF5E;" width="79.903" height="48.097"/>
    <g>
	<rect x="368.485" y="278.497" style="fill:#193651;" width="48.097" height="15.515"/>
        <rect x="259.103" y="145.067" style="fill:#193651;" width="79.903" height="15.515"/>
        <rect x="291.685" y="176.097" style="fill:#193651;" width="13.964" height="15.515"/>
        <rect x="325.042" y="176.097" style="fill:#193651;" width="13.964" height="15.515"/>
        <rect x="259.103" y="176.097" style="fill:#193651;" width="13.964" height="15.515"/>
</g>
    <g>
</g>
    <g>
</g>
    <g>
</g>
    <g>
</g>
    <g>
</g>
    <g>
</g>
    <g>
</g>
    <g>
</g>
    <g>
</g>
    <g>
</g>
    <g>
</g>
    <g>
</g>
    <g>
</g>
    <g>
</g>
    <g>
</g>
</svg>
