<svg width="107" height="107" viewBox="0 0 107 107" fill="none" xmlns="http://www.w3.org/2000/svg">
    <path d="M91.3304 15.6696C81.2253 5.56505 67.7904 0 53.5 0C39.2096 0 25.7747 5.56505 15.6696 15.6696C5.56505 25.7747 0 39.2096 0 53.5C0 67.7904 5.56505 81.2253 15.6696 91.3304C25.7747 101.435 39.2096 107 53.5 107C67.7904 107 81.2253 101.435 91.3304 91.3304C101.435 81.2253 107 67.7904 107 53.5C107 39.2096 101.435 25.7747 91.3304 15.6696ZM53.5 100.73C27.457 100.73 6.26953 79.543 6.26953 53.5C6.26953 27.457 27.457 6.26953 53.5 6.26953C79.543 6.26953 100.73 27.457 100.73 53.5C100.73 79.543 79.543 100.73 53.5 100.73Z"
          fill="#676767"/>
    <path d="M53.5 56.6348C51.7688 56.6348 50.3652 58.0383 50.3652 59.7695V66.0391C50.3652 67.7703 51.7688 69.1738 53.5 69.1738C55.2312 69.1738 56.6348 67.7703 56.6348 66.0391V59.7695C56.6348 58.0383 55.2312 56.6348 53.5 56.6348Z"
          fill="#676767"/>
    <path d="M74.3984 44.0957H73.3535V40.9609C73.3535 30.0137 64.4472 21.1074 53.5 21.1074C42.5528 21.1074 33.6465 30.0137 33.6465 40.9609V44.0957H32.6016C30.8703 44.0957 29.4668 45.4992 29.4668 47.2305V78.5781C29.4668 80.3094 30.8703 81.7129 32.6016 81.7129H74.3984C76.1297 81.7129 77.5332 80.3094 77.5332 78.5781V47.2305C77.5332 45.4992 76.1297 44.0957 74.3984 44.0957ZM39.916 40.9609C39.916 33.4707 46.0098 27.377 53.5 27.377C60.9902 27.377 67.084 33.4707 67.084 40.9609V44.0957H39.916V40.9609ZM71.2637 75.4434H35.7363V50.3652H71.2637V75.4434Z"
          fill="#676767"/>
</svg>
