<?xml version="1.0" encoding="UTF-8" standalone="no"?>
<!-- Created with Inkscape (http://www.inkscape.org/) -->

<svg
   xmlns:dc="http://purl.org/dc/elements/1.1/"
   xmlns:cc="http://creativecommons.org/ns#"
   xmlns:rdf="http://www.w3.org/1999/02/22-rdf-syntax-ns#"
   xmlns:svg="http://www.w3.org/2000/svg"
   xmlns="http://www.w3.org/2000/svg"
   xmlns:sodipodi="http://sodipodi.sourceforge.net/DTD/sodipodi-0.dtd"
   xmlns:inkscape="http://www.inkscape.org/namespaces/inkscape"
   width="50.211567mm"
   height="42.801361mm"
   viewBox="0 0 50.211567 42.801361"
   version="1.1"
   id="svg1049"
   sodipodi:docname="logo-simple-ring.svg"
   inkscape:version="0.92.3 (2405546, 2018-03-11)">
  <defs
     id="defs1043" />
  <sodipodi:namedview
     id="base"
     pagecolor="#ffffff"
     bordercolor="#666666"
     borderopacity="1.0"
     inkscape:pageopacity="0.0"
     inkscape:pageshadow="2"
     inkscape:zoom="0.98994949"
     inkscape:cx="-14.974351"
     inkscape:cy="-18.794053"
     inkscape:document-units="mm"
     inkscape:current-layer="layer1"
     showgrid="false"
     inkscape:window-width="1920"
     inkscape:window-height="1017"
     inkscape:window-x="1358"
     inkscape:window-y="-8"
     inkscape:window-maximized="1"
     fit-margin-top="0"
     fit-margin-left="0"
     fit-margin-right="0"
     fit-margin-bottom="0" />
  <metadata
     id="metadata1046">
    <rdf:RDF>
      <cc:Work
         rdf:about="">
        <dc:format>image/svg+xml</dc:format>
        <dc:type
           rdf:resource="http://purl.org/dc/dcmitype/StillImage" />
        <dc:title></dc:title>
      </cc:Work>
    </rdf:RDF>
  </metadata>
  <g
     inkscape:label="Ebene 1"
     inkscape:groupmode="layer"
     id="layer1"
     transform="translate(-83.940184,-115.77214)">
    <path
       style="fill:#c90b2d;fill-opacity:1;stroke:none;stroke-width:1.20000005;stroke-miterlimit:4;stroke-dasharray:none;stroke-opacity:1"
       d="m 116.88942,150.05185 -10.94278,-0.71428 c -1.10566,-0.0721 -1.93407,-1.02716 -1.85803,-2.13255 l 2.03417,-29.57001 c 0.076,-1.10539 1.02715,-1.93407 2.13254,-1.85803 l 14.10951,0.97062 c 1.10539,0.076 1.93407,1.02715 1.85801,2.13254 l -1.91215,27.79656 c -1.83807,1.21294 -3.74352,2.32369 -5.42127,3.37515 z"
       id="rect815-8-2-9-6-25"
       inkscape:connector-curvature="0"
       sodipodi:nodetypes="csssssscc" />
    <path
       style="fill:#003473;fill-opacity:1;stroke:#000000;stroke-width:0.01;stroke-linecap:butt;stroke-linejoin:miter;stroke-miterlimit:4;stroke-dasharray:none;stroke-opacity:1"
       d="m 121.32695,147.33338 -6.01506,-27.80176 c -0.23602,-1.08257 -1.29755,-1.7641 -2.38012,-1.52808 l -13.818291,3.01253 c -1.08257,0.23602 -1.76409,1.29755 -1.52808,2.38012 l 6.313521,28.95967 c 0.23602,1.08255 1.29757,1.76417 2.38012,1.52808 l 4.91752,-1.07246 z"
       id="path979-7-4-94"
       inkscape:connector-curvature="0"
       sodipodi:nodetypes="csssssscc" />
    <path
       style="fill:#ffb400;fill-opacity:1;stroke:none;stroke-width:1.20000005;stroke-miterlimit:4;stroke-dasharray:none;stroke-opacity:1"
       d="m 107.70727,122.24384 c -0.50232,-0.98759 -1.70178,-1.37826 -2.68938,-0.87594 l -12.60594,6.41176 c -0.98759,0.50232 -1.37827,1.70179 -0.87594,2.68938 l 12.57425,24.72123 c 3.52181,-1.2952 7.04376,-2.59002 10.56566,-3.88496 l 5.99172,-3.51403 z"
       id="rect815-8-9-8-7"
       inkscape:connector-curvature="0"
       sodipodi:nodetypes="sssscccs" />
    <path
       style="fill:#1b8f43;fill-opacity:1;stroke:none;stroke-width:0.1;stroke-linecap:butt;stroke-linejoin:miter;stroke-miterlimit:4;stroke-dasharray:none;stroke-opacity:1"
       d="m 111.26039,152.96129 c -2.922,0.88131 -4.55919,1.4082 -8.66678,2.6336 l -12.7017,-15.02898 -1.99368,-2.29322 c -0.72696,-0.83618 -0.63903,-2.09459 0.19715,-2.82155 l 10.673249,-9.27913 c 0.83618,-0.72695 2.109331,-0.65161 2.821551,0.19715 l 18.54957,21.78968 z"
       id="path975-5-5-0"
       inkscape:connector-curvature="0"
       sodipodi:nodetypes="cccsssscc" />
    <path
       style="color:#000000;font-style:normal;font-variant:normal;font-weight:normal;font-stretch:normal;font-size:medium;line-height:normal;font-family:sans-serif;font-variant-ligatures:normal;font-variant-position:normal;font-variant-caps:normal;font-variant-numeric:normal;font-variant-alternates:normal;font-feature-settings:normal;text-indent:0;text-align:start;text-decoration:none;text-decoration-line:none;text-decoration-style:solid;text-decoration-color:#000000;letter-spacing:normal;word-spacing:normal;text-transform:none;writing-mode:lr-tb;direction:ltr;text-orientation:mixed;dominant-baseline:auto;baseline-shift:baseline;text-anchor:start;white-space:normal;shape-padding:0;clip-rule:nonzero;display:inline;overflow:visible;visibility:visible;opacity:1;isolation:auto;mix-blend-mode:normal;color-interpolation:sRGB;color-interpolation-filters:linearRGB;solid-color:#000000;solid-opacity:1;vector-effect:none;fill:#003473;fill-opacity:1;fill-rule:nonzero;stroke:none;stroke-width:1.11433589;stroke-linecap:butt;stroke-linejoin:miter;stroke-miterlimit:4;stroke-dasharray:none;stroke-dashoffset:0;stroke-opacity:1;color-rendering:auto;image-rendering:auto;shape-rendering:auto;text-rendering:auto;enable-background:accumulate"
       d="m 89.54033,140.30478 c -0.74124,0.82087 -1.63151,1.63267 -2.26819,2.50786 -1.0603,1.45753 -1.67158,2.6805 -2.29889,4.02866 -0.56892,1.48998 -0.46756,1.52051 -0.94323,3.1984 0.006,1.47819 -0.36349,1.85723 0.35403,3.78483 0.72805,1.18306 0.99141,1.47398 1.72322,2.0552 1.05055,0.83439 2.3849,1.68674 4.22237,2.0726 3.50206,0.63657 3.45266,0.56758 6.117899,0.62117 5.297411,-0.19045 12.480811,-2.25646 19.002821,-5.43236 6.52203,-3.17589 11.66921,-7.98186 14.90634,-11.85509 1.67239,-2.00892 2.75532,-3.68241 3.33605,-5.59485 0.58073,-1.91245 0.65068,-4.55131 -0.0235,-5.99986 -1.29148,-2.77474 -5.46693,-4.35615 -9.75243,-4.5511 l -0.0391,1.10505 c 4.07209,0.18523 8.62368,1.25485 9.75844,3.47913 0.65341,1.28079 0.0573,2.99243 -0.88603,4.71274 -0.86442,1.57642 -2.32115,3.61805 -3.92646,5.54639 -3.21061,3.85665 -8.41367,7.83287 -14.81466,10.94983 -6.401,3.11696 -12.78309,4.78214 -17.867986,4.96496 -2.542449,0.0914 -4.758249,-0.18963 -6.478739,-0.81778 -1.72051,-0.62815 -2.93251,-1.58423 -3.58593,-2.86499 -0.7007,-1.37346 -0.70977,-3.02507 -0.0604,-4.89671 0.64937,-1.87164 1.288,-2.99924 2.64726,-5.41338 z"
       id="path850-2-5-90"
       inkscape:connector-curvature="0"
       sodipodi:nodetypes="cscccscccccscccscsccsscc" />
  </g>
</svg>
